<svg width="16" height="16" viewBox="0 0 16 16" fill="none" xmlns="http://www.w3.org/2000/svg">
<path fill-rule="evenodd" clip-rule="evenodd" d="M2.06574 10.9359L8.35223 4.64937C8.54963 4.45197 8.86833 4.45191 9.0649 4.64841L11.3531 6.93581C11.5477 7.13037 11.5493 7.45136 11.3522 7.64842L5.06574 13.9358C4.86834 14.1332 4.48719 14.2926 4.2136 14.2926H2.20437C1.92474 14.2926 1.70898 14.0708 1.70898 13.7972V11.788C1.70898 11.5084 1.86871 11.1329 2.06574 10.9359ZM12.42 2.00397L13.9986 3.58205C14.3886 3.97196 14.3914 4.61107 13.9987 5.00341L13.0573 5.94381C12.8658 6.13515 12.5494 6.13272 12.3529 5.93621L10.0647 3.64881C9.87008 3.45425 9.86476 3.13704 10.0572 2.94464L10.998 2.00377C11.3963 1.60551 12.0272 1.61132 12.42 2.00397Z" fill="#333333"/>
</svg>
