<svg width="194" height="161" viewBox="0 0 194 161" fill="none" xmlns="http://www.w3.org/2000/svg">
<g clip-path="url(#clip0_625_399)">
<path d="M12.8159 151.243V128.843H28.4319V133.483H18.0959V146.603H28.7519V151.243H12.8159ZM15.3759 142.059V137.643H26.9919V142.059H15.3759ZM48.7727 151.595C47.3007 151.595 45.9887 151.222 44.8367 150.475C43.706 149.707 42.81 148.662 42.1487 147.339C41.4873 145.995 41.1567 144.47 41.1567 142.763C41.1567 141.057 41.4873 139.542 42.1487 138.219C42.81 136.875 43.7167 135.819 44.8687 135.051C46.0207 134.283 47.3433 133.899 48.8367 133.899C49.6047 133.899 50.3407 134.017 51.0447 134.251C51.7487 134.486 52.3887 134.806 52.9647 135.211C53.5407 135.617 54.01 136.086 54.3727 136.619C54.7353 137.131 54.9487 137.665 55.0127 138.219L53.7967 138.507V127.563H58.9487V151.243H54.1807L53.8927 147.371L54.9167 147.531C54.8527 148.065 54.6393 148.577 54.2767 149.067C53.9353 149.558 53.4873 149.995 52.9327 150.379C52.378 150.742 51.738 151.03 51.0127 151.243C50.3087 151.478 49.562 151.595 48.7727 151.595ZM50.0847 147.339C50.874 147.339 51.5567 147.147 52.1327 146.763C52.7087 146.379 53.146 145.846 53.4447 145.163C53.7647 144.481 53.9247 143.681 53.9247 142.763C53.9247 141.825 53.7647 141.014 53.4447 140.331C53.146 139.649 52.7087 139.115 52.1327 138.731C51.5567 138.347 50.874 138.155 50.0847 138.155C49.2953 138.155 48.6127 138.347 48.0367 138.731C47.482 139.115 47.0447 139.649 46.7247 140.331C46.4047 141.014 46.2447 141.825 46.2447 142.763C46.2447 143.681 46.4047 144.481 46.7247 145.163C47.0447 145.846 47.482 146.379 48.0367 146.763C48.6127 147.147 49.2953 147.339 50.0847 147.339ZM80.8782 151.563C79.1075 151.563 77.5288 151.179 76.1422 150.411C74.7768 149.643 73.6888 148.598 72.8782 147.275C72.0888 145.953 71.6942 144.438 71.6942 142.731C71.6942 141.025 72.0888 139.51 72.8782 138.187C73.6888 136.865 74.7768 135.819 76.1422 135.051C77.5288 134.283 79.1075 133.899 80.8782 133.899C82.6488 133.899 84.2168 134.283 85.5822 135.051C86.9688 135.819 88.0568 136.865 88.8462 138.187C89.6355 139.51 90.0302 141.025 90.0302 142.731C90.0302 144.438 89.6355 145.953 88.8462 147.275C88.0568 148.598 86.9688 149.643 85.5822 150.411C84.2168 151.179 82.6488 151.563 80.8782 151.563ZM80.8782 147.147C81.6462 147.147 82.3288 146.955 82.9262 146.571C83.5235 146.187 83.9928 145.665 84.3342 145.003C84.6755 144.342 84.8355 143.585 84.8142 142.731C84.8355 141.878 84.6755 141.121 84.3342 140.459C83.9928 139.777 83.5235 139.243 82.9262 138.859C82.3288 138.475 81.6462 138.283 80.8782 138.283C80.1102 138.283 79.4168 138.475 78.7982 138.859C78.2008 139.243 77.7315 139.777 77.3902 140.459C77.0488 141.121 76.8888 141.878 76.9102 142.731C76.8888 143.585 77.0488 144.342 77.3902 145.003C77.7315 145.665 78.2008 146.187 78.7982 146.571C79.4168 146.955 80.1102 147.147 80.8782 147.147ZM103.522 151.243V128.843H113.602C115.032 128.843 116.322 129.153 117.474 129.771C118.648 130.39 119.565 131.243 120.226 132.331C120.888 133.398 121.218 134.614 121.218 135.979C121.218 137.387 120.888 138.657 120.226 139.787C119.565 140.897 118.658 141.771 117.506 142.411C116.354 143.051 115.053 143.371 113.602 143.371H108.706V151.243H103.522ZM115.938 151.243L110.242 141.131L115.81 140.331L122.146 151.243H115.938ZM108.706 139.211H113.122C113.677 139.211 114.157 139.094 114.562 138.859C114.989 138.603 115.309 138.251 115.522 137.803C115.757 137.355 115.874 136.843 115.874 136.267C115.874 135.691 115.746 135.19 115.49 134.763C115.234 134.315 114.861 133.974 114.37 133.739C113.901 133.505 113.325 133.387 112.642 133.387H108.706V139.211ZM142.422 151.563C140.651 151.563 139.073 151.179 137.686 150.411C136.321 149.643 135.233 148.598 134.422 147.275C133.633 145.953 133.238 144.438 133.238 142.731C133.238 141.025 133.633 139.51 134.422 138.187C135.233 136.865 136.321 135.819 137.686 135.051C139.073 134.283 140.651 133.899 142.422 133.899C144.193 133.899 145.761 134.283 147.126 135.051C148.513 135.819 149.601 136.865 150.39 138.187C151.179 139.51 151.574 141.025 151.574 142.731C151.574 144.438 151.179 145.953 150.39 147.275C149.601 148.598 148.513 149.643 147.126 150.411C145.761 151.179 144.193 151.563 142.422 151.563ZM142.422 147.147C143.19 147.147 143.873 146.955 144.47 146.571C145.067 146.187 145.537 145.665 145.878 145.003C146.219 144.342 146.379 143.585 146.358 142.731C146.379 141.878 146.219 141.121 145.878 140.459C145.537 139.777 145.067 139.243 144.47 138.859C143.873 138.475 143.19 138.283 142.422 138.283C141.654 138.283 140.961 138.475 140.342 138.859C139.745 139.243 139.275 139.777 138.934 140.459C138.593 141.121 138.433 141.878 138.454 142.731C138.433 143.585 138.593 144.342 138.934 145.003C139.275 145.665 139.745 146.187 140.342 146.571C140.961 146.955 141.654 147.147 142.422 147.147ZM164.554 151.243V127.563H169.674V151.243H164.554ZM184.129 151.243V134.251H189.249V151.243H184.129ZM186.689 130.891C185.729 130.891 184.971 130.667 184.417 130.219C183.883 129.75 183.617 129.089 183.617 128.235C183.617 127.467 183.894 126.838 184.449 126.347C185.003 125.857 185.75 125.611 186.689 125.611C187.649 125.611 188.395 125.846 188.929 126.315C189.462 126.763 189.729 127.403 189.729 128.235C189.729 129.025 189.451 129.665 188.897 130.155C188.363 130.646 187.627 130.891 186.689 130.891Z" fill="#C3232B"/>
<path d="M129.78 27.1959C129.78 23.6245 128.928 20.0881 127.273 16.7885C125.618 13.4889 123.191 10.4909 120.133 7.96551C117.074 5.44013 113.443 3.43689 109.446 2.07017C105.45 0.703443 101.167 -1.56112e-07 96.841 0C92.5154 1.56112e-07 88.2321 0.703444 84.2358 2.07017C80.2394 3.43689 76.6082 5.44013 73.5495 7.96551C70.4908 10.4909 68.0646 13.4889 66.4092 16.7885C64.7539 20.0881 63.9019 23.6245 63.9019 27.1959H96.841H129.78Z" fill="#C3232B"/>
<path d="M129.78 27.196H63.9019V106.608H129.78V27.196Z" fill="#C3232B"/>
<path d="M76.4428 26.1082C75.3382 26.1082 74.4279 25.208 74.5907 24.1155C74.9217 21.8946 75.8028 19.7517 77.181 17.8215C77.742 17.0358 78.8186 16.8777 79.6465 17.3743L88.0131 22.3931C89.7527 23.4366 89.0128 26.1082 86.9843 26.1082H76.4428Z" fill="white"/>
<path d="M98.8179 11.7906C98.8179 10.6861 99.7149 9.78186 100.815 9.87419C103.445 10.0948 105.993 10.7487 108.309 11.7954C109.447 12.3099 109.674 13.7711 108.849 14.7087L102.319 22.1292C101.101 23.5135 98.8179 22.6519 98.8179 20.8079V11.7906Z" fill="white"/>
<path d="M116.581 26.1082C117.686 26.1082 118.596 25.208 118.433 24.1155C118.102 21.8946 117.221 19.7517 115.843 17.8215C115.282 17.0358 114.205 16.8777 113.377 17.3743L105.011 22.3931C103.271 23.4366 104.011 26.1082 106.04 26.1082H116.581Z" fill="white"/>
<path d="M94.206 11.7906C94.206 10.6861 93.309 9.78186 92.2083 9.87419C89.5785 10.0948 87.0303 10.7487 84.7148 11.7954C83.5767 12.3099 83.3497 13.7711 84.1748 14.7087L90.7046 22.1292C91.9227 23.5135 94.206 22.6519 94.206 20.8079V11.7906Z" fill="white"/>
<path d="M114.581 33.723H78.4424C76.2332 33.723 74.4424 35.5139 74.4424 37.723V94.4493C74.4424 96.6584 76.2332 98.4493 78.4424 98.4493H114.581C116.79 98.4493 118.581 96.6584 118.581 94.4493V37.723C118.581 35.5139 116.79 33.723 114.581 33.723Z" fill="#FFFBFB"/>
<path d="M108.699 65.814C111.61 65.814 113.969 62.0395 113.969 57.3833C113.969 52.7271 111.61 48.9526 108.699 48.9526C105.788 48.9526 103.429 52.7271 103.429 57.3833C103.429 62.0395 105.788 65.814 108.699 65.814Z" fill="#C3232B"/>
</g>
<defs>
<clipPath id="clip0_625_399">
<rect width="194" height="161" fill="white"/>
</clipPath>
</defs>
</svg>
