<svg width="194" height="161" viewBox="0 0 194 161" fill="none" xmlns="http://www.w3.org/2000/svg">
<path d="M12.816 151.243V128.843H28.432V133.483H18.096V146.603H28.752V151.243H12.816ZM15.376 142.059V137.643H26.992V142.059H15.376ZM48.7728 151.595C47.3008 151.595 45.9888 151.222 44.8368 150.475C43.7061 149.707 42.8101 148.662 42.1488 147.339C41.4874 145.995 41.1568 144.47 41.1568 142.763C41.1568 141.057 41.4874 139.542 42.1488 138.219C42.8101 136.875 43.7168 135.819 44.8688 135.051C46.0208 134.283 47.3434 133.899 48.8368 133.899C49.6048 133.899 50.3408 134.017 51.0448 134.251C51.7488 134.486 52.3888 134.806 52.9648 135.211C53.5408 135.617 54.0101 136.086 54.3728 136.619C54.7354 137.131 54.9488 137.665 55.0128 138.219L53.7968 138.507V127.563H58.9488V151.243H54.1808L53.8928 147.371L54.9168 147.531C54.8528 148.065 54.6394 148.577 54.2768 149.067C53.9354 149.558 53.4874 149.995 52.9328 150.379C52.3781 150.742 51.7381 151.03 51.0128 151.243C50.3088 151.478 49.5621 151.595 48.7728 151.595ZM50.0848 147.339C50.8741 147.339 51.5568 147.147 52.1328 146.763C52.7088 146.379 53.1461 145.846 53.4448 145.163C53.7648 144.481 53.9248 143.681 53.9248 142.763C53.9248 141.825 53.7648 141.014 53.4448 140.331C53.1461 139.649 52.7088 139.115 52.1328 138.731C51.5568 138.347 50.8741 138.155 50.0848 138.155C49.2954 138.155 48.6128 138.347 48.0368 138.731C47.4821 139.115 47.0448 139.649 46.7248 140.331C46.4048 141.014 46.2448 141.825 46.2448 142.763C46.2448 143.681 46.4048 144.481 46.7248 145.163C47.0448 145.846 47.4821 146.379 48.0368 146.763C48.6128 147.147 49.2954 147.339 50.0848 147.339ZM80.8783 151.563C79.1076 151.563 77.5289 151.179 76.1423 150.411C74.7769 149.643 73.6889 148.598 72.8783 147.275C72.0889 145.953 71.6943 144.438 71.6943 142.731C71.6943 141.025 72.0889 139.51 72.8783 138.187C73.6889 136.865 74.7769 135.819 76.1423 135.051C77.5289 134.283 79.1076 133.899 80.8783 133.899C82.6489 133.899 84.2169 134.283 85.5823 135.051C86.9689 135.819 88.0569 136.865 88.8463 138.187C89.6356 139.51 90.0303 141.025 90.0303 142.731C90.0303 144.438 89.6356 145.953 88.8463 147.275C88.0569 148.598 86.9689 149.643 85.5823 150.411C84.2169 151.179 82.6489 151.563 80.8783 151.563ZM80.8783 147.147C81.6463 147.147 82.3289 146.955 82.9263 146.571C83.5236 146.187 83.9929 145.665 84.3343 145.003C84.6756 144.342 84.8356 143.585 84.8143 142.731C84.8356 141.878 84.6756 141.121 84.3343 140.459C83.9929 139.777 83.5236 139.243 82.9263 138.859C82.3289 138.475 81.6463 138.283 80.8783 138.283C80.1103 138.283 79.4169 138.475 78.7983 138.859C78.2009 139.243 77.7316 139.777 77.3903 140.459C77.0489 141.121 76.8889 141.878 76.9103 142.731C76.8889 143.585 77.0489 144.342 77.3903 145.003C77.7316 145.665 78.2009 146.187 78.7983 146.571C79.4169 146.955 80.1103 147.147 80.8783 147.147ZM103.522 151.243V128.843H113.602C115.032 128.843 116.322 129.153 117.474 129.771C118.648 130.39 119.565 131.243 120.226 132.331C120.888 133.398 121.218 134.614 121.218 135.979C121.218 137.387 120.888 138.657 120.226 139.787C119.565 140.897 118.658 141.771 117.506 142.411C116.354 143.051 115.053 143.371 113.602 143.371H108.706V151.243H103.522ZM115.938 151.243L110.242 141.131L115.81 140.331L122.146 151.243H115.938ZM108.706 139.211H113.122C113.677 139.211 114.157 139.094 114.562 138.859C114.989 138.603 115.309 138.251 115.522 137.803C115.757 137.355 115.874 136.843 115.874 136.267C115.874 135.691 115.746 135.19 115.49 134.763C115.234 134.315 114.861 133.974 114.37 133.739C113.901 133.505 113.325 133.387 112.642 133.387H108.706V139.211ZM142.422 151.563C140.651 151.563 139.073 151.179 137.686 150.411C136.321 149.643 135.233 148.598 134.422 147.275C133.633 145.953 133.238 144.438 133.238 142.731C133.238 141.025 133.633 139.51 134.422 138.187C135.233 136.865 136.321 135.819 137.686 135.051C139.073 134.283 140.651 133.899 142.422 133.899C144.193 133.899 145.761 134.283 147.126 135.051C148.513 135.819 149.601 136.865 150.39 138.187C151.179 139.51 151.574 141.025 151.574 142.731C151.574 144.438 151.179 145.953 150.39 147.275C149.601 148.598 148.513 149.643 147.126 150.411C145.761 151.179 144.193 151.563 142.422 151.563ZM142.422 147.147C143.19 147.147 143.873 146.955 144.47 146.571C145.067 146.187 145.537 145.665 145.878 145.003C146.219 144.342 146.379 143.585 146.358 142.731C146.379 141.878 146.219 141.121 145.878 140.459C145.537 139.777 145.067 139.243 144.47 138.859C143.873 138.475 143.19 138.283 142.422 138.283C141.654 138.283 140.961 138.475 140.342 138.859C139.745 139.243 139.275 139.777 138.934 140.459C138.593 141.121 138.433 141.878 138.454 142.731C138.433 143.585 138.593 144.342 138.934 145.003C139.275 145.665 139.745 146.187 140.342 146.571C140.961 146.955 141.654 147.147 142.422 147.147ZM164.554 151.243V127.563H169.674V151.243H164.554ZM184.129 151.243V134.251H189.249V151.243H184.129ZM186.689 130.891C185.729 130.891 184.971 130.667 184.417 130.219C183.883 129.75 183.617 129.089 183.617 128.235C183.617 127.467 183.894 126.838 184.449 126.347C185.003 125.857 185.75 125.611 186.689 125.611C187.649 125.611 188.395 125.846 188.929 126.315C189.462 126.763 189.729 127.403 189.729 128.235C189.729 129.025 189.451 129.665 188.897 130.155C188.363 130.646 187.627 130.891 186.689 130.891Z" fill="#EBEBEB"/>
<path d="M129.78 27.1959C129.78 23.6245 128.928 20.0881 127.273 16.7885C125.618 13.4889 123.192 10.4909 120.133 7.96551C117.074 5.44013 113.443 3.43689 109.447 2.07017C105.45 0.703443 101.167 -1.56112e-07 96.8413 0C92.5157 1.56112e-07 88.2324 0.703444 84.236 2.07017C80.2396 3.43689 76.6084 5.44013 73.5498 7.96551C70.4911 10.4909 68.0648 13.4889 66.4094 16.7885C64.7541 20.0881 63.9021 23.6245 63.9021 27.1959L96.8413 27.1959H129.78Z" fill="#59220E"/>
<rect x="63.9021" y="27.1959" width="65.8784" height="79.4121" fill="#59220E"/>
<path d="M76.4427 26.1082C75.3381 26.1082 74.4278 25.208 74.5906 24.1155C74.9216 21.8947 75.8027 19.7517 77.1809 17.8216C77.7419 17.0358 78.8185 16.8777 79.6464 17.3744L88.013 22.3931C89.7526 23.4367 89.0127 26.1082 86.9842 26.1082H76.4427Z" fill="white"/>
<path d="M98.8177 11.7907C98.8177 10.6861 99.7147 9.7819 100.815 9.87423C103.445 10.0948 105.993 10.7487 108.309 11.7955C109.447 12.3099 109.674 13.7711 108.849 14.7088L102.319 22.1292C101.101 23.5135 98.8177 22.6519 98.8177 20.808V11.7907Z" fill="white"/>
<path d="M116.581 26.1082C117.686 26.1082 118.596 25.208 118.433 24.1155C118.102 21.8947 117.221 19.7517 115.843 17.8216C115.282 17.0358 114.205 16.8777 113.377 17.3744L105.011 22.3931C103.271 23.4367 104.011 26.1082 106.04 26.1082H116.581Z" fill="white"/>
<path d="M94.2062 11.7907C94.2062 10.6861 93.3092 9.7819 92.2085 9.87423C89.5787 10.0948 87.0305 10.7487 84.715 11.7955C83.5769 12.3099 83.3499 13.7711 84.175 14.7088L90.7048 22.1292C91.9229 23.5135 94.2062 22.6519 94.2062 20.808V11.7907Z" fill="white"/>
<rect x="74.4424" y="33.723" width="44.1385" height="64.7263" rx="4" fill="#FFFBFB"/>
<ellipse cx="108.699" cy="57.3834" rx="5.27027" ry="8.43074" fill="#C3232B"/>
</svg>
