<svg width="273" height="312" viewBox="0 0 273 312" fill="none" xmlns="http://www.w3.org/2000/svg">
<path d="M4.224 300V266.4H27.648V273.36H12.144V293.04H28.128V300H4.224ZM8.064 286.224V279.6H25.488V286.224H8.064ZM58.1591 300.528C55.9511 300.528 53.9831 299.968 52.2551 298.848C50.5591 297.696 49.2151 296.128 48.2231 294.144C47.2311 292.128 46.7351 289.84 46.7351 287.28C46.7351 284.72 47.2311 282.448 48.2231 280.464C49.2151 278.448 50.5751 276.864 52.3031 275.712C54.0311 274.56 56.0151 273.984 58.2551 273.984C59.4071 273.984 60.5111 274.16 61.5671 274.512C62.6231 274.864 63.5831 275.344 64.4471 275.952C65.3111 276.56 66.0151 277.264 66.5591 278.064C67.1031 278.832 67.4231 279.632 67.5191 280.464L65.6951 280.896V264.48H73.4231V300H66.2711L65.8391 294.192L67.3751 294.432C67.2791 295.232 66.9591 296 66.4151 296.736C65.9031 297.472 65.2311 298.128 64.3991 298.704C63.5671 299.248 62.6071 299.68 61.5191 300C60.4631 300.352 59.3431 300.528 58.1591 300.528ZM60.1271 294.144C61.3111 294.144 62.3351 293.856 63.1991 293.28C64.0631 292.704 64.7191 291.904 65.1671 290.88C65.6471 289.856 65.8871 288.656 65.8871 287.28C65.8871 285.872 65.6471 284.656 65.1671 283.632C64.7191 282.608 64.0631 281.808 63.1991 281.232C62.3351 280.656 61.3111 280.368 60.1271 280.368C58.9431 280.368 57.9191 280.656 57.0551 281.232C56.2231 281.808 55.5671 282.608 55.0871 283.632C54.6071 284.656 54.3671 285.872 54.3671 287.28C54.3671 288.656 54.6071 289.856 55.0871 290.88C55.5671 291.904 56.2231 292.704 57.0551 293.28C57.9191 293.856 58.9431 294.144 60.1271 294.144ZM106.317 300.48C103.661 300.48 101.293 299.904 99.2134 298.752C97.1654 297.6 95.5334 296.032 94.3174 294.048C93.1334 292.064 92.5414 289.792 92.5414 287.232C92.5414 284.672 93.1334 282.4 94.3174 280.416C95.5334 278.432 97.1654 276.864 99.2134 275.712C101.293 274.56 103.661 273.984 106.317 273.984C108.973 273.984 111.325 274.56 113.373 275.712C115.453 276.864 117.085 278.432 118.269 280.416C119.453 282.4 120.045 284.672 120.045 287.232C120.045 289.792 119.453 292.064 118.269 294.048C117.085 296.032 115.453 297.6 113.373 298.752C111.325 299.904 108.973 300.48 106.317 300.48ZM106.317 293.856C107.469 293.856 108.493 293.568 109.389 292.992C110.285 292.416 110.989 291.632 111.501 290.64C112.013 289.648 112.253 288.512 112.221 287.232C112.253 285.952 112.013 284.816 111.501 283.824C110.989 282.8 110.285 282 109.389 281.424C108.493 280.848 107.469 280.56 106.317 280.56C105.165 280.56 104.125 280.848 103.197 281.424C102.301 282 101.597 282.8 101.085 283.824C100.573 284.816 100.333 285.952 100.365 287.232C100.333 288.512 100.573 289.648 101.085 290.64C101.597 291.632 102.301 292.416 103.197 292.992C104.125 293.568 105.165 293.856 106.317 293.856ZM140.283 300V266.4H155.403C157.547 266.4 159.483 266.864 161.211 267.792C162.971 268.72 164.347 270 165.339 271.632C166.331 273.232 166.827 275.056 166.827 277.104C166.827 279.216 166.331 281.12 165.339 282.816C164.347 284.48 162.987 285.792 161.259 286.752C159.531 287.712 157.579 288.192 155.403 288.192H148.059V300H140.283ZM158.907 300L150.363 284.832L158.715 283.632L168.219 300H158.907ZM148.059 281.952H154.683C155.515 281.952 156.235 281.776 156.843 281.424C157.483 281.04 157.963 280.512 158.283 279.84C158.635 279.168 158.811 278.4 158.811 277.536C158.811 276.672 158.619 275.92 158.235 275.28C157.851 274.608 157.291 274.096 156.555 273.744C155.851 273.392 154.987 273.216 153.963 273.216H148.059V281.952ZM198.633 300.48C195.977 300.48 193.609 299.904 191.529 298.752C189.481 297.6 187.849 296.032 186.633 294.048C185.449 292.064 184.857 289.792 184.857 287.232C184.857 284.672 185.449 282.4 186.633 280.416C187.849 278.432 189.481 276.864 191.529 275.712C193.609 274.56 195.977 273.984 198.633 273.984C201.289 273.984 203.641 274.56 205.689 275.712C207.769 276.864 209.401 278.432 210.585 280.416C211.769 282.4 212.361 284.672 212.361 287.232C212.361 289.792 211.769 292.064 210.585 294.048C209.401 296.032 207.769 297.6 205.689 298.752C203.641 299.904 201.289 300.48 198.633 300.48ZM198.633 293.856C199.785 293.856 200.809 293.568 201.705 292.992C202.601 292.416 203.305 291.632 203.817 290.64C204.329 289.648 204.569 288.512 204.537 287.232C204.569 285.952 204.329 284.816 203.817 283.824C203.305 282.8 202.601 282 201.705 281.424C200.809 280.848 199.785 280.56 198.633 280.56C197.481 280.56 196.441 280.848 195.513 281.424C194.617 282 193.913 282.8 193.401 283.824C192.889 284.816 192.649 285.952 192.681 287.232C192.649 288.512 192.889 289.648 193.401 290.64C193.913 291.632 194.617 292.416 195.513 292.992C196.441 293.568 197.481 293.856 198.633 293.856ZM231.831 300V264.48H239.511V300H231.831ZM261.193 300V274.512H268.873V300H261.193ZM265.033 269.472C263.593 269.472 262.457 269.136 261.625 268.464C260.825 267.76 260.425 266.768 260.425 265.488C260.425 264.336 260.841 263.392 261.673 262.656C262.505 261.92 263.625 261.552 265.033 261.552C266.473 261.552 267.593 261.904 268.393 262.608C269.193 263.28 269.593 264.24 269.593 265.488C269.593 266.672 269.177 267.632 268.345 268.368C267.545 269.104 266.441 269.472 265.033 269.472Z" fill="#FFFBFB"/>
<path d="M200.025 60.405C201.682 60.405 203.033 59.0608 202.941 57.4065C202.558 50.4984 200.85 43.6928 197.886 37.289C194.493 29.9603 189.52 23.3013 183.251 17.6922C176.982 12.0831 169.539 7.63369 161.348 4.59805C153.157 1.56242 144.378 -3.4674e-07 135.512 0C126.646 3.4674e-07 117.867 1.56242 109.676 4.59806C101.486 7.63369 94.043 12.0831 87.7739 17.6922C81.5048 23.3013 76.5319 29.9603 73.1391 37.289C70.1744 43.6928 68.467 50.4984 68.0832 57.4065C67.9913 59.0608 69.3431 60.405 71 60.405L135.512 60.405H200.025Z" fill="#FFFBFB"/>
<rect x="68" y="57.6172" width="135.025" height="176.383" rx="3" fill="#FFFBFB"/>
<path fill-rule="evenodd" clip-rule="evenodd" d="M183.114 69.803C183.114 69.8042 183.114 69.8055 183.114 69.8067V207.562H88.7585V69.8067C88.7585 69.8055 88.7585 69.8042 88.7585 69.803C88.759 63.6088 89.9793 57.4753 92.3497 51.7525C94.7206 46.0287 98.1957 40.8278 102.577 36.447C106.957 32.0661 112.158 28.591 117.882 26.2201C123.606 23.8492 129.741 22.6289 135.936 22.6289C142.132 22.6289 148.267 23.8492 153.99 26.2201C159.714 28.591 164.915 32.0661 169.296 36.447C173.677 40.8278 177.152 46.0287 179.523 51.7525C181.893 57.4753 183.114 63.6088 183.114 69.803Z" fill="#0C2240"/>
<path d="M105.854 67.9492C104.749 67.9492 103.847 67.0526 103.925 65.9507C104.251 61.3446 105.699 56.8873 108.143 52.9692C108.727 52.032 109.984 51.8373 110.878 52.4865L127.181 64.3312C128.748 65.47 127.943 67.9492 126.005 67.9492H105.854Z" fill="white"/>
<path d="M138.765 41.6425C138.765 40.538 139.662 39.6352 140.764 39.7131C145.37 40.0391 149.827 41.4874 153.745 43.9311C154.683 44.5156 154.877 45.773 154.228 46.6667L142.383 62.9694C141.245 64.5368 138.765 63.7313 138.765 61.7938V41.6425Z" fill="white"/>
<path d="M165.072 67.9492C166.177 67.9492 167.079 67.0526 167.001 65.9507C166.676 61.3446 165.227 56.8873 162.784 52.9692C162.199 52.032 160.942 51.8373 160.048 52.4865L143.745 64.3312C142.178 65.47 142.983 67.9492 144.921 67.9492H165.072Z" fill="white"/>
<path d="M132.161 41.6425C132.161 40.538 131.264 39.6352 130.162 39.7131C125.556 40.0391 121.099 41.4874 117.181 43.9311C116.243 44.5156 116.049 45.773 116.698 46.6667L128.543 62.9694C129.681 64.5368 132.161 63.7313 132.161 61.7938V41.6425Z" fill="white"/>
<rect x="104.142" y="82" width="63.2182" height="112.283" rx="4" fill="#FFFBFB"/>
<ellipse cx="152.92" cy="123.135" rx="7.54844" ry="14.6251" fill="#0C2240"/>
</svg>
