<svg width="541" height="546" viewBox="0 0 541 546" fill="none" xmlns="http://www.w3.org/2000/svg">
<rect width="541" height="546" fill="white"/>
<path d="M388.01 48.8542C346.485 9.04858 279.159 9.04858 237.634 48.8542L147.823 134.956L298.198 279.124L388.01 193.022C429.534 153.213 429.534 88.6671 388.01 48.8542Z" fill="#4798D9"/>
<path d="M275.521 172.837C265.138 167.656 257.013 159.339 250.896 149.789C240.369 133.413 235.777 113.472 236.084 99.6762C236.126 98.7121 236.175 97.7917 236.213 96.9076L236.194 96.853L236.213 96.8312C236.589 91.9451 237.651 88.0413 239.37 85.6801C240.972 83.4171 243.108 82.493 245.757 83.3152C250.232 84.716 252.858 88.4015 255.112 93.444L255.404 94.0917C255.704 94.732 255.97 95.3868 256.243 96.0927C261.628 109.423 266.224 129.731 291.24 142.261C299.578 146.409 303.365 157.997 299.016 165.972C294.671 173.943 283.832 177.003 275.521 172.837Z" fill="#A3B7BC"/>
<path d="M255.406 94.0917C254.871 94.5283 254.328 94.8921 253.778 95.1723C252.738 96.4129 251.292 97.5116 249.266 98.4539C246.909 99.5563 245.262 99.9747 243.991 99.9929C241.395 100.077 240.078 98.6104 236.887 98.112C236.651 97.77 236.42 97.3516 236.215 96.9077L236.196 96.8531C235.296 95.0303 234.526 92.5273 233.964 90.7846C231.93 84.636 230.428 72.2225 239.74 69.4174L239.813 69.3992C249.558 66.4959 252.169 74.7656 253.972 81.1761C256.013 79.0114 258.313 77.9671 259.918 78.7494C262.199 79.8918 262.112 84.3777 259.755 88.7617C258.772 90.5444 257.501 92.2035 256.157 93.4441L255.406 94.0917Z" fill="#A3B7BC"/>
<path d="M256.577 95.8088L256.243 96.0926C252.779 98.854 249.139 100.655 243.857 100.633C241.602 100.677 239.052 100.356 236.084 99.6761L235.959 99.6325L235.272 99.2541C234.919 98.9158 234.775 98.4101 234.874 97.9117C235.041 97.315 235.561 96.8929 236.194 96.8529L236.213 96.8311L236.673 96.8711C239.386 97.5114 241.659 97.8098 243.667 97.8098C248.388 97.8098 251.507 96.2307 254.676 93.6622L255.112 93.4439H256.156L256.763 93.826C257.287 94.4081 257.2 95.3285 256.577 95.8088Z" fill="#EE4323"/>
<path d="M243.493 135.571C238.43 123.39 236.07 110.791 236.073 100.986C236.073 100.546 236.077 100.109 236.085 99.6762C238.878 100.317 241.303 100.64 243.455 100.64C243.591 100.64 243.724 100.637 243.857 100.633C242.07 108.943 247.102 120.661 252.642 130.175C249.713 131.714 246.661 133.512 243.493 135.571Z" fill="#85969A"/>
<path d="M243.667 97.8101C241.659 97.8101 239.386 97.5117 236.673 96.8714L236.213 96.8314L236.194 96.8532C235.295 95.0304 234.525 92.5274 233.963 90.7847C233.155 88.3507 232.434 84.9235 232.438 81.5072C232.438 76.3046 234.119 71.1129 239.739 69.4175L239.811 69.3993C237.572 74.3873 238.008 80.252 239.371 85.6802C240.513 90.3044 242.316 94.6266 243.667 97.8101Z" fill="#85969A"/>
<path d="M268.902 207.542C267.453 208.637 266.079 209.801 264.789 211.042L264.094 211.664C258.584 216.871 248.076 225.34 236.565 233.89C229.826 235.029 222.258 233.828 215.094 230.405C210.881 228.404 206.786 225.599 203.086 222.059C200.437 219.512 197.117 215.728 193.565 211.202C195.568 203.238 197.906 195.187 200.396 187.798C203.777 177.822 207.469 169.115 211.113 163.469C212.297 161.606 213.488 160.107 214.661 158.983C243.894 130.947 266.876 120.942 281.494 122.939C284.898 128.368 310.73 146.97 317 148.974C314.909 154.977 316.996 160.984 306.56 175.002C292.291 194.164 278.989 199.709 268.902 207.542Z" fill="#C5D3D4"/>
<path d="M268.903 207.542C269.123 207.247 269.339 206.96 269.544 206.679C269.639 206.73 269.738 206.781 269.833 206.832C269.518 207.065 269.21 207.302 268.903 207.542ZM274.66 202.852C273.95 202.506 273.252 202.143 272.554 201.768C276.599 193.054 268.262 192.079 258.862 190.162C258.865 190.162 258.869 190.158 258.873 190.158C269.355 186.378 279.051 180.957 286.827 174.394C286.834 174.39 286.846 174.39 286.853 174.387C286.978 174.361 287.107 174.336 287.233 174.31C287.274 174.303 287.316 174.292 287.358 174.285C287.366 174.281 287.373 174.281 287.381 174.281L287.384 174.278C287.51 174.252 287.635 174.227 287.756 174.198C295.707 172.458 301.437 165.378 301.441 157.811C301.441 157.345 301.418 156.876 301.377 156.407C302.959 153.136 304.079 149.741 304.663 146.26C308.424 148.424 312.333 150.149 316.363 151.317C315.938 153.351 315.729 155.501 315.137 158.055C312.758 161.347 306.64 169.617 299.039 178.429C290.629 188.175 280.869 197.315 274.66 202.852Z" fill="#9FAAAD"/>
<path d="M362.951 136.954C335.801 162.985 309.457 153.751 289.848 134.956C268.957 114.928 264.79 94.9105 291.935 68.8792C311.544 50.0769 344.154 42.8441 365.034 62.8688C396.361 92.9059 382.559 118.155 362.951 136.954Z" fill="#C5D3D4"/>
<path d="M328.128 153.023C328.12 153.023 328.117 153.023 328.109 153.023C327.745 153.023 327.38 153.02 327.02 153.009C326.386 152.903 325.737 152.852 325.073 152.852C324.898 152.852 324.72 152.856 324.542 152.863C311.741 151.724 299.909 144.597 289.848 134.956C289.822 134.93 289.799 134.909 289.772 134.883C289.397 134.523 289.025 134.163 288.66 133.799C288.653 133.792 288.645 133.784 288.638 133.777C288.626 133.766 288.615 133.755 288.6 133.741C279.613 124.827 274.05 115.881 273.09 106.389C275.981 111.34 280.042 116.205 285.112 121.065C296.106 131.601 309.21 139.133 323.388 139.133C334.503 139.133 346.279 134.505 358.214 123.066C370.681 111.115 380.783 96.5473 378.445 79.8043C390.623 102.194 379.034 121.345 363.508 136.415C363.505 136.418 363.501 136.422 363.497 136.426C363.444 136.48 363.387 136.531 363.334 136.586C363.326 136.593 363.319 136.6 363.307 136.608C363.284 136.633 363.258 136.658 363.235 136.68C363.228 136.688 363.22 136.691 363.216 136.699C363.193 136.72 363.171 136.739 363.152 136.764C363.14 136.768 363.136 136.775 363.125 136.782C363.102 136.808 363.076 136.833 363.049 136.859C363.045 136.862 363.042 136.866 363.034 136.873C363.007 136.899 362.977 136.928 362.951 136.953C351.027 148.388 339.255 153.02 328.143 153.023C328.136 153.023 328.132 153.023 328.128 153.023Z" fill="#9FAAAD"/>
<path d="M265.018 142.687C261.117 142.687 257.462 142.312 254.032 141.661C253.633 141.603 253.261 141.523 252.878 141.446C252.108 141.264 251.356 141.104 250.65 140.904L250.628 140.922C250.206 140.802 249.793 140.719 249.39 140.584C248.556 140.38 247.728 140.14 246.931 139.9L245.88 139.54C244.032 138.936 242.252 138.266 240.533 137.557C242.138 136.455 243.717 135.421 245.261 134.45C252.848 138.303 261.887 141.206 273.185 141.206C275.386 141.206 277.678 141.097 280.058 140.86C280.543 140.813 281.033 140.791 281.519 140.788C280.71 140.839 279.906 140.948 279.113 141.122C274.088 142.214 269.397 142.687 265.018 142.687Z" fill="#9FAAAD"/>
<path d="M287.758 174.197C256.813 180.928 222.682 159.823 208.291 142.865C207.684 142.123 207.099 141.403 206.576 140.7L206.515 140.642C200.686 132.977 199.289 126.504 204.633 124.427C208.959 122.72 213.471 123.881 218.587 126.304L219.251 126.624C219.923 126.948 220.568 127.286 221.262 127.665C228.086 131.212 236.002 136.316 245.88 139.54L246.931 139.9C247.728 140.14 248.556 140.38 249.391 140.584C249.793 140.719 250.206 140.802 250.628 140.922L250.65 140.904C251.356 141.104 252.108 141.264 252.878 141.446C253.261 141.523 253.633 141.603 254.032 141.661C261.318 143.044 269.614 143.185 279.113 141.123C288.262 139.122 298.975 145.587 301.04 154.377C303.112 163.123 296.907 172.196 287.758 174.197Z" fill="#C5D3D4"/>
<path d="M217.539 133.784C218.438 131.816 218.795 130.066 218.753 128.465C219.611 126.37 219.717 123.041 218.969 119.89C217.831 115.073 214.867 111.617 212.351 112.159C210.601 112.541 209.554 114.764 209.44 117.685C203.763 113.931 196.158 109.215 190.674 117.554C185.467 125.478 194.989 133.995 200.697 137.444C202.716 138.667 205.782 140.588 207.862 141.195C212.036 138.794 214.389 140.65 217.539 133.784Z" fill="#C5D3D4"/>
<path d="M206.484 142.654L206.207 142.29C205.846 141.588 206.142 140.74 206.867 140.391C215.258 136.363 217.455 132.343 218.419 126.766C218.548 125.991 219.315 125.471 220.119 125.598C220.924 125.725 221.463 126.457 221.334 127.228C220.241 133.547 217.664 138.375 208.192 142.923C207.607 143.203 206.92 143.076 206.484 142.654Z" fill="#EE4323"/>
<path d="M260.201 168.977L261.92 147.261L274.144 148.148L272.417 169.865L260.201 168.977Z" fill="#DC3E21"/>
<path d="M246.949 151.455C247.135 150.713 247.894 147.591 248.642 144.466C248.889 143.105 249.166 141.759 249.39 140.584C249.792 140.719 250.206 140.802 250.627 140.922C250.285 142.039 249.875 143.364 249.458 144.688C248.346 147.708 247.219 150.753 246.949 151.455Z" fill="#9FAAAD"/>
<path d="M253.275 148.472L252.877 141.447C253.26 141.523 253.632 141.603 254.03 141.661L253.275 148.472Z" fill="#9FAAAD"/>
<path d="M243.249 145.307C243.484 144.848 244.547 142.862 245.344 140.825C245.507 140.381 245.678 139.94 245.879 139.54L246.93 139.9C246.653 140.282 246.361 140.723 246.118 141.163C244.96 143.106 243.591 144.91 243.249 145.307Z" fill="#9FAAAD"/>
<path d="M275.521 175.482C260.66 175.482 245.757 170.174 233.249 162.96C232.619 162.01 232.054 161.14 231.564 160.369C232.092 158.765 231.591 156.945 230.156 155.81C229.329 155.155 228.331 154.839 227.337 154.839C226.061 154.839 224.794 155.367 223.917 156.385C223.819 156.498 223.731 156.618 223.648 156.738C217.42 152.223 212.168 147.395 208.328 142.866L208.301 142.877C208.297 142.877 208.297 142.873 208.293 142.873C210.699 141.709 212.658 140.53 214.259 139.311C224.756 149.644 246.266 160.915 260.66 163.152L260.201 168.977L272.417 169.865L272.922 163.52C285.153 162.927 298.249 159.751 299.896 151.237C300.135 151.717 300.352 152.212 300.538 152.718C300.739 153.26 300.91 153.813 301.039 154.377C301.312 155.523 301.441 156.673 301.441 157.811C301.437 165.379 295.707 172.459 287.756 174.198C287.635 174.227 287.509 174.252 287.384 174.278L287.38 174.282C287.373 174.282 287.365 174.282 287.358 174.285C287.316 174.292 287.274 174.303 287.232 174.311C287.107 174.336 286.978 174.362 286.853 174.387C286.845 174.391 286.834 174.391 286.826 174.394C286.819 174.394 286.815 174.394 286.807 174.398C286.807 174.398 286.808 174.398 286.804 174.398C286.743 174.409 286.682 174.423 286.618 174.434C286.602 174.438 286.587 174.442 286.568 174.445C286.553 174.445 286.538 174.449 286.523 174.453C282.883 175.158 279.202 175.482 275.521 175.482Z" fill="#9FAAAD"/>
<path d="M327.444 54.8645C326.377 53.8422 325.311 52.8599 324.29 51.9212C316.996 48.8542 298.739 58.3463 289.839 66.8779C275.142 80.9687 266.876 100.917 273.138 106.92C302.693 134.814 314.222 123.601 328.483 109.925C342.901 96.1109 357.727 83.8938 327.444 54.8645Z" fill="#070A0E"/>
<path d="M334.271 61.9697C314.533 65.0331 295.592 73.7429 280.261 88.1211C283.225 82.6347 287.13 77.4867 291.934 72.8807C302.108 63.1303 314.787 57.3056 327.964 55.3628C330.343 57.6839 332.457 59.8668 334.271 61.9697Z" fill="#EAEAE8"/>
<path d="M351.057 100.306C352.416 99.0033 354.283 99.8474 355.205 102.176L357.911 108.976C358.841 111.304 358.484 114.277 357.137 115.568L342.359 129.739C341.004 131.034 337.911 131.372 335.486 130.481L328.394 127.887C325.965 126.999 325.081 125.206 326.428 123.907L351.057 100.306Z" fill="#839CA6"/>
<path d="M340.083 176.908C338.914 178.262 336.948 178.556 335.692 177.559L333.419 175.759C332.155 174.769 332.079 172.859 333.244 171.502L348.011 154.311C349.176 152.954 351.149 152.667 352.409 153.66L354.682 155.457C355.942 156.451 356.018 158.357 354.857 159.714L340.083 176.908Z" fill="#B0B2B1"/>
<path d="M347.788 167.936L345.796 166.361L353.708 157.153C354.186 156.592 354.406 155.941 354.471 155.294L354.68 155.457C355.34 155.977 355.674 156.749 355.678 157.56C355.682 158.295 355.408 159.066 354.854 159.714L347.788 167.936Z" fill="#909292"/>
<path d="M302.77 235.439C299.275 239.511 293.374 240.395 289.598 237.408L271.872 223.412C268.092 220.425 264.885 212.362 268.384 208.295C268.384 208.295 285.473 194.153 299.04 178.429C308.861 167.045 316.212 156.556 316.212 156.556C319.7 152.477 327.176 151.659 330.952 154.639L348.686 168.642C352.458 171.622 352.689 177.345 349.194 181.412L302.77 235.439Z" fill="#B0B2B1"/>
<path d="M314.799 204.417C311.694 208.037 306.105 208.553 302.332 205.57C298.553 202.583 298.014 197.231 301.122 193.611C304.241 189.991 309.824 189.478 313.6 192.454C317.376 195.438 317.922 200.793 314.799 204.417Z" fill="#2A387C"/>
<path d="M296.353 194.4L320.439 197.857L297.491 205.675L302.8 199.494L296.353 194.4Z" fill="#DC3E21"/>
<path d="M326.913 192.225L310.955 179.629L316.591 173.07L332.552 185.673L326.913 192.225Z" fill="#191A1B"/>
<path d="M303.851 223.535C302.291 225.347 299.495 225.605 297.612 224.113C295.715 222.618 295.453 219.948 297.001 218.136C298.561 216.32 301.358 216.062 303.24 217.557C305.134 219.049 305.407 221.723 303.851 223.535Z" fill="#191A1B"/>
<path d="M249.345 191.635C236.951 179.753 228.295 166.375 224.777 160.492C223.968 159.139 224.458 157.407 225.873 156.628C227.285 155.853 229.099 156.319 229.904 157.676C234.215 164.891 257.25 201.178 287.356 207.261C288.953 207.585 289.974 209.088 289.644 210.619C289.299 212.144 287.735 213.126 286.145 212.806C271.918 209.932 259.406 201.276 249.345 191.635Z" fill="#6C8894"/>
<path d="M287.897 134.152C282.796 129.258 279.18 124.998 278.132 123.554C277.665 122.917 277.832 122.033 278.504 121.585C279.164 121.138 280.094 121.276 280.561 121.938C283.016 125.322 300.169 144.873 316.814 149.963C317.596 150.203 318.021 150.997 317.778 151.746C317.528 152.492 316.693 152.903 315.915 152.663C305.642 149.52 295.232 141.181 287.897 134.152Z" fill="#1F2A31"/>
<path d="M286.748 212.864H286.744C286.573 212.864 286.399 212.85 286.224 212.821C286.198 212.817 286.171 212.81 286.145 212.806C285.029 212.581 283.925 212.319 282.832 212.024C278.198 210.78 273.762 208.939 269.545 206.679C262.555 202.928 256.176 198.02 250.533 192.76C250.134 192.385 249.74 192.014 249.345 191.635C246.791 189.187 244.396 186.677 242.169 184.177C240.844 182.689 239.577 181.205 238.377 179.742C233.129 173.364 229.087 167.401 226.473 163.254C225.816 162.21 225.251 161.282 224.776 160.492C224.681 160.336 224.606 160.172 224.549 160.009C224.545 160.005 224.545 160.001 224.541 159.994V159.99C224.218 159.073 224.423 158.069 225.042 157.324L225.254 157.913C228.761 163.792 237.421 177.17 249.812 189.052C259.872 198.694 272.388 207.349 286.608 210.227C286.805 210.267 287.002 210.285 287.196 210.285C288.114 210.285 288.96 209.859 289.515 209.182C289.674 209.637 289.746 210.114 289.644 210.62C289.344 211.944 288.122 212.857 286.763 212.864C286.759 212.864 286.756 212.864 286.748 212.864Z" fill="#5A717B"/>
<path d="M334.386 244.433C334.048 243.975 333.707 243.513 333.369 243.054C330.231 242.756 324.887 241.13 318.022 238.212L337.221 215.866C337.775 215.218 338.052 214.451 338.048 213.712C338.044 212.901 337.711 212.133 337.05 211.613L334.769 209.808L345.323 197.533C345.877 196.885 346.151 196.114 346.147 195.376C346.147 194.564 345.813 193.797 345.152 193.28L342.526 191.199C342.526 191.203 342.53 191.203 342.53 191.203L341.487 190.38L349.194 181.412C350.636 179.735 351.444 177.774 351.63 175.842L360.864 166.99C397.747 131.627 401.842 76.7592 373.197 37.0336C378.355 40.4608 383.296 44.3464 387.899 48.7486C387.937 48.785 387.971 48.8178 388.009 48.8542C408.771 68.7624 419.15 94.8521 419.15 120.942C419.15 147.028 408.771 173.117 388.009 193.022L334.386 244.433Z" fill="#3A84C4"/>
<path d="M314.091 236.473C311.4 235.24 308.527 233.836 305.499 232.264L328.827 205.115L334.553 209.641C335.164 210.678 335.028 212.104 334.102 213.185L314.091 236.473Z" fill="#909292"/>
<path d="M334.767 209.812L334.551 209.641C334.395 209.372 334.187 209.132 333.929 208.928L331.648 207.124L342.198 194.848C343.169 193.724 343.23 192.247 342.528 191.203L345.15 193.28C345.811 193.797 346.145 194.564 346.145 195.376C346.148 196.114 345.875 196.886 345.321 197.533L334.767 209.808C334.767 209.812 334.767 209.812 334.767 209.812Z" fill="#74787A"/>
<path d="M318.022 238.212C316.762 237.677 315.449 237.095 314.09 236.473L334.101 213.185C335.027 212.104 335.163 210.678 334.552 209.641L334.769 209.812L337.05 211.613C337.71 212.133 338.044 212.901 338.048 213.712C338.051 214.451 337.774 215.218 337.22 215.866L318.022 238.212Z" fill="#74787A"/>
<path d="M333.368 243.054C321.824 241.952 280.338 222.884 243.405 187.484C204.499 150.178 183.718 108.721 185.46 99.6254C83.8952 30.565 26.0904 51.4265 26.0904 51.4265C26.0904 51.4265 -6.73236 134.956 141.56 277.119C238.453 370.017 343.85 419.569 376.976 387.811C400.494 365.269 381.208 307.76 333.368 243.054Z" fill="#A3B7BC"/>
<path d="M239.626 191.112C200.458 153.558 177.92 110.624 180.201 98.7051C180.728 95.9183 183.521 94.0737 186.425 94.5867C189.331 95.096 191.259 97.7702 190.724 100.557C189.696 106.822 208.067 146.351 247.193 183.861C283.951 219.093 324.641 237.066 333.901 237.954C336.838 238.234 338.99 240.744 338.694 243.564C338.401 246.387 335.783 248.446 332.842 248.159C319.404 246.878 276.771 226.719 239.626 191.112Z" fill="#1F2A31"/>
<path d="M105.457 127.512C89.025 143.269 66.5967 150.557 42.9162 149.789C12.3212 86.455 26.0894 51.4264 26.0894 51.4264C26.0894 51.4264 62.6538 38.2452 128.679 67.5728C129.487 90.3006 121.889 111.759 105.457 127.512Z" fill="#C92631"/>
<path d="M144.942 75.4092C144.042 74.9072 143.147 74.4452 142.236 73.9977C137.591 71.6437 133.079 69.5226 128.68 67.5725C129.489 90.3004 121.891 111.759 105.459 127.512C89.0268 143.269 66.5985 150.556 42.918 149.789C44.9483 154.005 47.1836 158.317 49.6161 162.788C50.1019 163.647 50.5496 164.498 51.0543 165.382C76.4313 165.036 100.237 156.548 117.99 139.529C135.731 122.524 144.585 99.7379 144.942 75.4092Z" fill="#191A1B"/>
<path d="M325.641 394.557C321.471 393.596 317.141 392.395 312.67 390.969C306.921 383.198 293.21 370.861 275.256 361.554C262.11 354.733 246.699 349.567 230.456 349.043C201.561 329.837 171.164 305.5 141.559 277.119C96.9304 234.334 68.711 196.867 51.0645 165.382C68.3657 165.146 84.9383 161.122 99.3592 153.191C116.042 174.227 134.557 194.226 161.027 216.586C157.616 224.041 156.785 232.416 158.709 240.388L144.724 250.687L161.877 248.792C162.986 250.906 164.318 252.947 165.873 254.889C173.649 264.589 185.368 269.682 197.22 269.682C205.584 269.682 214.016 267.143 221.17 261.897C238.376 273.717 257.901 286.422 280.284 300.309C280.276 300.309 280.276 300.309 280.276 300.309C280.276 300.309 278.717 301.804 278.713 305.668C278.709 312.766 283.942 327.857 313.684 356.381C321.854 364.21 330.981 372.429 340.309 380.411L325.611 394.506L325.641 394.557Z" fill="#85969A"/>
<path d="M46.2761 149.844C45.1604 149.844 44.0446 149.829 42.9251 149.789C15.5786 93.175 23.6961 59.1615 25.7074 52.6018C52.3215 87.4085 70.2603 114.662 88.8936 139.577C76.1653 146.46 61.5319 149.844 46.2761 149.844Z" fill="#A2212E"/>
<path d="M476.238 499.65C482.105 510.033 505.744 532.699 533.606 538C528.073 511.292 504.431 488.622 493.6 482.998C497.327 479.436 513.41 485.348 521.762 493.348C519.318 474.35 490.412 451.396 482.519 450.963C483.456 444.735 500.78 449.453 507.74 456.122C501.27 435.643 471.286 416.407 460.755 415.829C465.563 408.549 481.653 414.461 487.209 419.791C472.712 396.368 438.451 375.867 428.759 385.159L401.473 411.321L374.18 437.487C364.488 446.776 385.865 479.621 410.304 493.53C404.741 488.193 398.574 472.767 406.179 468.157C406.771 478.253 426.843 507.006 448.197 513.202C441.237 506.533 436.319 489.928 442.812 489.023C443.267 496.59 467.221 524.302 487.031 526.645C478.689 518.648 472.511 503.222 476.238 499.65Z" fill="#DC3E21"/>
<path d="M479.3 485.941C473.035 463.915 458.413 457.912 456.33 455.911C460.508 451.906 464.682 455.911 468.857 459.91C464.682 443.894 445.886 437.884 437.529 437.888C441.711 429.876 456.33 431.877 460.508 435.883C456.33 415.862 429.177 417.867 422.904 419.864C427.082 411.856 439.624 407.854 447.973 411.856C427.089 391.832 398.191 395.51 391.584 401.844C384.98 408.171 381.14 435.883 402.031 455.908C397.849 447.896 402.031 435.879 410.376 431.877C408.289 437.884 406.194 463.912 427.089 467.921C422.904 463.912 420.816 449.901 429.177 445.895C429.177 453.903 435.442 471.919 452.155 475.929C447.981 471.919 443.806 467.921 447.973 463.912C450.068 465.913 456.33 479.938 479.3 485.941Z" fill="#F6811F"/>
<path d="M337.015 413.606L325.611 394.506L383.989 338.536L403.848 349.534L337.015 413.606Z" fill="#1F2A31"/>
<path d="M357.902 457.657L331.273 420.115L331.797 416.607L406.983 344.527L410.641 344.025L449.801 369.554L357.902 457.657Z" fill="#191A1B"/>
<path d="M515.417 331.183L500.798 341.191L500.172 341.035L398.452 315.16L380.282 326.253C372.183 320.77 359.269 307.592 349.584 290.333C342.461 277.741 337.05 262.941 336.507 247.366L402.63 251.088L515.417 331.183Z" fill="#C92631"/>
<path d="M317.941 520.497L234.399 412.373L230.452 349.043C246.695 349.567 262.11 354.729 275.255 361.555C293.255 370.887 306.993 383.26 312.716 391.028L301.228 408.371L328.381 506.479L327.174 508.127L317.941 520.497Z" fill="#C92631"/>
<path d="M328.382 506.479L271.864 413.537L275.256 361.554C293.256 370.886 306.994 383.26 312.717 391.028L301.229 408.371L328.382 506.479Z" fill="#A2212E"/>
<path d="M500.172 341.035L398.452 315.16L380.282 326.253C372.183 320.77 359.269 307.592 349.584 290.333L403.799 287.047L500.172 341.035Z" fill="#A2212E"/>
<path d="M413.943 428.457C420.858 421.825 375.667 367.739 338.761 332.35C292.804 288.299 280.277 300.309 280.277 300.309C280.277 300.309 267.746 312.326 313.684 356.381C350.609 391.766 407.014 435.097 413.943 428.457Z" fill="#C92631"/>
<path d="M411.817 429.138C408.565 429.138 402.702 426.453 395.199 421.898C384.512 415.411 370.501 405.133 355.978 393.425C341.447 381.714 326.408 368.572 313.683 356.381C283.942 327.857 278.709 312.766 278.713 305.668C278.716 301.804 280.276 300.309 280.276 300.309H280.284L413.942 428.454V428.457C413.464 428.919 412.751 429.138 411.817 429.138Z" fill="#A2212E"/>
<path d="M262.225 54.5734C253.44 62.9922 247.113 72.8736 243.224 83.3953C246.051 79.8407 249.132 76.4136 252.525 73.1574C273.951 52.6197 302.307 42.9239 329.976 44.1645V32.5877C305.932 29.5317 280.714 36.8481 262.225 54.5734ZM376.415 54.5698C365.353 43.9644 351.881 37.0991 337.695 33.9375V44.8049C353.843 46.7295 369.509 52.4159 383.144 61.9153C381.076 59.3722 378.852 56.9091 376.415 54.5698Z" fill="#EAEAE8"/>
<path d="M234.686 274.642C211.915 291.473 179.266 287.355 161.771 265.465C144.267 243.569 148.55 212.174 171.326 195.352C194.081 178.531 226.731 182.643 244.225 204.534C261.724 226.43 257.462 257.815 234.686 274.642Z" fill="#2A387C"/>
<path d="M171.707 275.333L167.051 271.333L164.723 269.333L162.917 266.857L161 264.5L159.5 262.5L158 260L156.5 257.5L235.267 195.849L237.699 197.456L240.088 200.063L242.02 201.649L244.387 204.755L247.721 209.29L250.519 214.358L171.707 275.333Z" fill="#C92631"/>
<path d="M177.494 241H167.598V226.552H177.494V228.483H170.908V232.345H176.08V234.276H170.908V239.069H177.494V241ZM186.035 239.069C186.978 239.069 187.449 238.747 187.449 238.103V233.069C187.403 232.448 186.932 232.138 186.035 232.138H184.656C183.713 232.138 183.242 232.46 183.242 233.103V238.103C183.242 238.747 183.713 239.069 184.656 239.069H186.035ZM179.932 232.759C179.932 232 180.322 231.391 181.104 230.931C181.909 230.448 182.874 230.207 184.001 230.207H185.897C186.426 230.207 186.794 230.264 187.001 230.379L187.449 230.586V226.931H190.759V241H187.449V240.69C186.943 240.897 186.38 241 185.759 241H184.001C182.23 241 180.989 240.506 180.276 239.517C180.047 239.195 179.932 238.839 179.932 238.448V232.759ZM199.044 239.069C199.964 239.069 200.424 238.747 200.424 238.103V233.069C200.424 232.425 199.964 232.103 199.044 232.103H198.044C197.102 232.103 196.631 232.425 196.631 233.069V238.103C196.631 238.747 197.102 239.069 198.044 239.069H199.044ZM193.32 232.759C193.32 231.977 193.711 231.356 194.493 230.897C195.297 230.414 196.263 230.172 197.389 230.172H199.7C200.803 230.172 201.734 230.402 202.493 230.862C203.32 231.322 203.734 231.954 203.734 232.759V238.414C203.734 239.218 203.32 239.851 202.493 240.31C201.734 240.77 200.803 241 199.7 241H197.389C195.619 241 194.378 240.506 193.665 239.517C193.435 239.195 193.32 238.828 193.32 238.414V232.759ZM209.521 231.034C210.073 230.483 210.901 230.207 212.004 230.207H212.59V232.138H211.728C210.786 232.138 210.119 232.425 209.728 233C209.59 233.184 209.521 233.391 209.521 233.621V241H206.211V230.207H209.521V231.034ZM219.874 239.069C220.794 239.069 221.254 238.747 221.254 238.103V233.069C221.254 232.425 220.794 232.103 219.874 232.103H218.874C217.932 232.103 217.461 232.425 217.461 233.069V238.103C217.461 238.747 217.932 239.069 218.874 239.069H219.874ZM214.15 232.759C214.15 231.977 214.541 231.356 215.323 230.897C216.127 230.414 217.093 230.172 218.219 230.172H220.53C221.633 230.172 222.564 230.402 223.323 230.862C224.15 231.322 224.564 231.954 224.564 232.759V238.414C224.564 239.218 224.15 239.851 223.323 240.31C222.564 240.77 221.633 241 220.53 241H218.219C216.449 241 215.208 240.506 214.495 239.517C214.265 239.195 214.15 238.828 214.15 238.414V232.759ZM227.317 241V227.172H230.627V241H227.317ZM236.976 227.31V229.241H233.666V227.31H236.976ZM233.666 230.207H236.976V241H233.666V230.207Z" fill="#F6F6F6"/>
</svg>
