<svg width="29" height="46" viewBox="0 0 29 46" fill="none" xmlns="http://www.w3.org/2000/svg">
<path d="M28.1835 11.6347C28.1835 10.1068 27.819 8.59389 27.1108 7.1823C26.4026 5.77071 25.3646 4.48811 24.0561 3.40773C22.7476 2.32735 21.1941 1.47034 19.4844 0.885639C17.7747 0.300941 15.9423 -6.67863e-08 14.0917 0C12.2412 6.67863e-08 10.4087 0.300941 8.69906 0.88564C6.98937 1.47034 5.43591 2.32735 4.12737 3.40773C2.81883 4.48811 1.78085 5.77071 1.07267 7.1823C0.364493 8.59389 -1.6178e-07 10.1068 0 11.6347L14.0917 11.6347H28.1835Z" fill="#59220E"/>
<rect y="11.6348" width="28.1835" height="33.9734" fill="#59220E"/>
<path d="M6.34301 11.1693C5.33031 11.1693 4.48432 10.3293 4.79638 9.36586C4.91611 8.99621 5.07252 8.63508 5.26414 8.2862C5.68123 7.52681 6.66373 7.38978 7.4067 7.83546C8.96776 8.77189 8.30384 11.1693 6.48345 11.1693H6.34301Z" fill="white"/>
<path d="M14.9372 6.10098C14.9372 5.04474 15.801 4.16957 16.8386 4.36729C17.1515 4.42692 17.4599 4.5012 17.7624 4.58972C18.9335 4.9325 19.1641 6.36589 18.358 7.28195L18.2854 7.3644C17.1206 8.68813 14.9372 7.86425 14.9372 6.10098Z" fill="white"/>
<path d="M21.5586 11.1693C22.5713 11.1693 23.4173 10.3293 23.1052 9.36586C22.9855 8.99621 22.8291 8.63508 22.6375 8.2862C22.2204 7.52681 21.2379 7.38978 20.4949 7.83546C18.9339 8.77189 19.5978 11.1693 21.4182 11.1693H21.5586Z" fill="white"/>
<path d="M12.9644 6.10098C12.9644 5.04474 12.1006 4.16957 11.0631 4.36729C10.7501 4.42692 10.4417 4.5012 10.1392 4.58972C8.96814 4.9325 8.7375 6.36589 9.5436 7.28195L9.61616 7.3644C10.781 8.68813 12.9644 7.86425 12.9644 6.10098Z" fill="white"/>
<rect x="4.50928" y="14.427" width="18.8829" height="27.6906" rx="4" fill="#FFFBFB"/>
<ellipse cx="19.1648" cy="24.5491" rx="2.25468" ry="3.60676" fill="#C3232B"/>
</svg>
