<svg width="275" height="275" viewBox="0 0 275 275" fill="none" xmlns="http://www.w3.org/2000/svg">
<rect x="108" width="59" height="24" rx="4" fill="#2EBF43"/>
<path d="M124.046 12.5C124.046 13.3437 123.894 14.0729 123.589 14.6875C123.284 15.3021 122.866 15.776 122.335 16.1094C121.804 16.4427 121.197 16.6094 120.515 16.6094C119.832 16.6094 119.226 16.4427 118.694 16.1094C118.163 15.776 117.745 15.3021 117.44 14.6875C117.136 14.0729 116.983 13.3437 116.983 12.5C116.983 11.6562 117.136 10.9271 117.44 10.3125C117.745 9.69792 118.163 9.22396 118.694 8.89062C119.226 8.55729 119.832 8.39062 120.515 8.39062C121.197 8.39062 121.804 8.55729 122.335 8.89062C122.866 9.22396 123.284 9.69792 123.589 10.3125C123.894 10.9271 124.046 11.6562 124.046 12.5ZM123.108 12.5C123.108 11.8073 122.993 11.2227 122.761 10.7461C122.532 10.2695 122.22 9.90885 121.827 9.66406C121.437 9.41927 120.999 9.29687 120.515 9.29687C120.03 9.29687 119.591 9.41927 119.198 9.66406C118.808 9.90885 118.496 10.2695 118.265 10.7461C118.035 11.2227 117.921 11.8073 117.921 12.5C117.921 13.1927 118.035 13.7773 118.265 14.2539C118.496 14.7305 118.808 15.0911 119.198 15.3359C119.591 15.5807 120.03 15.7031 120.515 15.7031C120.999 15.7031 121.437 15.5807 121.827 15.3359C122.22 15.0911 122.532 14.7305 122.761 14.2539C122.993 13.7773 123.108 13.1927 123.108 12.5ZM127.987 16.625C127.425 16.625 126.94 16.4922 126.534 16.2266C126.128 15.9609 125.815 15.5951 125.597 15.1289C125.378 14.6628 125.269 14.1302 125.269 13.5312C125.269 12.9219 125.381 12.3841 125.604 11.918C125.831 11.4492 126.146 11.0833 126.55 10.8203C126.956 10.5547 127.43 10.4219 127.972 10.4219C128.394 10.4219 128.774 10.5 129.112 10.6562C129.451 10.8125 129.728 11.0312 129.944 11.3125C130.16 11.5937 130.295 11.9219 130.347 12.2969H129.425C129.354 12.0234 129.198 11.7812 128.956 11.5703C128.716 11.3568 128.394 11.25 127.987 11.25C127.628 11.25 127.313 11.3437 127.042 11.5312C126.774 11.7161 126.564 11.9779 126.413 12.3164C126.265 12.6523 126.19 13.0469 126.19 13.5C126.19 13.9635 126.263 14.3672 126.409 14.7109C126.558 15.0547 126.766 15.3216 127.034 15.5117C127.305 15.7018 127.623 15.7969 127.987 15.7969C128.227 15.7969 128.444 15.7552 128.64 15.6719C128.835 15.5885 129 15.4688 129.136 15.3125C129.271 15.1562 129.368 14.9687 129.425 14.75H130.347C130.295 15.1042 130.166 15.4232 129.96 15.707C129.757 15.9883 129.487 16.2122 129.151 16.3789C128.818 16.543 128.43 16.625 127.987 16.625ZM134.304 10.5V11.2812H131.194V10.5H134.304ZM132.101 9.0625H133.022V14.7812C133.022 15.0417 133.06 15.237 133.136 15.3672C133.214 15.4948 133.313 15.5807 133.433 15.625C133.555 15.6667 133.684 15.6875 133.819 15.6875C133.921 15.6875 134.004 15.6823 134.069 15.6719C134.134 15.6589 134.187 15.6484 134.226 15.6406L134.413 16.4687C134.351 16.4922 134.263 16.5156 134.151 16.5391C134.039 16.5651 133.897 16.5781 133.726 16.5781C133.465 16.5781 133.21 16.5221 132.96 16.4102C132.713 16.2982 132.507 16.1276 132.343 15.8984C132.181 15.6693 132.101 15.3802 132.101 15.0312V9.0625ZM138.063 16.625C137.522 16.625 137.047 16.4961 136.638 16.2383C136.231 15.9805 135.914 15.6198 135.685 15.1562C135.458 14.6927 135.345 14.151 135.345 13.5312C135.345 12.9062 135.458 12.3607 135.685 11.8945C135.914 11.4284 136.231 11.0664 136.638 10.8086C137.047 10.5508 137.522 10.4219 138.063 10.4219C138.605 10.4219 139.079 10.5508 139.485 10.8086C139.894 11.0664 140.212 11.4284 140.438 11.8945C140.668 12.3607 140.782 12.9062 140.782 13.5312C140.782 14.151 140.668 14.6927 140.438 15.1562C140.212 15.6198 139.894 15.9805 139.485 16.2383C139.079 16.4961 138.605 16.625 138.063 16.625ZM138.063 15.7969C138.475 15.7969 138.813 15.6914 139.079 15.4805C139.345 15.2695 139.541 14.9922 139.669 14.6484C139.797 14.3047 139.86 13.9323 139.86 13.5312C139.86 13.1302 139.797 12.7565 139.669 12.4102C139.541 12.0638 139.345 11.7839 139.079 11.5703C138.813 11.3568 138.475 11.25 138.063 11.25C137.652 11.25 137.313 11.3568 137.048 11.5703C136.782 11.7839 136.586 12.0638 136.458 12.4102C136.33 12.7565 136.267 13.1302 136.267 13.5312C136.267 13.9323 136.33 14.3047 136.458 14.6484C136.586 14.9922 136.782 15.2695 137.048 15.4805C137.313 15.6914 137.652 15.7969 138.063 15.7969ZM142.314 16.5V8.5H143.236V11.4531H143.314C143.382 11.349 143.476 11.2161 143.596 11.0547C143.718 10.8906 143.893 10.7448 144.119 10.6172C144.348 10.487 144.658 10.4219 145.049 10.4219C145.554 10.4219 145.999 10.5482 146.385 10.8008C146.77 11.0534 147.071 11.4115 147.287 11.875C147.503 12.3385 147.611 12.8854 147.611 13.5156C147.611 14.151 147.503 14.7018 147.287 15.168C147.071 15.6315 146.771 15.9909 146.389 16.2461C146.006 16.4987 145.564 16.625 145.064 16.625C144.679 16.625 144.37 16.5612 144.139 16.4336C143.907 16.3034 143.729 16.1562 143.604 15.9922C143.479 15.8255 143.382 15.6875 143.314 15.5781H143.205V16.5H142.314ZM143.221 13.5C143.221 13.9531 143.287 14.3529 143.42 14.6992C143.553 15.043 143.747 15.3125 144.002 15.5078C144.257 15.7005 144.57 15.7969 144.939 15.7969C145.325 15.7969 145.646 15.6953 145.904 15.4922C146.165 15.2865 146.36 15.0104 146.49 14.6641C146.623 14.3151 146.689 13.9271 146.689 13.5C146.689 13.0781 146.624 12.6979 146.494 12.3594C146.367 12.0182 146.173 11.7487 145.912 11.5508C145.654 11.3503 145.33 11.25 144.939 11.25C144.564 11.25 144.249 11.3451 143.994 11.5352C143.739 11.7227 143.546 11.9857 143.416 12.3242C143.286 12.6602 143.221 13.0521 143.221 13.5ZM151.537 16.625C150.959 16.625 150.46 16.4974 150.041 16.2422C149.624 15.9844 149.303 15.625 149.076 15.1641C148.852 14.7005 148.74 14.1615 148.74 13.5469C148.74 12.9323 148.852 12.3906 149.076 11.9219C149.303 11.4505 149.618 11.0833 150.021 10.8203C150.428 10.5547 150.902 10.4219 151.443 10.4219C151.756 10.4219 152.064 10.474 152.369 10.5781C152.674 10.6823 152.951 10.8516 153.201 11.0859C153.451 11.3177 153.65 11.625 153.799 12.0078C153.947 12.3906 154.021 12.862 154.021 13.4219V13.8125H149.396V13.0156H153.084C153.084 12.6771 153.016 12.375 152.881 12.1094C152.748 11.8437 152.558 11.6341 152.311 11.4805C152.066 11.3268 151.777 11.25 151.443 11.25C151.076 11.25 150.758 11.3411 150.49 11.5234C150.225 11.7031 150.02 11.9375 149.877 12.2266C149.734 12.5156 149.662 12.8255 149.662 13.1562V13.6875C149.662 14.1406 149.74 14.5247 149.896 14.8398C150.055 15.1523 150.275 15.3906 150.557 15.5547C150.838 15.7161 151.165 15.7969 151.537 15.7969C151.779 15.7969 151.998 15.763 152.193 15.6953C152.391 15.625 152.562 15.5208 152.705 15.3828C152.848 15.2422 152.959 15.0677 153.037 14.8594L153.928 15.1094C153.834 15.4115 153.676 15.6771 153.455 15.9062C153.234 16.1328 152.96 16.3099 152.635 16.4375C152.309 16.5625 151.943 16.625 151.537 16.625ZM155.424 16.5V10.5H156.314V11.4062H156.377C156.486 11.1094 156.684 10.8685 156.971 10.6836C157.257 10.4987 157.58 10.4062 157.939 10.4062C158.007 10.4062 158.092 10.4076 158.193 10.4102C158.295 10.4128 158.372 10.4167 158.424 10.4219V11.3594C158.393 11.3516 158.321 11.3398 158.209 11.3242C158.1 11.306 157.984 11.2969 157.861 11.2969C157.57 11.2969 157.309 11.3581 157.08 11.4805C156.854 11.6003 156.674 11.7669 156.541 11.9805C156.411 12.1914 156.346 12.4323 156.346 12.7031V16.5H155.424Z" fill="white"/>
<g clip-path="url(#clip0_975_2301)">
<g clip-path="url(#clip1_975_2301)">
<path d="M9.41699 36.5V44.5H8.92871V37.0156H8.88184L7.08496 38.207V37.6836L8.86621 36.5H9.41699ZM14.3457 44.6094C13.8118 44.6094 13.3535 44.4453 12.9707 44.1172C12.5879 43.7891 12.2936 43.319 12.0879 42.707C11.8848 42.0924 11.7832 41.3568 11.7832 40.5C11.7832 39.6458 11.8861 38.9115 12.0918 38.2969C12.2975 37.6823 12.5905 37.2109 12.9707 36.8828C13.3535 36.5547 13.8118 36.3906 14.3457 36.3906C14.8796 36.3906 15.3366 36.5547 15.7168 36.8828C16.0996 37.2109 16.3939 37.6823 16.5996 38.2969C16.8053 38.9115 16.9082 39.6458 16.9082 40.5C16.9082 41.3568 16.8053 42.0924 16.5996 42.707C16.3965 43.319 16.1035 43.7891 15.7207 44.1172C15.3379 44.4453 14.8796 44.6094 14.3457 44.6094ZM14.3457 44.1562C14.9941 44.1562 15.5033 43.8346 15.873 43.1914C16.2428 42.5456 16.4277 41.6484 16.4277 40.5C16.4277 39.7344 16.3431 39.0781 16.1738 38.5313C16.0072 37.9844 15.7689 37.5664 15.459 37.2773C15.1491 36.9857 14.778 36.8398 14.3457 36.8398C13.6973 36.8398 13.1882 37.1628 12.8184 37.8086C12.4486 38.4544 12.2637 39.3516 12.2637 40.5C12.2637 41.2656 12.347 41.9219 12.5137 42.4687C12.6803 43.013 12.9186 43.431 13.2285 43.7227C13.541 44.0117 13.9134 44.1562 14.3457 44.1562Z" fill="white"/>
<path d="M40.6514 36.5H41.8076L44.5264 43.1406H44.6201L47.3389 36.5H48.4951V44.5H47.5889V38.4219H47.5107L45.0107 44.5H44.1357L41.6357 38.4219H41.5576V44.5H40.6514V36.5ZM52.75 44.625C52.2083 44.625 51.7331 44.4961 51.3242 44.2383C50.918 43.9805 50.6003 43.6198 50.3711 43.1562C50.1445 42.6927 50.0313 42.151 50.0313 41.5312C50.0313 40.9062 50.1445 40.3607 50.3711 39.8945C50.6003 39.4284 50.918 39.0664 51.3242 38.8086C51.7331 38.5508 52.2083 38.4219 52.75 38.4219C53.2917 38.4219 53.7656 38.5508 54.1719 38.8086C54.5807 39.0664 54.8984 39.4284 55.125 39.8945C55.3542 40.3607 55.4688 40.9062 55.4688 41.5312C55.4688 42.151 55.3542 42.6927 55.125 43.1562C54.8984 43.6198 54.5807 43.9805 54.1719 44.2383C53.7656 44.4961 53.2917 44.625 52.75 44.625ZM52.75 43.7969C53.1615 43.7969 53.5 43.6914 53.7656 43.4805C54.0313 43.2695 54.2279 42.9922 54.3555 42.6484C54.4831 42.3047 54.5469 41.9323 54.5469 41.5312C54.5469 41.1302 54.4831 40.7565 54.3555 40.4102C54.2279 40.0638 54.0313 39.7839 53.7656 39.5703C53.5 39.3568 53.1615 39.25 52.75 39.25C52.3385 39.25 52 39.3568 51.7344 39.5703C51.4688 39.7839 51.2721 40.0638 51.1445 40.4102C51.0169 40.7565 50.9531 41.1302 50.9531 41.5312C50.9531 41.9323 51.0169 42.3047 51.1445 42.6484C51.2721 42.9922 51.4688 43.2695 51.7344 43.4805C52 43.6914 52.3385 43.7969 52.75 43.7969Z" fill="#2D2D2D"/>
<path d="M77.9287 37.3594V36.5H83.9287V37.3594H81.4131V44.5H80.4443V37.3594H77.9287ZM88.2637 42.0469V38.5H89.1855V44.5H88.2637V43.4844H88.2012C88.0605 43.7891 87.8418 44.0482 87.5449 44.2617C87.248 44.4727 86.873 44.5781 86.4199 44.5781C86.0449 44.5781 85.7116 44.4961 85.4199 44.332C85.1283 44.1654 84.8991 43.9154 84.7324 43.582C84.5658 43.2461 84.4824 42.8229 84.4824 42.3125V38.5H85.4043V42.25C85.4043 42.6875 85.5267 43.0365 85.7715 43.2969C86.0189 43.5573 86.334 43.6875 86.7168 43.6875C86.946 43.6875 87.179 43.6289 87.416 43.5117C87.6556 43.3945 87.8561 43.2148 88.0176 42.9727C88.1816 42.7305 88.2637 42.4219 88.2637 42.0469Z" fill="#2D2D2D"/>
<path d="M113.851 44.5L111.663 36.5H112.647L114.319 43.0156H114.397L116.101 36.5H117.194L118.897 43.0156H118.976L120.647 36.5H121.632L119.444 44.5H118.444L116.679 38.125H116.616L114.851 44.5H113.851ZM124.671 44.625C124.093 44.625 123.594 44.4974 123.175 44.2422C122.758 43.9844 122.437 43.625 122.21 43.1641C121.986 42.7005 121.874 42.1615 121.874 41.5469C121.874 40.9323 121.986 40.3906 122.21 39.9219C122.437 39.4505 122.752 39.0833 123.155 38.8203C123.562 38.5547 124.035 38.4219 124.577 38.4219C124.89 38.4219 125.198 38.474 125.503 38.5781C125.808 38.6823 126.085 38.8516 126.335 39.0859C126.585 39.3177 126.784 39.625 126.933 40.0078C127.081 40.3906 127.155 40.862 127.155 41.4219V41.8125H122.53V41.0156H126.218C126.218 40.6771 126.15 40.375 126.015 40.1094C125.882 39.8437 125.692 39.6341 125.444 39.4805C125.2 39.3268 124.91 39.25 124.577 39.25C124.21 39.25 123.892 39.3411 123.624 39.5234C123.358 39.7031 123.154 39.9375 123.011 40.2266C122.868 40.5156 122.796 40.8255 122.796 41.1562V41.6875C122.796 42.1406 122.874 42.5247 123.03 42.8398C123.189 43.1523 123.409 43.3906 123.69 43.5547C123.972 43.7161 124.299 43.7969 124.671 43.7969C124.913 43.7969 125.132 43.763 125.327 43.6953C125.525 43.625 125.696 43.5208 125.839 43.3828C125.982 43.2422 126.093 43.0677 126.171 42.8594L127.062 43.1094C126.968 43.4115 126.81 43.6771 126.589 43.9062C126.368 44.1328 126.094 44.3099 125.769 44.4375C125.443 44.5625 125.077 44.625 124.671 44.625Z" fill="#2D2D2D"/>
<path d="M149.182 37.3594V36.5H155.182V37.3594H152.666V44.5H151.697V37.3594H149.182ZM157.474 40.8906V44.5H156.552V36.5H157.474V39.4375H157.552C157.692 39.1276 157.903 38.8815 158.185 38.6992C158.468 38.5143 158.846 38.4219 159.317 38.4219C159.726 38.4219 160.084 38.5039 160.392 38.668C160.699 38.8294 160.937 39.0781 161.106 39.4141C161.278 39.7474 161.364 40.1719 161.364 40.6875V44.5H160.442V40.75C160.442 40.2734 160.319 39.9049 160.071 39.6445C159.826 39.3815 159.487 39.25 159.052 39.25C158.75 39.25 158.479 39.3138 158.239 39.4414C158.002 39.569 157.815 39.7552 157.677 40C157.541 40.2448 157.474 40.5417 157.474 40.8906Z" fill="#2D2D2D"/>
<path d="M187.013 44.5V36.5H191.81V37.3594H187.981V40.0625H191.45V40.9219H187.981V44.5H187.013ZM193.279 44.5V38.5H194.17V39.4062H194.232C194.342 39.1094 194.54 38.8685 194.826 38.6836C195.113 38.4987 195.436 38.4062 195.795 38.4062C195.863 38.4062 195.947 38.4076 196.049 38.4102C196.15 38.4128 196.227 38.4167 196.279 38.4219V39.3594C196.248 39.3516 196.176 39.3398 196.064 39.3242C195.955 39.306 195.839 39.2969 195.717 39.2969C195.425 39.2969 195.165 39.3581 194.936 39.4805C194.709 39.6003 194.529 39.7669 194.396 39.9805C194.266 40.1914 194.201 40.4323 194.201 40.7031V44.5H193.279Z" fill="#2D2D2D"/>
<path d="M225.88 38.5C225.833 38.1042 225.643 37.7969 225.31 37.5781C224.976 37.3594 224.567 37.25 224.083 37.25C223.729 37.25 223.419 37.3073 223.153 37.4219C222.89 37.5365 222.685 37.694 222.536 37.8945C222.39 38.0951 222.317 38.3229 222.317 38.5781C222.317 38.7917 222.368 38.9753 222.47 39.1289C222.574 39.2799 222.707 39.4062 222.868 39.5078C223.03 39.6068 223.199 39.6888 223.376 39.7539C223.553 39.8164 223.716 39.8672 223.864 39.9062L224.677 40.125C224.885 40.1797 225.117 40.2552 225.372 40.3516C225.63 40.4479 225.876 40.5794 226.11 40.7461C226.347 40.9102 226.543 41.1211 226.696 41.3789C226.85 41.6367 226.927 41.9531 226.927 42.3281C226.927 42.7604 226.813 43.151 226.587 43.5C226.363 43.849 226.035 44.1263 225.603 44.332C225.173 44.5378 224.651 44.6406 224.036 44.6406C223.463 44.6406 222.967 44.5482 222.548 44.3633C222.131 44.1784 221.803 43.9206 221.563 43.5898C221.326 43.2591 221.192 42.875 221.161 42.4375H222.161C222.187 42.7396 222.289 42.9896 222.466 43.1875C222.646 43.3828 222.872 43.5286 223.146 43.625C223.422 43.7187 223.718 43.7656 224.036 43.7656C224.406 43.7656 224.738 43.7057 225.032 43.5859C225.326 43.4635 225.56 43.2943 225.731 43.0781C225.903 42.8594 225.989 42.6042 225.989 42.3125C225.989 42.0469 225.915 41.8307 225.767 41.6641C225.618 41.4974 225.423 41.362 225.181 41.2578C224.938 41.1536 224.677 41.0625 224.396 40.9844L223.411 40.7031C222.786 40.5234 222.291 40.2669 221.927 39.9336C221.562 39.6003 221.38 39.1641 221.38 38.625C221.38 38.1771 221.501 37.7865 221.743 37.4531C221.988 37.1172 222.316 36.8568 222.728 36.6719C223.142 36.4844 223.604 36.3906 224.114 36.3906C224.63 36.3906 225.088 36.4831 225.489 36.668C225.89 36.8503 226.208 37.1003 226.442 37.418C226.679 37.7357 226.804 38.0964 226.817 38.5H225.88ZM230.16 44.6406C229.78 44.6406 229.435 44.569 229.125 44.4258C228.815 44.2799 228.569 44.0703 228.387 43.7969C228.204 43.5208 228.113 43.1875 228.113 42.7969C228.113 42.4531 228.181 42.1745 228.316 41.9609C228.452 41.7448 228.633 41.5755 228.859 41.4531C229.086 41.3307 229.336 41.2396 229.609 41.1797C229.885 41.1172 230.163 41.0677 230.441 41.0313C230.806 40.9844 231.102 40.9492 231.328 40.9258C231.557 40.8997 231.724 40.8568 231.828 40.7969C231.935 40.737 231.988 40.6328 231.988 40.4844V40.4531C231.988 40.0677 231.883 39.7682 231.672 39.5547C231.464 39.3411 231.147 39.2344 230.723 39.2344C230.283 39.2344 229.938 39.3307 229.688 39.5234C229.438 39.7161 229.262 39.9219 229.16 40.1406L228.285 39.8281C228.441 39.4635 228.65 39.1797 228.91 38.9766C229.173 38.7708 229.46 38.6276 229.77 38.5469C230.082 38.4635 230.389 38.4219 230.691 38.4219C230.884 38.4219 231.105 38.4453 231.355 38.4922C231.608 38.5365 231.852 38.6289 232.086 38.7695C232.323 38.9102 232.52 39.1224 232.676 39.4062C232.832 39.6901 232.91 40.0703 232.91 40.5469V44.5H231.988V43.6875H231.941C231.879 43.8177 231.775 43.957 231.629 44.1055C231.483 44.2539 231.289 44.3802 231.047 44.4844C230.805 44.5885 230.509 44.6406 230.16 44.6406ZM230.301 43.8125C230.665 43.8125 230.973 43.7409 231.223 43.5977C231.475 43.4544 231.665 43.2695 231.793 43.043C231.923 42.8164 231.988 42.5781 231.988 42.3281V41.4844C231.949 41.5312 231.863 41.5742 231.73 41.6133C231.6 41.6497 231.449 41.6823 231.277 41.7109C231.108 41.737 230.943 41.7604 230.781 41.7812C230.622 41.7995 230.493 41.8151 230.395 41.8281C230.155 41.8594 229.931 41.9102 229.723 41.9805C229.517 42.0482 229.35 42.151 229.223 42.2891C229.098 42.4245 229.035 42.6094 229.035 42.8437C229.035 43.1641 229.154 43.4062 229.391 43.5703C229.63 43.7318 229.934 43.8125 230.301 43.8125Z" fill="#A9071C"/>
<path d="M261.641 38.5C261.594 38.1042 261.404 37.7969 261.07 37.5781C260.737 37.3594 260.328 37.25 259.844 37.25C259.49 37.25 259.18 37.3073 258.914 37.4219C258.651 37.5365 258.445 37.694 258.297 37.8945C258.151 38.0951 258.078 38.3229 258.078 38.5781C258.078 38.7917 258.129 38.9753 258.23 39.1289C258.335 39.2799 258.467 39.4062 258.629 39.5078C258.79 39.6068 258.96 39.6888 259.137 39.7539C259.314 39.8164 259.477 39.8672 259.625 39.9062L260.438 40.125C260.646 40.1797 260.878 40.2552 261.133 40.3516C261.391 40.4479 261.637 40.5794 261.871 40.7461C262.108 40.9102 262.303 41.1211 262.457 41.3789C262.611 41.6367 262.688 41.9531 262.688 42.3281C262.688 42.7604 262.574 43.151 262.348 43.5C262.124 43.849 261.796 44.1263 261.363 44.332C260.934 44.5378 260.411 44.6406 259.797 44.6406C259.224 44.6406 258.728 44.5482 258.309 44.3633C257.892 44.1784 257.564 43.9206 257.324 43.5898C257.087 43.2591 256.953 42.875 256.922 42.4375H257.922C257.948 42.7396 258.049 42.9896 258.227 43.1875C258.406 43.3828 258.633 43.5286 258.906 43.625C259.182 43.7187 259.479 43.7656 259.797 43.7656C260.167 43.7656 260.499 43.7057 260.793 43.5859C261.087 43.4635 261.32 43.2943 261.492 43.0781C261.664 42.8594 261.75 42.6042 261.75 42.3125C261.75 42.0469 261.676 41.8307 261.527 41.6641C261.379 41.4974 261.184 41.362 260.941 41.2578C260.699 41.1536 260.438 41.0625 260.156 40.9844L259.172 40.7031C258.547 40.5234 258.052 40.2669 257.687 39.9336C257.323 39.6003 257.141 39.1641 257.141 38.625C257.141 38.1771 257.262 37.7865 257.504 37.4531C257.749 37.1172 258.077 36.8568 258.488 36.6719C258.902 36.4844 259.365 36.3906 259.875 36.3906C260.391 36.3906 260.849 36.4831 261.25 36.668C261.651 36.8503 261.969 37.1003 262.203 37.418C262.44 37.7357 262.565 38.0964 262.578 38.5H261.641ZM267.937 42.0469V38.5H268.858V44.5H267.937V43.4844H267.874C267.733 43.7891 267.515 44.0482 267.218 44.2617C266.921 44.4727 266.546 44.5781 266.093 44.5781C265.718 44.5781 265.384 44.4961 265.093 44.332C264.801 44.1654 264.572 43.9154 264.405 43.582C264.239 43.2461 264.155 42.8229 264.155 42.3125V38.5H265.077V42.25C265.077 42.6875 265.2 43.0365 265.444 43.2969C265.692 43.5573 266.007 43.6875 266.39 43.6875C266.619 43.6875 266.852 43.6289 267.089 43.5117C267.328 43.3945 267.529 43.2148 267.69 42.9727C267.854 42.7305 267.937 42.4219 267.937 42.0469Z" fill="#A9071C"/>
</g>
<g clip-path="url(#clip2_975_2301)">
<rect y="65.1665" width="24" height="24" rx="4" fill="#2EBF43"/>
<path d="M8.75146 81.7759C8.27751 81.7759 7.85433 81.686 7.48193 81.5063C7.10954 81.3241 6.81396 81.0754 6.59521 80.7603C6.37907 80.4425 6.26709 80.078 6.25928 79.6665H6.75537C6.76318 79.992 6.85563 80.2798 7.03271 80.5298C7.2098 80.7772 7.44678 80.9712 7.74365 81.1118C8.04313 81.2524 8.37646 81.3228 8.74365 81.3228C9.14209 81.3228 9.49105 81.2446 9.79053 81.0884C10.0926 80.9321 10.3283 80.7212 10.4976 80.4556C10.6668 80.1873 10.7515 79.8879 10.7515 79.5571C10.7515 79.203 10.659 78.8931 10.4741 78.6274C10.2892 78.3592 10.0314 78.1509 9.70068 78.0024C9.36995 77.8514 8.98584 77.7759 8.54834 77.7759H8.25147V77.3228H8.54834C8.92074 77.3228 9.25407 77.255 9.54834 77.1196C9.84261 76.9816 10.0744 76.7876 10.2437 76.5376C10.4155 76.2876 10.5015 75.992 10.5015 75.6509C10.5015 75.3306 10.4272 75.0467 10.2788 74.7993C10.1304 74.5519 9.92464 74.3579 9.66162 74.2173C9.4012 74.0767 9.09521 74.0063 8.74365 74.0063C8.40511 74.0063 8.09782 74.0754 7.82178 74.2134C7.54834 74.3514 7.33089 74.5454 7.16943 74.7954C7.00798 75.0454 6.92594 75.3358 6.92334 75.6665H6.44287C6.44808 75.2524 6.55225 74.8866 6.75537 74.5688C6.9611 74.2511 7.23584 74.0037 7.57959 73.8267C7.92594 73.647 8.31657 73.5571 8.75146 73.5571C9.19417 73.5571 9.58219 73.6496 9.91553 73.8345C10.2515 74.0194 10.5119 74.2694 10.6968 74.5845C10.8843 74.8996 10.978 75.2498 10.978 75.6353C10.978 76.0988 10.8491 76.4959 10.5913 76.8267C10.3361 77.1548 9.98975 77.3826 9.55225 77.5103V77.5532C10.0705 77.6678 10.4806 77.9035 10.7827 78.2603C11.0848 78.617 11.2358 79.0493 11.2358 79.5571C11.2358 79.9738 11.1291 80.3501 10.9155 80.686C10.702 81.022 10.4077 81.2876 10.0327 81.4829C9.66032 81.6782 9.23324 81.7759 8.75146 81.7759ZM15.353 73.5571C15.689 73.5571 16.008 73.6287 16.3101 73.772C16.6121 73.9152 16.8791 74.1366 17.1108 74.436C17.3452 74.7329 17.5288 75.1183 17.6616 75.5923C17.797 76.0636 17.8647 76.6313 17.8647 77.2954C17.8647 77.8918 17.8166 78.4595 17.7202 78.9985C17.6265 79.535 17.4767 80.0129 17.271 80.4321C17.0653 80.8488 16.797 81.1769 16.4663 81.4165C16.1356 81.6561 15.7332 81.7759 15.2593 81.7759C14.8452 81.7759 14.4819 81.686 14.1694 81.5063C13.8569 81.3267 13.6056 81.078 13.4155 80.7603C13.228 80.4399 13.1147 80.0701 13.0757 79.6509H13.5601C13.6147 80.1379 13.7892 80.5389 14.0835 80.854C14.3778 81.1665 14.7697 81.3228 15.2593 81.3228C15.9494 81.3228 16.478 80.9829 16.8452 80.3032C17.2124 79.6235 17.396 78.6509 17.396 77.3853H17.353C17.2489 77.6353 17.0939 77.8566 16.8882 78.0493C16.6851 78.2394 16.4494 78.3879 16.1812 78.4946C15.9129 78.6014 15.6304 78.6548 15.3335 78.6548C14.8986 78.6548 14.5015 78.5441 14.1421 78.3228C13.7827 78.1014 13.4963 77.798 13.2827 77.4126C13.0692 77.0272 12.9624 76.591 12.9624 76.104C12.9624 75.6457 13.0614 75.2225 13.2593 74.8345C13.4598 74.4465 13.7384 74.1366 14.0952 73.9048C14.4546 73.6704 14.8739 73.5545 15.353 73.5571ZM15.353 74.0103C14.9858 74.0103 14.6577 74.104 14.3687 74.2915C14.0822 74.479 13.8556 74.7316 13.689 75.0493C13.5249 75.367 13.4429 75.7186 13.4429 76.104C13.4429 76.4972 13.5275 76.8527 13.6968 77.1704C13.8687 77.4855 14.1004 77.7368 14.3921 77.9243C14.6864 78.1092 15.0171 78.2017 15.3843 78.2017C15.6707 78.2017 15.9364 78.1444 16.1812 78.0298C16.4259 77.9126 16.6356 77.7524 16.8101 77.5493C16.9871 77.3436 17.1174 77.1105 17.2007 76.8501C17.284 76.5871 17.3049 76.3123 17.2632 76.0259C17.2059 75.6092 17.0887 75.2511 16.9116 74.9517C16.7371 74.6496 16.5158 74.4178 16.2476 74.2563C15.9819 74.0923 15.6838 74.0103 15.353 74.0103Z" fill="#2D2D2D"/>
<path d="M42.0093 81.6665V80.9634L44.6499 78.0728C44.9598 77.7342 45.215 77.4399 45.4155 77.1899C45.616 76.9373 45.7645 76.7004 45.8608 76.479C45.9598 76.255 46.0093 76.0207 46.0093 75.7759C46.0093 75.4946 45.9416 75.2511 45.8062 75.0454C45.6733 74.8397 45.491 74.6808 45.2593 74.5688C45.0275 74.4569 44.7671 74.4009 44.478 74.4009C44.1707 74.4009 43.9025 74.4647 43.6733 74.5923C43.4468 74.7173 43.271 74.8931 43.146 75.1196C43.0236 75.3462 42.9624 75.6118 42.9624 75.9165H42.0405C42.0405 75.4478 42.1486 75.0363 42.3647 74.6821C42.5809 74.328 42.8752 74.0519 43.2476 73.854C43.6226 73.6561 44.0431 73.5571 44.5093 73.5571C44.978 73.5571 45.3934 73.6561 45.7554 73.854C46.1174 74.0519 46.4012 74.3188 46.6069 74.6548C46.8127 74.9907 46.9155 75.3644 46.9155 75.7759C46.9155 76.0701 46.8621 76.3579 46.7554 76.6392C46.6512 76.9178 46.4689 77.229 46.2085 77.5728C45.9507 77.9139 45.5926 78.3306 45.1343 78.8228L43.3374 80.7446V80.8071H47.0562V81.6665H42.0093ZM51.1694 81.7759C50.7111 81.7759 50.2983 81.6847 49.9312 81.5024C49.564 81.3201 49.2697 81.0701 49.0483 80.7524C48.827 80.4347 48.7059 80.0728 48.6851 79.6665H49.6226C49.659 80.0285 49.8231 80.328 50.1147 80.5649C50.409 80.7993 50.7606 80.9165 51.1694 80.9165C51.4976 80.9165 51.7892 80.8397 52.0444 80.686C52.3022 80.5324 52.5041 80.3215 52.6499 80.0532C52.7983 79.7824 52.8726 79.4764 52.8726 79.1353C52.8726 78.7863 52.7957 78.4751 52.6421 78.2017C52.491 77.9256 52.2827 77.7082 52.0171 77.5493C51.7515 77.3905 51.4481 77.3097 51.1069 77.3071C50.8621 77.3045 50.6108 77.3423 50.353 77.4204C50.0952 77.4959 49.883 77.5936 49.7163 77.7134L48.8101 77.604L49.2944 73.6665H53.4507V74.5259H50.1069L49.8257 76.8853H49.8726C50.0366 76.755 50.2424 76.647 50.4897 76.561C50.7371 76.4751 50.995 76.4321 51.2632 76.4321C51.7528 76.4321 52.189 76.5493 52.5718 76.7837C52.9572 77.0155 53.2593 77.3332 53.478 77.7368C53.6994 78.1405 53.8101 78.6014 53.8101 79.1196C53.8101 79.63 53.6955 80.0858 53.4663 80.4868C53.2397 80.8853 52.9272 81.2004 52.5288 81.4321C52.1304 81.6613 51.6772 81.7759 51.1694 81.7759Z" fill="#3D3D3D"/>
<path d="M77.7798 81.6665V80.9634L80.4204 78.0728C80.7303 77.7342 80.9855 77.4399 81.186 77.1899C81.3866 76.9373 81.535 76.7004 81.6313 76.479C81.7303 76.255 81.7798 76.0207 81.7798 75.7759C81.7798 75.4946 81.7121 75.2511 81.5767 75.0454C81.4438 74.8397 81.2616 74.6808 81.0298 74.5688C80.798 74.4569 80.5376 74.4009 80.2485 74.4009C79.9412 74.4009 79.673 74.4647 79.4438 74.5923C79.2173 74.7173 79.0415 74.8931 78.9165 75.1196C78.7941 75.3462 78.7329 75.6118 78.7329 75.9165H77.811C77.811 75.4478 77.9191 75.0363 78.1353 74.6821C78.3514 74.328 78.6457 74.0519 79.0181 73.854C79.3931 73.6561 79.8136 73.5571 80.2798 73.5571C80.7485 73.5571 81.1639 73.6561 81.5259 73.854C81.8879 74.0519 82.1717 74.3188 82.3774 74.6548C82.5832 74.9907 82.686 75.3644 82.686 75.7759C82.686 76.0701 82.6326 76.3579 82.5259 76.6392C82.4217 76.9178 82.2394 77.229 81.979 77.5728C81.7212 77.9139 81.3631 78.3306 80.9048 78.8228L79.1079 80.7446V80.8071H82.8267V81.6665H77.7798ZM87.0962 81.7759C86.7681 81.7707 86.4399 81.7082 86.1118 81.5884C85.7837 81.4686 85.4842 81.2668 85.2134 80.9829C84.9425 80.6965 84.7251 80.3097 84.561 79.8228C84.397 79.3332 84.3149 78.7186 84.3149 77.979C84.3149 77.2707 84.3813 76.6431 84.5142 76.0962C84.647 75.5467 84.8397 75.0845 85.0923 74.7095C85.3449 74.3319 85.6496 74.0454 86.0063 73.8501C86.3657 73.6548 86.7707 73.5571 87.2212 73.5571C87.6691 73.5571 88.0675 73.647 88.4165 73.8267C88.7681 74.0037 89.0545 74.2511 89.2759 74.5688C89.4972 74.8866 89.6405 75.2524 89.7056 75.6665H88.7524C88.6639 75.3071 88.492 75.009 88.2368 74.772C87.9816 74.535 87.6431 74.4165 87.2212 74.4165C86.6014 74.4165 86.1131 74.686 85.7563 75.2251C85.4022 75.7642 85.2238 76.5207 85.2212 77.4946H85.2837C85.4295 77.2733 85.6027 77.0845 85.8032 76.9282C86.0063 76.7694 86.2303 76.647 86.4751 76.561C86.7199 76.4751 86.979 76.4321 87.2524 76.4321C87.7108 76.4321 88.13 76.5467 88.5103 76.7759C88.8905 77.0024 89.1951 77.3162 89.4243 77.7173C89.6535 78.1157 89.7681 78.5728 89.7681 79.0884C89.7681 79.5832 89.6574 80.0363 89.436 80.4478C89.2147 80.8566 88.9035 81.1821 88.5024 81.4243C88.104 81.6639 87.6353 81.7811 87.0962 81.7759ZM87.0962 80.9165C87.4243 80.9165 87.7186 80.8345 87.979 80.6704C88.242 80.5063 88.4491 80.2863 88.6001 80.0103C88.7537 79.7342 88.8306 79.4269 88.8306 79.0884C88.8306 78.7576 88.7563 78.4569 88.6079 78.186C88.4621 77.9126 88.2603 77.6951 88.0024 77.5337C87.7472 77.3722 87.4556 77.2915 87.1274 77.2915C86.88 77.2915 86.6496 77.341 86.436 77.4399C86.2225 77.5363 86.035 77.6691 85.8735 77.8384C85.7147 78.0076 85.5897 78.2017 85.4985 78.4204C85.4074 78.6366 85.3618 78.8644 85.3618 79.104C85.3618 79.4217 85.436 79.7186 85.5845 79.9946C85.7355 80.2707 85.9412 80.4933 86.2017 80.6626C86.4647 80.8319 86.7629 80.9165 87.0962 80.9165Z" fill="#3D3D3D"/>
<path d="M113.927 81.6665V80.9634L116.568 78.0728C116.878 77.7342 117.133 77.4399 117.333 77.1899C117.534 76.9373 117.682 76.7004 117.779 76.479C117.878 76.255 117.927 76.0207 117.927 75.7759C117.927 75.4946 117.86 75.2511 117.724 75.0454C117.591 74.8397 117.409 74.6808 117.177 74.5688C116.945 74.4569 116.685 74.4009 116.396 74.4009C116.089 74.4009 115.82 74.4647 115.591 74.5923C115.365 74.7173 115.189 74.8931 115.064 75.1196C114.942 75.3462 114.88 75.6118 114.88 75.9165H113.958C113.958 75.4478 114.067 75.0363 114.283 74.6821C114.499 74.328 114.793 74.0519 115.166 73.854C115.541 73.6561 115.961 73.5571 116.427 73.5571C116.896 73.5571 117.311 73.6561 117.673 73.854C118.035 74.0519 118.319 74.3188 118.525 74.6548C118.731 74.9907 118.833 75.3644 118.833 75.7759C118.833 76.0701 118.78 76.3579 118.673 76.6392C118.569 76.9178 118.387 77.229 118.126 77.5728C117.869 77.9139 117.511 78.3306 117.052 78.8228L115.255 80.7446V80.8071H118.974V81.6665H113.927ZM120.837 81.6665L124.416 74.5884V74.5259H120.291V73.6665H125.416V74.5728L121.853 81.6665H120.837Z" fill="#3D3D3D"/>
<path d="M149.538 81.6665V80.9634L152.178 78.0728C152.488 77.7342 152.743 77.4399 152.944 77.1899C153.144 76.9373 153.293 76.7004 153.389 76.479C153.488 76.255 153.538 76.0207 153.538 75.7759C153.538 75.4946 153.47 75.2511 153.334 75.0454C153.202 74.8397 153.019 74.6808 152.788 74.5688C152.556 74.4569 152.295 74.4009 152.006 74.4009C151.699 74.4009 151.431 74.4647 151.202 74.5923C150.975 74.7173 150.799 74.8931 150.674 75.1196C150.552 75.3462 150.491 75.6118 150.491 75.9165H149.569C149.569 75.4478 149.677 75.0363 149.893 74.6821C150.109 74.328 150.403 74.0519 150.776 73.854C151.151 73.6561 151.571 73.5571 152.038 73.5571C152.506 73.5571 152.922 73.6561 153.284 73.854C153.646 74.0519 153.93 74.3188 154.135 74.6548C154.341 74.9907 154.444 75.3644 154.444 75.7759C154.444 76.0701 154.39 76.3579 154.284 76.6392C154.18 76.9178 153.997 77.229 153.737 77.5728C153.479 77.9139 153.121 78.3306 152.663 78.8228L150.866 80.7446V80.8071H154.584V81.6665H149.538ZM158.76 81.7759C158.224 81.7759 157.75 81.6808 157.338 81.4907C156.93 81.298 156.611 81.0337 156.381 80.6978C156.152 80.3592 156.039 79.9738 156.042 79.5415C156.039 79.203 156.105 78.8905 156.241 78.604C156.376 78.3149 156.561 78.0741 156.795 77.8813C157.032 77.686 157.297 77.5623 157.588 77.5103V77.4634C157.206 77.3644 156.901 77.1496 156.674 76.8188C156.448 76.4855 156.336 76.1066 156.338 75.6821C156.336 75.2759 156.439 74.9126 156.647 74.5923C156.855 74.272 157.142 74.0194 157.506 73.8345C157.874 73.6496 158.292 73.5571 158.76 73.5571C159.224 73.5571 159.638 73.6496 160.002 73.8345C160.367 74.0194 160.653 74.272 160.862 74.5923C161.073 74.9126 161.18 75.2759 161.182 75.6821C161.18 76.1066 161.064 76.4855 160.834 76.8188C160.608 77.1496 160.307 77.3644 159.932 77.4634V77.5103C160.221 77.5623 160.482 77.686 160.713 77.8813C160.945 78.0741 161.13 78.3149 161.268 78.604C161.406 78.8905 161.476 79.203 161.479 79.5415C161.476 79.9738 161.359 80.3592 161.127 80.6978C160.898 81.0337 160.579 81.298 160.17 81.4907C159.764 81.6808 159.294 81.7759 158.76 81.7759ZM158.76 80.9165C159.122 80.9165 159.435 80.8579 159.698 80.7407C159.961 80.6235 160.164 80.4582 160.307 80.2446C160.45 80.0311 160.523 79.7811 160.526 79.4946C160.523 79.1925 160.445 78.9256 160.292 78.6938C160.138 78.4621 159.928 78.2798 159.663 78.147C159.4 78.0142 159.099 77.9478 158.76 77.9478C158.419 77.9478 158.114 78.0142 157.846 78.147C157.581 78.2798 157.371 78.4621 157.217 78.6938C157.066 78.9256 156.992 79.1925 156.995 79.4946C156.992 79.7811 157.061 80.0311 157.202 80.2446C157.345 80.4582 157.549 80.6235 157.815 80.7407C158.081 80.8579 158.396 80.9165 158.76 80.9165ZM158.76 77.1196C159.047 77.1196 159.301 77.0623 159.522 76.9478C159.746 76.8332 159.922 76.673 160.049 76.4673C160.177 76.2616 160.242 76.0207 160.245 75.7446C160.242 75.4738 160.178 75.2381 160.053 75.0376C159.928 74.8345 159.755 74.6782 159.534 74.5688C159.312 74.4569 159.055 74.4009 158.76 74.4009C158.461 74.4009 158.199 74.4569 157.975 74.5688C157.751 74.6782 157.578 74.8345 157.456 75.0376C157.333 75.2381 157.273 75.4738 157.276 75.7446C157.273 76.0207 157.334 76.2616 157.459 76.4673C157.587 76.673 157.763 76.8332 157.987 76.9478C158.211 77.0623 158.469 77.1196 158.76 77.1196Z" fill="#3D3D3D"/>
<path d="M185.352 81.6665V80.9634L187.993 78.0728C188.303 77.7342 188.558 77.4399 188.758 77.1899C188.959 76.9373 189.107 76.7004 189.204 76.479C189.303 76.255 189.352 76.0207 189.352 75.7759C189.352 75.4946 189.284 75.2511 189.149 75.0454C189.016 74.8397 188.834 74.6808 188.602 74.5688C188.37 74.4569 188.11 74.4009 187.821 74.4009C187.514 74.4009 187.245 74.4647 187.016 74.5923C186.79 74.7173 186.614 74.8931 186.489 75.1196C186.366 75.3462 186.305 75.6118 186.305 75.9165H185.383C185.383 75.4478 185.491 75.0363 185.708 74.6821C185.924 74.328 186.218 74.0519 186.59 73.854C186.965 73.6561 187.386 73.5571 187.852 73.5571C188.321 73.5571 188.736 73.6561 189.098 73.854C189.46 74.0519 189.744 74.3188 189.95 74.6548C190.155 74.9907 190.258 75.3644 190.258 75.7759C190.258 76.0701 190.205 76.3579 190.098 76.6392C189.994 76.9178 189.812 77.229 189.551 77.5728C189.293 77.9139 188.935 78.3306 188.477 78.8228L186.68 80.7446V80.8071H190.399V81.6665H185.352ZM194.559 73.5571C194.887 73.5597 195.215 73.6222 195.543 73.7446C195.872 73.867 196.171 74.0701 196.442 74.354C196.713 74.6353 196.93 75.0194 197.094 75.5063C197.258 75.9933 197.34 76.604 197.34 77.3384C197.34 78.0493 197.273 78.6808 197.137 79.2329C197.004 79.7824 196.812 80.2459 196.559 80.6235C196.309 81.0011 196.004 81.2876 195.645 81.4829C195.288 81.6782 194.885 81.7759 194.434 81.7759C193.986 81.7759 193.586 81.6873 193.235 81.5103C192.886 81.3306 192.599 81.0819 192.375 80.7642C192.154 80.4438 192.012 80.0728 191.95 79.6509H192.903C192.989 80.0181 193.159 80.3215 193.415 80.561C193.672 80.798 194.012 80.9165 194.434 80.9165C195.051 80.9165 195.538 80.647 195.895 80.1079C196.254 79.5688 196.434 78.8071 196.434 77.8228H196.372C196.226 78.0415 196.053 78.2303 195.852 78.3892C195.652 78.548 195.429 78.6704 195.184 78.7563C194.939 78.8423 194.679 78.8853 194.403 78.8853C193.944 78.8853 193.524 78.772 193.141 78.5454C192.761 78.3162 192.456 78.0024 192.227 77.604C192 77.203 191.887 76.7446 191.887 76.229C191.887 75.7394 191.997 75.2915 192.215 74.8853C192.437 74.4764 192.747 74.1509 193.145 73.9087C193.546 73.6665 194.017 73.5493 194.559 73.5571ZM194.559 74.4165C194.231 74.4165 193.935 74.4985 193.672 74.6626C193.412 74.8241 193.205 75.0428 193.051 75.3188C192.9 75.5923 192.825 75.8957 192.825 76.229C192.825 76.5623 192.898 76.8657 193.043 77.1392C193.192 77.41 193.394 77.6261 193.649 77.7876C193.907 77.9465 194.2 78.0259 194.528 78.0259C194.775 78.0259 195.006 77.9777 195.219 77.8813C195.433 77.7824 195.619 77.6483 195.778 77.479C195.939 77.3071 196.066 77.1131 196.157 76.897C196.248 76.6782 196.293 76.4504 196.293 76.2134C196.293 75.9009 196.218 75.6079 196.067 75.3345C195.918 75.061 195.713 74.8397 195.45 74.6704C195.189 74.5011 194.892 74.4165 194.559 74.4165Z" fill="#3D3D3D"/>
<path d="M223.734 81.7759C223.219 81.7759 222.759 81.6873 222.355 81.5103C221.954 81.3332 221.635 81.0871 221.398 80.772C221.164 80.4543 221.036 80.0858 221.016 79.6665H222C222.021 79.9243 222.109 80.147 222.266 80.3345C222.422 80.5194 222.626 80.6626 222.879 80.7642C223.132 80.8657 223.411 80.9165 223.719 80.9165C224.063 80.9165 224.367 80.8566 224.633 80.7368C224.898 80.617 225.107 80.4504 225.258 80.2368C225.409 80.0233 225.484 79.7759 225.484 79.4946C225.484 79.2004 225.411 78.9412 225.266 78.7173C225.12 78.4907 224.906 78.3136 224.625 78.186C224.344 78.0584 224 77.9946 223.594 77.9946H222.953V77.1353H223.594C223.911 77.1353 224.19 77.078 224.43 76.9634C224.672 76.8488 224.861 76.6873 224.996 76.479C225.134 76.2707 225.203 76.0259 225.203 75.7446C225.203 75.4738 225.143 75.2381 225.023 75.0376C224.904 74.8371 224.734 74.6808 224.516 74.5688C224.299 74.4569 224.044 74.4009 223.75 74.4009C223.474 74.4009 223.214 74.4517 222.969 74.5532C222.727 74.6522 222.529 74.7967 222.375 74.9868C222.221 75.1743 222.138 75.4009 222.125 75.6665H221.188C221.203 75.2472 221.329 74.88 221.566 74.5649C221.803 74.2472 222.113 73.9998 222.496 73.8228C222.882 73.6457 223.305 73.5571 223.766 73.5571C224.26 73.5571 224.685 73.6574 225.039 73.8579C225.393 74.0558 225.665 74.3175 225.855 74.6431C226.046 74.9686 226.141 75.3201 226.141 75.6978C226.141 76.1483 226.022 76.5324 225.785 76.8501C225.551 77.1678 225.232 77.3879 224.828 77.5103V77.5728C225.333 77.6561 225.728 77.8709 226.012 78.2173C226.296 78.561 226.438 78.9868 226.438 79.4946C226.438 79.9295 226.319 80.3201 226.082 80.6665C225.848 81.0103 225.527 81.2811 225.121 81.479C224.715 81.6769 224.253 81.7759 223.734 81.7759ZM230.645 81.7759C230.056 81.7759 229.555 81.6157 229.141 81.2954C228.727 80.9725 228.41 80.505 228.191 79.8931C227.973 79.2785 227.863 78.5363 227.863 77.6665C227.863 76.8019 227.973 76.0636 228.191 75.4517C228.413 74.8371 228.73 74.3683 229.145 74.0454C229.561 73.7199 230.061 73.5571 230.645 73.5571C231.228 73.5571 231.727 73.7199 232.141 74.0454C232.557 74.3683 232.875 74.8371 233.094 75.4517C233.315 76.0636 233.426 76.8019 233.426 77.6665C233.426 78.5363 233.316 79.2785 233.098 79.8931C232.879 80.505 232.562 80.9725 232.148 81.2954C231.734 81.6157 231.233 81.7759 230.645 81.7759ZM230.645 80.9165C231.228 80.9165 231.681 80.6353 232.004 80.0728C232.327 79.5103 232.488 78.7082 232.488 77.6665C232.488 76.9738 232.414 76.384 232.266 75.897C232.12 75.41 231.909 75.0389 231.633 74.7837C231.359 74.5285 231.03 74.4009 230.645 74.4009C230.066 74.4009 229.615 74.686 229.289 75.2563C228.964 75.8241 228.801 76.6274 228.801 77.6665C228.801 78.3592 228.874 78.9478 229.02 79.4321C229.165 79.9165 229.375 80.285 229.648 80.5376C229.924 80.7902 230.257 80.9165 230.645 80.9165Z" fill="#1270B0"/>
<path d="M264.084 73.6665V81.6665H263.115V74.6821H263.068L261.115 75.979V74.9946L263.115 73.6665H264.084Z" fill="#A9071C"/>
</g>
<g clip-path="url(#clip3_975_2301)">
<rect y="102.333" width="24" height="24" rx="4" fill="#2EBF43"/>
<path d="M6.08301 117.037V116.646L9.7041 110.833H10.001V111.587H9.74707L6.67285 116.541V116.583H11.2939V117.037H6.08301ZM9.78613 118.833V116.904V116.728V110.833H10.2627V118.833H9.78613ZM15.3555 118.943C14.8216 118.943 14.3633 118.779 13.9805 118.451C13.5977 118.123 13.3034 117.653 13.0977 117.041C12.8945 116.426 12.793 115.69 12.793 114.833C12.793 113.979 12.8958 113.245 13.1016 112.63C13.3073 112.016 13.6003 111.544 13.9805 111.216C14.3633 110.888 14.8216 110.724 15.3555 110.724C15.8893 110.724 16.3464 110.888 16.7266 111.216C17.1094 111.544 17.4036 112.016 17.6094 112.63C17.8151 113.245 17.918 113.979 17.918 114.833C17.918 115.69 17.8151 116.426 17.6094 117.041C17.4063 117.653 17.1133 118.123 16.7305 118.451C16.3477 118.779 15.8893 118.943 15.3555 118.943ZM15.3555 118.49C16.0039 118.49 16.513 118.168 16.8828 117.525C17.2526 116.879 17.4375 115.982 17.4375 114.833C17.4375 114.068 17.3529 113.412 17.1836 112.865C17.0169 112.318 16.7786 111.9 16.4688 111.611C16.1589 111.319 15.7878 111.173 15.3555 111.173C14.707 111.173 14.1979 111.496 13.8281 112.142C13.4583 112.788 13.2734 113.685 13.2734 114.833C13.2734 115.599 13.3568 116.255 13.5234 116.802C13.6901 117.347 13.9284 117.764 14.2383 118.056C14.5508 118.345 14.9232 118.49 15.3555 118.49Z" fill="#2D2D2D"/>
<path d="M45.3555 118.833V118.13L47.9961 115.24C48.306 114.901 48.5612 114.607 48.7617 114.357C48.9622 114.104 49.1107 113.867 49.207 113.646C49.306 113.422 49.3555 113.188 49.3555 112.943C49.3555 112.662 49.2878 112.418 49.1523 112.212C49.0195 112.007 48.8372 111.848 48.6055 111.736C48.3737 111.624 48.1133 111.568 47.8242 111.568C47.5169 111.568 47.2487 111.632 47.0195 111.759C46.793 111.884 46.6172 112.06 46.4922 112.287C46.3698 112.513 46.3086 112.779 46.3086 113.083H45.3867C45.3867 112.615 45.4948 112.203 45.7109 111.849C45.9271 111.495 46.2214 111.219 46.5938 111.021C46.9688 110.823 47.3893 110.724 47.8555 110.724C48.3242 110.724 48.7396 110.823 49.1016 111.021C49.4635 111.219 49.7474 111.486 49.9531 111.822C50.1589 112.158 50.2617 112.531 50.2617 112.943C50.2617 113.237 50.2083 113.525 50.1016 113.806C49.9974 114.085 49.8151 114.396 49.5547 114.74C49.2969 115.081 48.9388 115.498 48.4805 115.99L46.6836 117.912V117.974H50.4023V118.833H45.3555Z" fill="#2D2D2D"/>
<path d="M83.7432 118.943C83.2275 118.943 82.7679 118.854 82.3643 118.677C81.9632 118.5 81.6442 118.254 81.4072 117.939C81.1729 117.621 81.0452 117.253 81.0244 116.833H82.0088C82.0296 117.091 82.1182 117.314 82.2744 117.501C82.4307 117.686 82.6351 117.83 82.8877 117.931C83.1403 118.033 83.4202 118.083 83.7275 118.083C84.0713 118.083 84.376 118.024 84.6416 117.904C84.9072 117.784 85.1156 117.617 85.2666 117.404C85.4176 117.19 85.4932 116.943 85.4932 116.662C85.4932 116.367 85.4202 116.108 85.2744 115.884C85.1286 115.658 84.915 115.481 84.6338 115.353C84.3525 115.225 84.0088 115.162 83.6025 115.162H82.9619V114.302H83.6025C83.9202 114.302 84.1989 114.245 84.4385 114.13C84.6807 114.016 84.8695 113.854 85.0049 113.646C85.1429 113.438 85.2119 113.193 85.2119 112.912C85.2119 112.641 85.152 112.405 85.0322 112.205C84.9124 112.004 84.7432 111.848 84.5244 111.736C84.3083 111.624 84.0531 111.568 83.7588 111.568C83.4827 111.568 83.2223 111.619 82.9775 111.72C82.7354 111.819 82.5374 111.964 82.3838 112.154C82.2301 112.341 82.1468 112.568 82.1338 112.833H81.1963C81.2119 112.414 81.3382 112.047 81.5752 111.732C81.8122 111.414 82.1221 111.167 82.5049 110.99C82.8903 110.813 83.3135 110.724 83.7744 110.724C84.2692 110.724 84.6937 110.824 85.0479 111.025C85.402 111.223 85.6742 111.485 85.8643 111.81C86.0544 112.136 86.1494 112.487 86.1494 112.865C86.1494 113.315 86.0309 113.699 85.7939 114.017C85.5596 114.335 85.2406 114.555 84.8369 114.677V114.74C85.3421 114.823 85.7367 115.038 86.0205 115.384C86.3044 115.728 86.4463 116.154 86.4463 116.662C86.4463 117.097 86.3278 117.487 86.0908 117.833C85.8564 118.177 85.5361 118.448 85.1299 118.646C84.7236 118.844 84.2614 118.943 83.7432 118.943Z" fill="#2D2D2D"/>
<path d="M116.683 117.193V116.396L120.199 110.833H120.777V112.068H120.386L117.73 116.271V116.333H122.464V117.193H116.683ZM120.449 118.833V116.951V116.58V110.833H121.371V118.833H120.449Z" fill="#2D2D2D"/>
<path d="M155.411 118.943C154.952 118.943 154.54 118.852 154.172 118.669C153.805 118.487 153.511 118.237 153.29 117.919C153.068 117.602 152.947 117.24 152.926 116.833H153.864C153.9 117.195 154.064 117.495 154.356 117.732C154.65 117.966 155.002 118.083 155.411 118.083C155.739 118.083 156.03 118.007 156.286 117.853C156.543 117.699 156.745 117.488 156.891 117.22C157.04 116.949 157.114 116.643 157.114 116.302C157.114 115.953 157.037 115.642 156.883 115.369C156.732 115.093 156.524 114.875 156.258 114.716C155.993 114.557 155.689 114.477 155.348 114.474C155.103 114.472 154.852 114.509 154.594 114.587C154.336 114.663 154.124 114.761 153.958 114.88L153.051 114.771L153.536 110.833H157.692V111.693H154.348L154.067 114.052H154.114C154.278 113.922 154.484 113.814 154.731 113.728C154.978 113.642 155.236 113.599 155.504 113.599C155.994 113.599 156.43 113.716 156.813 113.951C157.198 114.182 157.5 114.5 157.719 114.904C157.941 115.307 158.051 115.768 158.051 116.287C158.051 116.797 157.937 117.253 157.708 117.654C157.481 118.052 157.168 118.367 156.77 118.599C156.372 118.828 155.918 118.943 155.411 118.943Z" fill="#2D2D2D"/>
<path d="M191.338 118.943C191.01 118.938 190.682 118.875 190.354 118.755C190.026 118.636 189.726 118.434 189.456 118.15C189.185 117.863 188.967 117.477 188.803 116.99C188.639 116.5 188.557 115.886 188.557 115.146C188.557 114.438 188.624 113.81 188.756 113.263C188.889 112.714 189.082 112.251 189.334 111.876C189.587 111.499 189.892 111.212 190.249 111.017C190.608 110.822 191.013 110.724 191.463 110.724C191.911 110.724 192.31 110.814 192.659 110.994C193.01 111.171 193.297 111.418 193.518 111.736C193.739 112.054 193.883 112.419 193.948 112.833H192.995C192.906 112.474 192.734 112.176 192.479 111.939C192.224 111.702 191.885 111.583 191.463 111.583C190.844 111.583 190.355 111.853 189.999 112.392C189.644 112.931 189.466 113.688 189.463 114.662H189.526C189.672 114.44 189.845 114.251 190.045 114.095C190.249 113.936 190.472 113.814 190.717 113.728C190.962 113.642 191.221 113.599 191.495 113.599C191.953 113.599 192.372 113.714 192.752 113.943C193.133 114.169 193.437 114.483 193.667 114.884C193.896 115.283 194.01 115.74 194.01 116.255C194.01 116.75 193.9 117.203 193.678 117.615C193.457 118.024 193.146 118.349 192.745 118.591C192.346 118.831 191.877 118.948 191.338 118.943ZM191.338 118.083C191.667 118.083 191.961 118.001 192.221 117.837C192.484 117.673 192.691 117.453 192.842 117.177C192.996 116.901 193.073 116.594 193.073 116.255C193.073 115.925 192.999 115.624 192.85 115.353C192.704 115.08 192.502 114.862 192.245 114.701C191.989 114.539 191.698 114.458 191.37 114.458C191.122 114.458 190.892 114.508 190.678 114.607C190.465 114.703 190.277 114.836 190.116 115.005C189.957 115.175 189.832 115.369 189.741 115.587C189.65 115.804 189.604 116.031 189.604 116.271C189.604 116.589 189.678 116.886 189.827 117.162C189.978 117.438 190.183 117.66 190.444 117.83C190.707 117.999 191.005 118.083 191.338 118.083Z" fill="#2D2D2D"/>
<path d="M225.079 118.833L228.657 111.755V111.693H224.532V110.833H229.657V111.74L226.094 118.833H225.079Z" fill="#A9071C"/>
<path d="M263.001 118.943C262.465 118.943 261.991 118.848 261.58 118.658C261.171 118.465 260.852 118.201 260.623 117.865C260.393 117.526 260.28 117.141 260.283 116.708C260.28 116.37 260.347 116.057 260.482 115.771C260.617 115.482 260.802 115.241 261.037 115.048C261.274 114.853 261.538 114.729 261.83 114.677V114.63C261.447 114.531 261.142 114.317 260.916 113.986C260.689 113.653 260.577 113.274 260.58 112.849C260.577 112.443 260.68 112.08 260.888 111.759C261.097 111.439 261.383 111.186 261.748 111.001C262.115 110.817 262.533 110.724 263.001 110.724C263.465 110.724 263.879 110.817 264.244 111.001C264.608 111.186 264.895 111.439 265.103 111.759C265.314 112.08 265.421 112.443 265.423 112.849C265.421 113.274 265.305 113.653 265.076 113.986C264.849 114.317 264.548 114.531 264.173 114.63V114.677C264.462 114.729 264.723 114.853 264.955 115.048C265.186 115.241 265.371 115.482 265.509 115.771C265.647 116.057 265.718 116.37 265.72 116.708C265.718 117.141 265.6 117.526 265.369 117.865C265.139 118.201 264.82 118.465 264.412 118.658C264.005 118.848 263.535 118.943 263.001 118.943ZM263.001 118.083C263.363 118.083 263.676 118.025 263.939 117.908C264.202 117.791 264.405 117.625 264.548 117.412C264.692 117.198 264.764 116.948 264.767 116.662C264.764 116.36 264.686 116.093 264.533 115.861C264.379 115.629 264.169 115.447 263.904 115.314C263.641 115.181 263.34 115.115 263.001 115.115C262.66 115.115 262.356 115.181 262.087 115.314C261.822 115.447 261.612 115.629 261.458 115.861C261.307 116.093 261.233 116.36 261.236 116.662C261.233 116.948 261.302 117.198 261.443 117.412C261.586 117.625 261.791 117.791 262.056 117.908C262.322 118.025 262.637 118.083 263.001 118.083ZM263.001 114.287C263.288 114.287 263.542 114.229 263.763 114.115C263.987 114 264.163 113.84 264.291 113.634C264.418 113.429 264.483 113.188 264.486 112.912C264.483 112.641 264.419 112.405 264.294 112.205C264.169 112.001 263.996 111.845 263.775 111.736C263.554 111.624 263.296 111.568 263.001 111.568C262.702 111.568 262.44 111.624 262.216 111.736C261.992 111.845 261.819 112.001 261.697 112.205C261.574 112.405 261.514 112.641 261.517 112.912C261.514 113.188 261.576 113.429 261.701 113.634C261.828 113.84 262.004 114 262.228 114.115C262.452 114.229 262.71 114.287 263.001 114.287Z" fill="#A9071C"/>
</g>
<g clip-path="url(#clip4_975_2301)">
<rect y="139.5" width="24" height="24" rx="4" fill="#2EBF43"/>
<path d="M7.10352 154.203V153.812L10.7246 148H11.0215V148.754H10.7676L7.69336 153.707V153.75H12.3145V154.203H7.10352ZM10.8066 156V154.07V153.895V148H11.2832V156H10.8066ZM16.0342 148V156H15.5459V148.516H15.499L13.7021 149.707V149.184L15.4834 148H16.0342Z" fill="#2D2D2D"/>
<path d="M47.8003 147.891C48.1284 147.893 48.4565 147.956 48.7847 148.078C49.1128 148.201 49.4123 148.404 49.6831 148.687C49.9539 148.969 50.1714 149.353 50.3354 149.84C50.4995 150.327 50.5815 150.937 50.5815 151.672C50.5815 152.383 50.5138 153.014 50.3784 153.566C50.2456 154.116 50.0529 154.579 49.8003 154.957C49.5503 155.335 49.2456 155.621 48.8862 155.816C48.5295 156.012 48.1258 156.109 47.6753 156.109C47.2274 156.109 46.8276 156.021 46.4761 155.844C46.1271 155.664 45.8407 155.415 45.6167 155.098C45.3953 154.777 45.2534 154.406 45.1909 153.984H46.144C46.23 154.352 46.4006 154.655 46.6558 154.895C46.9136 155.132 47.2534 155.25 47.6753 155.25C48.2925 155.25 48.7795 154.98 49.1362 154.441C49.4956 153.902 49.6753 153.141 49.6753 152.156H49.6128C49.467 152.375 49.2938 152.564 49.0933 152.723C48.8927 152.882 48.6701 153.004 48.4253 153.09C48.1805 153.176 47.9201 153.219 47.644 153.219C47.1857 153.219 46.7651 153.105 46.3823 152.879C46.0021 152.65 45.6974 152.336 45.4683 151.937C45.2417 151.536 45.1284 151.078 45.1284 150.562C45.1284 150.073 45.2378 149.625 45.4565 149.219C45.6779 148.81 45.9878 148.484 46.3862 148.242C46.7873 148 47.2586 147.883 47.8003 147.891ZM47.8003 148.75C47.4722 148.75 47.1766 148.832 46.9136 148.996C46.6532 149.158 46.4461 149.376 46.2925 149.652C46.1414 149.926 46.0659 150.229 46.0659 150.562C46.0659 150.896 46.1388 151.199 46.2847 151.473C46.4331 151.743 46.6349 151.96 46.8901 152.121C47.1479 152.28 47.4409 152.359 47.769 152.359C48.0164 152.359 48.2469 152.311 48.4604 152.215C48.674 152.116 48.8602 151.982 49.019 151.812C49.1805 151.641 49.3068 151.447 49.3979 151.23C49.4891 151.012 49.5347 150.784 49.5347 150.547C49.5347 150.234 49.4591 149.941 49.3081 149.668C49.1597 149.395 48.9539 149.173 48.6909 149.004C48.4305 148.835 48.1336 148.75 47.8003 148.75Z" fill="#2D2D2D"/>
<path d="M81.3604 148V156H80.3916V149.016H80.3447L78.3916 150.312V149.328L80.3916 148H81.3604ZM86.2705 156.109C85.682 156.109 85.1807 155.949 84.7666 155.629C84.3525 155.306 84.0361 154.839 83.8174 154.227C83.5986 153.612 83.4893 152.87 83.4893 152C83.4893 151.135 83.5986 150.397 83.8174 149.785C84.0387 149.171 84.3564 148.702 84.7705 148.379C85.1872 148.053 85.6872 147.891 86.2705 147.891C86.8538 147.891 87.3525 148.053 87.7666 148.379C88.1833 148.702 88.501 149.171 88.7197 149.785C88.9411 150.397 89.0518 151.135 89.0518 152C89.0518 152.87 88.9424 153.612 88.7236 154.227C88.5049 154.839 88.1885 155.306 87.7744 155.629C87.3604 155.949 86.859 156.109 86.2705 156.109ZM86.2705 155.25C86.8538 155.25 87.307 154.969 87.6299 154.406C87.9528 153.844 88.1143 153.042 88.1143 152C88.1143 151.307 88.04 150.717 87.8916 150.23C87.7458 149.743 87.5348 149.372 87.2588 149.117C86.9854 148.862 86.6559 148.734 86.2705 148.734C85.6924 148.734 85.2406 149.02 84.915 149.59C84.5895 150.158 84.4268 150.961 84.4268 152C84.4268 152.693 84.4997 153.281 84.6455 153.766C84.7913 154.25 85.001 154.618 85.2744 154.871C85.5505 155.124 85.8825 155.25 86.2705 155.25Z" fill="#2D2D2D"/>
<path d="M118.099 148V156H117.13V149.016H117.083L115.13 150.312V149.328L117.13 148H118.099ZM123.212 148V156H122.243V149.016H122.196L120.243 150.312V149.328L122.243 148H123.212Z" fill="#2D2D2D"/>
<path d="M153.183 148V156H152.214V149.016H152.167L150.214 150.312V149.328L152.214 148H153.183ZM155.483 156V155.297L158.124 152.406C158.434 152.068 158.689 151.773 158.89 151.523C159.09 151.271 159.239 151.034 159.335 150.812C159.434 150.589 159.483 150.354 159.483 150.109C159.483 149.828 159.416 149.585 159.28 149.379C159.147 149.173 158.965 149.014 158.733 148.902C158.502 148.79 158.241 148.734 157.952 148.734C157.645 148.734 157.377 148.798 157.147 148.926C156.921 149.051 156.745 149.227 156.62 149.453C156.498 149.68 156.437 149.945 156.437 150.25H155.515C155.515 149.781 155.623 149.37 155.839 149.016C156.055 148.661 156.349 148.385 156.722 148.187C157.097 147.99 157.517 147.891 157.983 147.891C158.452 147.891 158.868 147.99 159.229 148.187C159.591 148.385 159.875 148.652 160.081 148.988C160.287 149.324 160.39 149.698 160.39 150.109C160.39 150.404 160.336 150.691 160.229 150.973C160.125 151.251 159.943 151.562 159.683 151.906C159.425 152.247 159.067 152.664 158.608 153.156L156.812 155.078V155.141H160.53V156H155.483Z" fill="#2D2D2D"/>
<path d="M188.868 148V156H187.899V149.016H187.853L185.899 150.312V149.328L187.899 148H188.868ZM193.872 156.109C193.356 156.109 192.897 156.021 192.493 155.844C192.092 155.667 191.773 155.421 191.536 155.105C191.302 154.788 191.174 154.419 191.153 154H192.138C192.159 154.258 192.247 154.48 192.403 154.668C192.56 154.853 192.764 154.996 193.017 155.098C193.269 155.199 193.549 155.25 193.856 155.25C194.2 155.25 194.505 155.19 194.771 155.07C195.036 154.951 195.244 154.784 195.396 154.57C195.547 154.357 195.622 154.109 195.622 153.828C195.622 153.534 195.549 153.275 195.403 153.051C195.257 152.824 195.044 152.647 194.763 152.52C194.481 152.392 194.138 152.328 193.731 152.328H193.091V151.469H193.731C194.049 151.469 194.328 151.411 194.567 151.297C194.81 151.182 194.998 151.021 195.134 150.812C195.272 150.604 195.341 150.359 195.341 150.078C195.341 149.807 195.281 149.572 195.161 149.371C195.041 149.171 194.872 149.014 194.653 148.902C194.437 148.79 194.182 148.734 193.888 148.734C193.612 148.734 193.351 148.785 193.106 148.887C192.864 148.986 192.666 149.13 192.513 149.32C192.359 149.508 192.276 149.734 192.263 150H191.325C191.341 149.581 191.467 149.214 191.704 148.898C191.941 148.581 192.251 148.333 192.634 148.156C193.019 147.979 193.442 147.891 193.903 147.891C194.398 147.891 194.823 147.991 195.177 148.191C195.531 148.389 195.803 148.651 195.993 148.977C196.183 149.302 196.278 149.654 196.278 150.031C196.278 150.482 196.16 150.866 195.923 151.184C195.688 151.501 195.369 151.721 194.966 151.844V151.906C195.471 151.99 195.866 152.204 196.149 152.551C196.433 152.895 196.575 153.32 196.575 153.828C196.575 154.263 196.457 154.654 196.22 155C195.985 155.344 195.665 155.615 195.259 155.812C194.853 156.01 194.39 156.109 193.872 156.109Z" fill="#2D2D2D"/>
<path d="M224.698 148V156H223.729V149.016H223.682L221.729 150.312V149.328L223.729 148H224.698ZM226.811 154.359V153.562L230.327 148H230.905V149.234H230.514L227.858 153.437V153.5H232.592V154.359H226.811ZM230.577 156V154.117V153.746V148H231.499V156H230.577Z" fill="#A9071C"/>
<path d="M260.738 148V156H259.769V149.016H259.722L257.769 150.312V149.328L259.769 148H260.738ZM265.539 156.109C265.08 156.109 264.667 156.018 264.3 155.836C263.933 155.654 263.639 155.404 263.417 155.086C263.196 154.768 263.075 154.406 263.054 154H263.992C264.028 154.362 264.192 154.661 264.484 154.898C264.778 155.133 265.13 155.25 265.539 155.25C265.867 155.25 266.158 155.173 266.414 155.02C266.671 154.866 266.873 154.655 267.019 154.387C267.167 154.116 267.242 153.81 267.242 153.469C267.242 153.12 267.165 152.809 267.011 152.535C266.86 152.259 266.652 152.042 266.386 151.883C266.121 151.724 265.817 151.643 265.476 151.641C265.231 151.638 264.98 151.676 264.722 151.754C264.464 151.829 264.252 151.927 264.085 152.047L263.179 151.937L263.664 148H267.82V148.859H264.476L264.195 151.219H264.242C264.406 151.089 264.611 150.98 264.859 150.895C265.106 150.809 265.364 150.766 265.632 150.766C266.122 150.766 266.558 150.883 266.941 151.117C267.326 151.349 267.628 151.667 267.847 152.07C268.069 152.474 268.179 152.935 268.179 153.453C268.179 153.964 268.065 154.419 267.835 154.82C267.609 155.219 267.296 155.534 266.898 155.766C266.5 155.995 266.046 156.109 265.539 156.109Z" fill="#A9071C"/>
</g>
<g clip-path="url(#clip5_975_2301)">
<rect y="176.667" width="24" height="24" rx="4" fill="#2EBF43"/>
<path d="M6.01318 191.37V190.979L9.63428 185.167H9.93115V185.92H9.67725L6.60303 190.874V190.917H11.2241V191.37H6.01318ZM9.71631 193.167V191.237V191.061V185.167H10.1929V193.167H9.71631ZM12.9263 193.167V192.795L15.5161 189.811C15.8859 189.384 16.1789 189.022 16.395 188.725C16.6112 188.428 16.7661 188.16 16.8599 187.92C16.9536 187.681 17.0005 187.431 17.0005 187.17C17.0005 186.845 16.9237 186.557 16.77 186.307C16.619 186.055 16.4119 185.858 16.1489 185.717C15.8885 185.577 15.5916 185.506 15.2583 185.506C14.9093 185.506 14.6034 185.583 14.3403 185.737C14.0773 185.89 13.8716 186.099 13.7231 186.362C13.5773 186.625 13.5044 186.92 13.5044 187.249H13.0317C13.0317 186.834 13.1281 186.462 13.3208 186.131C13.5135 185.801 13.7778 185.539 14.1138 185.346C14.4523 185.153 14.8377 185.057 15.27 185.057C15.6945 185.057 16.0721 185.15 16.4028 185.334C16.7336 185.519 16.994 185.772 17.1841 186.092C17.3742 186.41 17.4692 186.769 17.4692 187.17C17.4692 187.465 17.4185 187.749 17.3169 188.022C17.2179 188.293 17.0474 188.596 16.8052 188.932C16.563 189.265 16.2284 189.677 15.8013 190.167L13.6294 192.67V192.713H17.8286V193.167H12.9263Z" fill="#3D3D3D"/>
<path d="M45.5093 185.167V193.167H44.5405V186.182H44.4937L42.5405 187.479V186.495L44.5405 185.167H45.5093ZM50.4663 193.276C50.1382 193.271 49.8101 193.208 49.4819 193.088C49.1538 192.969 48.8543 192.767 48.5835 192.483C48.3127 192.196 48.0952 191.81 47.9312 191.323C47.7671 190.833 47.6851 190.219 47.6851 189.479C47.6851 188.771 47.7515 188.143 47.8843 187.596C48.0171 187.047 48.2098 186.584 48.4624 186.209C48.715 185.832 49.0197 185.545 49.3765 185.35C49.7358 185.155 50.1408 185.057 50.5913 185.057C51.0392 185.057 51.4377 185.147 51.7866 185.327C52.1382 185.504 52.4246 185.751 52.646 186.069C52.8674 186.387 53.0106 186.752 53.0757 187.167H52.1226C52.034 186.807 51.8621 186.509 51.6069 186.272C51.3517 186.035 51.0132 185.917 50.5913 185.917C49.9715 185.917 49.4832 186.186 49.1265 186.725C48.7723 187.264 48.5939 188.021 48.5913 188.995H48.6538C48.7996 188.773 48.9728 188.584 49.1733 188.428C49.3765 188.269 49.6004 188.147 49.8452 188.061C50.09 187.975 50.3491 187.932 50.6226 187.932C51.0809 187.932 51.5002 188.047 51.8804 188.276C52.2606 188.502 52.5653 188.816 52.7944 189.217C53.0236 189.616 53.1382 190.073 53.1382 190.588C53.1382 191.083 53.0275 191.536 52.8062 191.948C52.5848 192.357 52.2736 192.682 51.8726 192.924C51.4741 193.164 51.0054 193.281 50.4663 193.276ZM50.4663 192.417C50.7944 192.417 51.0887 192.334 51.3491 192.17C51.6121 192.006 51.8192 191.786 51.9702 191.51C52.1239 191.234 52.2007 190.927 52.2007 190.588C52.2007 190.258 52.1265 189.957 51.978 189.686C51.8322 189.413 51.6304 189.195 51.3726 189.034C51.1174 188.872 50.8257 188.792 50.4976 188.792C50.2502 188.792 50.0197 188.841 49.8062 188.94C49.5926 189.036 49.4051 189.169 49.2437 189.338C49.0848 189.508 48.9598 189.702 48.8687 189.92C48.7775 190.137 48.7319 190.364 48.7319 190.604C48.7319 190.922 48.8062 191.219 48.9546 191.495C49.1056 191.771 49.3114 191.993 49.5718 192.163C49.8348 192.332 50.133 192.417 50.4663 192.417Z" fill="#2D2D2D"/>
<path d="M81.6558 185.167V193.167H80.687V186.182H80.6401L78.687 187.479V186.495L80.687 185.167H81.6558ZM84.2065 193.167L87.7847 186.088V186.026H83.6597V185.167H88.7847V186.073L85.2222 193.167H84.2065Z" fill="#2D2D2D"/>
<path d="M117.266 185.167V193.167H116.297V186.182H116.25L114.297 187.479V186.495L116.297 185.167H117.266ZM122.129 193.276C121.593 193.276 121.119 193.181 120.708 192.991C120.299 192.798 119.98 192.534 119.75 192.198C119.521 191.859 119.408 191.474 119.411 191.042C119.408 190.703 119.474 190.39 119.61 190.104C119.745 189.815 119.93 189.574 120.165 189.381C120.402 189.186 120.666 189.062 120.958 189.01V188.963C120.575 188.864 120.27 188.65 120.043 188.319C119.817 187.986 119.705 187.607 119.708 187.182C119.705 186.776 119.808 186.413 120.016 186.092C120.224 185.772 120.511 185.519 120.875 185.334C121.243 185.15 121.661 185.057 122.129 185.057C122.593 185.057 123.007 185.15 123.372 185.334C123.736 185.519 124.023 185.772 124.231 186.092C124.442 186.413 124.549 186.776 124.551 187.182C124.549 187.607 124.433 187.986 124.204 188.319C123.977 188.65 123.676 188.864 123.301 188.963V189.01C123.59 189.062 123.851 189.186 124.083 189.381C124.314 189.574 124.499 189.815 124.637 190.104C124.775 190.39 124.846 190.703 124.848 191.042C124.846 191.474 124.728 191.859 124.497 192.198C124.267 192.534 123.948 192.798 123.54 192.991C123.133 193.181 122.663 193.276 122.129 193.276ZM122.129 192.417C122.491 192.417 122.804 192.358 123.067 192.241C123.33 192.124 123.533 191.958 123.676 191.745C123.819 191.531 123.892 191.281 123.895 190.995C123.892 190.693 123.814 190.426 123.661 190.194C123.507 189.962 123.297 189.78 123.032 189.647C122.769 189.514 122.468 189.448 122.129 189.448C121.788 189.448 121.484 189.514 121.215 189.647C120.95 189.78 120.74 189.962 120.586 190.194C120.435 190.426 120.361 190.693 120.364 190.995C120.361 191.281 120.43 191.531 120.571 191.745C120.714 191.958 120.918 192.124 121.184 192.241C121.45 192.358 121.765 192.417 122.129 192.417ZM122.129 188.62C122.416 188.62 122.67 188.562 122.891 188.448C123.115 188.333 123.291 188.173 123.418 187.967C123.546 187.762 123.611 187.521 123.614 187.245C123.611 186.974 123.547 186.738 123.422 186.538C123.297 186.334 123.124 186.178 122.903 186.069C122.681 185.957 122.424 185.901 122.129 185.901C121.83 185.901 121.568 185.957 121.344 186.069C121.12 186.178 120.947 186.334 120.825 186.538C120.702 186.738 120.642 186.974 120.645 187.245C120.642 187.521 120.704 187.762 120.829 187.967C120.956 188.173 121.132 188.333 121.356 188.448C121.58 188.562 121.838 188.62 122.129 188.62Z" fill="#2D2D2D"/>
<path d="M153.081 185.167V193.167H152.112V186.182H152.065L150.112 187.479V186.495L152.112 185.167H153.081ZM157.928 185.057C158.256 185.06 158.584 185.122 158.913 185.245C159.241 185.367 159.54 185.57 159.811 185.854C160.082 186.135 160.299 186.519 160.463 187.006C160.627 187.493 160.709 188.104 160.709 188.838C160.709 189.549 160.642 190.181 160.506 190.733C160.374 191.282 160.181 191.746 159.928 192.124C159.678 192.501 159.374 192.788 159.014 192.983C158.657 193.178 158.254 193.276 157.803 193.276C157.355 193.276 156.956 193.187 156.604 193.01C156.255 192.831 155.969 192.582 155.745 192.264C155.523 191.944 155.381 191.573 155.319 191.151H156.272C156.358 191.518 156.528 191.821 156.784 192.061C157.042 192.298 157.381 192.417 157.803 192.417C158.42 192.417 158.907 192.147 159.264 191.608C159.624 191.069 159.803 190.307 159.803 189.323H159.741C159.595 189.542 159.422 189.73 159.221 189.889C159.021 190.048 158.798 190.17 158.553 190.256C158.308 190.342 158.048 190.385 157.772 190.385C157.314 190.385 156.893 190.272 156.51 190.045C156.13 189.816 155.825 189.502 155.596 189.104C155.37 188.703 155.256 188.245 155.256 187.729C155.256 187.239 155.366 186.792 155.584 186.385C155.806 185.976 156.116 185.651 156.514 185.409C156.915 185.167 157.387 185.049 157.928 185.057ZM157.928 185.917C157.6 185.917 157.305 185.999 157.042 186.163C156.781 186.324 156.574 186.543 156.42 186.819C156.269 187.092 156.194 187.396 156.194 187.729C156.194 188.062 156.267 188.366 156.413 188.639C156.561 188.91 156.763 189.126 157.018 189.288C157.276 189.446 157.569 189.526 157.897 189.526C158.144 189.526 158.375 189.478 158.588 189.381C158.802 189.282 158.988 189.148 159.147 188.979C159.308 188.807 159.435 188.613 159.526 188.397C159.617 188.178 159.663 187.95 159.663 187.713C159.663 187.401 159.587 187.108 159.436 186.834C159.288 186.561 159.082 186.34 158.819 186.17C158.558 186.001 158.262 185.917 157.928 185.917Z" fill="#2D2D2D"/>
<rect x="179.286" y="176.667" width="24" height="24" rx="4" fill="#2EBF43"/>
<path d="M185.347 193.167V192.463L187.987 189.573C188.297 189.234 188.552 188.94 188.753 188.69C188.953 188.437 189.102 188.2 189.198 187.979C189.297 187.755 189.347 187.521 189.347 187.276C189.347 186.995 189.279 186.751 189.144 186.545C189.011 186.34 188.828 186.181 188.597 186.069C188.365 185.957 188.104 185.901 187.815 185.901C187.508 185.901 187.24 185.965 187.011 186.092C186.784 186.217 186.608 186.393 186.483 186.62C186.361 186.846 186.3 187.112 186.3 187.417H185.378C185.378 186.948 185.486 186.536 185.702 186.182C185.918 185.828 186.213 185.552 186.585 185.354C186.96 185.156 187.381 185.057 187.847 185.057C188.315 185.057 188.731 185.156 189.093 185.354C189.455 185.552 189.739 185.819 189.944 186.155C190.15 186.491 190.253 186.864 190.253 187.276C190.253 187.57 190.2 187.858 190.093 188.139C189.989 188.418 189.806 188.729 189.546 189.073C189.288 189.414 188.93 189.831 188.472 190.323L186.675 192.245V192.307H190.394V193.167H185.347ZM194.616 193.276C194.028 193.276 193.526 193.116 193.112 192.795C192.698 192.472 192.382 192.005 192.163 191.393C191.944 190.778 191.835 190.036 191.835 189.167C191.835 188.302 191.944 187.564 192.163 186.952C192.384 186.337 192.702 185.868 193.116 185.545C193.533 185.22 194.033 185.057 194.616 185.057C195.2 185.057 195.698 185.22 196.112 185.545C196.529 185.868 196.847 186.337 197.065 186.952C197.287 187.564 197.397 188.302 197.397 189.167C197.397 190.036 197.288 190.778 197.069 191.393C196.851 192.005 196.534 192.472 196.12 192.795C195.706 193.116 195.205 193.276 194.616 193.276ZM194.616 192.417C195.2 192.417 195.653 192.135 195.976 191.573C196.299 191.01 196.46 190.208 196.46 189.167C196.46 188.474 196.386 187.884 196.237 187.397C196.091 186.91 195.881 186.539 195.604 186.284C195.331 186.028 195.002 185.901 194.616 185.901C194.038 185.901 193.586 186.186 193.261 186.756C192.935 187.324 192.772 188.127 192.772 189.167C192.772 189.859 192.845 190.448 192.991 190.932C193.137 191.417 193.347 191.785 193.62 192.038C193.896 192.29 194.228 192.417 194.616 192.417Z" fill="white"/>
<path d="M222.084 193.167V192.463L224.725 189.573C225.035 189.234 225.29 188.94 225.49 188.69C225.691 188.437 225.839 188.2 225.936 187.979C226.035 187.755 226.084 187.521 226.084 187.276C226.084 186.995 226.016 186.751 225.881 186.545C225.748 186.34 225.566 186.181 225.334 186.069C225.102 185.957 224.842 185.901 224.553 185.901C224.245 185.901 223.977 185.965 223.748 186.092C223.521 186.217 223.346 186.393 223.221 186.62C223.098 186.846 223.037 187.112 223.037 187.417H222.115C222.115 186.948 222.223 186.536 222.439 186.182C222.656 185.828 222.95 185.552 223.322 185.354C223.697 185.156 224.118 185.057 224.584 185.057C225.053 185.057 225.468 185.156 225.83 185.354C226.192 185.552 226.476 185.819 226.682 186.155C226.887 186.491 226.99 186.864 226.99 187.276C226.99 187.57 226.937 187.858 226.83 188.139C226.726 188.418 226.544 188.729 226.283 189.073C226.025 189.414 225.667 189.831 225.209 190.323L223.412 192.245V192.307H227.131V193.167H222.084ZM231.557 185.167V193.167H230.588V186.182H230.541L228.588 187.479V186.495L230.588 185.167H231.557Z" fill="#A9071C"/>
<path d="M257.168 193.167V192.463L259.809 189.573C260.118 189.234 260.374 188.94 260.574 188.69C260.775 188.437 260.923 188.2 261.02 187.979C261.118 187.755 261.168 187.521 261.168 187.276C261.168 186.995 261.1 186.751 260.965 186.545C260.832 186.34 260.65 186.181 260.418 186.069C260.186 185.957 259.926 185.901 259.637 185.901C259.329 185.901 259.061 185.965 258.832 186.092C258.605 186.217 258.43 186.393 258.305 186.62C258.182 186.846 258.121 187.112 258.121 187.417H257.199C257.199 186.948 257.307 186.536 257.523 186.182C257.74 185.828 258.034 185.552 258.406 185.354C258.781 185.156 259.202 185.057 259.668 185.057C260.137 185.057 260.552 185.156 260.914 185.354C261.276 185.552 261.56 185.819 261.766 186.155C261.971 186.491 262.074 186.864 262.074 187.276C262.074 187.57 262.021 187.858 261.914 188.139C261.81 188.418 261.628 188.729 261.367 189.073C261.109 189.414 260.751 189.831 260.293 190.323L258.496 192.245V192.307H262.215V193.167H257.168ZM263.828 193.167V192.463L266.469 189.573C266.779 189.234 267.034 188.94 267.234 188.69C267.435 188.437 267.583 188.2 267.68 187.979C267.779 187.755 267.828 187.521 267.828 187.276C267.828 186.995 267.76 186.751 267.625 186.545C267.492 186.34 267.31 186.181 267.078 186.069C266.846 185.957 266.586 185.901 266.297 185.901C265.99 185.901 265.721 185.965 265.492 186.092C265.266 186.217 265.09 186.393 264.965 186.62C264.842 186.846 264.781 187.112 264.781 187.417H263.859C263.859 186.948 263.967 186.536 264.184 186.182C264.4 185.828 264.694 185.552 265.066 185.354C265.441 185.156 265.862 185.057 266.328 185.057C266.797 185.057 267.212 185.156 267.574 185.354C267.936 185.552 268.22 185.819 268.426 186.155C268.632 186.491 268.734 186.864 268.734 187.276C268.734 187.57 268.681 187.858 268.574 188.139C268.47 188.418 268.288 188.729 268.027 189.073C267.77 189.414 267.411 189.831 266.953 190.323L265.156 192.245V192.307H268.875V193.167H263.828Z" fill="#A9071C"/>
</g>
<g clip-path="url(#clip6_975_2301)">
<rect y="213.833" width="24" height="24" rx="4" fill="#2EBF43"/>
<path d="M5.98096 228.537V228.146L9.60205 222.333H9.89893V223.087H9.64502L6.5708 228.041V228.083H11.1919V228.537H5.98096ZM9.68408 230.333V228.404V228.228V222.333H10.1606V230.333H9.68408ZM15.3901 230.443C14.9162 230.443 14.493 230.353 14.1206 230.173C13.7482 229.991 13.4526 229.742 13.2339 229.427C13.0177 229.11 12.9058 228.745 12.8979 228.333H13.394C13.4019 228.659 13.4943 228.947 13.6714 229.197C13.8485 229.444 14.0854 229.638 14.3823 229.779C14.6818 229.919 15.0151 229.99 15.3823 229.99C15.7808 229.99 16.1297 229.912 16.4292 229.755C16.7313 229.599 16.967 229.388 17.1362 229.123C17.3055 228.854 17.3901 228.555 17.3901 228.224C17.3901 227.87 17.2977 227.56 17.1128 227.294C16.9279 227.026 16.6701 226.818 16.3394 226.669C16.0086 226.518 15.6245 226.443 15.187 226.443H14.8901V225.99H15.187C15.5594 225.99 15.8927 225.922 16.187 225.787C16.4813 225.649 16.7131 225.455 16.8823 225.205C17.0542 224.955 17.1401 224.659 17.1401 224.318C17.1401 223.998 17.0659 223.714 16.9175 223.466C16.769 223.219 16.5633 223.025 16.3003 222.884C16.0399 222.744 15.7339 222.673 15.3823 222.673C15.0438 222.673 14.7365 222.742 14.4604 222.88C14.187 223.018 13.9696 223.212 13.8081 223.462C13.6466 223.712 13.5646 224.003 13.562 224.333H13.0815C13.0868 223.919 13.1909 223.554 13.394 223.236C13.5998 222.918 13.8745 222.671 14.2183 222.494C14.5646 222.314 14.9552 222.224 15.3901 222.224C15.8328 222.224 16.2209 222.317 16.5542 222.501C16.8901 222.686 17.1506 222.936 17.3354 223.251C17.5229 223.567 17.6167 223.917 17.6167 224.302C17.6167 224.766 17.4878 225.163 17.23 225.494C16.9748 225.822 16.6284 226.05 16.1909 226.177V226.22C16.7091 226.335 17.1193 226.57 17.4214 226.927C17.7235 227.284 17.8745 227.716 17.8745 228.224C17.8745 228.641 17.7677 229.017 17.5542 229.353C17.3407 229.689 17.0464 229.955 16.6714 230.15C16.299 230.345 15.8719 230.443 15.3901 230.443Z" fill="#2D2D2D"/>
<path d="M41.8535 230.333V229.63L44.4941 226.74C44.804 226.401 45.0592 226.107 45.2598 225.857C45.4603 225.604 45.6087 225.367 45.7051 225.146C45.804 224.922 45.8535 224.688 45.8535 224.443C45.8535 224.162 45.7858 223.918 45.6504 223.712C45.5176 223.507 45.3353 223.348 45.1035 223.236C44.8717 223.124 44.6113 223.068 44.3223 223.068C44.015 223.068 43.7467 223.132 43.5176 223.259C43.291 223.384 43.1152 223.56 42.9902 223.787C42.8678 224.013 42.8066 224.279 42.8066 224.583H41.8848C41.8848 224.115 41.9928 223.703 42.209 223.349C42.4251 222.995 42.7194 222.719 43.0918 222.521C43.4668 222.323 43.8874 222.224 44.3535 222.224C44.8223 222.224 45.2376 222.323 45.5996 222.521C45.9616 222.719 46.2454 222.986 46.4512 223.322C46.6569 223.658 46.7598 224.031 46.7598 224.443C46.7598 224.737 46.7064 225.025 46.5996 225.306C46.4954 225.585 46.3132 225.896 46.0527 226.24C45.7949 226.581 45.4368 226.998 44.9785 227.49L43.1816 229.412V229.474H46.9004V230.333H41.8535ZM51.2168 230.443C50.7012 230.443 50.2415 230.354 49.8379 230.177C49.4368 230 49.1178 229.754 48.8809 229.439C48.6465 229.121 48.5189 228.753 48.498 228.333H49.4824C49.5033 228.591 49.5918 228.814 49.748 229.001C49.9043 229.186 50.1087 229.33 50.3613 229.431C50.6139 229.533 50.8939 229.583 51.2012 229.583C51.5449 229.583 51.8496 229.524 52.1152 229.404C52.3809 229.284 52.5892 229.117 52.7402 228.904C52.8913 228.69 52.9668 228.443 52.9668 228.162C52.9668 227.867 52.8939 227.608 52.748 227.384C52.6022 227.158 52.3887 226.981 52.1074 226.853C51.8262 226.725 51.4824 226.662 51.0762 226.662H50.4355V225.802H51.0762C51.3939 225.802 51.6725 225.745 51.9121 225.63C52.1543 225.516 52.3431 225.354 52.4785 225.146C52.6165 224.938 52.6855 224.693 52.6855 224.412C52.6855 224.141 52.6257 223.905 52.5059 223.705C52.3861 223.504 52.2168 223.348 51.998 223.236C51.7819 223.124 51.5267 223.068 51.2324 223.068C50.9564 223.068 50.696 223.119 50.4512 223.22C50.209 223.319 50.0111 223.464 49.8574 223.654C49.7038 223.841 49.6204 224.068 49.6074 224.333H48.6699C48.6855 223.914 48.8118 223.547 49.0488 223.232C49.2858 222.914 49.5957 222.667 49.9785 222.49C50.3639 222.313 50.7871 222.224 51.248 222.224C51.7428 222.224 52.1673 222.324 52.5215 222.525C52.8757 222.723 53.1478 222.985 53.3379 223.31C53.528 223.636 53.623 223.987 53.623 224.365C53.623 224.815 53.5046 225.199 53.2676 225.517C53.0332 225.835 52.7142 226.055 52.3105 226.177V226.24C52.8158 226.323 53.2103 226.538 53.4941 226.884C53.778 227.228 53.9199 227.654 53.9199 228.162C53.9199 228.597 53.8014 228.987 53.5645 229.333C53.3301 229.677 53.0098 229.948 52.6035 230.146C52.1973 230.344 51.735 230.443 51.2168 230.443Z" fill="#2D2D2D"/>
<path d="M77.769 230.333V229.63L80.4097 226.74C80.7196 226.401 80.9748 226.107 81.1753 225.857C81.3758 225.604 81.5243 225.367 81.6206 225.146C81.7196 224.922 81.769 224.688 81.769 224.443C81.769 224.162 81.7013 223.918 81.5659 223.712C81.4331 223.507 81.2508 223.348 81.019 223.236C80.7873 223.124 80.5269 223.068 80.2378 223.068C79.9305 223.068 79.6623 223.132 79.4331 223.259C79.2065 223.384 79.0308 223.56 78.9058 223.787C78.7834 224.013 78.7222 224.279 78.7222 224.583H77.8003C77.8003 224.115 77.9084 223.703 78.1245 223.349C78.3407 222.995 78.6349 222.719 79.0073 222.521C79.3823 222.323 79.8029 222.224 80.269 222.224C80.7378 222.224 81.1532 222.323 81.5151 222.521C81.8771 222.719 82.161 222.986 82.3667 223.322C82.5724 223.658 82.6753 224.031 82.6753 224.443C82.6753 224.737 82.6219 225.025 82.5151 225.306C82.411 225.585 82.2287 225.896 81.9683 226.24C81.7104 226.581 81.3524 226.998 80.894 227.49L79.0972 229.412V229.474H82.8159V230.333H77.769ZM84.0698 228.693V227.896L87.5854 222.333H88.1636V223.568H87.7729L85.1167 227.771V227.833H89.8511V228.693H84.0698ZM87.8354 230.333V228.451V228.08V222.333H88.7573V230.333H87.8354Z" fill="#2D2D2D"/>
<path d="M113.723 230.333V229.63L116.364 226.74C116.674 226.401 116.929 226.107 117.129 225.857C117.33 225.604 117.478 225.367 117.575 225.146C117.674 224.922 117.723 224.688 117.723 224.443C117.723 224.162 117.655 223.918 117.52 223.712C117.387 223.507 117.205 223.348 116.973 223.236C116.741 223.124 116.481 223.068 116.192 223.068C115.885 223.068 115.616 223.132 115.387 223.259C115.161 223.384 114.985 223.56 114.86 223.787C114.737 224.013 114.676 224.279 114.676 224.583H113.754C113.754 224.115 113.862 223.703 114.079 223.349C114.295 222.995 114.589 222.719 114.961 222.521C115.336 222.323 115.757 222.224 116.223 222.224C116.692 222.224 117.107 222.323 117.469 222.521C117.831 222.719 118.115 222.986 118.321 223.322C118.527 223.658 118.629 224.031 118.629 224.443C118.629 224.737 118.576 225.025 118.469 225.306C118.365 225.585 118.183 225.896 117.922 226.24C117.665 226.581 117.306 226.998 116.848 227.49L115.051 229.412V229.474H118.77V230.333H113.723ZM122.883 230.443C122.425 230.443 122.012 230.352 121.645 230.169C121.278 229.987 120.984 229.737 120.762 229.419C120.541 229.102 120.42 228.74 120.399 228.333H121.336C121.373 228.695 121.537 228.995 121.829 229.232C122.123 229.466 122.474 229.583 122.883 229.583C123.211 229.583 123.503 229.507 123.758 229.353C124.016 229.199 124.218 228.988 124.364 228.72C124.512 228.449 124.586 228.143 124.586 227.802C124.586 227.453 124.51 227.142 124.356 226.869C124.205 226.593 123.997 226.375 123.731 226.216C123.465 226.057 123.162 225.977 122.821 225.974C122.576 225.972 122.325 226.009 122.067 226.087C121.809 226.163 121.597 226.261 121.43 226.38L120.524 226.271L121.008 222.333H125.165V223.193H121.821L121.54 225.552H121.586C121.75 225.422 121.956 225.314 122.204 225.228C122.451 225.142 122.709 225.099 122.977 225.099C123.467 225.099 123.903 225.216 124.286 225.451C124.671 225.682 124.973 226 125.192 226.404C125.413 226.807 125.524 227.268 125.524 227.787C125.524 228.297 125.409 228.753 125.18 229.154C124.954 229.552 124.641 229.867 124.243 230.099C123.844 230.328 123.391 230.443 122.883 230.443Z" fill="#2D2D2D"/>
<path d="M149.495 230.333V229.63L152.135 226.74C152.445 226.401 152.7 226.107 152.901 225.857C153.101 225.604 153.25 225.367 153.346 225.146C153.445 224.922 153.495 224.688 153.495 224.443C153.495 224.162 153.427 223.918 153.292 223.712C153.159 223.507 152.976 223.348 152.745 223.236C152.513 223.124 152.252 223.068 151.963 223.068C151.656 223.068 151.388 223.132 151.159 223.259C150.932 223.384 150.756 223.56 150.631 223.787C150.509 224.013 150.448 224.279 150.448 224.583H149.526C149.526 224.115 149.634 223.703 149.85 223.349C150.066 222.995 150.361 222.719 150.733 222.521C151.108 222.323 151.528 222.224 151.995 222.224C152.463 222.224 152.879 222.323 153.241 222.521C153.603 222.719 153.887 222.986 154.092 223.322C154.298 223.658 154.401 224.031 154.401 224.443C154.401 224.737 154.347 225.025 154.241 225.306C154.137 225.585 153.954 225.896 153.694 226.24C153.436 226.581 153.078 226.998 152.62 227.49L150.823 229.412V229.474H154.542V230.333H149.495ZM158.811 230.443C158.483 230.438 158.155 230.375 157.827 230.255C157.499 230.136 157.199 229.934 156.928 229.65C156.657 229.363 156.44 228.977 156.276 228.49C156.112 228 156.03 227.386 156.03 226.646C156.03 225.938 156.096 225.31 156.229 224.763C156.362 224.214 156.555 223.751 156.807 223.376C157.06 222.999 157.364 222.712 157.721 222.517C158.081 222.322 158.486 222.224 158.936 222.224C159.384 222.224 159.782 222.314 160.131 222.494C160.483 222.671 160.769 222.918 160.991 223.236C161.212 223.554 161.355 223.919 161.42 224.333H160.467C160.379 223.974 160.207 223.676 159.952 223.439C159.696 223.202 159.358 223.083 158.936 223.083C158.316 223.083 157.828 223.353 157.471 223.892C157.117 224.431 156.939 225.188 156.936 226.162H156.999C157.144 225.94 157.318 225.751 157.518 225.595C157.721 225.436 157.945 225.314 158.19 225.228C158.435 225.142 158.694 225.099 158.967 225.099C159.426 225.099 159.845 225.214 160.225 225.443C160.605 225.669 160.91 225.983 161.139 226.384C161.368 226.783 161.483 227.24 161.483 227.755C161.483 228.25 161.372 228.703 161.151 229.115C160.93 229.524 160.618 229.849 160.217 230.091C159.819 230.331 159.35 230.448 158.811 230.443ZM158.811 229.583C159.139 229.583 159.433 229.501 159.694 229.337C159.957 229.173 160.164 228.953 160.315 228.677C160.469 228.401 160.545 228.094 160.545 227.755C160.545 227.425 160.471 227.124 160.323 226.853C160.177 226.58 159.975 226.362 159.717 226.201C159.462 226.039 159.17 225.958 158.842 225.958C158.595 225.958 158.364 226.008 158.151 226.107C157.937 226.203 157.75 226.336 157.588 226.505C157.43 226.675 157.305 226.869 157.213 227.087C157.122 227.304 157.077 227.531 157.077 227.771C157.077 228.089 157.151 228.386 157.299 228.662C157.45 228.938 157.656 229.16 157.917 229.33C158.18 229.499 158.478 229.583 158.811 229.583Z" fill="#2D2D2D"/>
<path d="M185.642 230.333V229.63L188.283 226.74C188.593 226.401 188.848 226.107 189.048 225.857C189.249 225.604 189.397 225.367 189.494 225.146C189.593 224.922 189.642 224.688 189.642 224.443C189.642 224.162 189.574 223.918 189.439 223.712C189.306 223.507 189.124 223.348 188.892 223.236C188.66 223.124 188.4 223.068 188.111 223.068C187.804 223.068 187.535 223.132 187.306 223.259C187.08 223.384 186.904 223.56 186.779 223.787C186.656 224.013 186.595 224.279 186.595 224.583H185.673C185.673 224.115 185.781 223.703 185.998 223.349C186.214 222.995 186.508 222.719 186.88 222.521C187.255 222.323 187.676 222.224 188.142 222.224C188.611 222.224 189.026 222.323 189.388 222.521C189.75 222.719 190.034 222.986 190.24 223.322C190.445 223.658 190.548 224.031 190.548 224.443C190.548 224.737 190.495 225.025 190.388 225.306C190.284 225.585 190.102 225.896 189.841 226.24C189.583 226.581 189.225 226.998 188.767 227.49L186.97 229.412V229.474H190.689V230.333H185.642ZM192.552 230.333L196.13 223.255V223.193H192.005V222.333H197.13V223.24L193.568 230.333H192.552Z" fill="#2D2D2D"/>
<path d="M221.251 230.333V229.63L223.892 226.74C224.202 226.401 224.457 226.107 224.658 225.857C224.858 225.604 225.007 225.367 225.103 225.146C225.202 224.922 225.251 224.688 225.251 224.443C225.251 224.162 225.184 223.918 225.048 223.712C224.916 223.507 224.733 223.348 224.501 223.236C224.27 223.124 224.009 223.068 223.72 223.068C223.413 223.068 223.145 223.132 222.916 223.259C222.689 223.384 222.513 223.56 222.388 223.787C222.266 224.013 222.205 224.279 222.205 224.583H221.283C221.283 224.115 221.391 223.703 221.607 223.349C221.823 222.995 222.117 222.719 222.49 222.521C222.865 222.323 223.285 222.224 223.751 222.224C224.22 222.224 224.636 222.323 224.998 222.521C225.36 222.719 225.643 222.986 225.849 223.322C226.055 223.658 226.158 224.031 226.158 224.443C226.158 224.737 226.104 225.025 225.998 225.306C225.893 225.585 225.711 225.896 225.451 226.24C225.193 226.581 224.835 226.998 224.376 227.49L222.58 229.412V229.474H226.298V230.333H221.251ZM230.474 230.443C229.938 230.443 229.464 230.348 229.052 230.158C228.643 229.965 228.324 229.701 228.095 229.365C227.866 229.026 227.753 228.641 227.755 228.208C227.753 227.87 227.819 227.557 227.955 227.271C228.09 226.982 228.275 226.741 228.509 226.548C228.746 226.353 229.011 226.229 229.302 226.177V226.13C228.919 226.031 228.615 225.817 228.388 225.486C228.162 225.153 228.05 224.774 228.052 224.349C228.05 223.943 228.153 223.58 228.361 223.259C228.569 222.939 228.856 222.686 229.22 222.501C229.587 222.317 230.005 222.224 230.474 222.224C230.938 222.224 231.352 222.317 231.716 222.501C232.081 222.686 232.367 222.939 232.576 223.259C232.787 223.58 232.893 223.943 232.896 224.349C232.893 224.774 232.778 225.153 232.548 225.486C232.322 225.817 232.021 226.031 231.646 226.13V226.177C231.935 226.229 232.195 226.353 232.427 226.548C232.659 226.741 232.844 226.982 232.982 227.271C233.12 227.557 233.19 227.87 233.193 228.208C233.19 228.641 233.073 229.026 232.841 229.365C232.612 229.701 232.293 229.965 231.884 230.158C231.478 230.348 231.008 230.443 230.474 230.443ZM230.474 229.583C230.836 229.583 231.149 229.525 231.412 229.408C231.675 229.291 231.878 229.125 232.021 228.912C232.164 228.698 232.237 228.448 232.24 228.162C232.237 227.86 232.159 227.593 232.005 227.361C231.852 227.129 231.642 226.947 231.376 226.814C231.113 226.681 230.813 226.615 230.474 226.615C230.133 226.615 229.828 226.681 229.56 226.814C229.294 226.947 229.085 227.129 228.931 227.361C228.78 227.593 228.706 227.86 228.708 228.162C228.706 228.448 228.775 228.698 228.916 228.912C229.059 229.125 229.263 229.291 229.529 229.408C229.794 229.525 230.11 229.583 230.474 229.583ZM230.474 225.787C230.761 225.787 231.014 225.729 231.236 225.615C231.46 225.5 231.636 225.34 231.763 225.134C231.891 224.929 231.956 224.688 231.958 224.412C231.956 224.141 231.892 223.905 231.767 223.705C231.642 223.501 231.469 223.345 231.248 223.236C231.026 223.124 230.768 223.068 230.474 223.068C230.175 223.068 229.913 223.124 229.689 223.236C229.465 223.345 229.292 223.501 229.169 223.705C229.047 223.905 228.987 224.141 228.99 224.412C228.987 224.688 229.048 224.929 229.173 225.134C229.301 225.34 229.477 225.5 229.701 225.615C229.925 225.729 230.182 225.787 230.474 225.787Z" fill="#A9071C"/>
<path d="M257.066 230.333V229.63L259.707 226.74C260.016 226.401 260.272 226.107 260.472 225.857C260.673 225.604 260.821 225.367 260.917 225.146C261.016 224.922 261.066 224.688 261.066 224.443C261.066 224.162 260.998 223.918 260.863 223.712C260.73 223.507 260.548 223.348 260.316 223.236C260.084 223.124 259.824 223.068 259.535 223.068C259.227 223.068 258.959 223.132 258.73 223.259C258.503 223.384 258.328 223.56 258.203 223.787C258.08 224.013 258.019 224.279 258.019 224.583H257.097C257.097 224.115 257.205 223.703 257.421 223.349C257.638 222.995 257.932 222.719 258.304 222.521C258.679 222.323 259.1 222.224 259.566 222.224C260.035 222.224 260.45 222.323 260.812 222.521C261.174 222.719 261.458 222.986 261.664 223.322C261.869 223.658 261.972 224.031 261.972 224.443C261.972 224.737 261.919 225.025 261.812 225.306C261.708 225.585 261.526 225.896 261.265 226.24C261.007 226.581 260.649 226.998 260.191 227.49L258.394 229.412V229.474H262.113V230.333H257.066ZM266.273 222.224C266.601 222.227 266.929 222.289 267.257 222.412C267.585 222.534 267.885 222.737 268.156 223.021C268.427 223.302 268.644 223.686 268.808 224.173C268.972 224.66 269.054 225.271 269.054 226.005C269.054 226.716 268.986 227.348 268.851 227.9C268.718 228.449 268.526 228.913 268.273 229.291C268.023 229.668 267.718 229.955 267.359 230.15C267.002 230.345 266.598 230.443 266.148 230.443C265.7 230.443 265.3 230.354 264.949 230.177C264.6 229.998 264.313 229.749 264.089 229.431C263.868 229.111 263.726 228.74 263.664 228.318H264.617C264.703 228.685 264.873 228.988 265.128 229.228C265.386 229.465 265.726 229.583 266.148 229.583C266.765 229.583 267.252 229.314 267.609 228.775C267.968 228.236 268.148 227.474 268.148 226.49H268.085C267.94 226.708 267.766 226.897 267.566 227.056C267.365 227.215 267.143 227.337 266.898 227.423C266.653 227.509 266.393 227.552 266.117 227.552C265.658 227.552 265.238 227.439 264.855 227.212C264.475 226.983 264.17 226.669 263.941 226.271C263.714 225.87 263.601 225.412 263.601 224.896C263.601 224.406 263.71 223.958 263.929 223.552C264.151 223.143 264.46 222.818 264.859 222.576C265.26 222.333 265.731 222.216 266.273 222.224ZM266.273 223.083C265.945 223.083 265.649 223.166 265.386 223.33C265.126 223.491 264.919 223.71 264.765 223.986C264.614 224.259 264.539 224.563 264.539 224.896C264.539 225.229 264.611 225.533 264.757 225.806C264.906 226.077 265.108 226.293 265.363 226.455C265.621 226.613 265.914 226.693 266.242 226.693C266.489 226.693 266.72 226.645 266.933 226.548C267.147 226.449 267.333 226.315 267.492 226.146C267.653 225.974 267.779 225.78 267.871 225.564C267.962 225.345 268.007 225.117 268.007 224.88C268.007 224.568 267.932 224.275 267.781 224.001C267.632 223.728 267.427 223.507 267.164 223.337C266.903 223.168 266.606 223.083 266.273 223.083Z" fill="#A9071C"/>
</g>
<g clip-path="url(#clip7_975_2301)">
<rect y="251" width="24" height="24" rx="4" fill="#2EBF43"/>
<path d="M6.04004 265.703V265.312L9.66113 259.5H9.95801V260.254H9.7041L6.62988 265.207V265.25H11.251V265.703H6.04004ZM9.74316 267.5V265.57V265.395V259.5H10.2197V267.5H9.74316ZM12.7539 265.703V265.312L16.375 259.5H16.6719V260.254H16.418L13.3438 265.207V265.25H17.9648V265.703H12.7539ZM16.457 267.5V265.57V265.395V259.5H16.9336V267.5H16.457Z" fill="#2D2D2D"/>
<path d="M44.4492 267.609C43.9336 267.609 43.474 267.521 43.0703 267.344C42.6693 267.167 42.3503 266.921 42.1133 266.605C41.8789 266.288 41.7513 265.919 41.7305 265.5H42.7148C42.7357 265.758 42.8242 265.98 42.9805 266.168C43.1367 266.353 43.3411 266.496 43.5938 266.598C43.8464 266.699 44.1263 266.75 44.4336 266.75C44.7773 266.75 45.082 266.69 45.3477 266.57C45.6133 266.451 45.8216 266.284 45.9727 266.07C46.1237 265.857 46.1992 265.609 46.1992 265.328C46.1992 265.034 46.1263 264.775 45.9805 264.551C45.8346 264.324 45.6211 264.147 45.3398 264.02C45.0586 263.892 44.7148 263.828 44.3086 263.828H43.668V262.969H44.3086C44.6263 262.969 44.9049 262.911 45.1445 262.797C45.3867 262.682 45.5755 262.521 45.7109 262.312C45.849 262.104 45.918 261.859 45.918 261.578C45.918 261.307 45.8581 261.072 45.7383 260.871C45.6185 260.671 45.4492 260.514 45.2305 260.402C45.0143 260.29 44.7591 260.234 44.4648 260.234C44.1888 260.234 43.9284 260.285 43.6836 260.387C43.4414 260.486 43.2435 260.63 43.0898 260.82C42.9362 261.008 42.8529 261.234 42.8398 261.5H41.9023C41.918 261.081 42.0443 260.714 42.2813 260.398C42.5182 260.081 42.8281 259.833 43.2109 259.656C43.5964 259.479 44.0195 259.391 44.4805 259.391C44.9753 259.391 45.3997 259.491 45.7539 259.691C46.1081 259.889 46.3802 260.151 46.5703 260.477C46.7604 260.802 46.8555 261.154 46.8555 261.531C46.8555 261.982 46.737 262.366 46.5 262.684C46.2656 263.001 45.9466 263.221 45.543 263.344V263.406C46.0482 263.49 46.4427 263.704 46.7266 264.051C47.0104 264.395 47.1523 264.82 47.1523 265.328C47.1523 265.763 47.0339 266.154 46.7969 266.5C46.5625 266.844 46.2422 267.115 45.8359 267.312C45.4297 267.51 44.9674 267.609 44.4492 267.609ZM51.3594 267.609C50.7708 267.609 50.2695 267.449 49.8555 267.129C49.4414 266.806 49.125 266.339 48.9063 265.727C48.6875 265.112 48.5781 264.37 48.5781 263.5C48.5781 262.635 48.6875 261.897 48.9063 261.285C49.1276 260.671 49.4453 260.202 49.8594 259.879C50.276 259.553 50.776 259.391 51.3594 259.391C51.9427 259.391 52.4414 259.553 52.8555 259.879C53.2721 260.202 53.5898 260.671 53.8086 261.285C54.0299 261.897 54.1406 262.635 54.1406 263.5C54.1406 264.37 54.0313 265.112 53.8125 265.727C53.5938 266.339 53.2773 266.806 52.8633 267.129C52.4492 267.449 51.9479 267.609 51.3594 267.609ZM51.3594 266.75C51.9427 266.75 52.3958 266.469 52.7188 265.906C53.0417 265.344 53.2031 264.542 53.2031 263.5C53.2031 262.807 53.1289 262.217 52.9805 261.73C52.8346 261.243 52.6237 260.872 52.3477 260.617C52.0742 260.362 51.7448 260.234 51.3594 260.234C50.7813 260.234 50.3294 260.52 50.0039 261.09C49.6784 261.658 49.5156 262.461 49.5156 263.5C49.5156 264.193 49.5885 264.781 49.7344 265.266C49.8802 265.75 50.0898 266.118 50.3633 266.371C50.6393 266.624 50.9714 266.75 51.3594 266.75Z" fill="#2D2D2D"/>
<path d="M81.1865 267.609C80.6709 267.609 80.2113 267.521 79.8076 267.344C79.4066 267.167 79.0876 266.921 78.8506 266.605C78.6162 266.288 78.4886 265.919 78.4678 265.5H79.4521C79.473 265.758 79.5615 265.98 79.7178 266.168C79.874 266.353 80.0785 266.496 80.3311 266.598C80.5837 266.699 80.8636 266.75 81.1709 266.75C81.5146 266.75 81.8193 266.69 82.085 266.57C82.3506 266.451 82.5589 266.284 82.71 266.07C82.861 265.857 82.9365 265.609 82.9365 265.328C82.9365 265.034 82.8636 264.775 82.7178 264.551C82.5719 264.324 82.3584 264.147 82.0771 264.02C81.7959 263.892 81.4521 263.828 81.0459 263.828H80.4053V262.969H81.0459C81.3636 262.969 81.6423 262.911 81.8818 262.797C82.124 262.682 82.3128 262.521 82.4482 262.312C82.5863 262.104 82.6553 261.859 82.6553 261.578C82.6553 261.307 82.5954 261.072 82.4756 260.871C82.3558 260.671 82.1865 260.514 81.9678 260.402C81.7516 260.29 81.4964 260.234 81.2021 260.234C80.9261 260.234 80.6657 260.285 80.4209 260.387C80.1787 260.486 79.9808 260.63 79.8271 260.82C79.6735 261.008 79.5902 261.234 79.5771 261.5H78.6396C78.6553 261.081 78.7816 260.714 79.0186 260.398C79.2555 260.081 79.5654 259.833 79.9482 259.656C80.3337 259.479 80.7568 259.391 81.2178 259.391C81.7126 259.391 82.137 259.491 82.4912 259.691C82.8454 259.889 83.1175 260.151 83.3076 260.477C83.4977 260.802 83.5928 261.154 83.5928 261.531C83.5928 261.982 83.4743 262.366 83.2373 262.684C83.0029 263.001 82.6839 263.221 82.2803 263.344V263.406C82.7855 263.49 83.18 263.704 83.4639 264.051C83.7477 264.395 83.8896 264.82 83.8896 265.328C83.8896 265.763 83.7712 266.154 83.5342 266.5C83.2998 266.844 82.9795 267.115 82.5732 267.312C82.167 267.51 81.7048 267.609 81.1865 267.609ZM88.2998 259.5V267.5H87.3311V260.516H87.2842L85.3311 261.812V260.828L87.3311 259.5H88.2998Z" fill="#2D2D2D"/>
<path d="M120.655 259.5V267.5H119.687V260.516H119.64L117.687 261.812V260.828L119.687 259.5H120.655Z" fill="#3D3D3D"/>
<path d="M152.927 267.5V266.797L155.567 263.906C155.877 263.568 156.132 263.273 156.333 263.023C156.534 262.771 156.682 262.534 156.778 262.312C156.877 262.089 156.927 261.854 156.927 261.609C156.927 261.328 156.859 261.085 156.724 260.879C156.591 260.673 156.409 260.514 156.177 260.402C155.945 260.29 155.685 260.234 155.396 260.234C155.088 260.234 154.82 260.298 154.591 260.426C154.364 260.551 154.188 260.727 154.063 260.953C153.941 261.18 153.88 261.445 153.88 261.75H152.958C152.958 261.281 153.066 260.87 153.282 260.516C153.498 260.161 153.793 259.885 154.165 259.687C154.54 259.49 154.961 259.391 155.427 259.391C155.896 259.391 156.311 259.49 156.673 259.687C157.035 259.885 157.319 260.152 157.524 260.488C157.73 260.824 157.833 261.198 157.833 261.609C157.833 261.904 157.78 262.191 157.673 262.473C157.569 262.751 157.386 263.062 157.126 263.406C156.868 263.747 156.51 264.164 156.052 264.656L154.255 266.578V266.641H157.974V267.5H152.927Z" fill="#3D3D3D"/>
<path d="M191.315 267.609C190.8 267.609 190.34 267.521 189.937 267.344C189.535 267.167 189.216 266.921 188.979 266.605C188.745 266.288 188.618 265.919 188.597 265.5H189.581C189.602 265.758 189.69 265.98 189.847 266.168C190.003 266.353 190.207 266.496 190.46 266.598C190.713 266.699 190.993 266.75 191.3 266.75C191.644 266.75 191.948 266.69 192.214 266.57C192.479 266.451 192.688 266.284 192.839 266.07C192.99 265.857 193.065 265.609 193.065 265.328C193.065 265.034 192.993 264.775 192.847 264.551C192.701 264.324 192.487 264.147 192.206 264.02C191.925 263.892 191.581 263.828 191.175 263.828H190.534V262.969H191.175C191.493 262.969 191.771 262.911 192.011 262.797C192.253 262.682 192.442 262.521 192.577 262.312C192.715 262.104 192.784 261.859 192.784 261.578C192.784 261.307 192.724 261.072 192.604 260.871C192.485 260.671 192.315 260.514 192.097 260.402C191.881 260.29 191.625 260.234 191.331 260.234C191.055 260.234 190.795 260.285 190.55 260.387C190.308 260.486 190.11 260.63 189.956 260.82C189.802 261.008 189.719 261.234 189.706 261.5H188.769C188.784 261.081 188.91 260.714 189.147 260.398C189.384 260.081 189.694 259.833 190.077 259.656C190.463 259.479 190.886 259.391 191.347 259.391C191.841 259.391 192.266 259.491 192.62 259.691C192.974 259.889 193.246 260.151 193.437 260.477C193.627 260.802 193.722 261.154 193.722 261.531C193.722 261.982 193.603 262.366 193.366 262.684C193.132 263.001 192.813 263.221 192.409 263.344V263.406C192.914 263.49 193.309 263.704 193.593 264.051C193.877 264.395 194.019 264.82 194.019 265.328C194.019 265.763 193.9 266.154 193.663 266.5C193.429 266.844 193.108 267.115 192.702 267.312C192.296 267.51 191.834 267.609 191.315 267.609Z" fill="#3D3D3D"/>
<path d="M224.254 265.859V265.062L227.77 259.5H228.348V260.734H227.958L225.301 264.937V265H230.036V265.859H224.254ZM228.02 267.5V265.617V265.246V259.5H228.942V267.5H228.02Z" fill="#1270B0"/>
<path d="M262.982 267.609C262.524 267.609 262.111 267.518 261.744 267.336C261.376 267.154 261.082 266.904 260.861 266.586C260.639 266.268 260.518 265.906 260.498 265.5H261.435C261.472 265.862 261.636 266.161 261.927 266.398C262.222 266.633 262.573 266.75 262.982 266.75C263.31 266.75 263.602 266.673 263.857 266.52C264.115 266.366 264.317 266.155 264.462 265.887C264.611 265.616 264.685 265.31 264.685 264.969C264.685 264.62 264.608 264.309 264.455 264.035C264.304 263.759 264.095 263.542 263.83 263.383C263.564 263.224 263.261 263.143 262.919 263.141C262.675 263.138 262.423 263.176 262.166 263.254C261.908 263.329 261.695 263.427 261.529 263.547L260.623 263.437L261.107 259.5H265.263V260.359H261.919L261.638 262.719H261.685C261.849 262.589 262.055 262.48 262.302 262.395C262.55 262.309 262.807 262.266 263.076 262.266C263.565 262.266 264.001 262.383 264.384 262.617C264.77 262.849 265.072 263.167 265.291 263.57C265.512 263.974 265.623 264.435 265.623 264.953C265.623 265.464 265.508 265.919 265.279 266.32C265.052 266.719 264.74 267.034 264.341 267.266C263.943 267.495 263.49 267.609 262.982 267.609Z" fill="#1270B0"/>
</g>
</g>
<defs>
<clipPath id="clip0_975_2301">
<rect width="275" height="247" fill="white" transform="translate(0 28)"/>
</clipPath>
<clipPath id="clip1_975_2301">
<rect width="275" height="24" fill="white" transform="translate(0 28)"/>
</clipPath>
<clipPath id="clip2_975_2301">
<rect width="275" height="24" fill="white" transform="translate(0 65.1665)"/>
</clipPath>
<clipPath id="clip3_975_2301">
<rect width="275" height="24" fill="white" transform="translate(0 102.333)"/>
</clipPath>
<clipPath id="clip4_975_2301">
<rect width="275" height="24" fill="white" transform="translate(0 139.5)"/>
</clipPath>
<clipPath id="clip5_975_2301">
<rect width="275" height="24" fill="white" transform="translate(0 176.667)"/>
</clipPath>
<clipPath id="clip6_975_2301">
<rect width="275" height="24" fill="white" transform="translate(0 213.833)"/>
</clipPath>
<clipPath id="clip7_975_2301">
<rect width="275" height="24" fill="white" transform="translate(0 251)"/>
</clipPath>
</defs>
</svg>
