<svg width="310" height="274" viewBox="0 0 310 274" fill="none" xmlns="http://www.w3.org/2000/svg">
<path d="M243.589 131.83C233.252 148.343 214.035 157.74 195.755 161.812C185.334 164.148 175.197 164.745 167.257 163.949C166.313 163.866 165.428 163.749 164.578 163.608H164.435C161.103 163.094 158.257 162.326 156.064 161.3C152.079 159.421 150.25 156.721 151.621 153.417C153.359 149.226 157.259 146.981 162.446 145.184C162.667 145.102 162.897 145.043 163.122 144.954C163.777 144.726 164.461 144.527 165.172 144.332C178.954 140.202 199.655 137.386 214.122 114.29C218.908 106.635 230.808 103.899 238.468 108.68C246.127 113.494 248.377 124.171 243.589 131.83Z" fill="#A3B7BC"/>
<path d="M167.825 158.142C167.309 159.651 166.313 160.844 165.773 163.094C165.428 163.296 165.036 163.467 164.578 163.608L164.434 163.664C162.525 164.378 160.02 164.916 158.228 165.346C151.876 166.795 139.351 167.278 137.215 158.085L137.186 157.998C135.047 148.432 143.562 146.582 150.057 145.356C148.063 143.193 147.18 140.913 148.087 139.436C149.427 137.327 153.901 137.755 158.113 140.401C159.827 141.456 161.356 142.794 162.525 144.158V144.191C162.755 144.445 162.927 144.701 163.122 144.954C163.523 145.527 163.866 146.067 164.096 146.607C165.261 147.72 166.259 149.202 167.055 151.222C168.45 154.779 168.393 156.604 167.825 158.142Z" fill="#A3B7BC"/>
<path d="M174.302 164.282C171.813 164.282 169.451 164.169 167.257 163.949C167.941 161.87 168.394 160.02 168.652 158.313C172.402 159.041 175.422 159.266 178.078 159.266C179.914 159.266 181.574 159.158 183.18 159.036C183.107 160.612 183.049 162.216 183.004 163.852C179.984 164.141 177.063 164.282 174.302 164.282Z" fill="#85969A"/>
<path d="M153.532 166.052L153.023 161.753C154.03 161.647 155.044 161.492 156.063 161.3C157.829 160.959 159.597 160.534 161.356 159.99C162.812 159.593 164.263 159.081 165.691 158.538C165.491 159.933 165.092 161.502 164.519 163.209L164.435 163.608V163.664C162.526 164.378 160.02 164.916 158.228 165.346C156.885 165.651 155.27 165.914 153.532 166.052ZM145.673 165.606C141.679 164.693 138.243 162.509 137.215 158.085L137.187 157.998C139.666 159.839 142.359 160.952 145.187 161.502L145.673 165.606Z" fill="#85969A"/>
<path d="M202.846 99.6535C191.457 108.198 182.915 130.976 182.915 170.838C182.915 191.57 194.306 261.953 202.846 261.953C211.388 261.953 254.094 193.616 254.097 173.686C254.097 159.452 261.385 146.234 256.947 119.585C254.097 102.502 248.405 99.6535 245.554 93.9592C239.865 96.8075 209.026 101.199 202.846 99.6535Z" fill="#A3B7BC"/>
<path d="M193.679 242.152C196.689 253.763 199.932 261.953 202.846 261.953C205.619 261.953 211.992 254.733 219.332 244.336C215.479 241.768 204.095 239.62 193.679 242.152Z" fill="#1F2A31"/>
<path d="M219.337 245.792C219.046 245.792 218.752 245.704 218.496 245.512C215.162 243.046 204.752 240.877 194.651 243.401C193.878 243.594 193.115 243.131 192.922 242.367C192.728 241.604 193.199 240.832 193.96 240.639C205.553 237.746 216.472 240.472 220.192 243.227C220.823 243.695 220.955 244.587 220.485 245.216C220.206 245.591 219.778 245.792 219.337 245.792Z" fill="#DC3E21"/>
<path d="M202.846 261.953C202.839 261.953 202.834 261.953 202.827 261.953C202.827 261.953 202.827 261.953 202.825 261.953H202.822C202.818 261.953 202.813 261.953 202.808 261.953C202.806 261.953 202.803 261.953 202.801 261.953C202.799 261.953 202.794 261.953 202.792 261.953C202.789 261.953 202.785 261.953 202.782 261.953C202.78 261.953 202.778 261.953 202.773 261.953C202.771 261.951 202.768 261.951 202.764 261.951C202.761 261.951 202.759 261.951 202.756 261.951C202.752 261.951 202.749 261.951 202.747 261.951C202.742 261.951 202.74 261.951 202.738 261.951C202.735 261.951 202.733 261.949 202.731 261.949C202.728 261.949 202.728 261.949 202.728 261.949C202.726 261.949 202.724 261.949 202.721 261.949C202.719 261.949 202.717 261.949 202.714 261.949C202.712 261.949 202.712 261.949 202.71 261.949C202.707 261.949 202.705 261.949 202.702 261.947C202.7 261.947 202.698 261.947 202.693 261.947C202.691 261.947 202.688 261.947 202.686 261.947C202.684 261.947 202.681 261.947 202.679 261.944C202.677 261.944 202.674 261.944 202.672 261.944C202.67 261.944 202.667 261.944 202.667 261.944C202.66 261.944 202.656 261.941 202.648 261.941C202.646 261.941 202.646 261.941 202.644 261.941C202.641 261.941 202.641 261.941 202.639 261.94C202.637 261.94 202.637 261.94 202.634 261.94C202.632 261.94 202.632 261.94 202.63 261.94C202.63 261.94 202.627 261.94 202.625 261.94C202.625 261.94 202.623 261.94 202.623 261.937C202.618 261.937 202.613 261.937 202.609 261.937C202.606 261.935 202.606 261.935 202.604 261.935C202.599 261.935 202.594 261.935 202.59 261.932H202.587C202.583 261.932 202.578 261.932 202.573 261.93C202.571 261.93 202.571 261.93 202.569 261.93C202.564 261.93 202.559 261.928 202.555 261.928C202.526 261.923 202.498 261.916 202.47 261.909H202.468C202.463 261.909 202.458 261.907 202.454 261.907C202.451 261.905 202.451 261.905 202.449 261.905C202.444 261.905 202.442 261.902 202.437 261.902C202.435 261.902 202.433 261.899 202.43 261.899C202.428 261.899 202.423 261.897 202.418 261.897C202.416 261.897 202.414 261.895 202.414 261.895C202.409 261.895 202.404 261.893 202.402 261.893C202.4 261.893 202.397 261.89 202.395 261.89C202.39 261.89 202.388 261.888 202.383 261.888C202.381 261.885 202.378 261.886 202.374 261.886C202.371 261.883 202.369 261.883 202.367 261.881C202.362 261.881 202.357 261.878 202.35 261.878C202.35 261.876 202.348 261.876 202.348 261.876C200.876 261.42 199.34 258.988 197.781 255.181C200.629 252.33 204.184 247.888 208.084 242.478C208.087 242.476 208.089 242.473 208.092 242.471C212.844 242.938 216.7 244.182 218.496 245.512C218.496 245.512 218.496 245.512 218.496 245.514C211.583 255.175 205.635 261.818 202.928 261.951C202.923 261.951 202.916 261.953 202.912 261.953C202.907 261.953 202.9 261.953 202.895 261.953H202.893C202.888 261.953 202.886 261.953 202.881 261.953H202.879C202.876 261.953 202.876 261.953 202.876 261.953C202.872 261.953 202.869 261.953 202.867 261.953C202.865 261.953 202.862 261.953 202.862 261.953H202.86C202.855 261.953 202.851 261.953 202.846 261.953Z" fill="#1E272B"/>
<path d="M202.846 99.6535C191.457 108.198 182.915 130.976 182.915 170.838C182.915 191.57 228.471 261.953 237.014 261.953C245.554 261.953 254.094 193.616 254.097 173.686C254.097 159.452 261.385 146.234 256.947 119.585C254.097 102.502 248.405 99.6535 245.554 93.9592C239.865 96.8075 209.026 101.199 202.846 99.6535Z" fill="#C5D3D4"/>
<path d="M220.229 244.366C227.799 254.785 234.287 261.953 237.014 261.953C239.991 261.953 242.962 253.662 245.57 242.018C234.978 239.505 223.805 241.745 220.229 244.366Z" fill="#1F2A31"/>
<path d="M220.323 245.942C219.905 245.942 219.496 245.758 219.212 245.406C218.724 244.795 218.82 243.894 219.433 243.406C223.173 240.403 234.454 237.777 245.901 240.639C246.664 240.832 247.127 241.604 246.934 242.367C246.742 243.131 245.974 243.591 245.209 243.401C234.43 240.707 224.016 243.377 221.213 245.627C220.954 245.838 220.633 245.942 220.323 245.942Z" fill="#EE4323"/>
<path d="M237.014 261.953C237.007 261.953 237.002 261.953 236.995 261.953C236.995 261.953 236.995 261.953 236.993 261.953H236.991C236.986 261.953 236.981 261.953 236.976 261.953C236.976 261.953 236.974 261.953 236.972 261.953C236.967 261.953 236.962 261.953 236.96 261.953C236.958 261.953 236.955 261.953 236.953 261.953C236.948 261.953 236.944 261.953 236.939 261.951H236.937C235.979 261.907 234.577 261.019 232.846 259.453C231.665 258.384 230.329 256.997 228.873 255.344C230.007 251.727 231.092 247.318 232.085 242.45C232.085 242.447 232.085 242.442 232.088 242.441C233.278 242.33 234.527 242.269 235.821 242.269C238.787 242.269 241.983 242.593 245.209 243.401C245.223 243.403 245.24 243.407 245.254 243.41C243.976 248.916 242.617 253.59 241.215 256.867C241.166 256.985 241.114 257.102 241.062 257.219C239.757 260.167 238.416 261.897 237.08 261.953C237.08 261.953 237.08 261.953 237.078 261.953C237.073 261.953 237.068 261.953 237.063 261.953C237.061 261.953 237.061 261.953 237.059 261.953C237.054 261.953 237.052 261.953 237.047 261.953H237.045C237.042 261.953 237.042 261.953 237.04 261.953C237.038 261.953 237.033 261.953 237.03 261.953C237.028 261.953 237.028 261.953 237.028 261.953C237.024 261.953 237.019 261.953 237.014 261.953Z" fill="#1E272B"/>
<path d="M245.883 240.635C242.41 239.768 238.958 239.406 235.722 239.406C234.687 239.406 233.672 239.444 232.686 239.515C236.932 217.987 239.944 189.004 239.944 177.162C239.944 176.089 239.984 175.018 240.059 173.949C246.749 173.562 251.953 173.045 254.118 172.357C254.106 172.717 254.099 173.076 254.097 173.437C254.097 173.52 254.097 173.604 254.097 173.686C254.097 178.883 253.514 187.372 252.505 197.081C251.871 203.172 251.068 209.744 250.133 216.289C248.91 224.836 247.461 233.327 245.866 240.626H245.883C245.883 240.627 245.883 240.632 245.883 240.635Z" fill="#9FAAAD"/>
<path d="M245.587 243.424C245.484 243.424 245.378 243.413 245.272 243.389C245.27 243.397 245.27 243.406 245.268 243.415C245.263 243.413 245.261 243.413 245.258 243.413C245.256 243.413 245.256 243.41 245.253 243.41C245.239 243.408 245.223 243.403 245.209 243.401C241.983 242.593 238.787 242.269 235.821 242.269C234.527 242.269 233.278 242.33 232.087 242.441C232.287 241.478 232.487 240.513 232.686 239.522C232.686 239.517 232.686 239.517 232.686 239.515C233.672 239.444 234.687 239.406 235.722 239.406C238.958 239.406 242.41 239.768 245.883 240.635C245.888 240.638 245.895 240.638 245.902 240.639C246.313 240.743 246.639 241.017 246.82 241.368C246.968 241.666 247.015 242.015 246.923 242.368C246.775 243.001 246.212 243.424 245.587 243.424Z" fill="#BF3C23"/>
<path d="M268.333 54.0969C268.329 91.1133 243.814 102.504 217.082 102.502C188.606 102.502 171.523 91.1133 171.523 54.0969C171.523 27.3631 188.606 -3.05176e-05 217.082 -3.05176e-05C259.791 -3.05176e-05 268.333 27.3631 268.333 54.0969Z" fill="#C5D3D4"/>
<path d="M217.092 102.502C217.09 102.502 217.087 102.502 217.083 102.502C217.033 102.502 216.984 102.502 216.935 102.502C216.932 102.502 216.928 102.502 216.925 102.502C203.752 102.481 193.061 99.9588 185.35 93.6235C190.842 95.1685 197.067 95.8542 203.978 95.8542C230.709 95.8542 255.226 84.4633 255.226 47.4539C255.229 30.4509 251.753 13.2154 238.263 2.89524C262.55 10.5432 268.23 32.1627 268.331 53.5169C268.331 53.5216 268.331 53.5263 268.331 53.5333C268.331 53.5474 268.331 53.5568 268.331 53.5709C268.331 53.5826 268.331 53.5944 268.331 53.6061C268.331 53.6178 268.331 53.6319 268.331 53.6437C268.331 53.6554 268.331 53.6695 268.331 53.6813C268.331 53.6906 268.331 53.7024 268.331 53.7118C268.331 53.7329 268.331 53.7517 268.331 53.7728C268.331 53.7799 268.331 53.7893 268.331 53.7987C268.331 53.8174 268.331 53.8362 268.331 53.855C268.331 53.8621 268.331 53.8667 268.331 53.8738C268.331 53.8902 268.331 53.909 268.331 53.9254C268.331 53.9348 268.331 53.9442 268.331 53.9513C268.331 53.9677 268.331 53.9842 268.331 54.0006C268.331 54.0076 268.331 54.017 268.331 54.0264C268.331 54.0476 268.334 54.0734 268.334 54.0969C268.331 70.9026 263.276 82.4274 255.257 90.0002C254.618 90.4534 254.012 90.9888 253.463 91.5899C251.396 93.3041 249.163 94.7881 246.789 96.0608C242.727 98.2399 238.261 99.7991 233.543 100.837C228.307 101.99 222.763 102.499 217.118 102.502C217.111 102.502 217.099 102.502 217.092 102.502Z" fill="#9FAAAD"/>
<path d="M144.562 129.412C139.92 127.277 114.121 123.661 91.0029 133C89.6621 133.512 88.3237 134.11 87.0134 134.735C67.7937 143.935 42.2833 142.108 15.1479 134.735C6.66872 110.105 2.70508 67.85 0 40.7428C17.2543 47.8366 48.7431 52.3897 68.1647 40.7428C86.3912 29.8121 117.88 33.541 132.429 38.4088C133.197 38.6624 133.941 38.923 134.589 39.1766C136.872 52.9298 147.18 113.071 144.562 129.412Z" fill="#C5D3D4"/>
<path d="M91.0024 133C129.651 111.709 130.012 72.9339 131.649 47.4987L141.086 126.965C139.748 127.087 138.449 127.317 137.264 127.728C133.856 127.249 129.543 126.904 124.675 126.904C114.761 126.904 102.548 128.336 91.0024 133Z" fill="#9FAAAD"/>
<path d="M165.829 269.635C166.015 271.196 165.019 272.6 163.599 272.762L161.039 273.07C159.616 273.237 158.315 272.107 158.135 270.545L130.605 38.693C130.422 37.1291 131.419 35.7249 132.835 35.5582L135.404 35.2553C136.82 35.0886 138.119 36.218 138.304 37.7819L165.829 269.635Z" fill="#DC3E21"/>
<path d="M241.203 134.735C219.56 156.373 180.407 155.948 159.597 148.915C158.712 148.634 157.885 148.314 157.059 147.976H157.031H156.979C148.086 144.445 143.508 139.664 146.722 135.137C149.345 131.459 153.645 130.154 159.111 129.578C159.367 129.555 159.597 129.524 159.851 129.496C160.562 129.445 161.276 129.379 162.013 129.325C169.248 128.869 178.103 129.097 187.587 127.019C187.921 126.958 188.24 126.876 188.552 126.793C189.435 126.594 190.29 126.364 191.17 126.11C191.537 126.019 191.915 125.908 192.284 125.793C193.134 125.537 193.962 125.253 194.815 124.967C195.099 124.856 195.383 124.744 195.672 124.657C202.533 122.067 209.561 117.906 216.425 111.044C222.807 104.636 235.018 104.664 241.4 111.044C247.803 117.422 247.606 128.357 241.203 134.735Z" fill="#C5D3D4"/>
<path d="M162.269 136.466C161.952 134.324 161.302 132.662 160.414 131.316C159.987 129.092 158.289 126.206 155.99 123.908C152.478 120.395 148.206 118.976 146.443 120.735C145.224 121.954 145.56 124.389 147.037 126.93C140.394 126.655 131.659 126.552 131.659 136.463C131.659 145.882 143.996 148.234 150.496 148.234C152.801 148.234 156.328 148.293 158.35 147.746C160.473 143.55 163.382 143.921 162.269 136.466Z" fill="#C5D3D4"/>
<path d="M195.728 135.475C195.355 134.735 194.019 131.859 192.652 128.984C192.138 127.991 191.628 126.993 191.17 126.11C191.537 126.019 191.915 125.908 192.283 125.793C192.624 126.704 192.995 127.672 193.392 128.644C194.446 131.715 195.5 134.763 195.728 135.475Z" fill="#9FAAAD"/>
<path d="M198.631 129.379L194.815 124.967C195.099 124.856 195.383 124.744 195.672 124.657L198.631 129.379Z" fill="#9FAAAD"/>
<path d="M189.09 132.941C189.09 132.941 188.665 130.433 187.897 128.045C187.785 127.702 187.667 127.362 187.587 127.019C187.921 126.958 188.24 126.876 188.552 126.794C188.581 127.16 188.637 127.503 188.693 127.874C189.064 130.382 189.09 132.941 189.09 132.941Z" fill="#9FAAAD"/>
<path d="M228.471 56.4615V58.3682C228.471 77.3296 228.471 95.2437 189.691 96.6948C178.016 90.0002 171.523 76.9351 171.523 54.0968C171.523 40.7429 175.767 27.3044 183.569 17.1087C184.283 17.0828 185.021 17.0828 185.76 17.0828C202.763 17.0828 214.234 20.274 220.814 26.8488C228.527 34.593 228.497 45.728 228.471 56.4615Z" fill="#1F2A31"/>
<path d="M225.625 58.3682C225.625 77.8133 225.736 93.6493 185.761 93.9592C177.22 93.9592 168.678 74.1455 168.678 54.0969C168.678 41.971 174.374 22.7795 181.52 19.9875C182.886 19.9546 184.309 19.9288 185.761 19.9288C227.048 19.9288 225.625 38.7235 225.625 58.3682Z" fill="#070A0E"/>
<path d="M195.47 20.3302C184.197 35.9619 177.476 55.0642 177.249 75.7397C175.368 69.8153 174.375 63.4964 174.375 56.9474C174.375 43.0792 178.871 30.2958 186.472 19.9287C189.748 19.9545 192.737 20.0719 195.47 20.3302Z" fill="#EAEAE8"/>
<path d="M234.167 36.1427C234.167 34.2971 236.044 33.6208 238.324 34.6493L245.007 37.6362C247.294 38.66 249.168 41.0105 249.168 42.8538V62.9963C249.168 64.8396 247.294 67.1925 245.007 68.2186L238.324 71.2078C236.044 72.2293 234.167 71.5577 234.167 69.7097V36.1427Z" fill="#839CA6"/>
<path d="M215.93 144.473L205.692 125.11L216.137 119.585L226.372 138.95L215.93 144.473Z" fill="#DC3E21"/>
<path d="M188.513 153.224C181.367 153.224 174.52 152.501 168.476 151.271C167.393 151.05 166.341 150.815 165.313 150.564C163.298 150.071 161.392 149.519 159.619 148.923C160.922 146.755 161.868 144.792 162.516 142.972C166.445 144.454 172.17 145.076 178.503 145.076C190.718 145.076 205.206 142.77 213.5 139.875L215.93 144.473L226.372 138.95L224.078 134.61C233.595 128.522 242.027 118.631 231.064 106.407C234.64 106.768 238.083 108.095 240.715 110.401C240.715 110.403 240.717 110.403 240.717 110.403C240.729 110.413 240.738 110.422 240.748 110.431C240.759 110.443 240.771 110.453 240.783 110.462C240.785 110.464 240.785 110.464 240.787 110.467C240.799 110.476 240.811 110.488 240.823 110.497C240.823 110.5 240.825 110.5 240.825 110.5C240.994 110.652 241.161 110.807 241.325 110.969C241.337 110.981 241.349 110.993 241.363 111.007C241.375 111.019 241.389 111.03 241.4 111.044C244.552 114.184 246.106 118.427 246.106 122.687C246.106 125.664 245.35 128.649 243.849 131.271C243.136 132.521 242.253 133.69 241.203 134.735C227.593 148.343 207.056 153.224 188.513 153.224Z" fill="#9FAAAD"/>
<path d="M151.543 148.235C151.179 148.235 150.834 148.235 150.514 148.235C145.567 148.235 137.278 146.873 133.563 142.118C132.382 140.603 131.661 138.743 131.659 136.475L131.692 135.959C136.731 139.49 142.139 141 147.067 141.596C149.244 141.876 151.327 141.968 153.243 141.968C155.84 141.968 158.132 141.796 159.935 141.683C159.938 141.683 159.94 141.686 159.942 141.686C159.353 143.452 158.432 145.382 157.11 147.566C157.026 147.706 156.967 147.857 156.934 148.009C155.274 148.216 153.222 148.235 151.543 148.235Z" fill="#9FAAAD"/>
<path d="M182.914 175.112C182.132 175.112 181.489 174.473 181.489 173.689C181.489 172.9 182.132 172.266 182.914 172.266C214.295 172.266 249.75 171.423 253.465 169.568C254.167 169.22 255.024 169.5 255.371 170.204C255.724 170.909 255.437 171.761 254.735 172.118C249.031 174.969 193.908 175.112 182.914 175.112Z" fill="#EE4323"/>
<path d="M281.152 98.0898C281.321 99.8509 280.189 101.396 278.621 101.546L275.791 101.819C274.225 101.971 272.821 100.668 272.647 98.9116L270.489 76.6182C270.322 74.8571 271.456 73.3096 273.023 73.1594L275.852 72.887C277.421 72.7343 278.827 74.0376 278.996 75.7963L281.152 98.0898Z" fill="#B0B2B1"/>
<path d="M277.548 86.701L276.395 74.7583C276.324 74.028 276.012 73.4128 275.589 72.9103L275.852 72.8868C275.857 72.8845 275.862 72.8845 275.866 72.8845C275.944 72.8774 276.022 72.8751 276.099 72.8751C276.106 72.8751 276.111 72.8751 276.118 72.8751C277.534 72.8845 278.764 74.0656 278.978 75.6529C278.982 75.6717 278.983 75.6905 278.985 75.7069C278.99 75.7375 278.992 75.7657 278.997 75.7962L280.027 86.4615L277.548 86.701Z" fill="#909292"/>
<path d="M309.983 159.588C310.154 161.347 309.02 162.897 307.458 163.047L290.451 164.686C288.889 164.843 287.48 163.538 287.309 161.779L284.228 129.933C284.057 128.172 285.191 126.625 286.759 126.474L303.758 124.831C305.326 124.68 306.731 125.983 306.902 127.742L309.983 159.588Z" fill="#B0B2B1"/>
<path d="M296.892 125.323V125.321L295.352 109.403C295.213 107.945 294.21 106.858 292.989 106.59L296.244 106.275C296.328 106.266 296.413 106.261 296.497 106.261C296.502 106.261 296.504 106.261 296.507 106.261C297.963 106.266 299.226 107.522 299.39 109.18L300.926 125.103L300.654 125.131C300.433 125.07 300.205 125.037 299.973 125.037C299.891 125.037 299.808 125.042 299.726 125.051L296.892 125.323Z" fill="#909292"/>
<path d="M297.23 164.033L297.216 163.866L303.42 163.268C304.986 163.115 306.115 161.565 305.949 159.807L302.868 127.963C302.732 126.561 301.811 125.448 300.654 125.131L300.926 125.103V125.105V125.108L303.758 124.831C303.84 124.821 303.922 124.819 304.002 124.819C304.009 124.819 304.014 124.819 304.021 124.819C305.481 124.828 306.74 126.082 306.902 127.742L309.983 159.588C309.995 159.703 309.999 159.821 309.999 159.933C310.002 161.547 308.917 162.906 307.459 163.047L297.23 164.033Z" fill="#909292"/>
<path d="M297.338 165.144C297.847 170.425 294.454 175.062 289.76 175.52L267.718 177.652C263.024 178.108 255.104 174.555 254.597 169.281C254.597 169.281 256.186 147.579 254.254 127.155C252.857 112.359 250.405 99.8954 250.405 99.8954C249.893 94.6167 254.402 88.9342 259.098 88.481L281.143 86.3536C285.839 85.8957 290.058 89.8077 290.566 95.084L297.338 165.144Z" fill="#B0B2B1"/>
<path d="M283.482 134.881C283.935 139.572 280.495 143.75 275.803 144.205C271.105 144.656 266.93 141.221 266.479 136.52C266.021 131.826 269.466 127.651 274.16 127.198C278.849 126.744 283.026 130.18 283.482 134.881Z" fill="#2A387C"/>
<path d="M263.778 140.34L282.658 126.373L272.572 147.579L271.797 139.563L263.778 140.34Z" fill="#DC3E21"/>
<path d="M283.071 117.955L263.229 119.876L262.412 111.373L282.249 109.455L283.071 117.955Z" fill="#191A1B"/>
<path d="M289.608 155.946C289.833 158.292 288.112 160.375 285.764 160.605C283.416 160.833 281.33 159.114 281.1 156.768C280.873 154.415 282.594 152.33 284.942 152.105C287.292 151.872 289.378 153.596 289.608 155.946Z" fill="#191A1B"/>
<path d="M195.881 161.859C196.111 164.209 194.388 166.294 192.044 166.527C189.694 166.748 187.608 165.029 187.383 162.681C187.153 160.335 188.872 158.247 191.225 158.022C193.57 157.792 195.656 159.511 195.881 161.859Z" fill="#191A1B"/>
<path d="M229.774 170.411C212.872 170.411 197.464 166.802 190.884 165.017C189.367 164.604 188.47 163.042 188.886 161.525C189.292 160.011 190.861 159.107 192.373 159.522C200.441 161.716 241.945 171.813 266.793 155.61C268.117 154.756 269.876 155.127 270.736 156.446C271.593 157.761 271.219 159.527 269.904 160.382C258.166 168.037 243.481 170.411 229.774 170.411Z" fill="#6C8894"/>
<path d="M229.774 170.411C215.15 170.411 201.641 167.708 194.005 165.825C192.817 165.531 191.769 165.257 190.884 165.017C190.875 165.015 190.868 165.012 190.858 165.01H190.856C189.71 164.684 188.94 163.702 188.813 162.584L189.37 162.861C195.947 164.646 211.36 168.257 228.257 168.257C241.968 168.257 256.649 165.879 268.387 158.226C269.329 157.62 269.759 156.547 269.634 155.505C270.064 155.723 270.454 156.014 270.736 156.446C271.048 156.923 271.196 157.461 271.196 157.994C271.198 158.924 270.74 159.837 269.904 160.382C268.984 160.981 268.049 161.549 267.096 162.084C263.2 164.273 259.035 165.947 254.728 167.198C254.662 167.217 254.597 167.236 254.531 167.255C249.954 168.57 245.223 169.408 240.487 169.889C236.894 170.253 233.301 170.411 229.774 170.411Z" fill="#5A717B"/>
</svg>
