<svg width="12" height="12" viewBox="0 0 12 12" fill="none" xmlns="http://www.w3.org/2000/svg">
<path fill-rule="evenodd" clip-rule="evenodd" d="M0.14267 6.34414C-0.0486232 6.15408 -0.0544937 5.83871 0.139496 5.64408C0.139496 5.64408 2.38055 3 6.07105 3C9.76156 3 11.863 5.63214 11.863 5.63214C12.0495 5.8353 12.0519 6.16129 11.8589 6.35592C11.8589 6.35592 9.61645 9 6.07105 9C2.52566 9 0.14267 6.34414 0.14267 6.34414ZM5.9985 8C7.14029 8 8.0659 7.10457 8.0659 6C8.0659 4.89543 7.14029 4 5.9985 4C4.85671 4 3.9311 4.89543 3.9311 6C3.9311 7.10457 4.85671 8 5.9985 8ZM6.00178 7C5.43088 7 5.00178 6.55228 5.00178 6C5.00178 5.44772 5.43088 5 6.00178 5C6.57268 5 7.00178 5.44772 7.00178 6C7.00178 6.55228 6.57268 7 6.00178 7Z" fill="#333333"/>
</svg>
