<svg width="134" height="134" viewBox="0 0 134 134" fill="none" xmlns="http://www.w3.org/2000/svg">
<path d="M93.6666 53.6667C93.6666 60.7391 90.8571 67.5219 85.8561 72.5228C80.8551 77.5238 74.0724 80.3333 66.9999 80.3333C59.9275 80.3333 53.1447 77.5238 48.1437 72.5228C43.1428 67.5219 40.3333 60.7391 40.3333 53.6667C40.3333 46.5942 43.1428 39.8115 48.1437 34.8105C53.1447 29.8095 59.9275 27 66.9999 27C74.0724 27 80.8551 29.8095 85.8561 34.8105C90.8571 39.8115 93.6666 46.5942 93.6666 53.6667Z" fill="black"/>
<path fill-rule="evenodd" clip-rule="evenodd" d="M64.2799 133.613C28.7233 132.186 0.333252 102.906 0.333252 66.9997C0.333252 30.1797 30.1799 0.333008 66.9999 0.333008C103.82 0.333008 133.667 30.1797 133.667 66.9997C133.667 103.82 103.82 133.666 66.9999 133.666C66.6955 133.668 66.391 133.668 66.0866 133.666C65.4833 133.666 64.8799 133.646 64.2799 133.613ZM24.2199 109.066C23.7215 107.635 23.5518 106.11 23.7235 104.604C23.8952 103.098 24.4039 101.65 25.2118 100.367C26.0198 99.0848 27.1061 98.0007 28.3903 97.1956C29.6745 96.3904 31.1236 95.8848 32.6299 95.7163C58.6166 92.8397 75.5433 93.0997 101.403 95.7763C102.912 95.9334 104.364 96.4326 105.65 97.236C106.937 98.0393 108.023 99.1255 108.826 100.412C109.629 101.698 110.128 103.151 110.284 104.66C110.441 106.168 110.251 107.692 109.73 109.116C120.813 97.9027 127.02 82.7661 127 66.9997C127 33.863 100.137 6.99967 66.9999 6.99967C33.8633 6.99967 6.99992 33.863 6.99992 66.9997C6.99992 83.3863 13.5699 98.2397 24.2199 109.066Z" fill="black"/>
</svg>
