<svg width="542" height="434" viewBox="0 0 542 434" fill="none" xmlns="http://www.w3.org/2000/svg">
<path d="M268.455 53.334C255.82 78.8622 215.146 92.592 177.611 83.9997C140.068 75.4048 119.886 47.7477 132.518 22.2246C145.153 -3.30356 185.826 -17.0308 223.361 -8.43846C260.904 0.153874 281.086 27.8109 268.455 53.334Z" fill="#C3242B"/>
<path d="M162.947 -3.75494C149.131 2.00577 138.099 10.9623 132.517 22.2247C121.617 44.2519 135.176 67.8667 163.233 79.4445L195.662 86.4415C227.396 87.9111 257.829 74.797 268.454 53.3341C272.565 45.0188 273.195 36.4803 270.875 28.4471C248.197 26.5747 222.361 21.1423 213.441 13.4092C202.952 4.31927 181.692 -1.53119 162.947 -3.75494Z" fill="#F1482B"/>
<path d="M132.518 22.2246C119.886 47.7477 140.068 75.4048 177.611 83.9997C215.146 92.592 255.82 78.8622 268.455 53.334C271.261 47.6605 272.445 41.8818 272.17 36.2339C256.615 31.7121 238.402 29.0831 224.357 31.5864C203.794 35.2516 158.504 19.9162 142.976 8.62822C138.563 12.6499 135.003 17.2077 132.518 22.2246Z" fill="#8F0D0D"/>
<path d="M177.612 83.9995C203.481 89.9218 230.844 85.2408 249.484 73.3962C234.816 69.5361 218.356 67.5022 205.439 69.8054C187.61 72.9833 151.176 61.8723 131.685 51.5025C138.07 66.2556 154.556 78.7209 177.612 83.9995Z" fill="#EE4323"/>
<path d="M307.737 63.788C303.984 71.3723 283.036 74.068 253.923 72.0007C253.229 71.9546 252.535 71.9059 251.837 71.8418C244.2 71.2595 236.023 70.3387 227.465 69.123C215.132 67.3506 202.003 64.9217 188.58 61.8464C175.156 58.7763 162.54 55.3111 151.142 51.6536C143.245 49.1093 135.913 46.4726 129.312 43.7974C128.705 43.5589 128.105 43.3127 127.506 43.0664C102.485 32.7403 88.1977 21.978 91.9504 14.3937C95.7032 6.80422 116.692 4.10854 145.851 6.18866C144.546 7.22487 143.301 8.31234 142.121 9.42806C135.645 10.3489 131.387 12.1058 130.089 14.7271C129.056 16.8073 130.029 19.2515 132.692 21.878C133.186 22.3756 133.755 22.8706 134.366 23.3759C137.979 26.3871 143.629 29.5803 150.78 32.753C162.423 37.8956 178.102 42.9664 195.908 47.042C213.732 51.1201 230.728 53.526 244.566 54.2031C253.097 54.6289 260.414 54.4134 265.962 53.5029C266.905 53.3464 267.799 53.1849 268.632 53.0002C273.087 51.9948 276.017 50.4481 277.051 48.368C278.344 45.7441 276.515 42.5945 272.193 39.1986C272.242 37.8289 272.215 36.4619 272.114 35.1051C297.199 45.4261 311.493 56.2011 307.737 63.788Z" fill="#284FA9"/>
<path d="M143.238 55.4473H122.125V24.6243H143.238V28.7438H129.187V36.9829H140.222V41.1024H129.187V51.3277H143.238V55.4473ZM161.458 51.3277C163.469 51.3277 164.474 50.6411 164.474 49.268V38.5277C164.376 37.2036 163.371 36.5415 161.458 36.5415H158.516C156.505 36.5415 155.5 37.2281 155.5 38.6013V49.268C155.5 50.6411 156.505 51.3277 158.516 51.3277H161.458ZM148.438 37.8657C148.438 36.2473 149.271 34.9476 150.939 33.9668C152.655 32.9369 154.715 32.422 157.118 32.422H161.164C162.292 32.422 163.077 32.5446 163.518 32.7898L164.474 33.2312V25.4335H171.537V55.4473H164.474V54.7852C163.396 55.2266 162.194 55.4473 160.87 55.4473H157.118C153.342 55.4473 150.694 54.3929 149.173 52.284C148.683 51.5975 148.438 50.8373 148.438 50.0036V37.8657ZM189.212 51.3277C191.173 51.3277 192.154 50.6411 192.154 49.268V38.5277C192.154 37.1545 191.173 36.468 189.212 36.468H187.078C185.068 36.468 184.062 37.1545 184.062 38.5277V49.268C184.062 50.6411 185.068 51.3277 187.078 51.3277H189.212ZM177 37.8657C177 36.1982 177.834 34.8741 179.501 33.8932C181.218 32.8634 183.278 32.3484 185.681 32.3484H190.609C192.963 32.3484 194.95 32.8388 196.568 33.8197C198.333 34.8005 199.216 36.1492 199.216 37.8657V49.93C199.216 51.6465 198.333 52.9952 196.568 53.976C194.95 54.9568 192.963 55.4473 190.609 55.4473H185.681C181.904 55.4473 179.256 54.3929 177.736 52.284C177.245 51.5975 177 50.8128 177 49.93V37.8657ZM211.562 34.1875C212.739 33.0105 214.505 32.422 216.859 32.422H218.109V36.5415H216.27C214.26 36.5415 212.837 37.1545 212.004 38.3806C211.709 38.7729 211.562 39.2143 211.562 39.7047V55.4473H204.5V32.422H211.562V34.1875ZM233.649 51.3277C235.611 51.3277 236.592 50.6411 236.592 49.268V38.5277C236.592 37.1545 235.611 36.468 233.649 36.468H231.516C229.505 36.468 228.5 37.1545 228.5 38.5277V49.268C228.5 50.6411 229.505 51.3277 231.516 51.3277H233.649ZM221.438 37.8657C221.438 36.1982 222.271 34.8741 223.939 33.8932C225.655 32.8634 227.715 32.3484 230.118 32.3484H235.047C237.401 32.3484 239.387 32.8388 241.005 33.8197C242.771 34.8005 243.654 36.1492 243.654 37.8657V49.93C243.654 51.6465 242.771 52.9952 241.005 53.976C239.387 54.9568 237.401 55.4473 235.047 55.4473H230.118C226.342 55.4473 223.694 54.3929 222.173 52.284C221.683 51.5975 221.438 50.8128 221.438 49.93V37.8657ZM249.526 55.4473V25.9484H256.588V55.4473H249.526ZM270.132 26.2427V30.3622H263.07V26.2427H270.132ZM263.07 32.422H270.132V55.4473H263.07V32.422Z" fill="#F6F6F6"/>
<path d="M316.556 337.974C313.884 334.277 311.156 331.241 308.331 328.735C308.348 328.727 308.365 328.715 308.382 328.705C348.503 304.132 393.745 253.914 379.101 207.628C376.965 200.794 370.899 194.943 362.908 191.007C370.58 192.089 377.7 194.692 383.35 198.377C389.086 202.117 393.306 206.966 395.055 212.458C410.661 261.733 358.328 315.46 316.556 337.974Z" fill="#9FAAAD"/>
<path d="M378.832 246.046L338.466 242.664L341.155 227.895L381.516 231.274L378.832 246.046Z" fill="#DC3E21"/>
<path d="M396.26 231.148C366.43 297.933 206.021 326.163 211.232 298.999C215.946 274.442 296.774 275.344 322.753 217.184C328.61 204.093 352.583 195.395 371.822 199.364C391.061 203.343 402.112 218.058 396.26 231.148Z" fill="#A3B7BC"/>
<path d="M243.121 289.703C240.247 287.077 237.235 285.314 234.077 284.156C230.913 281.485 224.547 278.841 217.646 277.416C207.063 275.23 197.189 276.378 195.583 279.993C194.46 282.487 197.666 285.489 203.23 287.838C189.9 292.201 172.653 298.288 183.032 311.52C192.912 324.088 219.589 318.442 232.346 313.809C236.873 312.164 243.864 309.726 247.252 307.547C247.021 300.445 253.128 298.864 243.121 289.703Z" fill="#A3B7BC"/>
<path d="M247.796 310.472L247.623 310.469C245.884 310.405 244.539 309.388 244.633 308.201C245.704 294.536 240.239 288.722 230.413 283.296C229.051 282.546 228.855 281.189 229.956 280.266C231.06 279.345 233.05 279.203 234.407 279.952C245.531 286.089 252.179 293.004 250.964 308.426C250.87 309.581 249.47 310.472 247.796 310.472Z" fill="#EE4323"/>
<path d="M204.003 319.171C195.478 319.171 187.536 317.217 183.052 311.506L182.605 310.859C186.979 313.269 192.541 314.182 198.376 314.182C208.622 314.182 219.705 311.36 226.639 308.834C230.315 307.499 235.515 305.647 239.187 303.834C240.967 303.707 242.802 303.529 244.7 303.277C244.708 303.277 244.717 303.277 244.724 303.277C244.802 304.798 244.771 306.432 244.633 308.201C244.615 308.429 244.649 308.645 244.729 308.855C241.055 310.654 235.944 312.456 232.346 313.791C225.388 316.335 214.27 319.171 204.003 319.171Z" fill="#85969A"/>
<path d="M303.561 188.405C278.217 201.329 259.207 235.803 259.207 296.127C259.207 327.493 284.557 434 303.561 434C322.575 434 417.599 330.591 417.605 300.434C417.605 278.884 433.818 258.892 423.948 218.566C417.605 192.715 404.939 188.398 398.601 179.785C385.93 184.095 317.314 190.74 303.561 188.405Z" fill="#A3B7BC"/>
<path d="M283.163 404.042C289.862 421.606 297.078 434 303.562 434C309.733 434 323.924 423.073 340.253 407.336C331.678 403.452 306.337 400.198 283.163 404.042Z" fill="#1F2A31"/>
<path d="M340.261 409.55C339.613 409.55 338.955 409.407 338.391 409.119C330.971 405.384 307.808 402.106 285.324 405.922C283.61 406.22 281.907 405.514 281.484 404.359C281.055 403.204 282.095 402.034 283.788 401.749C309.59 397.364 333.881 401.487 342.158 405.659C343.563 406.373 343.856 407.716 342.816 408.669C342.2 409.247 341.243 409.55 340.261 409.55Z" fill="#DC3E21"/>
<path d="M303.561 434C303.551 434 303.535 434 303.525 434C303.52 434 303.52 434 303.52 434C303.514 434 303.514 434 303.509 434C303.499 434 303.494 434 303.483 434C303.478 434 303.473 434 303.467 434C303.457 434 303.452 434 303.441 434C303.436 434 303.431 434 303.426 434C303.415 434 303.41 434 303.399 434C303.394 434 303.389 434 303.384 434C303.379 433.996 303.368 433.996 303.363 433.996C303.358 433.996 303.347 433.996 303.342 433.996C303.337 433.996 303.326 433.996 303.321 433.996C303.316 433.996 303.311 433.996 303.305 433.996C303.305 433.996 303.305 433.996 303.3 433.996C303.295 433.993 303.284 433.993 303.279 433.993H303.274C303.269 433.993 303.264 433.993 303.264 433.993C303.253 433.993 303.248 433.993 303.237 433.993C303.232 433.989 303.232 433.989 303.227 433.989H303.222C303.206 433.989 303.196 433.989 303.185 433.986C303.18 433.986 303.175 433.986 303.175 433.986C303.164 433.986 303.154 433.986 303.143 433.986C303.138 433.982 303.133 433.982 303.123 433.982C303.117 433.982 303.107 433.982 303.102 433.982C303.096 433.979 303.091 433.979 303.091 433.979H303.086C303.086 433.979 303.086 433.979 303.081 433.979C303.075 433.979 303.07 433.979 303.06 433.979C303.055 433.975 303.049 433.975 303.044 433.975C303.034 433.975 303.028 433.975 303.018 433.972C303.013 433.972 303.008 433.972 303.002 433.972C302.992 433.972 302.987 433.968 302.976 433.968C302.971 433.968 302.966 433.968 302.961 433.968C302.955 433.964 302.945 433.964 302.934 433.964C302.929 433.961 302.924 433.961 302.924 433.961C302.914 433.961 302.903 433.957 302.893 433.957C302.887 433.957 302.887 433.957 302.882 433.957C299.475 433.51 295.907 429.765 292.286 423.748C298.624 419.438 306.545 412.723 315.224 404.532C315.229 404.528 315.234 404.521 315.24 404.518C325.815 405.225 334.39 407.104 338.392 409.12C323.009 423.741 309.769 433.795 303.75 434C303.744 434 303.744 434 303.744 434C303.734 434 303.723 434 303.713 434H303.708C303.697 434 303.687 434 303.676 434C303.671 434 303.671 434 303.671 434C303.661 434 303.65 434 303.64 434H303.635H303.629C303.624 434 303.614 434 303.608 434C303.603 434 303.603 434 303.598 434C303.582 434 303.572 434 303.561 434Z" fill="#1E272B"/>
<path d="M340.246 409.532C339.713 409.532 339.18 409.436 338.684 409.254C338.59 409.215 338.496 409.172 338.402 409.127C338.397 409.127 338.397 409.122 338.391 409.119C334.389 407.104 325.814 405.225 315.239 404.518C316.629 403.227 318.013 401.853 319.398 400.482C327.612 401.27 334.446 402.734 339.008 404.343C339.541 404.851 340.074 405.359 340.602 405.86C340.56 405.883 340.518 405.908 340.476 405.929C339.107 406.678 338.888 408.035 339.98 408.96C340.246 409.179 340.56 409.357 340.899 409.486C340.69 409.514 340.471 409.532 340.246 409.532Z" fill="#B03720"/>
<path d="M303.561 188.405C278.217 201.329 259.207 235.803 259.207 296.127C259.207 327.493 360.588 434 379.587 434C398.601 434 417.599 330.591 417.605 300.434C417.605 278.884 433.818 258.892 423.948 218.566C417.605 192.715 404.939 188.398 398.601 179.785C385.93 184.095 317.314 190.74 303.561 188.405Z" fill="#C5D3D4"/>
<path d="M342.244 407.389C359.095 423.155 373.532 434 379.588 434C386.219 434 392.829 421.449 398.639 403.833C375.063 400.027 350.202 403.423 342.244 407.389Z" fill="#1F2A31"/>
<path d="M342.456 409.762C341.531 409.762 340.612 409.489 339.979 408.96C338.887 408.035 339.107 406.678 340.476 405.929C348.794 401.398 373.896 397.414 399.368 401.749C401.061 402.034 402.101 403.204 401.672 404.359C401.244 405.514 399.53 406.216 397.832 405.921C373.843 401.849 350.67 405.89 344.431 409.29C343.856 409.614 343.151 409.762 342.456 409.762Z" fill="#EE4323"/>
<path d="M379.586 434C379.575 434 379.565 434 379.549 434C379.549 434 379.549 434 379.544 434H379.539C379.528 434 379.518 434 379.507 434C379.507 434 379.502 434 379.497 434C379.486 434 379.476 434 379.465 434C379.465 434 379.46 434 379.455 434C379.444 434 379.434 434 379.424 434H379.418C377.13 433.925 373.702 432.38 369.449 429.672C369.438 429.665 369.428 429.658 369.417 429.654C369.417 429.651 369.417 429.651 369.417 429.651C367.019 428.119 364.354 426.219 361.48 423.998C364.004 418.532 366.413 411.853 368.634 404.482C368.634 404.48 368.634 404.475 368.634 404.471C371.288 404.305 374.068 404.213 376.947 404.213C383.546 404.213 390.652 404.703 397.832 405.922C397.863 405.929 397.9 405.933 397.931 405.94C394.932 414.709 391.739 422.085 388.447 427.071C385.584 431.388 382.658 433.915 379.737 434H379.732C379.721 434 379.711 434 379.7 434C379.695 434 379.695 434 379.69 434C379.68 434 379.674 434 379.664 434H379.659C379.653 434 379.653 434 379.648 434C379.643 434 379.633 434 379.627 434C379.622 434 379.622 434 379.622 434C379.612 434 379.601 434 379.586 434Z" fill="#1E272B"/>
<path d="M399.328 401.742C391.605 400.432 383.919 399.885 376.724 399.885C374.414 399.885 372.157 399.941 369.968 400.048C379.41 367.475 386.113 323.61 386.113 305.689C386.113 304.066 386.208 302.449 386.375 300.832C401.251 300.242 412.83 299.461 417.652 298.423C417.626 298.967 417.616 299.511 417.611 300.054C417.605 300.181 417.605 300.306 417.605 300.434C417.605 309.9 415.729 326.587 412.574 345.025C411.366 352.085 409.966 359.398 408.414 366.665C405.776 378.998 402.682 391.189 399.296 401.728H399.328C399.328 401.735 399.328 401.735 399.328 401.742ZM386.976 296.519C387.085 295.908 387.2 295.3 387.32 294.689C397.86 293.96 408.388 292.687 418.572 290.701C418.368 291.799 418.196 292.897 418.049 293.992C417.908 293.978 417.757 293.971 417.611 293.971C417.135 293.971 416.654 294.042 416.2 294.197C413.425 295.14 402.672 295.911 386.976 296.519ZM389.447 285.77C391.772 276.926 394.604 267.296 395.419 255.584C399.255 243.364 399.944 230.793 396.067 218.523C394.474 213.46 390.586 208.993 385.309 205.55C380.935 198.188 375.977 194.055 371.875 190.196C382.372 188.626 392.31 186.266 401.35 182.969C403.915 185.591 406.993 188.11 410.128 191.458C411.727 197.431 415.547 212.66 417.961 230.015C420.625 249.171 420.275 269.073 419.627 281.435C409.919 283.567 399.725 284.949 389.447 285.77ZM295.196 193.661C296.769 192.492 298.368 191.404 299.988 190.416C305.213 191.198 310.715 191.767 316.483 192.143C309.079 192.79 301.764 193.32 295.196 193.661Z" fill="#9FAAAD"/>
<path d="M449.286 119.464C449.281 175.475 394.736 192.719 335.242 192.715C271.887 192.712 233.868 175.475 233.868 119.464C233.868 79.0091 271.887 37.5987 335.242 37.5987C430.272 37.5987 449.286 79.0091 449.286 119.464Z" fill="#C5D3D4"/>
<path d="M335.256 192.715C335.251 192.715 335.246 192.715 335.24 192.715C335.146 192.715 335.052 192.715 334.958 192.715C334.916 192.715 334.88 192.715 334.838 192.715C334.77 192.715 334.697 192.715 334.629 192.715C334.587 192.715 334.54 192.715 334.498 192.715C334.425 192.715 334.352 192.715 334.279 192.715C334.232 192.715 334.19 192.715 334.148 192.715C334.065 192.712 333.986 192.712 333.903 192.712C333.877 192.712 333.851 192.712 333.819 192.712C333.72 192.712 333.621 192.712 333.521 192.712H333.516C304.83 192.562 281.521 188.714 264.633 179.273C276.849 181.611 290.696 182.652 306.084 182.652C306.089 182.652 306.089 182.652 306.1 182.652C365.567 182.652 420.123 165.412 420.123 109.408C420.128 83.6817 412.395 57.5932 382.371 41.987C436.263 53.5211 448.986 86.0837 449.279 118.316C449.279 118.316 449.279 118.319 449.279 118.323C449.279 118.405 449.279 118.486 449.279 118.568C449.279 118.586 449.279 118.6 449.279 118.618C449.279 118.629 449.279 118.646 449.279 118.657C449.279 118.682 449.279 118.703 449.279 118.728C449.284 118.746 449.284 118.757 449.284 118.774C449.284 118.796 449.284 118.82 449.284 118.842C449.284 118.852 449.284 118.867 449.284 118.881C449.284 118.913 449.284 118.945 449.284 118.977C449.284 118.987 449.284 119.002 449.284 119.012C449.284 119.041 449.284 119.069 449.284 119.101C449.284 119.108 449.284 119.115 449.284 119.126C449.284 119.151 449.284 119.179 449.284 119.208C449.284 119.222 449.284 119.233 449.284 119.247C449.284 119.268 449.284 119.297 449.284 119.318C449.284 119.329 449.284 119.343 449.284 119.357C449.284 119.389 449.284 119.428 449.284 119.464C449.279 141.764 440.636 157.918 426.471 169.285C424.48 170.884 422.38 172.39 420.175 173.801C418.759 174.483 417.421 175.29 416.204 176.196C411.606 178.793 406.631 181.039 401.349 182.968C392.309 186.266 382.371 188.625 371.874 190.196C360.216 191.941 347.864 192.715 335.293 192.715C335.282 192.715 335.267 192.715 335.256 192.715Z" fill="#9FAAAD"/>
<path d="M360.589 123.045V125.927C360.589 154.62 360.589 181.725 274.291 183.921C248.309 173.801 233.868 154.023 233.868 119.467C233.868 99.2522 243.314 78.9237 260.667 63.4916C262.255 63.4525 263.901 63.4525 265.548 63.4525C303.38 63.4525 328.91 68.2779 343.55 78.2343C360.715 89.9496 360.647 106.792 360.589 123.045Z" fill="#1F2A31"/>
<path d="M354.251 125.927C354.251 155.356 354.497 179.316 265.547 179.785C246.543 179.785 227.53 149.798 227.53 119.467C227.53 101.118 240.203 72.0693 256.11 67.848C259.153 67.8054 262.32 67.7663 265.547 67.7663C357.417 67.7663 354.251 96.2 354.251 125.927Z" fill="#070A0E"/>
<path d="M287.153 68.3634C262.063 92.0214 247.108 120.931 246.598 152.218C242.42 143.25 240.201 133.684 240.201 123.774C240.201 102.788 250.213 83.4436 267.127 67.7664C274.422 67.8055 281.071 67.9761 287.153 68.3634Z" fill="#EAEAE8"/>
<path d="M373.259 92.2948C373.259 89.4984 377.428 88.4821 382.512 90.0314L397.383 94.5512C402.467 96.1075 406.637 99.6644 406.637 102.457V132.934C406.637 135.72 402.467 139.28 397.383 140.83L382.512 145.357C377.428 146.906 373.259 145.886 373.259 143.09V92.2948Z" fill="#839CA6"/>
<path d="M259.206 302.591C257.465 302.591 256.043 301.618 256.043 300.434C256.043 299.24 257.465 298.281 259.206 298.281C329.044 298.281 407.938 297.006 416.199 294.197C417.766 293.664 419.668 294.099 420.442 295.158C421.231 296.227 420.588 297.521 419.031 298.058C406.334 302.37 283.674 302.591 259.206 302.591Z" fill="#EE4323"/>
<path d="M477.809 186.039C478.185 188.697 475.677 191.035 472.182 191.262L465.885 191.681C462.405 191.912 459.276 189.94 458.889 187.275L454.087 153.544C453.711 150.882 456.229 148.533 459.714 148.31L466.016 147.901C469.501 147.67 472.641 149.635 473.007 152.3L477.809 186.039Z" fill="#B0B2B1"/>
<path d="M469.792 168.794L467.222 150.726C467.075 149.624 466.37 148.697 465.435 147.936L466.015 147.901C466.197 147.886 466.38 147.883 466.563 147.883H466.568C466.579 147.883 466.595 147.883 466.605 147.883C469.724 147.897 472.441 149.642 472.953 152.008C472.974 152.104 472.99 152.204 473.006 152.3L475.3 168.432L469.792 168.794Z" fill="#909292"/>
<path d="M541.962 279.096C542.343 281.761 539.819 284.099 536.339 284.327L498.504 286.815C495.03 287.049 491.889 285.077 491.508 282.408L484.652 234.222C484.276 231.56 486.795 229.215 490.285 228.991L528.115 226.5C531.605 226.266 534.725 228.241 535.106 230.91L541.962 279.096Z" fill="#B0B2B1"/>
<path d="M513.588 285.822L513.552 285.567L527.357 284.66C530.847 284.43 533.36 282.091 532.979 279.423L526.139 231.233C525.831 229.119 523.783 227.438 521.201 226.955L521.813 226.916V226.919L528.114 226.5C528.135 226.5 528.151 226.497 528.172 226.497C528.339 226.486 528.506 226.482 528.673 226.482C528.678 226.482 528.684 226.482 528.689 226.482C531.944 226.489 534.745 228.39 535.105 230.91L541.961 279.096C541.987 279.27 541.997 279.448 541.997 279.622C542.003 282.059 539.589 284.113 536.339 284.327L513.588 285.822Z" fill="#909292"/>
<path d="M513.824 287.503C514.958 295.484 507.413 302.516 496.968 303.206L447.914 306.432C437.469 307.119 419.845 301.753 418.716 293.769C418.716 293.769 422.254 260.921 417.959 230.015C414.839 207.622 409.39 188.768 409.39 188.768C408.256 180.78 418.283 172.188 428.733 171.495L477.776 168.269C488.237 167.586 497.626 173.499 498.755 181.487L513.824 287.503Z" fill="#B0B2B1"/>
<path d="M482.99 241.702C484.004 248.812 476.355 255.13 465.91 255.819C455.449 256.498 446.159 251.299 445.155 244.189C444.136 237.086 451.802 230.772 462.247 230.086C472.686 229.393 481.987 234.595 482.99 241.702Z" fill="#2A387C"/>
<path d="M439.147 249.966L481.157 228.838L458.721 260.921L457.002 248.787L439.147 249.966Z" fill="#DC3E21"/>
<path d="M482.076 216.103L437.934 219.003L436.105 206.129L480.253 203.23L482.076 216.103Z" fill="#191A1B"/>
<path d="M496.62 273.582C497.126 277.135 493.302 280.294 488.077 280.631C482.851 280.98 478.212 278.382 477.699 274.829C477.198 271.269 481.023 268.117 486.248 267.779C491.473 267.424 496.118 270.029 496.62 273.582Z" fill="#191A1B"/>
<path d="M446.06 306.489C439.602 306.489 431.21 304.543 425.421 301.304C428.875 302.104 432.37 302.548 435.432 302.548C436.07 302.548 436.686 302.531 437.277 302.491L486.325 299.265C496.77 298.58 504.315 291.548 503.181 283.56L488.107 177.55C487.595 173.901 485.296 170.728 482.03 168.379C490.662 169.289 497.778 174.608 498.756 181.487L513.825 287.503C513.903 288.034 513.94 288.56 513.94 289.077C513.945 296.391 506.719 302.563 496.969 303.206L447.915 306.432C447.319 306.472 446.698 306.489 446.06 306.489Z" fill="#909292"/>
<path d="M288.07 282.528C288.577 286.082 284.741 289.245 279.527 289.593C274.297 289.933 269.656 287.332 269.152 283.779C268.644 280.223 272.465 277.06 277.698 276.719C282.923 276.378 287.563 278.979 288.07 282.528Z" fill="#191A1B"/>
<path d="M371.874 295.384C372.867 294.244 373.844 293.085 374.8 291.92C400.842 290.865 427.443 286.776 449.415 277.039C451.494 276.119 452.456 274.495 452.184 272.921C453.135 273.255 454.003 273.688 454.635 274.338C455.324 275.063 455.654 275.877 455.659 276.68C455.659 278.091 454.65 279.473 452.785 280.298C450.742 281.207 448.657 282.063 446.536 282.874C437.862 286.188 428.593 288.722 419.01 290.616C418.864 290.644 418.717 290.673 418.571 290.701C408.387 292.687 397.859 293.96 387.32 294.689C382.162 295.044 377 295.267 371.874 295.384Z" fill="#5A717B"/>
<path d="M300.989 291.1C294.416 290.225 288.642 289.33 283.887 288.53C281.249 288.086 278.922 287.674 276.952 287.309C274.362 286.833 272.621 285.332 272.342 283.631L273.574 284.05C280.068 285.251 290.434 286.992 303.241 288.56C302.499 289.419 301.747 290.264 300.989 291.1Z" fill="#5A717B"/>
<path d="M331.013 193.852C315.531 193.852 303.304 193.007 299.443 192.531C297.724 192.325 296.564 191.205 296.877 190.029C297.18 188.867 298.811 188.061 300.556 188.295C309.648 189.393 366.586 192.737 399.885 181.046C401.448 180.503 403.355 180.922 404.16 181.974C404.959 183.029 404.358 184.333 402.796 184.873C382.245 192.094 353.262 193.852 331.013 193.852Z" fill="#1F2A31"/>
<path d="M300.577 207.238L299.255 220.119L274.545 218.999C276.953 214.348 279.614 210.12 282.467 206.417L300.577 207.238Z" fill="#2A387C"/>
<path d="M267.786 318.961C266.88 317.391 266.035 315.863 265.257 314.374C265.782 314.362 266.304 314.356 266.823 314.356C269.628 314.356 272.336 314.544 274.795 314.87C274.667 314.523 274.544 314.136 274.734 313.745C275.104 312.768 276.375 312.125 277.788 312.125C278.055 312.125 278.326 312.15 278.6 312.196L279.488 312.412C282.586 309.282 286.092 306.002 289.74 302.506C293.282 302.488 297.013 302.463 300.869 302.434C297.107 306.834 293.429 310.909 290.278 314.75C289.985 314.715 289.693 314.679 289.4 314.644C289.196 314.615 289.003 314.605 288.804 314.605C287.289 314.605 285.993 315.344 285.732 316.382C285.633 316.747 285.68 317.107 285.836 317.437C284.593 317.344 283.292 317.302 281.949 317.302C279.033 317.302 275.944 317.515 272.922 317.956C271.117 318.223 269.397 318.56 267.786 318.961ZM294.186 298.174C296.464 295.914 298.753 293.562 300.989 291.099C303.597 291.448 306.335 291.792 309.182 292.126C307.657 294.183 306.084 296.174 304.506 298.103C301.083 298.131 297.635 298.153 294.186 298.174Z" fill="#9FAAAD"/>
<path d="M324.09 333.906C322.444 334.769 320.861 335.634 319.278 336.37L319.021 336.454C301.789 344.85 287.279 346.748 282.712 338.953C279.039 332.616 281.766 326.029 287.216 318.617H287.279C287.535 318.271 287.718 317.966 287.974 317.622C288.737 316.681 289.494 315.77 290.257 314.779C298.304 304.955 309.831 293.584 317.37 279.321C317.694 278.72 318.071 278.07 318.384 277.423C318.771 276.563 319.215 275.7 319.591 274.836C319.91 274.101 320.229 273.415 320.485 272.683C320.798 271.951 321.049 271.215 321.3 270.487C321.618 269.794 321.807 269.101 322.005 268.373C325.61 257.478 326.368 245.024 321.807 230.587C317.569 217.23 332.325 201.68 351.966 198.831C371.67 195.945 391.823 205.166 396.066 218.523C410.383 263.807 362.421 313.183 324.09 333.906Z" fill="#C5D3D4"/>
<path d="M303.974 320.28C299.596 318.936 295.703 318.392 292.108 318.417C287.442 317.139 279.991 316.922 272.923 317.956C262.116 319.544 254.306 323.804 255.476 327.493C256.285 330.044 261.24 331.614 267.778 331.828C259.24 340.044 248.504 351.059 267.033 359.191C284.626 366.92 303.922 353.173 311.776 344.911C314.55 341.983 318.934 337.541 320.339 334.528C315.057 328.389 319.268 324.99 303.974 320.28Z" fill="#C5D3D4"/>
<path d="M278.049 361.469C275.324 361.469 272.572 361.093 269.846 360.243C268.905 359.952 267.966 359.601 267.031 359.191C266.725 359.057 266.425 358.922 266.133 358.783C264.925 358.189 263.871 357.596 262.949 357.002C263.128 357.006 263.308 357.011 263.488 357.011C277.549 357.011 290.973 347.053 297.164 340.463C299.443 338.088 302.672 334.769 304.574 331.969C306.914 330.847 309.261 329.603 311.664 328.225C311.68 328.218 311.69 328.211 311.701 328.204C314.015 330.286 316.262 332.83 318.504 335.96C318.65 336.167 318.849 336.354 319.073 336.511C317.955 338.156 316.403 339.962 314.862 341.641C313.77 342.825 312.683 343.952 311.774 344.911C308.44 348.417 303.043 352.913 296.595 356.335C291.574 358.993 285.92 361.004 280.094 361.398C279.415 361.444 278.732 361.469 278.049 361.469Z" fill="#9FAAAD"/>
<path d="M163.855 354.292C163.855 381.656 113.168 434 94.1633 434C75.1506 434 62.4839 381.656 62.4839 354.292C62.4839 326.931 85.2257 304.741 113.168 304.741C124.575 304.741 135.091 308.447 143.579 314.651C152.77 321.378 159.545 331.11 162.402 342.349C163.349 346.187 163.855 350.191 163.855 354.292Z" fill="#4B8F33"/>
<path d="M163.855 354.292C163.855 381.656 151.182 434 132.178 434C113.168 434 62.4839 381.656 62.4839 354.292C62.4839 326.931 85.2257 304.741 113.168 304.741C124.128 304.741 134.199 308.144 142.504 313.916C151.944 320.421 158.977 330.076 162.082 341.237C163.216 345.415 163.855 349.765 163.855 354.292Z" fill="#6BBD41"/>
<path d="M201.979 302.431C200.745 310.711 196.919 317.237 193.431 317C189.949 316.751 188.135 309.843 189.363 301.557C190.606 293.275 194.429 286.747 197.901 286.985C201.383 287.234 203.21 294.145 201.979 302.431Z" fill="#6BBD41"/>
<path d="M114.68 321.97C159.006 322.986 205.456 288.136 220.913 291.821C239.822 296.326 169.963 357.724 112.972 356.421C98.9845 356.104 88.0238 348.127 88.4993 338.614C88.9669 329.102 100.688 321.647 114.68 321.97Z" fill="#6BBD41"/>
<path d="M118.152 347.032C104.17 346.713 93.2061 338.739 93.6795 329.223L93.7876 328.715C90.6546 331.475 88.6853 334.876 88.4993 338.614C88.0238 348.127 98.9845 356.104 112.972 356.421C162.635 357.557 222.05 311.087 223.989 296.135C208.265 315.478 159.796 347.982 118.152 347.032Z" fill="#4B8F33"/>
<path d="M130.431 216.476C160.131 236.666 187.008 281.594 157.31 301.78C127.625 321.981 52.5973 309.79 22.9123 289.6C-6.78522 269.406 -6.78522 236.666 22.9123 216.476C52.5973 196.29 100.744 196.29 130.431 216.476Z" fill="#6BBD41"/>
<path d="M32.5417 282.195C5.7164 263.952 3.21201 235.494 24.8696 215.272C24.2285 215.684 23.5388 216.043 22.9123 216.476C-6.78522 236.666 -6.78522 269.406 22.9123 289.6C52.5973 309.79 127.625 321.981 157.31 301.78C159.682 300.174 161.568 298.363 163.241 296.461C131.483 313.546 61.0985 301.618 32.5417 282.195Z" fill="#4B8F33"/>
<path d="M138.969 244.128C156.283 255.907 150.164 279.168 150.164 279.168C150.164 279.168 115.962 283.328 98.6433 271.556C81.3273 259.77 87.4485 236.51 87.4485 236.51C87.4485 236.51 121.648 232.36 138.969 244.128Z" fill="#191A1B"/>
<path d="M139.578 253.303C144.828 256.867 142.405 264.304 142.405 264.304C142.405 264.304 131.475 265.949 126.229 262.382C120.988 258.814 123.4 251.384 123.4 251.384C123.4 251.384 134.33 249.735 139.578 253.303Z" fill="#2E3492"/>
<path d="M41.3925 233.6C45.6807 236.698 46.4765 240.92 43.1763 243.044C39.8615 245.166 33.7058 244.37 29.4055 241.275C25.1188 238.176 24.3126 233.948 27.6253 231.83C30.9401 229.705 37.098 230.498 41.3925 233.6Z" fill="#30682D"/>
<path d="M125.042 332.04C127.993 334.177 128.617 337.033 126.45 338.433C124.266 339.823 120.108 339.226 117.147 337.094C114.196 334.958 113.571 332.101 115.747 330.708C117.923 329.305 122.08 329.905 125.042 332.04Z" fill="#30682D"/>
<path d="M55.8094 227.488C58.7606 229.631 59.3834 232.481 57.2093 233.881C55.0314 235.277 50.8738 234.68 47.9122 232.552C44.9589 230.413 44.3345 227.552 46.504 226.163C48.6881 224.766 52.8437 225.363 55.8094 227.488Z" fill="#30682D"/>
<path d="M38.4082 223.469C40.6409 225.093 41.1065 227.257 39.4428 228.323C37.7817 229.385 34.6283 228.945 32.393 227.328C30.1582 225.715 29.7031 223.551 31.3585 222.481C33.0159 221.422 36.1755 221.867 38.4082 223.469Z" fill="#30682D"/>
<path d="M111.134 329.141C113.369 330.762 113.833 332.926 112.179 333.988C110.52 335.054 107.36 334.61 105.121 332.997C102.89 331.38 102.429 329.216 104.084 328.147C105.754 327.084 108.907 327.532 111.134 329.141Z" fill="#30682D"/>
<path d="M112.562 247.781C124.002 249.735 133.77 253.534 140.996 258.324C139.851 252.177 131.515 246.388 119.717 244.374C111.047 242.895 102.601 243.823 96.6025 246.417C101.789 246.424 107.15 246.861 112.562 247.781Z" fill="#EAEAE8"/>
<path d="M308.299 283.286C305.631 282.995 303.055 282.697 300.582 282.394C312.009 267.398 320.034 248.933 315.463 224.797C315.178 223.309 315.104 221.813 315.224 220.316C315.264 221.917 315.52 223.514 316.016 225.08C320.992 240.828 320.165 254.413 316.233 266.297C316.016 267.092 315.811 267.848 315.463 268.603C315.19 269.398 314.916 270.2 314.574 270.999C314.295 271.797 313.947 272.545 313.599 273.348C313.189 274.29 312.705 275.231 312.283 276.169C311.941 276.875 311.531 277.584 311.177 278.24C310.265 279.96 309.308 281.641 308.299 283.286Z" fill="#9FAAAD"/>
<path d="M343.667 280.685C342.698 280.441 334.821 278.426 327.013 276.355C321.969 275.231 316.919 274.053 313.602 273.348C313.949 272.545 314.297 271.797 314.576 270.999C317.682 271.937 322.721 273.541 327.776 275.138C335.237 277.72 342.772 280.399 343.667 280.685Z" fill="#9FAAAD"/>
<path d="M338.143 269.964L315.464 268.604C315.812 267.848 316.017 267.092 316.234 266.297L338.143 269.964Z" fill="#9FAAAD"/>
<path d="M327.215 285.05C326.178 284.538 321.829 282.468 317.047 280.727C314.984 279.932 312.898 279.038 311.176 278.24C311.53 277.584 311.94 276.875 312.282 276.17C313.872 277.154 315.878 278.426 318.153 279.604C322.45 281.808 326.32 284.399 327.215 285.05Z" fill="#9FAAAD"/>
<path d="M318.468 337.724C315.795 334.019 313.065 330.976 310.238 328.464C310.255 328.456 310.272 328.444 310.289 328.434C350.437 303.804 395.709 253.472 381.055 207.08C378.918 200.231 372.848 194.367 364.851 190.421C372.529 191.506 379.653 194.115 385.307 197.809C391.047 201.557 395.27 206.417 397.02 211.921C412.637 261.309 360.269 315.158 318.468 337.724Z" fill="#9FAAAD"/>
<path d="M380.725 250.057L332.734 246.026L335.932 228.425L383.917 232.452L380.725 250.057Z" fill="#DC3E21"/>
</svg>
