<svg width="208" height="290" viewBox="0 0 208 290" fill="none" xmlns="http://www.w3.org/2000/svg">
<path d="M155.236 176.561C156.037 179.807 153.947 183.136 150.591 183.964L71.3206 203.497C67.9673 204.32 64.5708 202.347 63.7695 199.094L44.1386 119.436C43.3422 116.19 45.4313 112.856 48.7849 112.033L128.054 92.4951C131.409 91.6696 134.806 93.6478 135.608 96.8961L155.236 176.561Z" fill="#839CA6"/>
<path d="M112.232 203.255C112.251 203.443 112.256 203.727 112.261 204.154C112.485 210.567 112.408 242.405 109.809 265.331C109.68 266.237 109.575 267.133 109.465 267.998L109.413 268.442C109.029 271.217 108.637 273.83 108.189 276.206C108.055 276.859 107.949 277.464 107.803 278.05C106.942 282.173 105.912 285.47 104.648 287.429C104.485 287.697 104.32 287.929 104.173 288.127C103.486 289.011 102.756 289.48 101.964 289.541C101.644 289.558 101.325 289.573 101.022 289.514C100.795 289.507 100.562 289.475 100.313 289.402C100.018 289.38 99.7029 289.29 99.4196 289.17C99.1715 289.102 98.9492 288.994 98.6945 288.865C97.7882 288.474 96.8628 287.859 95.985 287.04C95.6636 286.796 95.3669 286.513 95.0616 286.2C94.6752 285.814 94.3204 285.414 93.9579 284.987C93.5828 284.527 93.2137 284.073 92.834 283.587C92.1069 282.595 91.3505 281.492 90.6445 280.339C90.304 279.74 89.9223 279.123 89.5713 278.466C88.1382 275.94 86.7712 273.014 85.4404 269.849C85.259 269.375 85.0541 268.941 84.8755 268.464C84.7229 268.118 84.6008 267.754 84.4481 267.407C84.2 266.789 83.9455 266.142 83.7259 265.517C75.9365 245.053 70.3048 216.563 69.2363 200.818C69.2363 200.818 111.898 197.938 112.232 203.255Z" fill="#C5D3D4"/>
<path d="M109.466 267.998L109.414 268.442C109.029 271.217 108.638 273.83 108.19 276.206C108.056 276.859 107.949 277.464 107.803 278.05C106.943 282.173 105.912 285.47 104.648 287.429C104.486 287.697 104.321 287.929 104.173 288.127C103.486 289.011 102.756 289.48 101.965 289.541C101.645 289.558 101.325 289.573 101.023 289.514C100.796 289.507 100.562 289.475 100.314 289.402C100.018 289.38 99.7035 289.29 99.4202 289.17C99.1721 289.102 98.9498 288.994 98.6951 288.865C97.7888 288.474 96.8634 287.859 95.9856 287.04C95.6642 286.796 95.3675 286.513 95.0622 286.2C94.6758 285.814 94.321 285.414 93.9585 284.987C93.5834 284.527 93.2144 284.073 92.8346 283.587C92.1075 282.595 91.3511 281.492 90.6451 280.339C90.3046 279.74 89.9229 279.123 89.5719 278.466C88.1676 275.933 86.7718 273.014 85.441 269.849C85.2596 269.375 85.0547 268.941 84.8761 268.464C84.7235 268.118 84.6014 267.754 84.4487 267.407C87.3489 266.305 90.5879 265.541 94.0281 265.336C96.1976 265.194 98.2726 265.233 100.308 265.47C103.632 265.851 106.73 266.735 109.466 267.998Z" fill="#1F2A31"/>
<path d="M111.083 267.332C110.899 267.901 110.478 268.291 109.96 268.421L109.414 268.433L109.106 268.37C106.444 267.544 103.346 267.043 100.103 266.87C98.1613 266.733 96.1244 266.75 94.1227 266.892C90.968 267.083 87.8311 267.603 84.8765 268.455L84.7209 268.497C83.829 268.682 83.0086 268.235 82.768 267.393C82.5411 266.606 82.9847 265.788 83.7269 265.507L83.8461 265.475C87.1109 264.543 90.4908 263.966 93.9014 263.741C96.1615 263.607 98.354 263.588 100.494 263.734C103.838 263.917 106.983 264.462 109.81 265.322L110.053 265.392C110.859 265.646 111.338 266.531 111.083 267.332Z" fill="#EE4323"/>
<path d="M101.525 289.547C101.355 289.547 101.185 289.537 101.022 289.505C100.795 289.498 100.561 289.466 100.313 289.393C100.017 289.371 99.7023 289.28 99.419 289.161C99.1708 289.092 98.9486 288.985 98.6938 288.855C97.7875 288.465 96.8621 287.849 95.9844 287.031C97.7035 281.822 99.0946 274.849 100.101 266.87C103.345 267.043 106.443 267.544 109.104 268.37L109.412 268.433C109.028 271.207 108.637 273.821 108.188 276.197C108.055 276.849 107.948 277.455 107.802 278.041C106.941 282.164 105.911 285.461 104.647 287.419C104.485 287.688 104.32 287.92 104.172 288.118C103.485 289.002 102.755 289.471 101.963 289.532C101.817 289.539 101.671 289.547 101.525 289.547Z" fill="#1E272B"/>
<path d="M109.808 265.322C106.982 264.462 103.836 263.917 100.492 263.734C102.418 246.357 102.669 224.804 100.805 205.573C100.807 205.573 100.809 205.573 100.812 205.573C101.065 205.544 101.315 205.515 101.568 205.485C103.9 205.261 106.083 205.053 107.936 204.821C108.408 204.77 108.847 204.726 109.281 204.653C110.44 204.496 111.437 204.345 112.248 204.211C112.253 204.208 112.257 204.208 112.262 204.208C112.308 205.566 112.34 208.008 112.34 211.23C112.34 223.534 111.861 247.21 109.808 265.322Z" fill="#9FAAAD"/>
<path d="M169.158 244.616C169.263 245.302 169.338 245.993 169.412 246.687C169.443 247.068 169.495 247.412 169.519 247.764L169.539 248.113C169.612 248.804 169.685 249.503 169.729 250.199C169.795 250.863 169.829 251.532 169.866 252.204C170.178 257.789 169.995 262.713 169.114 266.486C169.018 266.999 168.879 267.488 168.73 267.942C168.579 268.496 168.418 269.024 168.188 269.534C168.029 269.954 167.839 270.357 167.641 270.734C167.419 271.144 167.211 271.486 166.989 271.764C166.808 272.072 166.583 272.35 166.376 272.56L165.758 273.173C165.514 273.388 165.269 273.584 164.989 273.745C164.742 273.935 164.456 274.075 164.161 274.206C163.728 274.419 163.218 274.438 162.637 274.326L162.192 274.209C161.394 273.987 160.526 273.486 159.572 272.756C159.335 272.59 159.09 272.387 158.841 272.16C158.074 271.542 157.315 270.819 156.485 269.954C155.952 269.376 155.388 268.772 154.799 268.111C153.639 266.806 152.425 265.295 151.214 263.653C150.603 262.869 149.964 261.99 149.326 261.108C148.75 260.349 148.205 259.58 147.656 258.776L147.358 258.366C146.894 257.667 146.386 256.922 145.885 256.202C132.987 237.196 118.261 209.327 115.385 203.436C115.192 203.033 115.053 202.748 114.982 202.569C113.575 199.355 130.083 190.763 141.472 185.271C147.367 182.423 151.891 180.44 151.891 180.44L151.944 180.523C158.321 194.991 166.564 222.911 169.158 244.616Z" fill="#C5D3D4"/>
<path d="M169.411 246.687C169.443 247.068 169.494 247.412 169.519 247.764L169.538 248.113C169.612 248.804 169.685 249.503 169.729 250.199C169.795 250.863 169.829 251.532 169.866 252.204C170.178 257.789 169.995 262.713 169.113 266.486C169.018 266.999 168.879 267.488 168.73 267.942C168.578 268.496 168.417 269.024 168.188 269.534C168.029 269.954 167.838 270.357 167.641 270.734C167.418 271.144 167.211 271.486 166.989 271.764C166.808 272.072 166.583 272.35 166.376 272.56L165.758 273.173C165.513 273.388 165.269 273.584 164.988 273.745C164.742 273.935 164.456 274.075 164.16 274.206C163.728 274.419 163.218 274.438 162.636 274.326L162.192 274.209C161.393 273.987 160.526 273.486 159.571 272.756C159.334 272.59 159.09 272.387 158.841 272.16C158.074 271.542 157.315 270.819 156.484 269.954C155.959 269.407 155.388 268.772 154.799 268.111C153.639 266.806 152.425 265.295 151.214 263.653C150.603 262.869 149.963 261.99 149.326 261.108C148.75 260.349 148.205 259.58 147.655 258.776L147.357 258.366C150.247 254.744 154.316 251.566 159.305 249.378C160.441 248.87 161.591 248.418 162.737 248.074C164.976 247.327 167.228 246.87 169.411 246.687Z" fill="#1F2A31"/>
<path d="M170.931 245.898C171.101 246.728 170.523 247.512 169.665 247.725L169.519 247.764C167.443 248.142 165.264 248.746 163.13 249.535C162.06 249.923 161.003 250.345 159.945 250.8C155.19 252.878 151.006 255.589 147.844 258.634L147.656 258.776L147.138 259.035C146.615 259.167 146.031 259.013 145.631 258.595C145.028 257.965 145.04 256.964 145.672 256.388L145.885 256.202C149.265 252.978 153.666 250.116 158.656 247.915C159.882 247.388 161.117 246.887 162.339 246.46C164.634 245.668 166.874 245.046 169.099 244.63L169.157 244.616C169.998 244.474 170.786 245.055 170.931 245.898Z" fill="#EE4323"/>
<path d="M152.765 183.334C153.207 185.129 149.312 187.967 143.824 190.998C134.568 196.088 120.718 201.705 115.385 203.436C114.732 203.664 114.19 203.827 113.827 203.92C113.46 204.013 112.936 204.103 112.249 204.211C111.438 204.345 110.441 204.496 109.282 204.653C108.847 204.726 108.409 204.77 107.936 204.821C106.084 205.053 103.901 205.261 101.568 205.486C101.316 205.515 101.066 205.544 100.813 205.573C88.0222 206.687 70.6695 207.281 69.8071 203.773C69.7021 203.346 69.5065 202.42 69.2652 201.058C68.8627 198.896 68.3589 195.655 67.8819 191.635C67.7322 190.636 67.6052 189.601 67.5031 188.524L67.4699 188.37C67.3905 187.94 67.3458 187.496 67.3267 187.019C67.2474 186.03 67.1196 184.997 67.0261 183.954C66.9946 183.451 66.9384 182.943 66.902 182.403L66.8639 182.247C66.7894 181.297 66.7113 180.315 66.6588 179.324C66.5652 178.278 66.4986 177.231 66.4585 176.137C66.1913 171.902 66.0597 167.44 66.1266 162.865C66.1266 162.601 66.1388 162.377 66.1388 162.113L66.1628 161.947L66.1552 161.788C66.1503 161.37 66.1789 160.972 66.2057 160.55C66.1838 160.201 66.1962 159.839 66.2314 159.473L66.2248 159.314C66.2629 158.269 66.3029 157.26 66.365 156.203C66.6893 150.563 67.3382 144.941 68.524 139.637C68.7692 138.408 69.0649 137.241 69.3844 136.056C72.1415 125.84 76.945 117.246 84.9635 112.913C86.7571 111.921 88.7034 111.152 90.8384 110.627C92.8133 110.139 94.7996 109.909 96.7075 109.924C106.115 109.899 114.634 115.468 121.997 123.549L122.311 123.92C124.393 126.194 126.357 128.649 128.227 131.262C130.147 133.926 132.003 136.74 133.715 139.612C134.111 140.293 134.538 140.994 134.936 141.673L135.215 142.152L135.4 142.526C135.515 142.726 135.623 142.895 135.745 143.122C136.245 143.969 136.712 144.822 137.152 145.689L137.318 145.967C137.718 146.678 138.099 147.425 138.468 148.145C140.082 151.269 141.589 154.393 142.947 157.392C143.411 158.371 143.851 159.363 144.251 160.33C144.676 161.261 145.052 162.14 145.431 163.014L145.47 163.166C145.59 163.4 145.68 163.632 145.766 163.84C146.464 165.513 147.087 167.1 147.678 168.604L147.78 168.876C148.152 169.848 148.513 170.795 148.862 171.682C150.21 175.321 151.214 178.347 151.891 180.44L151.945 180.523C152.377 181.903 152.653 182.872 152.765 183.334Z" fill="#C5D3D4"/>
<path d="M110.459 190.192C106.119 191.264 75.0128 194.615 67.0468 191.349C66.2484 191.02 65.862 190.104 66.1959 189.298C66.5202 188.504 67.4361 188.111 68.2394 188.446C75.0492 191.232 104.862 188.343 109.706 187.144C114.543 185.954 142.29 174.666 147.03 169.029C147.59 168.37 148.579 168.287 149.243 168.839C149.907 169.398 149.99 170.39 149.431 171.054C143.89 177.641 114.791 189.127 110.459 190.192Z" fill="#EE4323"/>
<path d="M191.408 126.624L190.002 129.203L185.154 138.257L183.759 140.865C183.315 140.645 182.848 140.438 182.342 140.213C178.882 138.794 174.256 137.48 171.255 136.308L171.186 136.295C165.085 133.985 154.398 134.837 148.473 135.976C147.264 136.212 146.077 136.505 144.963 136.843C143.554 137.28 142.225 137.8 140.982 138.401C138.726 139.478 136.75 140.772 135.214 142.152C133.531 143.603 132.32 145.129 131.68 146.58C130.717 148.724 129.648 149.638 128.295 150.292C127.66 150.607 126.942 150.851 126.117 151.186C124.09 152.007 121.458 153.142 117.936 156.435L115.844 153.716L109.505 145.576L87.2568 116.843C90.2 114.207 93.3511 111.914 96.7063 109.924C105.601 104.529 115.725 101.388 126.207 100.487C126.639 100.413 127.059 100.411 127.503 100.362C128.295 100.301 129.093 100.262 129.902 100.257C133.357 100.113 136.83 100.296 140.311 100.636L140.333 100.594C144.233 100.929 148.116 101.617 151.956 102.619C152.232 102.68 152.512 102.77 152.779 102.802C159.429 104.46 163.515 105.425 176.127 114.222L176.161 114.207C180.56 116.718 184.003 120.721 188.14 124.003L188.194 124.086C188.732 124.829 189.315 125.491 190.014 125.967C190.419 126.287 190.898 126.524 191.408 126.624Z" fill="#C5D3D4"/>
<path d="M152.78 102.802L151.131 108.06L149.319 113.843L138.033 110.283L137.33 110.068L137.496 109.543L138.534 106.282L140.312 100.636L140.334 100.594C144.234 100.929 148.117 101.617 151.956 102.619C152.232 102.68 152.513 102.77 152.78 102.802Z" fill="#DC3E21"/>
<path d="M96.2204 114.635L94.2265 125.833L89.8429 150.421L88.0397 160.569L87.4463 163.949C85.9552 163.537 84.6655 163.278 83.53 163.136C81.6556 162.885 80.1814 162.924 78.9366 163.004C78.5282 163.043 78.1448 163.073 77.765 163.099C75.0937 163.405 73.3955 163.754 70.7005 161.605C69.7397 160.84 68.4108 160.166 66.8348 159.68L66.7652 159.663L66.2692 159.495L66.2308 159.473C64.0777 158.874 61.4828 158.571 58.6942 158.676C58.5034 158.696 58.3078 158.676 58.0836 158.703L58.055 158.711C57.7067 158.725 57.3538 158.747 56.9892 158.835L56.956 158.843C55.7444 158.921 54.5042 159.128 53.2562 159.441C52.4768 159.563 51.6897 159.79 50.9074 160.02C45.126 161.761 35.3503 165.923 30.9981 170.812L30.8396 170.976C28.7141 173.374 25.2578 176.652 22.8841 179.504C22.5378 179.941 22.2181 180.342 21.9272 180.74L18.8572 178.652L8.53857 171.684C8.94497 171.359 9.25586 170.927 9.46566 170.453C9.86448 169.711 10.0755 168.849 10.2023 167.942L10.2118 167.842C12.3517 163.014 13.5453 157.873 16.2765 153.609L16.306 153.599C23.3896 139.951 26.5571 137.201 31.682 132.639L32.3231 132.097C35.2538 129.428 38.3763 127.012 41.6743 124.904C44.5919 122.96 47.6274 121.241 50.7518 119.759C51.5324 119.37 52.3452 119.009 53.1655 118.647C63.238 114.256 74.114 112.195 84.9629 112.913C87.0286 113.02 89.0921 113.255 91.1832 113.616C92.8623 113.873 94.5299 114.207 96.2204 114.635Z" fill="#C5D3D4"/>
<path d="M21.9275 180.74C21.897 181.26 21.8274 181.766 21.792 182.293C21.0803 189.515 19.759 195.699 17.9969 196.42L17.6076 196.552C13.7803 197.814 15.6032 191.032 14.5836 187.82C14.3574 187.034 13.9261 186.462 13.2679 186.27C5.56028 187.681 16.4649 203.593 6.11273 198.188L5.81135 198.007C-3.0124 193.316 -1.22171 181.041 7.371 172.715C7.77471 172.388 8.14106 172.046 8.53891 171.684L18.8576 178.652L21.9275 180.74Z" fill="#C5D3D4"/>
<path d="M23.2124 181.622C23.0072 181.964 22.6685 182.172 22.3031 182.262L21.7917 182.294C21.5284 182.262 21.2832 182.194 21.0475 182.025L18.4106 180.247L7.66649 172.998L7.37073 172.715C6.91769 172.185 6.8195 171.396 7.2535 170.81C7.72559 170.107 8.71228 169.894 9.42103 170.4L9.46572 170.453L19.503 177.199L22.8021 179.422L22.8842 179.505C23.5577 180.013 23.6855 180.921 23.2124 181.622Z" fill="#EE4323"/>
<path d="M48.7252 131.909L39.867 140.816L31.6758 132.656C31.8875 132.485 32.1081 132.29 32.3284 132.092C35.2542 129.437 38.374 127.012 41.6748 124.892L48.7252 131.909Z" fill="#2A387C"/>
<path d="M124.878 132.09C126.118 137.138 123.034 142.247 117.982 143.488C112.931 144.733 107.827 141.644 106.58 136.596C105.335 131.545 108.426 126.441 113.475 125.197C118.526 123.949 123.63 127.039 124.878 132.09Z" fill="#2A387C"/>
<path d="M104.247 141.19L122.621 122.941L114.999 147.686L112.873 139.06L104.247 141.19Z" fill="#DC3E21"/>
<path d="M88.286 141.104L69.9945 145.613L67.7412 136.464L86.0364 131.958L88.286 141.104Z" fill="#6C8894"/>
<path d="M162.339 246.46C156.795 225.412 147.832 201.492 143.824 190.998C149.312 187.967 153.207 185.129 152.765 183.334C152.653 182.872 152.377 181.903 151.944 180.523C158.321 194.991 166.564 222.911 169.158 244.616L169.099 244.63C166.874 245.046 164.634 245.668 162.339 246.46Z" fill="#9FAAAD"/>
<path d="M166.989 271.764C166.676 265.639 165.218 257.88 163.13 249.535C165.264 248.746 167.443 248.142 169.519 247.764L169.538 248.113C169.612 248.804 169.685 249.503 169.729 250.199C169.795 250.863 169.829 251.532 169.866 252.204C169.959 253.862 170.007 255.462 170.007 256.991C170.007 260.61 169.734 263.832 169.113 266.486C169.018 266.999 168.879 267.488 168.73 267.942C168.579 268.497 168.417 269.024 168.188 269.534C168.029 269.955 167.839 270.358 167.641 270.734C167.419 271.144 167.211 271.486 166.989 271.764Z" fill="#1E272B"/>
<path d="M143.824 190.998C143.658 190.588 143.526 190.197 143.372 189.845C142.773 188.314 142.138 186.79 141.472 185.271C140.461 182.997 139.384 180.743 138.282 178.491C138.28 178.486 138.277 178.481 138.275 178.476C142.888 176.085 146.823 173.689 148.857 171.672C148.86 171.677 148.86 171.679 148.862 171.682C150.21 175.321 151.214 178.347 151.891 180.44L151.944 180.523C152.377 181.903 152.653 182.872 152.765 183.334C153.207 185.129 149.311 187.967 143.824 190.998ZM136.936 175.651C136.612 174.989 136.275 174.295 135.984 173.623C139.012 172.876 142.48 171.45 146.679 169.415C144.974 171.162 141.323 173.379 136.936 175.651ZM147.665 168.578C147.499 168.153 147.331 167.72 147.157 167.281C147.331 167.72 147.499 168.153 147.668 168.578H147.665Z" fill="#9FAAAD"/>
<path d="M128.296 150.292C127.844 147.432 127.607 144.355 127.585 141.121C127.565 138.022 127.761 134.74 128.227 131.262C133.62 129.254 138.634 127.953 143.237 127.21C146.31 126.675 149.194 126.451 151.93 126.387C152.291 126.38 152.648 126.377 153.004 126.377C169.585 126.377 179.742 133.707 183.924 137.197L182.373 140.105L182.343 140.213C178.883 138.794 174.257 137.48 171.255 136.308L171.187 136.296C168.369 135.228 164.571 134.835 160.714 134.835C160.712 134.835 160.71 134.835 160.705 134.835C160.7 134.835 160.693 134.835 160.688 134.835C156.45 134.835 152.152 135.309 149.004 135.878C148.965 135.885 148.923 135.893 148.882 135.9C148.825 135.91 148.772 135.919 148.718 135.929C148.684 135.937 148.65 135.941 148.618 135.949C148.569 135.958 148.52 135.966 148.474 135.976C148.466 135.978 148.462 135.978 148.457 135.98C147.267 136.212 146.097 136.501 145.001 136.83C144.989 136.835 144.976 136.838 144.964 136.843C143.555 137.28 142.226 137.8 140.983 138.401C140.895 138.445 140.807 138.486 140.719 138.53C140.351 138.491 139.928 138.467 139.52 138.379C139.293 138.367 139.064 138.357 138.834 138.349C137.681 138.247 136.707 138.098 136.441 138.069C136.59 138.159 137.098 138.391 137.708 138.628C138.172 138.831 138.749 139.08 139.337 139.253C137.808 140.108 136.45 141.058 135.322 142.057L134.936 141.673L134.821 141.605C134.873 141.688 135.022 141.903 135.183 142.179C133.517 143.622 132.318 145.139 131.681 146.58C130.718 148.724 129.649 149.638 128.296 150.292Z" fill="#9FAAAD"/>
<path d="M194.423 152.927C194.381 152.927 194.34 152.927 194.298 152.922C194.291 152.922 194.281 152.92 194.274 152.92C192.584 152.725 189.529 149.283 186.3 144.677C186.29 144.663 186.28 144.648 186.271 144.633C186.166 144.487 186.063 144.335 185.958 144.186C185.936 144.155 185.914 144.123 185.892 144.089C185.887 144.081 185.882 144.074 185.875 144.067C185.855 144.037 185.833 144.006 185.814 143.976C185.77 143.913 185.726 143.849 185.682 143.786C185.682 143.783 185.682 143.783 185.682 143.783C185.611 143.681 185.54 143.576 185.467 143.471C185.46 143.458 185.452 143.449 185.445 143.437C185.421 143.4 185.394 143.361 185.367 143.322C185.347 143.292 185.33 143.266 185.311 143.236C185.24 143.134 185.172 143.031 185.103 142.929C185.091 142.911 185.079 142.892 185.067 142.875C185.03 142.816 184.991 142.76 184.952 142.701C184.947 142.694 184.942 142.687 184.937 142.679C184.827 142.513 184.715 142.345 184.603 142.174C184.82 142.027 185.006 141.849 185.135 141.588L186.317 139.421C189.148 142.513 192.027 147.75 195.209 152.82C194.997 152.874 194.775 152.895 194.523 152.925C194.489 152.927 194.457 152.927 194.423 152.927Z" fill="#9FAAAD"/>
<path d="M82.4997 163.549C85.0248 162.926 86.5705 160.371 85.9485 157.846C85.3255 155.323 82.7762 153.782 80.2482 154.405C77.7219 155.028 76.1793 157.577 76.8014 160.103C77.4242 162.628 79.9734 164.177 82.4997 163.549Z" fill="#191A1B"/>
<path d="M130.603 163.014C131.226 165.539 129.682 168.094 127.157 168.717C124.631 169.339 122.082 167.793 121.459 165.268C120.837 162.74 122.375 160.193 124.903 159.568C127.428 158.945 129.98 160.486 130.603 163.014Z" fill="#191A1B"/>
<path d="M68.4017 188.509C68.3462 188.487 68.292 188.465 68.2395 188.445C68.0439 188.362 67.8426 188.326 67.6451 188.326C67.584 188.326 67.5229 188.328 67.4628 188.335C67.4533 188.282 67.4438 188.228 67.4362 188.172C67.4038 187.888 67.3722 187.598 67.3407 187.307C67.3351 187.212 67.3302 187.114 67.3266 187.019C67.2472 186.03 67.1195 184.997 67.0259 183.954C66.9954 183.453 66.9382 182.95 66.9019 182.415C67.5107 182.396 68.103 182.376 68.682 182.354C69.203 182.332 69.7134 182.31 70.2124 182.281C72.977 182.134 75.3832 181.895 77.4858 181.509C77.6137 181.487 77.7415 181.463 77.8675 181.436C78.0832 181.394 78.2949 181.35 78.5037 181.306C78.7584 181.255 79.0056 181.194 79.2374 181.138C79.4025 181.096 79.5686 181.055 79.7297 181.009C81.6281 180.501 83.2415 179.819 84.6275 178.903C84.7907 178.923 84.9558 178.93 85.1218 178.93C85.4967 178.93 85.8765 178.886 86.256 178.791C87.0566 178.596 87.7578 178.202 88.3234 177.682C88.4123 177.738 88.5 177.802 88.584 177.868C89.9434 178.923 90.1725 180.901 89.0847 182.264C87.0908 184.794 84.4272 186.328 80.7372 187.234C77.4831 188.035 73.4838 188.36 68.4017 188.509Z" fill="#9FAAAD"/>
<path d="M79.2246 181.138C75.4992 182.054 70.7054 182.362 64.4497 182.469C62.7155 182.499 61.2872 181.114 61.2557 179.385C61.2301 177.651 62.6229 176.22 64.342 176.188C76.0384 175.992 80.4868 175.038 82.6658 172.27C83.7402 170.917 85.7121 170.678 87.0763 171.755C88.4357 172.827 88.6695 174.806 87.5963 176.163C85.5929 178.708 82.9359 180.227 79.2246 181.138Z" fill="#6C8894"/>
<path d="M131.512 174.217C129.651 174.217 127.932 173.858 126.253 173.108C124.684 172.397 123.967 170.536 124.682 168.973C124.722 168.878 124.767 168.785 124.816 168.695C125.207 168.8 125.614 168.856 126.028 168.856C126.4 168.856 126.779 168.81 127.158 168.717C127.707 168.582 128.213 168.353 128.657 168.055C129.102 168.099 129.553 168.121 130.013 168.121C130.479 168.121 130.953 168.099 131.436 168.052C131.49 168.05 131.541 168.048 131.593 168.045L131.898 168.004C132.382 167.945 132.875 167.867 133.378 167.767C134.189 169.764 135.061 171.716 135.984 173.623C134.387 174.014 132.909 174.217 131.512 174.217Z" fill="#9FAAAD"/>
<path d="M135.983 173.623C135.06 171.716 134.188 169.765 133.377 167.767C133.407 167.762 133.434 167.755 133.463 167.75C133.793 167.694 134.122 167.613 134.447 167.527C134.454 167.527 134.462 167.525 134.469 167.523C134.479 167.52 134.486 167.518 134.494 167.518C134.752 167.462 135.004 167.396 135.253 167.317C135.988 167.115 136.748 166.873 137.539 166.594C137.59 166.577 137.644 166.56 137.698 166.543C138.115 166.406 138.528 166.238 138.973 166.065C140.541 165.469 142.238 164.716 144.087 163.835C144.539 163.622 145.003 163.4 145.472 163.17C145.589 163.402 145.679 163.634 145.765 163.84C146.263 165.029 146.72 166.177 147.157 167.281C147.33 167.72 147.499 168.153 147.665 168.578C147.425 168.67 147.206 168.822 147.03 169.03C146.922 169.157 146.808 169.283 146.678 169.415C142.48 171.45 139.012 172.876 135.983 173.623Z" fill="#818B8F"/>
<path d="M134.469 167.522C130.767 168.44 127.704 168.326 124.748 167.007C123.165 166.303 122.456 164.445 123.162 162.862C123.868 161.277 125.726 160.569 127.31 161.275C130.525 162.706 134.904 161.482 145.35 156.229C146.898 155.452 148.791 156.073 149.57 157.621C150.349 159.167 149.724 161.055 148.173 161.834C142.585 164.648 138.201 166.606 134.469 167.522Z" fill="#6C8894"/>
<path d="M130.547 168.106C130.293 168.104 130.032 168.104 129.77 168.104C129.38 168.104 129.016 168.062 128.649 168.023L128.623 168.035C128.427 168.021 128.229 168.001 128.032 167.974C127.868 167.95 127.707 167.923 127.546 167.891C127.467 167.877 127.392 167.857 127.314 167.838L127.29 167.84C127.052 167.791 126.816 167.733 126.581 167.667C126.526 167.65 126.471 167.628 126.415 167.603L126.192 167.554C126.131 167.535 126.07 167.515 126.009 167.496C125.585 167.357 125.166 167.193 124.749 167.007C124.503 166.9 124.28 166.763 124.08 166.604C123.91 166.465 123.759 166.304 123.625 166.126L123.224 165.549L122.998 164.887C122.874 164.404 122.895 163.818 123.055 163.295C123.31 163.549 123.633 163.796 123.997 163.967C125.69 164.719 127.411 165.068 129.272 165.068C129.727 165.068 130.188 165.046 130.659 165.007C131.16 164.951 131.666 164.887 132.188 164.792C132.687 164.702 133.212 164.604 133.727 164.475C136.716 163.737 140.128 162.35 144.251 160.33C145.267 159.859 146.337 159.336 147.426 158.777C148.237 158.379 148.779 157.695 148.999 156.899C149.214 157.104 149.431 157.341 149.57 157.626C149.834 158.164 149.936 158.735 149.895 159.285C149.831 160.037 149.499 160.755 148.945 161.29C148.723 161.5 148.466 161.681 148.178 161.825C147.257 162.277 146.363 162.719 145.499 163.158L145.47 163.166C145.001 163.395 144.539 163.62 144.087 163.835C141.679 164.97 139.518 165.898 137.539 166.595C137.202 166.707 136.873 166.814 136.562 166.917C136.203 167.034 135.844 167.159 135.478 167.244C135.405 167.269 135.329 167.295 135.253 167.317C134.997 167.388 134.745 167.454 134.494 167.518C134.489 167.518 134.482 167.52 134.477 167.52C134.467 167.523 134.457 167.525 134.447 167.527C134.113 167.611 133.786 167.684 133.463 167.75C133.434 167.755 133.405 167.759 133.378 167.764L132.748 167.852L132.193 167.965L131.898 168.004C131.744 168.023 131.59 168.038 131.436 168.053C131.143 168.07 130.845 168.087 130.547 168.106Z" fill="#5A717B"/>
<path d="M188.615 128.536C183.103 125.341 166.825 111.113 151.131 108.06L152.779 102.801C159.43 104.46 163.515 105.424 176.127 114.222L176.162 114.207C180.56 116.718 184.004 120.721 188.141 124.003L188.195 124.086C188.732 124.828 189.316 125.49 190.014 125.967L188.615 128.536ZM138.533 106.282C136.753 106.006 135.229 105.735 133.898 105.449C128.544 104.34 126.327 103.075 126.208 100.486C126.639 100.413 127.059 100.41 127.504 100.362C128.295 100.301 129.094 100.261 129.902 100.257C130.715 100.222 131.531 100.208 132.347 100.208C134.994 100.208 137.649 100.376 140.311 100.635L138.533 106.282Z" fill="#9FAAAD"/>
<path d="M205.284 149.723C205.844 146.218 205.531 142.582 202.551 137.848C198.859 131.901 194.907 130.321 191.622 129.581L192.789 127.386L192.924 126.99C201.687 129.574 208.01 136.039 208 142.626C207.995 144.662 207.387 146.712 206.056 148.663C205.775 149.083 205.538 149.435 205.284 149.723Z" fill="#9FAAAD"/>
<path d="M151.131 108.06C150.522 107.95 149.883 107.847 149.279 107.772C145.035 107.198 141.459 106.724 138.533 106.282L140.311 100.635L140.333 100.594C144.234 100.928 148.117 101.617 151.956 102.618C152.232 102.679 152.513 102.77 152.779 102.801L151.131 108.06Z" fill="#B03720"/>
<path d="M9.3861 199.304C8.65732 199.304 7.6069 198.967 6.11295 198.188C4.53303 188.17 5.32579 183.705 9.67038 183.705C9.74023 183.705 9.81083 183.705 9.88238 183.708C13.6975 183.832 14.5933 186.006 14.5838 187.82C14.3576 187.034 13.9263 186.462 13.2681 186.27C10.8849 186.707 10.281 188.529 10.2783 190.678C10.2753 192.864 10.8925 195.387 10.8935 197.138C10.8945 198.432 10.5586 199.304 9.3861 199.304Z" fill="#9FAAAD"/>
<path d="M91.4227 114.459C75.1136 118.479 63.2198 119.177 53.9917 116.671C52.3175 116.217 51.33 114.493 51.786 112.82C52.2391 111.145 53.9601 110.158 55.6392 110.61C63.7943 112.832 74.6871 112.114 89.9199 108.36C105.159 104.607 115.138 100.176 121.329 94.4221C122.605 93.2425 124.584 93.3158 125.767 94.5834C126.948 95.8534 126.874 97.8438 125.608 99.0234C118.598 105.53 107.741 110.436 91.4227 114.459Z" fill="#1F2A31"/>
<path d="M39.3179 73.6189C40.809 79.6758 37.9251 85.6008 32.8774 86.8415C27.8221 88.0895 22.5206 84.1818 21.0237 78.1225L17.4214 63.4834C15.9254 57.4266 18.8093 51.5016 23.8619 50.256C28.9123 49.0129 34.2187 52.9181 35.7099 58.9799L39.3179 73.6189Z" fill="#839CA6"/>
<path d="M136.88 49.5744C138.377 55.6337 135.493 61.5538 130.437 62.8043C125.388 64.0523 120.084 60.1422 118.588 54.0804L114.984 39.4438C113.488 33.3845 116.373 27.4595 121.421 26.2164C126.476 24.9733 131.783 28.8736 133.275 34.9378L136.88 49.5744Z" fill="#839CA6"/>
<path d="M129.734 46.8046C139.501 86.4405 130.31 101.641 90.6731 111.408C51.0364 121.175 35.8391 111.984 26.0689 72.3509C17.0534 35.763 35.0013 8.70486 63.6267 1.65152C92.2501 -5.40181 120.715 10.2239 129.734 46.8046Z" fill="#C5D3D4"/>
<path d="M89.1689 105.31C58.938 112.759 39.829 101.212 32.382 70.9761C26.3725 46.5874 38.6508 30.439 68.8817 22.9876C99.1166 15.5411 117.496 24.1306 123.506 48.5242C131.271 80.0346 120.682 97.5483 89.1689 105.31Z" fill="#1F2A31"/>
<path d="M88.4215 102.264C59.8103 109.315 42.4786 98.8328 35.4304 70.2238C29.8427 47.5422 41.0257 33.0887 69.632 26.0403C98.2429 18.9967 114.871 26.5923 120.46 49.2738C127.897 79.4703 118.614 94.8225 88.4215 102.264Z" fill="#070A0E"/>
<path d="M54.2183 81.5876C55.4031 86.4014 57.1442 90.9513 59.2602 95.218C52.5458 88.8217 47.4971 80.5521 45.114 70.8904C41.8161 57.5042 44.203 44.0789 50.719 33.1277C54.6638 30.8954 59.3413 29.0002 64.7002 27.3859C53.832 42.4817 49.4119 62.0737 54.2183 81.5876Z" fill="#EAEAE8"/>
</svg>
