<svg width="80" height="80" viewBox="0 0 80 80" fill="none" xmlns="http://www.w3.org/2000/svg">
<path d="M56 31.9996C56 36.243 54.3143 40.3126 51.3137 43.3132C48.3131 46.3137 44.2435 47.9994 40 47.9994C35.7565 47.9994 31.6869 46.3137 28.6863 43.3132C25.6857 40.3126 24 36.243 24 31.9996C24 27.7562 25.6857 23.6865 28.6863 20.686C31.6869 17.6854 35.7565 15.9998 40 15.9998C44.2435 15.9998 48.3131 17.6854 51.3137 20.686C54.3143 23.6865 56 27.7562 56 31.9996Z" fill="black"/>
<path fill-rule="evenodd" clip-rule="evenodd" d="M38.368 79.9671C17.034 79.1111 0 61.5433 0 39.9996C0 17.9078 17.908 0 40 0C62.092 0 80 17.9078 80 39.9996C80 62.0913 62.092 79.9991 40 79.9991C39.8173 80.0003 39.6347 80.0003 39.452 79.9991C39.09 79.9991 38.728 79.9871 38.368 79.9671ZM14.332 65.2393C14.0329 64.3804 13.9311 63.4653 14.0342 62.5617C14.1372 61.6581 14.4424 60.7893 14.9272 60.0199C15.4119 59.2504 16.0637 58.6 16.8342 58.1169C17.6048 57.6338 18.4742 57.3305 19.378 57.2294C34.97 55.5034 45.126 55.6594 60.642 57.2654C61.547 57.3596 62.4186 57.6591 63.1903 58.1411C63.9621 58.6231 64.6137 59.2749 65.0955 60.0467C65.5773 60.8186 65.8766 61.6903 65.9706 62.5953C66.0646 63.5003 65.9509 64.4149 65.638 65.2693C72.2879 58.5411 76.0119 49.4593 76 39.9996C76 20.1178 59.882 3.99996 40 3.99996C20.118 3.99996 4 20.1178 4 39.9996C4 49.8314 7.942 58.7433 14.332 65.2393Z" fill="black"/>
</svg>
