<svg width="328" height="290" viewBox="0 0 328 290" fill="none" xmlns="http://www.w3.org/2000/svg">
<path d="M284.973 49.4331C297.802 87.054 276.356 127.504 237.085 139.784C197.81 152.072 155.582 131.535 142.756 93.9143C129.935 56.2963 151.374 15.8432 190.647 3.55788C229.92 -8.72452 272.151 11.8151 284.973 49.4331Z" fill="#487FCA"/>
<path d="M142.757 93.9143C155.583 131.535 197.812 152.072 237.086 139.784C276.357 127.504 297.803 87.054 284.974 49.4331C282.126 41.0696 277.819 33.5566 272.414 27.0596C255.254 31.0198 237.61 38.7926 228.156 50.127C214.317 66.7241 162.376 75.6842 139.047 71.6589C139.043 79.0272 140.24 86.5253 142.757 93.9143Z" fill="#3765B9"/>
<path d="M148.962 107.313C166.204 136.192 202.772 150.518 237.084 139.784C269.468 129.654 289.705 100.373 288.626 69.3199C267.378 82.1752 236.805 93.5008 220.807 89.3338C198.704 83.5809 166.477 94.9627 148.962 107.313Z" fill="#3765B9"/>
<path d="M237.084 139.783C264.153 131.32 282.74 109.469 287.488 84.396C271.681 88.6043 256.048 96.0228 247.353 106.454C235.349 120.836 194.698 129.494 168.891 128.913C187.745 142.48 212.967 147.329 237.084 139.783Z" fill="#284FA9"/>
<path d="M327.414 38.2965C331.225 49.4744 316.174 65.1589 289.927 80.0992C289.298 80.4536 288.673 80.8139 288.034 81.1535C281.104 85.0311 273.424 88.8289 265.152 92.4968C253.21 97.7771 240.006 102.747 225.963 107.136C211.92 111.536 198.191 114.985 185.3 117.466C176.361 119.188 167.817 120.458 159.838 121.246C159.117 121.335 158.389 121.403 157.664 121.462C127.269 124.238 105.453 120.092 101.645 108.911C97.8348 97.7269 112.913 82.0277 139.213 67.0637C139.072 69.066 139.03 71.089 139.061 73.1119C134.489 78.0556 132.536 82.6744 133.85 86.5342C134.899 89.6026 137.949 91.8973 142.589 93.4093C143.455 93.6958 144.382 93.9409 145.361 94.1742C151.139 95.5622 158.79 95.955 167.679 95.4205C182.13 94.5257 199.888 91.1442 218.523 85.3205C237.172 79.485 253.595 72.1758 265.785 64.7219C273.31 60.1208 279.238 55.499 283.043 51.1135C283.69 50.3722 284.288 49.6487 284.813 48.9252C287.627 45.083 288.657 41.5125 287.606 38.4471C286.293 34.5843 281.874 31.9618 275.147 30.5443C273.932 28.8964 272.653 27.3017 271.33 25.7631C301.769 22.9575 323.601 27.1156 327.414 38.2965Z" fill="#A2212E"/>
<path d="M158.571 76.2236H138.778V47.3271H158.571V51.1892H145.399V58.9133H155.743V62.7754H145.399V72.3616H158.571V76.2236ZM175.653 72.3616C177.538 72.3616 178.48 71.7179 178.48 70.4305V60.3616C178.388 59.1202 177.446 58.4995 175.653 58.4995H172.894C171.009 58.4995 170.067 59.1432 170.067 60.4305V70.4305C170.067 71.7179 171.009 72.3616 172.894 72.3616H175.653ZM163.446 59.7409C163.446 58.2236 164.227 57.0052 165.791 56.0857C167.4 55.1202 169.331 54.6374 171.584 54.6374H175.377C176.434 54.6374 177.17 54.7524 177.584 54.9823L178.48 55.396V48.0857H185.101V76.2236H178.48V75.6029C177.469 76.0167 176.342 76.2236 175.101 76.2236H171.584C168.044 76.2236 165.561 75.2351 164.135 73.2581C163.676 72.6144 163.446 71.9018 163.446 71.1202V59.7409ZM201.671 72.3616C203.511 72.3616 204.43 71.7179 204.43 70.4305V60.3616C204.43 59.0742 203.511 58.4305 201.671 58.4305H199.671C197.786 58.4305 196.844 59.0742 196.844 60.3616V70.4305C196.844 71.7179 197.786 72.3616 199.671 72.3616H201.671ZM190.223 59.7409C190.223 58.1777 191.005 56.9363 192.568 56.0167C194.177 55.0512 196.108 54.5685 198.361 54.5685H202.982C205.189 54.5685 207.051 55.0282 208.568 55.9478C210.223 56.8673 211.051 58.1317 211.051 59.7409V71.0512C211.051 72.6604 210.223 73.9248 208.568 74.8443C207.051 75.7639 205.189 76.2236 202.982 76.2236H198.361C194.821 76.2236 192.338 75.2351 190.913 73.2581C190.453 72.6144 190.223 71.8788 190.223 71.0512V59.7409ZM222.625 56.2926C223.729 55.1892 225.384 54.6374 227.591 54.6374H228.763V58.4995H227.039C225.154 58.4995 223.821 59.0742 223.039 60.2236C222.763 60.5914 222.625 61.0052 222.625 61.465V76.2236H216.004V54.6374H222.625V56.2926ZM243.332 72.3616C245.171 72.3616 246.09 71.7179 246.09 70.4305V60.3616C246.09 59.0742 245.171 58.4305 243.332 58.4305H241.332C239.447 58.4305 238.504 59.0742 238.504 60.3616V70.4305C238.504 71.7179 239.447 72.3616 241.332 72.3616H243.332ZM231.883 59.7409C231.883 58.1777 232.665 56.9363 234.228 56.0167C235.837 55.0512 237.768 54.5685 240.021 54.5685H244.642C246.849 54.5685 248.711 55.0282 250.228 55.9478C251.883 56.8673 252.711 58.1317 252.711 59.7409V71.0512C252.711 72.6604 251.883 73.9248 250.228 74.8443C248.711 75.7639 246.849 76.2236 244.642 76.2236H240.021C236.481 76.2236 233.998 75.2351 232.573 73.2581C232.113 72.6144 231.883 71.8788 231.883 71.0512V59.7409ZM258.216 76.2236V48.5685H264.837V76.2236H258.216ZM277.535 48.8443V52.7064H270.914V48.8443H277.535ZM270.914 54.6374H277.535V76.2236H270.914V54.6374Z" fill="#F6F6F6"/>
<path d="M150.849 184.823C151.627 187.844 149.596 190.942 146.335 191.713L69.3049 209.895C66.0464 210.661 62.7459 208.824 61.9672 205.796L42.8912 131.65C42.1172 128.629 44.1473 125.526 47.4061 124.76L124.434 106.573C127.695 105.805 130.996 107.646 131.775 110.67L150.849 184.823Z" fill="#839CA6"/>
<path d="M109.06 209.67C109.079 209.845 109.083 210.109 109.088 210.507C109.306 216.476 109.232 246.111 106.706 267.451C106.581 268.294 106.478 269.128 106.372 269.933L106.321 270.347C105.947 272.929 105.567 275.362 105.131 277.574C105.002 278.181 104.898 278.744 104.756 279.29C103.92 283.127 102.919 286.196 101.69 288.02C101.533 288.27 101.372 288.486 101.229 288.67C100.561 289.493 99.8519 289.929 99.0825 289.986C98.7718 290.002 98.4614 290.015 98.1673 289.961C97.9469 289.954 97.7197 289.925 97.4786 289.856C97.1912 289.836 96.8853 289.752 96.61 289.64C96.3689 289.577 96.1529 289.477 95.9054 289.356C95.0247 288.992 94.1254 288.42 93.2725 287.658C92.9602 287.431 92.6718 287.167 92.3751 286.876C91.9997 286.517 91.6549 286.144 91.3027 285.746C90.9381 285.319 90.5795 284.896 90.2105 284.444C89.504 283.521 88.769 282.493 88.0829 281.42C87.752 280.863 87.3811 280.288 87.0401 279.676C85.6474 277.326 84.3191 274.602 83.0259 271.656C82.8496 271.215 82.6505 270.811 82.477 270.367C82.3286 270.044 82.21 269.706 82.0616 269.383C81.8205 268.808 81.5732 268.205 81.3599 267.623C73.7906 248.575 68.3181 222.057 67.2798 207.401C67.2798 207.401 108.736 204.721 109.06 209.67Z" fill="#C5D3D4"/>
<path d="M106.372 269.933L106.321 270.347C105.948 272.929 105.568 275.362 105.132 277.574C105.002 278.181 104.898 278.744 104.756 279.29C103.92 283.127 102.919 286.196 101.691 288.02C101.533 288.27 101.373 288.486 101.229 288.67C100.561 289.493 99.8522 289.929 99.0828 289.986C98.7722 290.002 98.4617 290.015 98.1677 289.961C97.9472 289.954 97.7201 289.925 97.479 289.856C97.1916 289.836 96.8857 289.752 96.6104 289.64C96.3692 289.577 96.1533 289.477 95.9057 289.356C95.025 288.992 94.1258 288.42 93.2728 287.658C92.9605 287.431 92.6722 287.167 92.3755 286.876C92.0001 286.517 91.6552 286.144 91.303 285.746C90.9385 285.319 90.5799 284.896 90.2108 284.444C89.5043 283.521 88.7693 282.493 88.0832 281.42C87.7524 280.863 87.3815 280.288 87.0404 279.676C85.6758 277.319 84.3195 274.602 83.0263 271.656C82.8499 271.215 82.6508 270.811 82.4773 270.367C82.329 270.044 82.2103 269.706 82.062 269.383C84.8803 268.358 88.0277 267.646 91.3707 267.455C93.4788 267.323 95.4952 267.36 97.4726 267.58C100.703 267.935 103.714 268.758 106.372 269.933Z" fill="#1F2A31"/>
<path d="M107.944 269.313C107.765 269.842 107.355 270.206 106.852 270.327L106.322 270.338L106.022 270.279C103.436 269.51 100.426 269.044 97.2737 268.883C95.3872 268.756 93.4078 268.772 91.4627 268.904C88.3972 269.081 85.349 269.565 82.4778 270.358L82.3266 270.397C81.4599 270.57 80.6627 270.154 80.4289 269.37C80.2085 268.638 80.6395 267.876 81.3607 267.615L81.4765 267.585C84.6491 266.717 87.9334 266.18 91.2477 265.971C93.4439 265.846 95.5744 265.828 97.6536 265.964C100.903 266.135 103.96 266.642 106.706 267.442L106.943 267.508C107.726 267.744 108.192 268.567 107.944 269.313Z" fill="#EE4323"/>
<path d="M98.6559 289.99C98.49 289.99 98.3249 289.981 98.1663 289.952C97.9459 289.945 97.7187 289.915 97.4776 289.847C97.1902 289.827 96.8843 289.743 96.609 289.631C96.3679 289.568 96.1519 289.468 95.9044 289.347C95.0237 288.983 94.1244 288.411 93.2715 287.649C94.942 282.8 96.2938 276.31 97.2719 268.883C100.424 269.044 103.434 269.51 106.02 270.279L106.32 270.338C105.946 272.92 105.566 275.353 105.13 277.565C105.001 278.172 104.897 278.735 104.755 279.281C103.919 283.118 102.918 286.187 101.689 288.01C101.532 288.261 101.371 288.476 101.228 288.661C100.56 289.484 99.8509 289.92 99.0815 289.977C98.9396 289.984 98.7969 289.99 98.6559 289.99Z" fill="#1E272B"/>
<path d="M106.705 267.442C103.958 266.641 100.901 266.134 97.6519 265.964C99.5236 249.789 99.7674 229.727 97.9561 211.827C97.9578 211.827 97.9597 211.827 97.9625 211.827C98.2082 211.8 98.4512 211.773 98.6968 211.746C100.964 211.536 103.085 211.343 104.885 211.127C105.344 211.079 105.77 211.039 106.192 210.97C107.318 210.825 108.287 210.684 109.075 210.559C109.08 210.557 109.084 210.557 109.089 210.557C109.133 211.821 109.165 214.094 109.165 217.092C109.165 228.545 108.7 250.583 106.705 267.442Z" fill="#9FAAAD"/>
<path d="M164.376 248.169C164.478 248.807 164.552 249.451 164.623 250.096C164.654 250.451 164.704 250.771 164.728 251.099L164.747 251.424C164.818 252.067 164.889 252.717 164.932 253.365C164.996 253.984 165.029 254.606 165.065 255.232C165.368 260.431 165.19 265.014 164.334 268.526C164.241 269.003 164.106 269.458 163.961 269.881C163.814 270.397 163.657 270.888 163.434 271.363C163.28 271.754 163.095 272.129 162.903 272.479C162.687 272.861 162.485 273.179 162.269 273.439C162.093 273.725 161.875 273.984 161.673 274.18L161.073 274.75C160.836 274.95 160.598 275.132 160.325 275.282C160.086 275.46 159.808 275.589 159.521 275.712C159.101 275.91 158.605 275.928 158.04 275.823L157.608 275.714C156.832 275.507 155.989 275.041 155.061 274.362C154.831 274.207 154.594 274.018 154.352 273.807C153.607 273.232 152.868 272.559 152.062 271.754C151.544 271.215 150.996 270.654 150.424 270.038C149.297 268.824 148.117 267.417 146.94 265.889C146.347 265.159 145.725 264.341 145.106 263.52C144.545 262.813 144.016 262.097 143.482 261.349L143.193 260.967C142.742 260.317 142.248 259.624 141.762 258.953C129.228 241.262 114.919 215.321 112.124 209.838C111.937 209.463 111.801 209.197 111.732 209.031C110.365 206.04 126.407 198.042 137.473 192.929C143.202 190.279 147.597 188.433 147.597 188.433L147.65 188.51C153.846 201.977 161.856 227.966 164.376 248.169Z" fill="#C5D3D4"/>
<path d="M164.623 250.096C164.654 250.451 164.704 250.771 164.727 251.099L164.746 251.424C164.818 252.067 164.889 252.717 164.931 253.365C164.996 253.984 165.029 254.606 165.064 255.232C165.368 260.431 165.19 265.014 164.333 268.526C164.241 269.003 164.106 269.458 163.961 269.881C163.814 270.397 163.657 270.888 163.434 271.363C163.28 271.754 163.095 272.129 162.902 272.479C162.686 272.861 162.485 273.179 162.269 273.439C162.093 273.725 161.875 273.984 161.673 274.18L161.073 274.75C160.835 274.95 160.598 275.132 160.325 275.282C160.085 275.46 159.808 275.589 159.52 275.712C159.1 275.91 158.604 275.928 158.04 275.823L157.608 275.714C156.832 275.507 155.989 275.041 155.061 274.362C154.831 274.207 154.594 274.018 154.351 273.807C153.606 273.232 152.868 272.559 152.061 271.754C151.551 271.245 150.996 270.654 150.424 270.038C149.296 268.824 148.117 267.417 146.94 265.889C146.346 265.159 145.725 264.341 145.105 263.52C144.545 262.813 144.016 262.097 143.482 261.349L143.192 260.967C146 257.596 149.954 254.638 154.802 252.601C155.906 252.129 157.024 251.708 158.137 251.387C160.313 250.692 162.501 250.267 164.623 250.096Z" fill="#1F2A31"/>
<path d="M166.1 249.362C166.266 250.135 165.704 250.865 164.871 251.062L164.728 251.099C162.711 251.451 160.594 252.013 158.52 252.747C157.48 253.108 156.453 253.502 155.425 253.924C150.804 255.859 146.739 258.382 143.665 261.217L143.483 261.349L142.98 261.59C142.472 261.713 141.905 261.57 141.515 261.181C140.929 260.594 140.941 259.662 141.556 259.126L141.762 258.953C145.047 255.952 149.323 253.288 154.172 251.24C155.363 250.749 156.564 250.283 157.751 249.885C159.982 249.148 162.158 248.569 164.32 248.182L164.377 248.169C165.193 248.037 165.96 248.578 166.1 249.362Z" fill="#EE4323"/>
<path d="M148.447 191.127C148.877 192.798 145.092 195.439 139.759 198.261C130.764 202.998 117.306 208.227 112.124 209.839C111.489 210.05 110.962 210.202 110.61 210.289C110.253 210.375 109.743 210.459 109.076 210.559C108.288 210.684 107.319 210.825 106.193 210.971C105.771 211.039 105.345 211.08 104.886 211.127C103.085 211.343 100.964 211.537 98.6975 211.746C98.4519 211.773 98.2089 211.8 97.9633 211.828C85.5342 212.864 68.672 213.417 67.834 210.152C67.7319 209.754 67.5418 208.893 67.3073 207.624C66.9162 205.612 66.4266 202.596 65.9631 198.854C65.8177 197.924 65.6942 196.96 65.595 195.958L65.5628 195.815C65.4856 195.414 65.4422 195.001 65.4237 194.557C65.3466 193.637 65.2224 192.675 65.1315 191.704C65.1009 191.236 65.0463 190.763 65.011 190.261L64.9739 190.115C64.9016 189.231 64.8256 188.317 64.7746 187.394C64.6837 186.421 64.6189 185.446 64.58 184.427C64.3204 180.486 64.1924 176.332 64.2575 172.074C64.2575 171.829 64.2693 171.62 64.2693 171.374L64.2926 171.22L64.2852 171.072C64.2805 170.683 64.3083 170.313 64.3344 169.919C64.313 169.594 64.3251 169.258 64.3593 168.917L64.3529 168.769C64.3899 167.796 64.4288 166.857 64.4891 165.873C64.8043 160.624 65.4348 155.391 66.5871 150.453C66.8253 149.309 67.1127 148.223 67.4232 147.12C70.1023 137.611 74.7701 129.611 82.562 125.578C84.3049 124.655 86.1961 123.939 88.2708 123.451C90.1899 122.996 92.12 122.782 93.974 122.796C103.116 122.773 111.394 127.956 118.548 135.479L118.854 135.824C120.877 137.941 122.785 140.225 124.603 142.658C126.469 145.138 128.272 147.757 129.936 150.43C130.32 151.064 130.736 151.717 131.122 152.349L131.393 152.794L131.573 153.142C131.685 153.329 131.789 153.486 131.908 153.697C132.395 154.486 132.848 155.279 133.275 156.086L133.436 156.345C133.826 157.007 134.196 157.703 134.554 158.373C136.123 161.281 137.587 164.188 138.907 166.98C139.358 167.891 139.785 168.814 140.174 169.715C140.587 170.581 140.953 171.399 141.32 172.213L141.358 172.354C141.475 172.572 141.562 172.788 141.646 172.981C142.324 174.539 142.929 176.016 143.504 177.417L143.603 177.669C143.964 178.574 144.315 179.456 144.655 180.281C145.965 183.668 146.94 186.485 147.598 188.433L147.65 188.51C148.07 189.795 148.338 190.697 148.447 191.127Z" fill="#C5D3D4"/>
<path d="M107.337 197.51C103.119 198.508 72.8925 201.627 65.1517 198.588C64.3758 198.281 64.0004 197.428 64.3248 196.678C64.64 195.939 65.53 195.573 66.3105 195.885C72.9279 198.479 101.898 195.789 106.605 194.673C111.305 193.566 138.268 183.059 142.875 177.812C143.418 177.198 144.379 177.121 145.025 177.635C145.67 178.155 145.751 179.078 145.208 179.697C139.823 185.828 111.546 196.519 107.337 197.51Z" fill="#EE4323"/>
<path d="M185.999 138.341L184.632 140.741L179.921 149.168L178.566 151.596C178.134 151.392 177.681 151.198 177.189 150.989C173.826 149.668 169.331 148.445 166.415 147.354L166.348 147.343C160.42 145.192 150.034 145.986 144.277 147.045C143.102 147.266 141.949 147.538 140.866 147.852C139.497 148.259 138.206 148.743 136.998 149.303C134.805 150.305 132.885 151.51 131.392 152.794C129.757 154.145 128.58 155.565 127.958 156.916C127.023 158.912 125.984 159.762 124.669 160.371C124.052 160.664 123.355 160.892 122.553 161.203C120.583 161.967 118.026 163.024 114.603 166.089L112.57 163.558L106.41 155.982L84.791 129.236C87.651 126.783 90.713 124.649 93.9734 122.796C102.616 117.774 112.454 114.851 122.641 114.012C123.06 113.943 123.468 113.941 123.9 113.896C124.669 113.839 125.445 113.803 126.231 113.798C129.589 113.664 132.964 113.834 136.345 114.15L136.367 114.112C140.157 114.423 143.93 115.064 147.661 115.996C147.929 116.053 148.202 116.137 148.461 116.167C154.923 117.71 158.894 118.608 171.149 126.797L171.183 126.783C175.457 129.12 178.803 132.846 182.823 135.901L182.876 135.979C183.398 136.67 183.965 137.286 184.644 137.729C185.038 138.027 185.503 138.247 185.999 138.341Z" fill="#C5D3D4"/>
<path d="M148.462 116.167L146.86 121.061L145.099 126.444L134.132 123.13L133.448 122.93L133.61 122.441L134.618 119.406L136.346 114.15L136.367 114.112C140.157 114.423 143.931 115.064 147.662 115.996C147.93 116.053 148.203 116.137 148.462 116.167Z" fill="#DC3E21"/>
<path d="M93.5011 127.181L91.5635 137.604L87.3038 160.492L85.5516 169.937L84.9749 173.083C83.526 172.699 82.2727 172.458 81.1693 172.326C79.3479 172.092 77.9154 172.129 76.7057 172.204C76.3089 172.24 75.9363 172.267 75.5673 172.292C72.9714 172.576 71.3212 172.902 68.7024 170.901C67.7687 170.189 66.4774 169.562 64.946 169.11L64.8783 169.094L64.3963 168.937L64.3591 168.916C62.2668 168.359 59.7452 168.078 57.0354 168.175C56.85 168.194 56.6599 168.175 56.4421 168.2L56.4143 168.207C56.0759 168.221 55.7329 168.241 55.3786 168.323L55.3463 168.33C54.169 168.403 52.9638 168.596 51.7511 168.887C50.9938 169.001 50.2289 169.212 49.4687 169.426C43.8507 171.047 34.3513 174.92 30.1221 179.471L29.9681 179.624C27.9026 181.856 24.544 184.907 22.2374 187.562C21.9009 187.969 21.5902 188.342 21.3076 188.712L18.3244 186.769L8.29736 180.283C8.69227 179.981 8.99438 179.578 9.19824 179.137C9.5858 178.446 9.79085 177.644 9.91402 176.8L9.92327 176.707C12.0027 172.213 13.1625 167.427 15.8166 163.458L15.8453 163.449C22.7287 150.746 25.8066 148.186 30.7866 143.94L31.4096 143.435C34.2575 140.95 37.2917 138.702 40.4966 136.74C43.3317 134.93 46.2814 133.33 49.3175 131.95C50.076 131.589 50.8659 131.252 51.663 130.916C61.4508 126.828 72.0195 124.91 82.5617 125.578C84.569 125.678 86.5742 125.896 88.6062 126.233C90.2378 126.472 91.8583 126.783 93.5011 127.181Z" fill="#C5D3D4"/>
<path d="M21.3078 188.713C21.2781 189.197 21.2105 189.667 21.1761 190.158C20.4845 196.881 19.2006 202.637 17.4883 203.307L17.11 203.43C13.3908 204.605 15.1622 198.292 14.1714 195.303C13.9516 194.571 13.5325 194.039 12.8929 193.859C5.40313 195.173 15.9995 209.984 5.93997 204.953L5.6471 204.785C-2.92726 200.418 -1.18718 188.992 7.16267 181.243C7.55497 180.938 7.91097 180.62 8.29757 180.283L18.3246 186.769L21.3078 188.713Z" fill="#C5D3D4"/>
<path d="M22.5567 189.533C22.3573 189.852 22.0282 190.045 21.6731 190.129L21.1762 190.159C20.9203 190.129 20.682 190.065 20.453 189.909L17.8906 188.254L7.45016 181.506L7.16276 181.243C6.72252 180.749 6.62711 180.015 7.04884 179.469C7.50759 178.815 8.46639 178.617 9.15511 179.088L9.19854 179.138L18.9522 185.416L22.158 187.485L22.2377 187.562C22.8923 188.035 23.0164 188.881 22.5567 189.533Z" fill="#EE4323"/>
<path d="M47.3483 143.26L38.7404 151.551L30.7808 143.956C30.9865 143.796 31.2008 143.615 31.4149 143.43C34.2581 140.959 37.2897 138.702 40.4971 136.729L47.3483 143.26Z" fill="#2A387C"/>
<path d="M121.349 143.428C122.554 148.127 119.556 152.883 114.648 154.038C109.739 155.197 104.779 152.321 103.568 147.622C102.358 142.921 105.362 138.17 110.268 137.013C115.176 135.851 120.136 138.727 121.349 143.428Z" fill="#2A387C"/>
<path d="M101.301 151.898L119.156 134.912L111.749 157.945L109.683 149.916L101.301 151.898Z" fill="#DC3E21"/>
<path d="M85.7903 151.819L68.0157 156.016L65.8262 147.5L83.6043 143.306L85.7903 151.819Z" fill="#6C8894"/>
<path d="M157.751 249.885C152.363 230.293 143.653 208.029 139.759 198.26C145.092 195.439 148.877 192.797 148.447 191.126C148.338 190.697 148.07 189.794 147.65 188.51C153.846 201.977 161.856 227.965 164.377 248.168L164.32 248.182C162.158 248.568 159.981 249.148 157.751 249.885Z" fill="#9FAAAD"/>
<path d="M162.269 273.438C161.965 267.737 160.548 260.515 158.519 252.747C160.593 252.013 162.71 251.451 164.727 251.099L164.746 251.424C164.818 252.067 164.889 252.717 164.932 253.365C164.996 253.984 165.029 254.606 165.064 255.232C165.155 256.775 165.202 258.264 165.202 259.687C165.202 263.056 164.936 266.055 164.334 268.526C164.241 269.003 164.106 269.458 163.961 269.881C163.814 270.397 163.657 270.888 163.434 271.363C163.28 271.754 163.095 272.129 162.902 272.479C162.686 272.861 162.485 273.179 162.269 273.438Z" fill="#1E272B"/>
<path d="M139.759 198.26C139.597 197.879 139.469 197.515 139.32 197.188C138.738 195.762 138.121 194.344 137.473 192.93C136.491 190.813 135.444 188.715 134.374 186.619C134.372 186.614 134.369 186.61 134.367 186.605C138.85 184.38 142.673 182.15 144.65 180.272C144.652 180.276 144.652 180.279 144.655 180.281C145.965 183.668 146.94 186.485 147.598 188.433L147.65 188.51C148.07 189.795 148.338 190.697 148.447 191.127C148.877 192.798 145.092 195.439 139.759 198.26ZM133.066 183.975C132.751 183.359 132.423 182.713 132.141 182.088C135.083 181.393 138.454 180.065 142.533 178.171C140.877 179.797 137.329 181.861 133.066 183.975ZM143.492 177.392C143.331 176.996 143.167 176.594 142.998 176.184C143.167 176.594 143.331 176.996 143.494 177.392H143.492Z" fill="#9FAAAD"/>
<path d="M124.669 160.371C124.23 157.709 124 154.845 123.979 151.835C123.96 148.95 124.15 145.895 124.603 142.658C129.843 140.789 134.715 139.577 139.189 138.886C142.175 138.388 144.977 138.179 147.636 138.12C147.987 138.113 148.333 138.111 148.68 138.111C164.792 138.111 174.662 144.933 178.725 148.182L177.218 150.889L177.19 150.989C173.827 149.669 169.332 148.446 166.415 147.354L166.349 147.343C163.61 146.35 159.92 145.984 156.172 145.984C156.17 145.984 156.167 145.984 156.163 145.984C156.158 145.984 156.151 145.984 156.146 145.984C152.028 145.984 147.851 146.425 144.792 146.954C144.754 146.961 144.714 146.968 144.674 146.975C144.619 146.984 144.567 146.993 144.515 147.002C144.481 147.009 144.448 147.013 144.417 147.02C144.37 147.029 144.322 147.036 144.277 147.045C144.27 147.048 144.265 147.048 144.261 147.05C143.105 147.266 141.968 147.534 140.903 147.841C140.891 147.845 140.879 147.848 140.867 147.852C139.498 148.259 138.207 148.743 136.999 149.303C136.913 149.344 136.828 149.382 136.742 149.423C136.384 149.387 135.973 149.364 135.577 149.282C135.356 149.271 135.133 149.262 134.91 149.255C133.79 149.159 132.843 149.021 132.584 148.993C132.729 149.078 133.223 149.294 133.816 149.514C134.267 149.703 134.827 149.935 135.399 150.096C133.913 150.892 132.594 151.776 131.497 152.706L131.122 152.349L131.011 152.285C131.061 152.363 131.205 152.563 131.362 152.819C129.743 154.163 128.578 155.575 127.959 156.916C127.024 158.912 125.984 159.762 124.669 160.371Z" fill="#9FAAAD"/>
<path d="M188.928 162.824C188.888 162.824 188.847 162.824 188.807 162.819C188.8 162.819 188.791 162.817 188.783 162.817C187.141 162.635 184.172 159.432 181.035 155.145C181.025 155.131 181.016 155.117 181.006 155.104C180.904 154.967 180.804 154.826 180.702 154.688C180.681 154.658 180.66 154.629 180.638 154.597C180.634 154.59 180.629 154.583 180.622 154.576C180.603 154.549 180.581 154.519 180.562 154.492C180.52 154.433 180.477 154.374 180.434 154.315C180.434 154.313 180.434 154.313 180.434 154.313C180.365 154.217 180.297 154.119 180.225 154.022C180.218 154.01 180.211 154.001 180.204 153.99C180.18 153.956 180.154 153.919 180.128 153.883C180.109 153.856 180.092 153.831 180.074 153.803C180.005 153.708 179.938 153.612 179.872 153.517C179.86 153.501 179.848 153.483 179.836 153.467C179.801 153.412 179.763 153.36 179.725 153.306C179.72 153.299 179.715 153.292 179.71 153.285C179.604 153.13 179.494 152.974 179.385 152.814C179.596 152.678 179.777 152.512 179.903 152.269L181.051 150.252C183.802 153.13 186.6 158.004 189.692 162.724C189.486 162.774 189.27 162.794 189.025 162.822C188.992 162.824 188.961 162.824 188.928 162.824Z" fill="#9FAAAD"/>
<path d="M80.1683 172.711C82.622 172.131 84.124 169.753 83.5196 167.402C82.9141 165.054 80.4369 163.62 77.9804 164.199C75.5255 164.779 74.0265 167.152 74.631 169.503C75.2362 171.854 77.7134 173.295 80.1683 172.711Z" fill="#191A1B"/>
<path d="M126.912 172.213C127.517 174.563 126.017 176.941 123.563 177.521C121.108 178.101 118.631 176.661 118.026 174.311C117.421 171.958 118.916 169.587 121.373 169.005C123.826 168.425 126.306 169.86 126.912 172.213Z" fill="#191A1B"/>
<path d="M66.4687 195.944C66.4148 195.923 66.3621 195.903 66.3111 195.885C66.121 195.807 65.9254 195.773 65.7334 195.773C65.6741 195.773 65.6148 195.775 65.5564 195.782C65.5471 195.732 65.5379 195.682 65.5305 195.63C65.4989 195.366 65.4683 195.096 65.4377 194.825C65.4322 194.736 65.4275 194.646 65.4239 194.557C65.3468 193.636 65.2227 192.675 65.1318 191.704C65.1021 191.238 65.0466 190.77 65.0112 190.272C65.6029 190.254 66.1784 190.235 66.7411 190.215C67.2473 190.194 67.7433 190.174 68.2282 190.147C70.9147 190.01 73.2529 189.788 75.296 189.428C75.4204 189.408 75.5445 189.385 75.667 189.36C75.8765 189.321 76.0823 189.281 76.2852 189.24C76.5327 189.192 76.7729 189.135 76.9981 189.083C77.1585 189.044 77.3199 189.005 77.4766 188.962C79.3213 188.489 80.8891 187.855 82.2359 187.003C82.3944 187.021 82.5549 187.028 82.7163 187.028C83.0806 187.028 83.4496 186.987 83.8184 186.898C84.5964 186.716 85.2777 186.35 85.8274 185.866C85.9137 185.918 85.9989 185.977 86.0806 186.039C87.4015 187.021 87.6242 188.862 86.5671 190.131C84.6296 192.486 82.0413 193.914 78.4555 194.757C75.2934 195.503 71.4072 195.805 66.4687 195.944Z" fill="#9FAAAD"/>
<path d="M76.9853 189.083C73.3651 189.936 68.7069 190.222 62.628 190.322C60.9428 190.349 59.5549 189.06 59.5243 187.451C59.4993 185.837 60.8528 184.505 62.5234 184.475C73.8892 184.293 78.2118 183.404 80.3292 180.829C81.3732 179.569 83.2894 179.347 84.6151 180.349C85.9361 181.347 86.1632 183.188 85.1204 184.452C83.1736 186.821 80.5917 188.235 76.9853 189.083Z" fill="#6C8894"/>
<path d="M127.795 182.641C125.987 182.641 124.316 182.306 122.685 181.608C121.16 180.947 120.463 179.215 121.158 177.76C121.197 177.671 121.241 177.585 121.288 177.501C121.668 177.598 122.064 177.651 122.466 177.651C122.828 177.651 123.196 177.607 123.564 177.521C124.098 177.396 124.589 177.182 125.021 176.905C125.453 176.946 125.892 176.966 126.338 176.966C126.791 176.966 127.252 176.946 127.722 176.903C127.774 176.9 127.824 176.898 127.873 176.896L128.17 176.857C128.64 176.803 129.119 176.73 129.608 176.637C130.396 178.496 131.243 180.313 132.141 182.088C130.588 182.452 129.153 182.641 127.795 182.641Z" fill="#9FAAAD"/>
<path d="M132.14 182.088C131.243 180.313 130.396 178.496 129.608 176.637C129.636 176.632 129.662 176.625 129.691 176.621C130.011 176.569 130.332 176.494 130.647 176.414C130.655 176.414 130.662 176.412 130.669 176.409C130.678 176.407 130.685 176.405 130.693 176.405C130.944 176.353 131.189 176.291 131.431 176.218C132.145 176.03 132.883 175.805 133.652 175.546C133.702 175.53 133.754 175.514 133.806 175.498C134.212 175.371 134.613 175.214 135.045 175.052C136.569 174.498 138.218 173.797 140.015 172.977C140.454 172.779 140.905 172.572 141.36 172.358C141.474 172.574 141.562 172.79 141.645 172.981C142.129 174.088 142.573 175.157 142.998 176.184C143.166 176.594 143.33 176.996 143.491 177.392C143.259 177.478 143.045 177.619 142.874 177.812C142.77 177.93 142.659 178.048 142.533 178.171C138.453 180.065 135.083 181.393 132.14 182.088Z" fill="#818B8F"/>
<path d="M130.669 176.409C127.071 177.264 124.095 177.157 121.223 175.929C119.684 175.275 118.995 173.545 119.681 172.072C120.367 170.596 122.173 169.937 123.712 170.594C126.836 171.926 131.091 170.787 141.242 165.897C142.746 165.174 144.586 165.752 145.343 167.193C146.1 168.632 145.492 170.389 143.985 171.114C138.555 173.733 134.295 175.556 130.669 176.409Z" fill="#6C8894"/>
<path d="M126.857 176.953C126.611 176.95 126.357 176.95 126.103 176.95C125.723 176.95 125.369 176.912 125.013 176.875L124.987 176.887C124.797 176.873 124.605 176.855 124.413 176.83C124.254 176.807 124.097 176.782 123.941 176.753C123.865 176.739 123.791 176.721 123.715 176.703L123.692 176.705C123.461 176.659 123.232 176.605 123.004 176.544C122.95 176.528 122.896 176.507 122.842 176.484L122.625 176.439C122.566 176.421 122.507 176.403 122.447 176.384C122.036 176.255 121.628 176.103 121.223 175.93C120.985 175.83 120.768 175.702 120.573 175.555C120.408 175.425 120.261 175.275 120.131 175.109L119.741 174.573L119.522 173.957C119.401 173.506 119.421 172.961 119.577 172.474C119.825 172.711 120.138 172.94 120.492 173.099C122.138 173.8 123.81 174.125 125.619 174.125C126.06 174.125 126.509 174.104 126.967 174.068C127.453 174.016 127.944 173.957 128.452 173.868C128.936 173.784 129.447 173.693 129.947 173.572C132.852 172.886 136.168 171.595 140.174 169.715C141.161 169.276 142.201 168.789 143.259 168.269C144.047 167.898 144.574 167.262 144.787 166.521C144.996 166.711 145.207 166.932 145.343 167.198C145.599 167.698 145.699 168.23 145.658 168.742C145.597 169.442 145.274 170.11 144.735 170.608C144.519 170.803 144.27 170.972 143.99 171.106C143.095 171.526 142.227 171.938 141.386 172.347L141.358 172.354C140.902 172.568 140.454 172.777 140.015 172.977C137.675 174.034 135.574 174.898 133.652 175.546C133.325 175.65 133.004 175.75 132.703 175.846C132.354 175.955 132.005 176.071 131.649 176.15C131.578 176.173 131.504 176.198 131.431 176.218C131.181 176.284 130.937 176.346 130.693 176.405C130.688 176.405 130.681 176.407 130.676 176.407C130.666 176.409 130.657 176.412 130.647 176.414C130.322 176.491 130.004 176.559 129.691 176.621C129.663 176.625 129.634 176.63 129.608 176.634L128.996 176.716L128.457 176.821L128.17 176.857C128.02 176.875 127.871 176.889 127.721 176.903C127.436 176.919 127.147 176.935 126.857 176.953Z" fill="#5A717B"/>
<path d="M183.284 140.12C177.928 137.147 162.11 123.902 146.859 121.061L148.461 116.166C154.924 117.71 158.894 118.608 171.15 126.796L171.183 126.783C175.457 129.12 178.803 132.846 182.824 135.901L182.876 135.978C183.398 136.669 183.965 137.285 184.644 137.729L183.284 140.12ZM134.618 119.406C132.888 119.149 131.407 118.897 130.114 118.631C124.911 117.599 122.757 116.421 122.641 114.011C123.06 113.943 123.468 113.941 123.9 113.895C124.669 113.839 125.445 113.802 126.231 113.798C127.021 113.766 127.814 113.752 128.607 113.752C131.179 113.752 133.759 113.909 136.346 114.15L134.618 119.406Z" fill="#9FAAAD"/>
<path d="M199.483 159.841C200.026 156.579 199.722 153.194 196.827 148.788C193.239 143.253 189.399 141.782 186.207 141.093L187.341 139.05L187.472 138.681C195.987 141.087 202.131 147.104 202.122 153.235C202.117 155.131 201.526 157.038 200.233 158.855C199.96 159.246 199.729 159.573 199.483 159.841Z" fill="#9FAAAD"/>
<path d="M146.859 121.061C146.268 120.959 145.646 120.863 145.06 120.793C140.935 120.258 137.461 119.817 134.618 119.406L136.345 114.15L136.367 114.111C140.157 114.423 143.93 115.064 147.661 115.996C147.929 116.053 148.202 116.137 148.461 116.166L146.859 121.061Z" fill="#B03720"/>
<path d="M9.12053 205.992C8.41235 205.992 7.39162 205.678 5.93989 204.953C4.40463 195.628 5.17499 191.472 9.39678 191.472C9.46466 191.472 9.53325 191.472 9.60279 191.475C13.3101 191.591 14.1806 193.614 14.1713 195.303C13.9516 194.571 13.5324 194.039 12.8928 193.859C10.577 194.266 9.9901 195.962 9.98749 197.963C9.98464 199.997 10.5844 202.346 10.5853 203.975C10.5863 205.18 10.2599 205.992 9.12053 205.992Z" fill="#9FAAAD"/>
<path d="M88.8388 127.017C72.9907 130.759 61.4331 131.409 52.4657 129.077C50.8389 128.654 49.8793 127.049 50.3224 125.492C50.7627 123.932 52.4351 123.014 54.0667 123.434C61.9913 125.503 72.5763 124.835 87.3786 121.341C102.187 117.847 111.883 113.723 117.9 108.367C119.14 107.269 121.063 107.337 122.213 108.517C123.361 109.699 123.288 111.552 122.058 112.65C115.246 118.706 104.696 123.273 88.8388 127.017Z" fill="#1F2A31"/>
<path d="M38.2065 89.003C39.6553 94.6408 36.853 100.156 31.9479 101.311C27.0355 102.472 21.8839 98.835 20.4293 93.195L16.9287 79.5688C15.4751 73.931 18.2775 68.416 23.1873 67.2566C28.095 66.0995 33.2513 69.7345 34.7004 75.3768L38.2065 89.003Z" fill="#839CA6"/>
<path d="M133.011 66.6221C134.466 72.2621 131.663 77.7726 126.751 78.9366C121.844 80.0982 116.69 76.4587 115.236 70.8163L111.734 57.1924C110.281 51.5523 113.083 46.0373 117.989 44.8802C122.901 43.7231 128.058 47.3535 129.509 52.9982L133.011 66.6221Z" fill="#839CA6"/>
<path d="M126.068 64.044C135.558 100.938 126.628 115.087 88.1105 124.178C49.5941 133.269 34.8263 124.714 25.3323 87.8229C16.5716 53.7664 34.0122 28.5805 61.8286 22.0152C89.643 15.4499 117.304 29.9945 126.068 64.044Z" fill="#C5D3D4"/>
<path d="M86.6484 118.501C57.272 125.435 38.7031 114.687 31.4665 86.5432C25.6269 63.842 37.5582 48.8109 66.9347 41.875C96.315 34.9437 114.175 42.939 120.015 65.6448C127.56 94.975 117.271 111.277 86.6484 118.501Z" fill="#1F2A31"/>
<path d="M85.9225 115.666C58.12 122.229 41.2781 112.472 34.4291 85.8429C28.9993 64.7307 39.8662 51.2772 67.664 44.7164C95.4663 38.1602 111.625 45.2302 117.056 66.3424C124.283 94.4496 115.262 108.74 85.9225 115.666Z" fill="#070A0E"/>
<path d="M52.6859 96.4204C53.8372 100.901 55.5291 105.136 57.5853 109.108C51.0607 103.154 46.1547 95.4565 43.8389 86.4633C40.6342 74.0033 42.9536 61.5069 49.2855 51.3134C53.1188 49.2356 57.6641 47.4715 62.8715 45.9689C52.3105 60.0202 48.0153 78.2567 52.6859 96.4204Z" fill="#EAEAE8"/>
</svg>
