<svg width="661" height="538" viewBox="0 0 661 538" fill="none" xmlns="http://www.w3.org/2000/svg">
<path d="M349.75 217.427C338.518 212.844 276.1 205.081 220.17 225.129C216.926 226.228 213.688 227.514 210.518 228.855C164.019 248.605 102.299 244.683 36.6485 228.855C16.1341 175.98 6.54461 85.2673 0 27.0742C41.7446 42.303 117.928 52.0775 164.916 27.0742C209.013 3.60849 285.196 11.6136 320.396 22.0635C322.253 22.608 324.054 23.1675 325.622 23.712C331.144 53.237 356.084 182.347 349.75 217.427Z" fill="#C5D3D4"/>
<path d="M220.168 225.13C313.673 179.423 314.548 96.1813 318.508 41.5774L341.34 212.174C338.102 212.436 334.96 212.93 332.091 213.813C323.848 212.784 313.412 212.043 301.635 212.043C277.649 212.043 248.102 215.118 220.168 225.13Z" fill="#9FAAAD"/>
<path d="M401.204 518.454C401.653 521.805 399.244 524.82 395.807 525.169L389.615 525.829C386.172 526.187 383.025 523.763 382.587 520.409L315.982 22.6738C315.539 19.3165 317.953 16.302 321.379 15.9441L327.594 15.2938C331.02 14.9359 334.162 17.3606 334.61 20.7179L401.204 518.454Z" fill="#DC3E21"/>
<path d="M207.856 187.284C172.365 210.409 121.476 204.751 94.2092 174.675C66.9266 144.591 73.6013 101.457 109.101 78.3448C144.569 55.2327 195.457 60.8836 222.724 90.9603C249.999 121.044 243.356 164.165 207.856 187.284Z" fill="#2A387C"/>
<path d="M109.695 188.234L102.437 182.738L98.8085 179.99L95.9946 176.589L93.0064 173.35L90.6684 170.602L88.3305 167.167L85.9926 163.732L208.761 79.0273L212.552 81.236L216.275 84.8174L219.287 86.9962L222.976 91.2639L228.172 97.4947L232.534 104.458L109.695 188.234Z" fill="#C92631"/>
<path d="M113.512 146.713H96.0282V121.188H113.512V124.6H101.876V131.423H111.014V134.834H101.876V143.302H113.512V146.713ZM128.601 143.302C130.266 143.302 131.099 142.733 131.099 141.596V132.702C131.017 131.605 130.185 131.057 128.601 131.057H126.164C124.499 131.057 123.667 131.626 123.667 132.763V141.596C123.667 142.733 124.499 143.302 126.164 143.302H128.601ZM117.818 132.154C117.818 130.813 118.509 129.737 119.889 128.925C121.311 128.072 123.017 127.646 125.007 127.646H128.357C129.291 127.646 129.941 127.747 130.307 127.95L131.099 128.316V121.858H136.947V146.713H131.099V146.165C130.205 146.531 129.21 146.713 128.114 146.713H125.007C121.88 146.713 119.686 145.84 118.427 144.094C118.021 143.525 117.818 142.896 117.818 142.205V132.154ZM151.584 143.302C153.209 143.302 154.021 142.733 154.021 141.596V132.702C154.021 131.565 153.209 130.996 151.584 130.996H149.818C148.152 130.996 147.32 131.565 147.32 132.702V141.596C147.32 142.733 148.152 143.302 149.818 143.302H151.584ZM141.472 132.154C141.472 130.773 142.162 129.676 143.543 128.864C144.964 128.011 146.67 127.585 148.66 127.585H152.742C154.691 127.585 156.336 127.991 157.676 128.803C159.138 129.615 159.869 130.732 159.869 132.154V142.144C159.869 143.566 159.138 144.683 157.676 145.495C156.336 146.307 154.691 146.713 152.742 146.713H148.66C145.533 146.713 143.34 145.84 142.081 144.094C141.675 143.525 141.472 142.875 141.472 142.144V132.154ZM170.093 129.108C171.068 128.133 172.53 127.646 174.479 127.646H175.515V131.057H173.992C172.327 131.057 171.149 131.565 170.459 132.58C170.215 132.905 170.093 133.27 170.093 133.677V146.713H164.245V127.646H170.093V129.108ZM188.384 143.302C190.009 143.302 190.821 142.733 190.821 141.596V132.702C190.821 131.565 190.009 130.996 188.384 130.996H186.617C184.952 130.996 184.12 131.565 184.12 132.702V141.596C184.12 142.733 184.952 143.302 186.617 143.302H188.384ZM178.271 132.154C178.271 130.773 178.962 129.676 180.343 128.864C181.764 128.011 183.47 127.585 185.46 127.585H189.541C191.491 127.585 193.136 127.991 194.476 128.803C195.938 129.615 196.669 130.732 196.669 132.154V142.144C196.669 143.566 195.938 144.683 194.476 145.495C193.136 146.307 191.491 146.713 189.541 146.713H185.46C182.333 146.713 180.14 145.84 178.881 144.094C178.474 143.525 178.271 142.875 178.271 142.144V132.154ZM201.532 146.713V122.285H207.38V146.713H201.532ZM218.597 122.528V125.94H212.748V122.528H218.597ZM212.748 127.646H218.597V146.713H212.748V127.646Z" fill="#F6F6F6"/>
<path d="M562.673 538C575.596 538 588.21 537.876 600.392 537.638C637.596 533.304 661 527.02 661 520.026C661 513.037 637.591 506.753 600.375 502.41C588.194 502.176 575.59 502.052 562.673 502.052C459.086 502.052 375.112 510.1 375.112 520.031C375.112 529.952 459.086 538 562.673 538Z" fill="#6C8894"/>
<path d="M576.116 351.351C576.116 357.511 570.207 362.536 562.981 362.536H392.217C385.002 362.536 379.087 357.511 379.087 351.351V200.293C379.087 194.143 385.002 189.103 392.217 189.103H562.981C570.207 189.103 576.116 194.143 576.116 200.293V351.351Z" fill="#839CA6"/>
<path d="M478.324 372.196C478.324 373.411 478.129 376.649 477.794 381.502C476.423 401.855 471.96 450.008 464.54 485.852C464.339 486.839 464.139 487.763 463.874 488.745V488.803C463.679 489.723 463.484 490.653 463.289 491.52V491.573L463.018 492.669C462.427 495.22 461.832 497.642 461.187 500.011C460.586 502.386 459.936 504.646 459.281 506.782C458.614 508.927 457.965 510.944 457.309 512.851C456.129 516.212 454.883 519.096 453.572 521.523C453.301 522.047 452.971 522.562 452.651 523.077C451.985 524.245 451.27 525.285 450.544 526.148C449.954 526.787 449.434 527.306 448.903 527.764L448.242 528.284L447.056 528.922C446.347 529.27 445.615 529.442 444.825 529.442C444.299 529.442 443.779 529.442 443.248 529.385H443.189L441.743 529.099C441.217 528.98 440.692 528.86 440.167 528.689C439.186 528.346 438.201 527.936 437.204 527.363C436.684 527.139 436.229 526.787 435.704 526.491C435.102 526.091 434.583 525.69 433.987 525.232L432.811 524.303C432.351 523.893 431.891 523.44 431.371 522.972C430.45 522.047 429.524 521.061 428.603 519.964C428.159 519.387 427.693 518.796 427.227 518.224C426.761 517.657 426.306 517.075 425.905 516.441C425.456 515.802 424.996 515.163 424.6 514.472C423.68 513.137 422.829 511.754 421.973 510.248C419.812 506.5 417.776 502.271 415.804 497.771C415.084 496.14 414.423 494.467 413.697 492.789C413.172 491.406 412.646 490.019 412.116 488.569C411.736 487.649 411.401 486.719 411.07 485.794C410.74 484.874 410.41 484.002 410.09 483.082C396.82 444.526 388.999 391.39 388.999 362.37C388.999 362.37 478.324 362.37 478.324 372.196Z" fill="#C5D3D4"/>
<path d="M463.872 488.745V488.803C463.677 489.723 463.482 490.652 463.287 491.52V491.573L463.016 492.669C462.426 495.22 461.83 497.642 461.186 500.011C460.584 502.386 459.934 504.645 459.279 506.781C458.613 508.927 457.963 510.943 457.308 512.85C456.127 516.212 454.881 519.096 453.57 521.523C453.3 522.047 452.969 522.562 452.65 523.077C451.984 524.245 451.268 525.285 450.543 526.148C449.952 526.786 449.432 527.306 448.902 527.764L448.241 528.283L447.055 528.922C445.82 529.099 444.563 529.27 443.247 529.385H443.187L441.741 529.099C441.216 528.979 440.69 528.86 440.165 528.689C439.185 528.398 438.199 528.002 437.202 527.363C436.682 527.139 436.227 526.786 435.702 526.491C435.101 526.148 434.516 525.747 433.925 525.285L432.81 524.302C432.349 523.892 431.889 523.439 431.369 522.972C430.448 522.047 429.522 521.06 428.601 519.964C428.157 519.387 427.691 518.796 427.226 518.224C426.76 517.656 426.305 517.075 425.904 516.441C425.454 515.802 424.994 515.163 424.599 514.472C423.678 513.137 422.828 511.754 421.972 510.247C419.811 506.5 417.774 502.271 415.803 497.77C415.082 496.14 414.422 494.467 413.696 492.788C413.17 491.406 412.645 490.018 412.114 488.569C411.735 487.649 411.399 486.719 411.069 485.794C417.373 484.64 424.344 483.94 431.629 483.94C437.143 483.94 442.472 484.297 447.461 485.041C453.5 485.851 459.014 487.124 463.872 488.745Z" fill="#1F2A31"/>
<path d="M466.967 489.784C466.442 490.938 465.185 491.634 463.875 491.634L463.29 491.572V491.52L462.699 491.462C457.965 489.899 452.652 488.683 446.933 487.93C435.905 486.375 423.556 486.485 412.116 488.568L411.737 488.63C409.956 488.916 408.239 487.93 407.854 486.375C407.464 484.926 408.515 483.543 410.091 483.081L410.41 482.962C422.765 480.711 435.97 480.535 447.924 482.151C453.828 482.9 459.477 484.177 464.541 485.851L465.061 486.023C466.767 486.604 467.623 488.278 466.967 489.784Z" fill="#EE4323"/>
<path d="M444.825 529.442C444.3 529.442 443.78 529.442 443.249 529.385C444.565 529.271 445.822 529.099 447.057 528.922C446.347 529.27 445.616 529.442 444.825 529.442ZM464.54 485.852C459.476 484.178 453.827 482.9 447.923 482.152C448.839 475.968 449.689 469.141 450.404 461.513C455.902 404.044 458.193 387.247 461.838 380.577C469.128 381.445 474.907 381.965 477.735 382.022H477.762C476.348 402.666 471.901 450.309 464.54 485.852Z" fill="#9FAAAD"/>
<path d="M443.249 529.385H443.19L441.744 529.099C441.218 528.979 440.693 528.86 440.167 528.689C439.187 528.398 438.201 528.002 437.205 527.363C436.685 527.139 436.23 526.786 435.704 526.491C435.103 526.148 434.518 525.747 433.928 525.285L433.988 525.232C439.187 518.114 443.65 506.5 446.932 487.93C452.652 488.683 457.965 489.899 462.699 491.463L463.289 491.52V491.573L463.019 492.669C462.721 493.952 462.423 495.196 462.12 496.421C461.816 497.637 461.508 498.829 461.188 500.011C460.587 502.386 459.937 504.645 459.281 506.781C458.615 508.927 457.965 510.943 457.31 512.85C456.129 516.212 454.883 519.096 453.573 521.523C453.302 522.047 452.972 522.562 452.652 523.077C451.986 524.245 451.271 525.285 450.545 526.148C449.955 526.786 449.435 527.306 448.904 527.764L448.243 528.283L447.057 528.922C445.822 529.099 444.565 529.27 443.249 529.385Z" fill="#1E272B"/>
<path d="M463.873 491.634L463.288 491.572V491.52L462.697 491.462C457.964 489.899 452.65 488.683 446.931 487.93C447.12 486.947 447.256 486.023 447.461 485.04C447.586 484.111 447.716 483.133 447.922 482.151C453.826 482.9 459.475 484.177 464.539 485.851L465.059 486.023C466.38 486.471 467.188 487.577 467.188 488.75C467.188 489.093 467.117 489.441 466.965 489.784C466.44 490.938 465.183 491.634 463.873 491.634Z" fill="#BF3C23"/>
<path d="M567.714 362.37C567.714 391.447 559.887 444.688 546.498 483.31C546.238 484.235 545.902 485.16 545.577 486.09C545.247 487.01 544.917 487.93 544.527 488.865C544.072 490.071 543.611 491.291 543.151 492.445C542.035 495.272 540.843 498 539.668 500.598C539.278 501.456 538.883 502.324 538.477 503.144C538.087 504.007 537.702 504.817 537.242 505.628C536.846 506.438 536.445 507.182 535.985 507.997C535.59 508.746 535.2 509.499 534.745 510.248C533.553 512.336 532.313 514.243 531.067 516.031L530.796 516.441C530.206 517.246 529.621 518 529.031 518.744C528.375 519.564 527.709 520.369 527.053 521.118L526.729 521.523C526.144 522.157 525.477 522.796 524.892 523.378C524.167 524.007 523.446 524.646 522.72 525.232L522.455 525.452C521.87 525.914 521.22 526.319 520.549 526.729C519.828 527.197 519.113 527.602 518.323 527.936C517.602 528.284 516.876 528.584 516.091 528.803C515.3 529.042 514.58 529.204 513.789 529.328L512.538 529.442H512.413H512.343H512.208H511.888L510.501 529.204H510.371L510.247 529.156L509.066 528.636C508.275 528.226 507.55 527.602 506.759 526.839C506.304 526.319 505.773 525.69 505.318 524.994C504.533 524.007 503.802 522.796 503.157 521.523C501.965 519.33 500.774 516.612 499.663 513.604C499.349 512.851 499.073 512.045 498.818 511.292L498.483 510.367C497.838 508.283 497.107 506.038 496.457 503.659C495.466 500.011 494.485 496.088 493.494 491.921L493.299 491.115C493.099 490.19 492.904 489.265 492.703 488.34C492.503 487.358 492.313 486.433 492.118 485.451C484.758 449.951 480.354 402.609 478.848 382.022C478.529 376.878 478.323 373.464 478.323 372.196C478.323 366.241 511.232 363.871 537.106 362.946C553.842 362.37 567.714 362.37 567.714 362.37Z" fill="#C5D3D4"/>
<path d="M545.578 486.09C545.248 487.01 544.917 487.93 544.527 488.865C544.072 490.071 543.612 491.291 543.151 492.445C542.036 495.272 540.844 498 539.669 500.598C539.279 501.456 538.884 502.324 538.477 503.144C538.087 504.007 537.703 504.817 537.242 505.628C536.847 506.438 536.446 507.182 535.986 507.997C535.59 508.746 535.2 509.499 534.745 510.248C533.554 512.336 532.313 514.243 531.068 516.031L530.797 516.441C530.207 517.246 529.622 518 529.031 518.744C528.376 519.564 527.71 520.369 527.054 521.118L526.729 521.523C526.144 522.157 525.478 522.796 524.893 523.378C524.167 524.007 523.447 524.646 522.721 525.232L522.456 525.452C521.871 525.914 521.221 526.319 520.549 526.729C519.829 527.197 519.114 527.602 518.323 527.936C517.603 528.284 516.877 528.584 516.092 528.803C515.301 529.042 514.581 529.204 513.79 529.328L512.539 529.442H512.414H512.344H512.208H512.149C511.558 529.328 511.033 529.328 510.502 529.204H510.372L510.248 529.156L509.067 528.636C508.341 528.174 507.55 527.602 506.83 526.787C506.304 526.267 505.774 525.628 505.319 524.994C504.587 524.007 503.873 522.853 503.158 521.523C501.966 519.33 500.774 516.612 499.664 513.604C499.35 512.851 499.074 512.045 498.819 511.292L498.483 510.367C497.839 508.226 497.108 506.038 496.458 503.659C495.467 500.011 494.486 496.088 493.495 491.921L493.365 491.115H493.3C493.1 490.19 492.905 489.265 492.704 488.34C501.381 485.556 512.019 483.94 523.566 483.94H524.628C532.053 484.002 539.203 484.755 545.578 486.09Z" fill="#1F2A31"/>
<path d="M548.799 486.719C548.333 488.278 546.567 489.265 544.856 488.917L544.526 488.864C538.156 487.529 531.066 486.838 523.835 486.838H523.564C512.732 486.838 502.414 488.278 493.824 491.057L493.363 491.115H493.298L492.702 491.229C491.386 491.229 490.086 490.476 489.626 489.322C489.03 487.825 489.881 486.142 491.592 485.622L492.117 485.451C501.829 482.442 513.658 480.936 525.352 481.169C532.577 481.226 539.727 481.923 546.302 483.258L546.497 483.31C548.138 483.772 549.189 485.279 548.799 486.719Z" fill="#EE4323"/>
<path d="M554.835 288.314C554.645 287.446 554.375 286.573 554.12 285.711C553.925 285.129 553.784 284.495 553.53 283.913L553.394 283.455C551.428 276.981 549.056 270.507 546.499 264.256C543.342 256.747 539.805 249.457 535.591 242.749L535.125 241.953C522.001 220.618 503.683 205.114 478.324 205.114H477.604C462.168 205.29 449.358 211.25 438.786 220.78C432.416 226.444 426.897 233.386 422.038 241.138C420.787 243.045 419.606 245.066 418.491 247.093C413.638 255.76 409.57 265.248 406.147 274.84C405.161 277.725 404.175 280.561 403.255 283.513C402.198 286.921 401.153 290.397 400.303 293.801L400.108 294.44C399.647 296.052 399.247 297.668 398.851 299.294L398.792 299.351L398.732 299.761C397.676 303.742 396.82 307.68 396.035 311.484C395.173 315.427 394.394 319.237 393.798 322.884C393.077 326.693 392.482 330.34 391.962 333.806C391.631 335.89 391.366 337.916 391.1 339.823C389.519 351.79 388.999 360.229 388.999 362.37C388.999 369.941 435.444 377.512 461.832 380.577C469.127 381.445 474.907 381.965 477.734 382.022H478.85C486.281 381.85 514.251 378.613 536.847 374.103C553.784 370.694 567.715 366.527 567.715 362.37C567.715 360.229 567.189 351.79 565.608 339.823V339.761C565.342 337.849 565.082 335.89 564.752 333.806C564.297 330.46 563.701 326.87 563.052 323.108C562.331 319.47 561.595 315.599 560.75 311.67C559.238 304.614 557.467 297.153 555.23 289.634L555.165 289.353L554.965 289.234L554.835 288.709V288.657V288.314Z" fill="#C5D3D4"/>
<path d="M478.361 356.004C469.001 356.004 404.157 348.285 389.615 338.946C388.152 338.006 387.833 336.19 388.905 334.903C389.972 333.625 392.025 333.334 393.493 334.278C405.918 342.269 467.929 350.221 478.361 350.221C488.771 350.221 550.771 342.269 563.212 334.278C564.685 333.344 566.738 333.625 567.8 334.912C568.872 336.204 568.553 338.011 567.09 338.95C552.531 348.29 487.693 356.004 478.361 356.004Z" fill="#EE4323"/>
<path d="M595.821 275.823L568.566 280.681L557.008 282.76L555.231 283.103L553.395 283.456L552.875 283.513L551.954 283.685L550.903 283.861L536.323 286.517L405.357 310.05C402.995 306.698 400.764 303.284 398.733 299.761L398.597 299.58C398.326 299.065 398.007 298.598 397.741 298.078C397.341 297.444 397.016 296.81 396.685 296.119C393.934 291.141 391.567 285.94 389.66 280.681C389.4 280.218 389.26 279.704 389.059 279.236C388.875 278.774 388.75 278.249 388.545 277.787C385.593 269.639 383.686 261.315 382.901 253.095C380.859 232.633 385.652 212.928 399.583 198.062C414.348 182.167 439.436 171.769 477.605 171.769C507.226 171.769 534.281 181.357 555.041 197.252C563.383 203.56 570.667 210.959 576.642 219.107C577.952 220.728 579.073 222.401 580.189 224.141C584.517 230.792 588.075 237.901 590.702 245.419C592.733 251.365 594.239 257.553 595.035 263.97C595.555 267.846 595.821 271.832 595.821 275.823Z" fill="#C5D3D4"/>
<path d="M440.826 204.541L438.784 220.78L436.228 241.138L433.986 258.478L431.37 279.346L430.384 287.389C428.602 287.332 426.896 287.217 425.13 287.041C418.49 286.574 411.92 285.534 405.49 284.032C404.77 283.861 403.979 283.684 403.254 283.513C398.85 282.473 394.517 281.196 390.254 279.641L389.057 279.236L387.622 278.654C355.699 266.859 327.398 244.204 309.2 218.411C305.132 212.694 301.85 208.298 298.763 201.824C295.675 195.292 292.783 186.625 289.506 172.169C286.484 163.201 287.009 153.494 285.558 143.902V143.668C285.823 142.042 285.958 140.374 285.617 138.924C285.438 137.942 285.097 137.022 284.442 136.207L294.17 133.432L313.668 127.882L316.625 127.072C316.956 127.944 317.405 128.803 317.871 129.732C320.899 135.978 326.017 143.492 328.834 148.874L328.98 149.213L329.034 149.27C334.943 160.198 353.077 175.635 361.743 183.726C369.109 190.725 379.351 193.385 388.012 195.292C392.41 196.274 396.158 197.204 399.581 198.062C414.877 201.886 422.628 204.37 440.826 204.541Z" fill="#C5D3D4"/>
<path d="M325.097 116.612C322.801 119.682 319.848 122.39 316.956 124.235L316.566 124.531C315.835 125.746 314.925 126.905 313.669 127.882C311.897 129.384 309.531 130.657 306.378 131.639C300.464 133.489 297.176 134.996 294.695 135.916C291.408 137.193 289.431 137.479 284.442 136.207C283.792 135.63 283.137 134.814 282.536 133.894C279.329 129.041 276.757 120.073 275.971 116.845C273.675 106.313 274.135 84.5873 290.427 80.3584C290.947 80.1868 291.543 80.0723 292.128 79.9579C310.977 76.7159 314.064 91.4098 316.041 102.623L316.1 102.561H316.171C320.374 99.3194 324.772 97.9367 327.599 99.6101L328.065 99.9629C331.532 102.504 330.291 109.842 325.097 116.612Z" fill="#C5D3D4"/>
<path d="M317.872 129.732L317.618 129.851L294.756 136.32L285.618 138.924L285.494 138.981L284.443 139.095C283.062 139.095 281.816 138.347 281.356 137.131C280.895 135.858 281.421 134.585 282.536 133.894L283.457 133.488L292.784 130.833L315.576 124.301L316.957 124.235C318.268 124.354 319.384 125.05 319.714 126.203C320.239 127.648 319.448 129.159 317.872 129.732Z" fill="#EE4323"/>
<path d="M316.88 108.283C315.705 106.724 315.645 104.702 316.1 102.562H316.171C319.155 100.264 322.237 98.8951 324.783 98.8951C325.828 98.8951 326.776 99.124 327.599 99.6103L328.065 99.9631C323.976 102.504 319.713 106.438 316.88 108.283Z" fill="#9FAAAD"/>
<path d="M405.489 284.032C404.769 283.861 403.978 283.684 403.252 283.513C398.849 282.473 394.516 281.195 390.253 279.641C390.638 278.94 391.169 278.135 391.629 277.319C393.536 274.893 395.507 272.471 395.507 272.471C395.507 272.471 392.815 274.263 390.118 276.285C389.587 276.8 389.056 277.267 388.542 277.787L387.621 278.654C381.409 276.356 375.326 273.648 369.439 270.587C364.271 267.903 359.256 264.952 354.408 261.763C353.081 260.89 351.771 259.999 350.471 259.093C340.917 252.423 332.099 244.847 324.283 236.675C318.715 230.849 313.656 224.728 309.199 218.41C305.131 212.694 301.849 208.298 298.761 201.824C295.674 195.292 292.782 186.625 289.505 172.169C286.483 163.201 287.008 153.494 285.557 143.902V143.668C285.708 142.729 285.822 141.775 285.822 140.855C285.822 140.188 285.762 139.534 285.616 138.924L294.753 136.321C298.166 154.009 303.739 196.684 346.506 229.571C360.431 240.332 372.585 247.55 382.898 253.095C391.759 257.901 399.244 261.372 405.354 264.661C405.885 268.366 406.145 271.77 406.145 274.84C406.145 278.249 405.95 281.315 405.489 284.032Z" fill="#9FAAAD"/>
<path d="M282.535 133.894C279.329 129.041 276.756 120.073 275.971 116.845C275.375 114.132 274.969 110.671 274.969 106.962C274.963 96.2726 278.332 83.4953 290.427 80.3582C285.368 99.3191 281.95 116.325 292.783 130.833L283.456 133.489L282.535 133.894Z" fill="#9FAAAD"/>
<path d="M620.578 323.346L614.87 324.968L588.4 332.477L588.14 331.962C587.875 331.266 587.55 330.569 587.214 329.878C584.067 323.637 579.008 316.061 576.176 310.679L576.116 310.631L575.991 310.278C572.714 304.147 565.608 296.691 558.519 289.816L558.318 289.634C557.202 288.6 556.087 287.561 555.041 286.574L554.12 285.711C553.395 285.015 552.609 284.319 551.954 283.684C551.299 283.055 550.562 282.473 549.971 281.892L549.852 281.839C547.356 279.579 545.119 277.553 543.277 275.823C541.701 274.373 540 273.281 538.088 272.414C536.057 271.432 533.826 270.74 531.594 270.101C527.38 268.948 523.177 268.075 519.7 266.106C518.714 265.586 517.793 264.952 517.008 264.256C514.251 261.83 510.704 259.403 505.845 257.443C503.549 256.399 500.857 255.532 497.775 254.84C492.38 253.562 485.745 252.757 477.604 252.7V177.533C505.385 178.41 531.659 187.082 553.926 201.304C562.126 206.506 569.746 212.518 576.641 219.107C578.218 220.551 579.729 222.063 581.234 223.622C586.624 229.057 591.482 234.95 595.821 241.138C596.146 241.596 596.476 242.063 596.806 242.468C600.419 247.612 603.441 251.722 606.263 257.734C609.35 264.256 612.243 272.933 615.519 287.389C618.542 296.347 617.951 306.064 619.468 315.661V315.885C619.208 317.501 619.067 319.127 619.408 320.629C619.593 321.611 619.923 322.536 620.578 323.346Z" fill="#C5D3D4"/>
<path d="M610.723 371.328C609.608 371.557 608.627 371.681 607.766 371.791C588.202 374.155 616.638 352.949 602.572 346.76L601.862 346.875C595.097 348.091 596.083 366.589 588.533 363.061C588.137 362.889 587.672 362.598 587.152 362.25C583.999 360.057 585.044 348.491 587.801 335.313C588.002 334.384 588.202 333.406 588.397 332.477L614.867 324.967L620.575 323.346C621.166 324.157 621.691 324.967 622.216 325.773C634.696 344.849 631.224 367.514 610.723 371.328Z" fill="#C5D3D4"/>
<path d="M622.219 325.773L621.563 326.064L616.515 327.513L589.38 335.256L588.399 335.365L587.803 335.313L587.018 335.084C586.238 334.793 585.577 334.212 585.317 333.406C584.727 331.904 585.577 330.34 587.213 329.878L587.414 329.763L588.789 329.358L614.473 322.021L619.407 320.628L619.527 320.571C621.298 320.109 623.139 320.914 623.67 322.478C624.196 323.751 623.54 325.139 622.219 325.773Z" fill="#EE4323"/>
<path d="M596.807 242.468L590.703 245.419L584.729 248.308L575.592 252.699L562.982 232.408L570.018 229.056L580.19 224.141L581.235 223.621C586.625 229.056 591.483 234.949 595.822 241.138C596.147 241.595 596.477 242.063 596.807 242.468Z" fill="#2A387C"/>
<path d="M590.316 363.508C589.78 363.508 589.19 363.365 588.534 363.06C589.558 356.824 591.074 345.096 597.233 345.096C598.549 345.096 600.082 345.634 601.864 346.874C595.689 347.985 595.971 363.504 590.316 363.508Z" fill="#9FAAAD"/>
<path d="M607.768 371.79C613.942 367.228 620.052 360.748 620.577 352.949C621.298 341.32 620.122 333.692 616.515 327.513L621.563 326.064L622.218 325.773C627.044 333.153 629.487 341.063 629.476 348.219C629.465 359.561 623.302 368.987 610.725 371.328C609.609 371.557 608.629 371.681 607.768 371.79Z" fill="#9FAAAD"/>
<path d="M614.475 322.021C612.574 310.907 605.012 282.526 595.036 263.97C594.05 262.006 593.005 260.161 591.894 258.478C589.977 255.464 587.48 252.003 584.729 248.308L590.703 245.419L596.807 242.468C600.419 247.612 603.442 251.722 606.264 257.734C609.351 264.256 612.243 272.933 615.52 287.389C618.542 296.347 617.952 306.064 619.468 315.661V315.885C619.317 316.819 619.208 317.758 619.208 318.674C619.208 319.337 619.263 319.995 619.409 320.629L614.475 322.021Z" fill="#9FAAAD"/>
<path d="M570.017 229.056C561.74 218.014 554.51 207.43 553.925 201.304C562.125 206.505 569.746 212.517 576.641 219.106C578.217 220.551 579.728 222.062 581.234 223.621L580.188 224.141L570.017 229.056Z" fill="#9FAAAD"/>
<path d="M584.726 248.308C580.188 242.296 574.874 235.588 570.016 229.056L580.187 224.141L581.233 223.621C586.622 229.056 591.48 234.949 595.819 241.137C596.144 241.595 596.474 242.062 596.805 242.467L590.7 245.419L584.726 248.308Z" fill="#27326A"/>
<path d="M536.711 258.477C536.711 268.05 527.883 275.822 517.007 275.822C506.131 275.822 497.308 268.05 497.308 258.477C497.308 248.903 506.131 241.137 517.007 241.137C527.883 241.137 536.711 248.903 536.711 258.477Z" fill="#2A387C"/>
<path d="M490.267 265.663L536.711 241.138L508.855 282.016V265.663H490.267Z" fill="#DC3E21"/>
<path d="M457.901 258.477H418.492V241.137H457.901V258.477Z" fill="#6C8894"/>
<path d="M444.765 287.388C444.765 292.175 440.357 296.051 434.913 296.051C429.47 296.051 425.061 292.175 425.061 287.388C425.061 282.597 429.47 278.711 434.913 278.711C440.357 278.711 444.765 282.597 444.765 287.388Z" fill="#191A1B"/>
<path d="M444.765 316.285C444.765 321.076 440.351 324.962 434.913 324.962C429.47 324.962 425.061 321.076 425.061 316.285C425.061 311.493 429.47 307.612 434.913 307.612C440.351 307.612 444.765 311.493 444.765 316.285Z" fill="#191A1B"/>
<path d="M532.87 316.285C532.87 321.076 528.461 324.962 523.018 324.962C517.564 324.962 513.16 321.076 513.16 316.285C513.16 311.493 517.564 307.612 523.018 307.612C528.461 307.612 532.87 311.493 532.87 316.285Z" fill="#191A1B"/>
<path d="M419.455 335.594C412.197 335.594 403.32 334.307 392.216 332.114C392.254 331.89 392.287 331.665 392.324 331.441C392.552 330.064 392.774 328.657 393.018 327.222C393.256 325.811 393.516 324.371 393.798 322.907C404.181 324.886 412.516 326.059 419.471 326.059C424.026 326.059 427.986 325.553 431.539 324.438C432.589 324.776 433.727 324.962 434.913 324.962C437.117 324.962 439.148 324.323 440.784 323.251C442.16 325.644 441.472 328.681 438.953 330.397C433.591 334.021 427.471 335.594 419.455 335.594Z" fill="#9FAAAD"/>
<path d="M536.593 335.565C529.514 335.331 523.892 333.734 519.006 330.397C516.488 328.681 515.756 325.639 517.127 323.241C518.768 324.323 520.804 324.962 523.02 324.962C524.206 324.962 525.343 324.776 526.394 324.437C529.378 325.372 532.65 325.882 536.322 326.02C536.398 329.186 536.495 332.371 536.593 335.565Z" fill="#9FAAAD"/>
<path d="M512.149 529.442H511.889L511.001 529.29C511.369 529.337 511.743 529.366 512.149 529.442ZM509.067 528.636C508.276 528.226 507.551 527.602 506.76 526.839L506.83 526.787C507.55 527.602 508.341 528.174 509.067 528.636ZM546.499 483.31L546.304 483.258C539.729 481.923 532.579 481.227 525.354 481.17C535.065 442.666 535.531 399.829 536.712 377.345C536.777 376.296 536.847 375.204 536.847 374.103C553.784 370.694 567.715 366.527 567.715 362.37C567.715 391.447 559.888 444.688 546.499 483.31Z" fill="#9FAAAD"/>
<path d="M512.538 529.442H512.148C511.742 529.366 511.368 529.337 511 529.29L510.501 529.204H510.371L510.247 529.156L509.066 528.636C508.34 528.174 507.549 527.602 506.829 526.787C514.309 515.287 519.828 501.456 523.836 486.838C531.067 486.838 538.157 487.53 544.527 488.865C544.072 490.071 543.611 491.291 543.151 492.445C542.035 495.272 540.843 498 539.668 500.598C539.278 501.456 538.883 502.324 538.477 503.144C538.087 504.007 537.702 504.817 537.242 505.628C536.846 506.438 536.445 507.182 535.985 507.997C535.59 508.746 535.2 509.499 534.745 510.248C533.553 512.336 532.313 514.243 531.067 516.031L530.796 516.441C530.206 517.246 529.621 518 529.031 518.744C528.375 519.564 527.709 520.369 527.053 521.118L526.729 521.523C526.144 522.157 525.477 522.796 524.892 523.378C524.167 524.007 523.446 524.646 522.72 525.232L522.455 525.452C521.87 525.914 521.22 526.319 520.549 526.729C519.828 527.197 519.113 527.602 518.323 527.936C517.602 528.284 516.876 528.584 516.091 528.803C515.3 529.042 514.58 529.204 513.789 529.328L512.538 529.442Z" fill="#1E272B"/>
<path d="M545.549 488.988C545.544 488.988 545.544 488.988 545.538 488.988C545.311 488.988 545.083 488.964 544.856 488.917L544.525 488.864C538.156 487.529 531.066 486.838 523.835 486.838C524.165 485.913 524.431 484.926 524.626 483.939C524.945 483.019 525.146 482.099 525.352 481.169C532.577 481.226 539.726 481.922 546.302 483.257L546.497 483.31C547.911 483.71 548.88 484.874 548.88 486.113C548.88 486.313 548.853 486.518 548.799 486.719C548.783 486.771 548.766 486.819 548.75 486.866C548.744 486.881 548.739 486.895 548.734 486.909C548.268 488.144 546.968 488.974 545.582 488.988C545.571 488.988 545.56 488.988 545.549 488.988Z" fill="#BF3C23"/>
<path d="M536.846 374.102C536.971 370.464 537.106 366.765 537.106 362.946C537.106 358.092 537.036 353.115 536.906 348.142C536.906 348.123 536.906 348.109 536.906 348.09C549.044 345.668 559.855 342.836 565.607 339.808V339.823C567.188 351.789 567.714 360.228 567.714 362.369C567.714 366.526 553.783 370.693 536.846 374.102ZM536.776 342.211C536.722 339.994 536.657 337.777 536.592 335.565C537.198 335.584 537.821 335.594 538.449 335.594C545.545 335.594 553.989 334.402 564.545 332.352C564.616 332.824 564.681 333.286 564.74 333.749C564.209 333.806 563.679 333.977 563.213 334.278C558.918 337.033 548.719 339.789 536.776 342.211Z" fill="#9FAAAD"/>
<path d="M536.906 348.091C536.906 346.145 536.84 344.2 536.775 342.25C536.775 342.236 536.775 342.226 536.775 342.212C548.718 339.79 558.917 337.034 563.212 334.279C563.678 333.978 564.209 333.807 564.74 333.75C564.745 333.769 564.745 333.788 564.75 333.807C564.918 333.783 565.086 333.769 565.254 333.769C566.213 333.769 567.166 334.169 567.773 334.908C567.973 335.132 568.13 335.375 568.239 335.633C568.526 336.334 568.493 337.096 568.168 337.769C567.935 338.226 567.562 338.641 567.058 338.951C566.598 339.242 566.137 339.528 565.606 339.762V339.809C559.854 342.837 549.043 345.669 536.906 348.091Z" fill="#BF3C23"/>
<path d="M564.173 329.868C563.821 327.694 563.431 325.453 563.041 323.117C563.041 323.112 563.046 323.112 563.052 323.112C563.453 325.434 563.832 327.694 564.173 329.868ZM538.532 314.497C537.633 314.497 536.788 314.469 535.987 314.416C535.987 314.407 535.987 314.397 535.987 314.388C535.792 304.442 535.792 294.964 536.322 286.516L550.903 283.86C551.298 284.213 551.748 284.609 552.143 285.067C553.324 286.349 554.375 287.67 554.835 288.657V288.709L554.965 289.234L555.166 289.353L555.231 289.634C557.467 297.153 559.239 304.614 560.75 311.67C560.75 311.684 560.755 311.704 560.761 311.718C550.865 313.577 543.797 314.497 538.532 314.497Z" fill="#9FAAAD"/>
<path d="M587.213 329.878C584.066 323.637 579.007 316.061 576.174 310.678L576.115 310.631L575.99 310.278C572.713 304.147 565.607 296.69 558.517 289.815V289.582L558.246 288.423C558.062 287.155 557.656 285.129 557.071 283.102L557.006 282.759C556.28 279.87 554.58 277.438 554.244 277.21C554.58 277.724 555.359 280.332 555.229 283.102V283.336C555.229 283.913 555.165 284.547 555.165 285.067C554.645 284.661 554.049 284.318 553.529 283.913L553.458 283.86L552.874 283.512C551.882 282.878 550.902 282.354 549.97 281.891L549.851 281.839C547.354 279.579 545.117 277.553 543.276 275.822C541.7 274.373 539.999 273.281 538.087 272.413C538.753 269.176 539.539 266.172 540.519 263.503C542.561 263.503 544.527 263.741 546.499 264.256C554.834 266.401 562.33 272.881 568.564 280.68C576.905 291.026 583.085 303.741 586.498 312.013C589.515 319.417 589.645 325.015 588.789 329.358L587.413 329.763L587.213 329.878Z" fill="#9FAAAD"/>
<path d="M538.45 335.594C537.821 335.594 537.199 335.585 536.592 335.565C536.495 332.371 536.397 329.186 536.321 326.021C537.02 326.044 537.74 326.059 538.466 326.059C545.166 326.059 553.166 324.967 563.04 323.117C563.43 325.453 563.82 327.694 564.172 329.868C564.302 330.707 564.426 331.537 564.545 332.352C553.989 334.402 545.545 335.594 538.45 335.594Z" fill="#818B8F"/>
<path d="M419.471 326.058C411.433 326.058 401.543 324.49 388.788 321.925C385.251 321.214 383.036 318.111 383.843 315.002C384.65 311.884 388.186 309.944 391.712 310.654C415.566 315.45 425.072 315.708 430.883 311.717C433.732 309.758 437.87 310.215 440.096 312.738C442.322 315.255 441.813 318.893 438.953 320.847C433.602 324.504 427.449 326.058 419.471 326.058Z" fill="#6C8894"/>
<path d="M538.467 326.058C530.483 326.058 524.325 324.504 518.99 320.847C516.119 318.893 515.615 315.255 517.836 312.738C520.062 310.215 524.2 309.758 527.054 311.717C532.866 315.703 542.382 315.441 566.214 310.654C569.756 309.944 573.288 311.884 574.095 315.002C574.891 318.111 572.676 321.214 569.144 321.925C556.389 324.49 546.499 326.058 538.467 326.058Z" fill="#6C8894"/>
<path d="M419.469 326.058C411.431 326.058 401.541 324.49 388.786 321.925C385.731 321.315 383.667 318.917 383.673 316.27C383.673 315.851 383.727 315.427 383.841 315.002L384.388 313.929C385.216 315.489 386.733 316.747 388.786 317.157C401.541 319.722 411.431 321.291 419.469 321.291C427.447 321.291 433.6 319.736 438.952 316.08C439.796 315.503 440.365 314.764 440.788 313.963C441.996 316.342 441.383 319.183 438.952 320.847C438.843 320.924 438.735 320.995 438.627 321.067C436.422 322.53 434.082 323.641 431.537 324.437C427.984 325.553 424.024 326.058 419.469 326.058Z" fill="#5A717B"/>
<path d="M538.464 326.058C533.909 326.058 529.944 325.553 526.391 324.437C523.84 323.636 521.495 322.526 519.296 321.057C519.193 320.99 519.09 320.919 518.987 320.847C516.544 319.183 515.932 316.337 517.14 313.963C517.568 314.764 518.137 315.503 518.987 316.08C524.322 319.736 530.48 321.291 538.464 321.291C546.496 321.291 556.386 319.722 569.142 317.157C571.195 316.747 572.711 315.484 573.54 313.92L574.092 315.002C574.2 315.427 574.255 315.851 574.255 316.27C574.26 318.917 572.191 321.315 569.142 321.925C556.386 324.49 546.496 326.058 538.464 326.058Z" fill="#5A717B"/>
<path d="M392.216 116.259C392.216 127.758 383.398 137.079 372.516 137.079C361.641 137.079 352.817 127.758 352.817 116.259V88.5108C352.817 77.016 361.641 67.7049 372.516 67.7049C383.398 67.7049 392.216 77.016 392.216 88.5108V116.259Z" fill="#839CA6"/>
<path d="M602.391 116.259C602.391 127.758 593.568 137.079 582.682 137.079C571.811 137.079 562.982 127.758 562.982 116.259V88.5108C562.982 77.016 571.811 67.7049 582.682 67.7049C593.568 67.7049 602.391 77.016 602.391 88.5108V116.259Z" fill="#839CA6"/>
<path d="M589.256 109.837C589.256 184.994 562.982 208.122 477.605 208.122C392.217 208.122 365.948 184.994 365.948 109.837C365.948 40.4628 415.935 -0.000156865 477.605 -0.000156865C539.264 -0.000156865 589.256 40.4628 589.256 109.837Z" fill="#C5D3D4"/>
<path d="M477.605 210.029C477.529 210.029 477.453 210.029 477.377 210.029C477.345 210.029 477.307 210.029 477.28 210.029C477.231 210.029 477.182 210.029 477.139 210.029C477.106 210.029 477.074 210.029 477.041 210.029C476.993 210.029 476.949 210.029 476.901 210.029C476.868 210.029 476.83 210.029 476.798 210.029C476.765 210.029 476.716 210.029 476.684 210.029C476.635 210.029 476.592 210.029 476.543 210.029C476.521 210.029 476.5 210.029 476.473 210.029C476.418 210.029 476.364 210.029 476.31 210.029C476.299 210.029 476.283 210.029 476.272 210.029C439.853 209.924 414.342 205.504 397.086 194.515C411.705 197.995 429.578 199.521 451.336 199.521C536.713 199.521 562.981 176.393 562.981 101.245C562.981 56.2341 541.869 23.4899 510.249 5.97832C554.37 17.4016 586.9 52.5582 589.137 105.846C589.148 106.166 589.159 106.49 589.175 106.809V106.828C589.175 106.933 589.18 107.038 589.186 107.143V107.148C589.186 107.253 589.191 107.357 589.191 107.462L589.197 107.472C589.197 107.577 589.202 107.677 589.202 107.777C589.202 107.796 589.202 107.801 589.202 107.82C589.207 108.02 589.213 108.225 589.218 108.43C589.218 108.44 589.218 108.449 589.218 108.464C589.223 108.564 589.223 108.659 589.229 108.759C589.229 108.774 589.229 108.788 589.229 108.802C589.229 108.897 589.229 108.998 589.234 109.098V109.107C589.234 109.207 589.24 109.307 589.24 109.408C589.24 109.427 589.24 109.436 589.24 109.455C589.24 109.555 589.245 109.651 589.245 109.751C589.245 109.76 589.245 109.775 589.245 109.784C589.245 109.88 589.245 109.98 589.25 110.075C589.25 110.085 589.25 110.089 589.25 110.099C589.25 110.194 589.25 110.294 589.25 110.39C589.25 110.414 589.25 110.433 589.25 110.452C589.25 110.547 589.256 110.647 589.256 110.743C589.256 110.757 589.256 110.762 589.256 110.771C589.256 110.866 589.256 110.952 589.256 111.048C589.256 111.062 589.256 111.086 589.256 111.1C589.256 111.195 589.256 111.291 589.256 111.386C589.256 111.405 589.256 111.429 589.256 111.448C589.256 111.543 589.256 111.648 589.256 111.744C589.256 154.853 580.617 180.846 557.126 195.173C539.67 205.824 514.007 210.029 477.605 210.029Z" fill="#9FAAAD"/>
<path d="M477.604 194.887C412.484 194.887 379.444 165.818 379.444 108.487C379.444 62.2413 412.478 38.7893 477.593 38.7893C542.729 38.7941 575.752 62.2413 575.752 108.487C575.752 168.245 545.486 194.887 477.604 194.887Z" fill="#1F2A31"/>
<path d="M477.603 189.103C415.971 189.103 386.013 162.734 386.013 108.487C386.013 65.4831 415.965 44.5674 477.592 44.5674C539.224 44.5722 569.176 65.4879 569.176 108.487C569.176 165.751 542.647 189.103 477.603 189.103Z" fill="#070A0E"/>
<path d="M414.032 138.757C414.032 147.882 415.278 156.793 417.45 165.351C407.002 150.948 400.898 133.956 400.898 115.625C400.898 90.2511 412.456 67.295 431.17 50.5891C440.307 48.3388 450.75 47.0038 462.438 46.4841C432.816 68.6871 414.032 101.755 414.032 138.757Z" fill="#EAEAE8"/>
</svg>
