<svg width="687" height="543" viewBox="0 0 687 543" fill="none" xmlns="http://www.w3.org/2000/svg">
<path d="M363.507 219.447C351.834 214.822 286.961 206.987 228.83 227.221C225.459 228.331 222.093 229.628 218.799 230.981C170.47 250.915 106.323 246.957 38.0901 230.981C16.7688 177.615 6.80203 86.0596 0 27.3257C43.3866 42.6961 122.567 52.5614 171.403 27.3257C217.234 3.64189 296.414 11.7214 332.998 22.2685C334.929 22.8179 336.801 23.3827 338.431 23.9322C344.17 53.7316 370.091 184.041 363.507 219.447Z" fill="#C5D3D4"/>
<path d="M228.829 227.222C326.012 181.09 326.921 97.0752 331.036 41.9639L354.767 214.146C351.401 214.411 348.136 214.909 345.154 215.8C336.587 214.762 325.74 214.014 313.5 214.014C288.571 214.014 257.861 217.117 228.829 227.222Z" fill="#9FAAAD"/>
<path d="M416.985 523.272C417.451 526.655 414.948 529.698 411.375 530.049L404.939 530.715C401.361 531.077 398.09 528.63 397.635 525.246L328.41 22.8845C327.95 19.496 330.459 16.4535 334.02 16.0923L340.479 15.4359C344.04 15.0747 347.305 17.5219 347.771 20.9104L416.985 523.272Z" fill="#DC3E21"/>
<path d="M216.032 189.024C179.144 212.364 126.254 206.654 97.9145 176.298C69.5588 145.935 76.496 102.4 113.392 79.0729C150.255 55.746 203.145 61.4494 231.485 91.8056C259.832 122.169 252.928 165.691 216.032 189.024Z" fill="#2A387C"/>
<path d="M114.01 189.984L106.466 184.437L102.695 181.663L99.7703 178.23L96.6646 174.961L94.2345 172.187L91.8047 168.721L89.3748 165.254L216.973 79.7617L220.913 81.991L224.782 85.6057L227.913 87.8048L231.747 92.1121L237.147 98.4008L241.68 105.429L114.01 189.984Z" fill="#C92631"/>
<path d="M119.714 147.705H102.23V122.18H119.714V125.591H108.079V132.414H117.217V135.826H108.079V144.294H119.714V147.705ZM134.803 144.294C136.468 144.294 137.301 143.725 137.301 142.588V133.694C137.22 132.597 136.387 132.049 134.803 132.049H132.366C130.701 132.049 129.869 132.617 129.869 133.755V142.588C129.869 143.725 130.701 144.294 132.366 144.294H134.803ZM124.02 133.145C124.02 131.805 124.711 130.729 126.092 129.917C127.513 129.064 129.219 128.637 131.209 128.637H134.56C135.494 128.637 136.143 128.739 136.509 128.942L137.301 129.307V122.85H143.149V147.705H137.301V147.157C136.407 147.522 135.412 147.705 134.316 147.705H131.209C128.082 147.705 125.889 146.832 124.63 145.086C124.224 144.517 124.02 143.887 124.02 143.197V133.145ZM157.786 144.294C159.411 144.294 160.223 143.725 160.223 142.588V133.694C160.223 132.556 159.411 131.988 157.786 131.988H156.02C154.355 131.988 153.522 132.556 153.522 133.694V142.588C153.522 143.725 154.355 144.294 156.02 144.294H157.786ZM147.674 133.145C147.674 131.764 148.364 130.668 149.745 129.856C151.166 129.003 152.872 128.576 154.862 128.576H158.944C160.893 128.576 162.538 128.982 163.878 129.795C165.34 130.607 166.071 131.724 166.071 133.145V143.136C166.071 144.558 165.34 145.674 163.878 146.487C162.538 147.299 160.893 147.705 158.944 147.705H154.862C151.735 147.705 149.542 146.832 148.283 145.086C147.877 144.517 147.674 143.867 147.674 143.136V133.145ZM176.295 130.099C177.27 129.125 178.732 128.637 180.682 128.637H181.717V132.049H180.194C178.529 132.049 177.351 132.556 176.661 133.572C176.417 133.897 176.295 134.262 176.295 134.668V147.705H170.447V128.637H176.295V130.099ZM194.586 144.294C196.211 144.294 197.023 143.725 197.023 142.588V133.694C197.023 132.556 196.211 131.988 194.586 131.988H192.82C191.154 131.988 190.322 132.556 190.322 133.694V142.588C190.322 143.725 191.154 144.294 192.82 144.294H194.586ZM184.474 133.145C184.474 131.764 185.164 130.668 186.545 129.856C187.966 129.003 189.672 128.576 191.662 128.576H195.744C197.693 128.576 199.338 128.982 200.678 129.795C202.14 130.607 202.871 131.724 202.871 133.145V143.136C202.871 144.558 202.14 145.674 200.678 146.487C199.338 147.299 197.693 147.705 195.744 147.705H191.662C188.535 147.705 186.342 146.832 185.083 145.086C184.677 144.517 184.474 143.867 184.474 143.136V133.145ZM207.734 147.705V123.276H213.583V147.705H207.734ZM224.799 123.52V126.932H218.951V123.52H224.799ZM218.951 128.637H224.799V147.705H218.951V128.637Z" fill="#F6F6F6"/>
<path d="M584.805 543C598.237 543 611.347 542.875 624.008 542.634C662.676 538.26 687 531.918 687 524.859C687 517.805 662.67 511.462 623.991 507.079C611.33 506.843 598.231 506.718 584.805 506.718C477.144 506.718 389.867 514.84 389.867 524.864C389.867 534.877 477.144 543 584.805 543Z" fill="#6C8894"/>
<path d="M598.777 354.616C598.777 360.833 592.635 365.905 585.126 365.905H407.644C400.146 365.905 393.999 360.833 393.999 354.616V202.154C393.999 195.947 400.146 190.861 407.644 190.861H585.126C592.635 190.861 598.777 195.947 598.777 202.154V354.616Z" fill="#839CA6"/>
<path d="M497.139 375.655C497.139 376.882 496.937 380.149 496.588 385.048C495.163 405.59 490.525 454.191 482.812 490.367C482.604 491.363 482.396 492.296 482.12 493.288V493.345C481.917 494.274 481.715 495.212 481.512 496.088V496.141L481.231 497.248C480.617 499.822 479.998 502.267 479.328 504.658C478.703 507.055 478.028 509.335 477.346 511.491C476.654 513.657 475.979 515.692 475.298 517.617C474.07 521.009 472.775 523.92 471.413 526.37C471.132 526.899 470.788 527.419 470.456 527.938C469.764 529.117 469.021 530.166 468.266 531.037C467.653 531.682 467.112 532.207 466.561 532.669L465.874 533.193L464.641 533.838C463.904 534.189 463.144 534.362 462.322 534.362C461.776 534.362 461.235 534.362 460.684 534.305H460.622L459.119 534.016C458.573 533.896 458.027 533.775 457.48 533.602C456.462 533.256 455.437 532.842 454.401 532.264C453.861 532.038 453.388 531.682 452.842 531.384C452.217 530.98 451.677 530.575 451.058 530.113L449.836 529.175C449.357 528.761 448.879 528.304 448.339 527.833C447.382 526.899 446.419 525.903 445.462 524.796C445 524.214 444.516 523.617 444.032 523.04C443.548 522.467 443.075 521.88 442.658 521.24C442.191 520.595 441.713 519.951 441.302 519.253C440.345 517.906 439.461 516.51 438.572 514.99C436.326 511.207 434.209 506.939 432.16 502.397C431.411 500.751 430.724 499.062 429.97 497.368C429.424 495.973 428.878 494.572 428.326 493.11C427.932 492.181 427.583 491.243 427.24 490.309C426.896 489.38 426.553 488.5 426.221 487.571C412.429 448.657 404.3 395.028 404.3 365.737C404.3 365.737 497.139 365.737 497.139 375.655Z" fill="#C5D3D4"/>
<path d="M482.118 493.287V493.345C481.915 494.274 481.713 495.212 481.51 496.088V496.141L481.229 497.248C480.615 499.822 479.996 502.267 479.326 504.658C478.701 507.054 478.026 509.335 477.344 511.491C476.652 513.656 475.977 515.692 475.295 517.617C474.068 521.009 472.773 523.92 471.411 526.37C471.13 526.899 470.786 527.419 470.454 527.938C469.762 529.117 469.019 530.166 468.264 531.037C467.651 531.682 467.11 532.206 466.559 532.668L465.872 533.193L464.639 533.838C463.356 534.016 462.049 534.189 460.681 534.305H460.62L459.117 534.016C458.571 533.896 458.024 533.775 457.478 533.602C456.46 533.308 455.435 532.909 454.399 532.264C453.859 532.038 453.386 531.682 452.84 531.384C452.215 531.037 451.607 530.633 450.993 530.166L449.834 529.175C449.355 528.761 448.877 528.304 448.337 527.832C447.38 526.899 446.417 525.903 445.46 524.796C444.998 524.214 444.514 523.617 444.03 523.04C443.546 522.467 443.073 521.88 442.656 521.24C442.189 520.595 441.711 519.95 441.3 519.253C440.343 517.905 439.459 516.51 438.57 514.989C436.323 511.207 434.207 506.939 432.158 502.396C431.409 500.751 430.722 499.062 429.968 497.368C429.422 495.973 428.876 494.572 428.324 493.109C427.93 492.181 427.581 491.242 427.238 490.309C433.79 489.144 441.035 488.437 448.607 488.437C454.337 488.437 459.877 488.798 465.061 489.549C471.338 490.367 477.069 491.651 482.118 493.287Z" fill="#1F2A31"/>
<path d="M485.335 494.336C484.789 495.501 483.483 496.203 482.12 496.203L481.512 496.141V496.088L480.899 496.03C475.979 494.452 470.457 493.224 464.512 492.464C453.051 490.895 440.216 491.006 428.326 493.109L427.933 493.171C426.08 493.46 424.296 492.464 423.896 490.895C423.491 489.433 424.583 488.037 426.221 487.57L426.553 487.45C439.394 485.179 453.118 485.001 465.542 486.632C471.678 487.388 477.549 488.677 482.813 490.366L483.353 490.539C485.126 491.126 486.016 492.815 485.335 494.336Z" fill="#EE4323"/>
<path d="M462.322 534.362C461.776 534.362 461.236 534.362 460.684 534.305C462.052 534.189 463.358 534.016 464.642 533.838C463.904 534.189 463.144 534.362 462.322 534.362ZM482.813 490.367C477.55 488.678 471.678 487.388 465.542 486.633C466.494 480.392 467.378 473.501 468.121 465.802C473.834 407.798 476.216 390.846 480.004 384.114C487.581 384.99 493.588 385.514 496.526 385.572H496.554C495.085 406.408 490.463 454.494 482.813 490.367Z" fill="#9FAAAD"/>
<path d="M460.684 534.305H460.622L459.119 534.016C458.573 533.896 458.027 533.775 457.481 533.602C456.462 533.308 455.438 532.909 454.402 532.264C453.862 532.038 453.389 531.682 452.843 531.384C452.218 531.037 451.61 530.633 450.996 530.166L451.058 530.113C456.462 522.929 461.101 511.207 464.512 492.465C470.457 493.225 475.979 494.452 480.899 496.03L481.513 496.088V496.141L481.231 497.248C480.922 498.542 480.612 499.798 480.297 501.035C479.982 502.262 479.661 503.465 479.329 504.658C478.704 507.054 478.028 509.335 477.347 511.491C476.655 513.656 475.979 515.692 475.298 517.617C474.071 521.009 472.776 523.92 471.414 526.37C471.132 526.899 470.789 527.419 470.457 527.938C469.764 529.117 469.021 530.166 468.267 531.037C467.653 531.682 467.113 532.206 466.561 532.668L465.875 533.193L464.642 533.838C463.358 534.016 462.052 534.189 460.684 534.305Z" fill="#1E272B"/>
<path d="M482.118 496.203L481.51 496.141V496.088L480.897 496.03C475.977 494.452 470.454 493.224 464.51 492.464C464.707 491.473 464.848 490.539 465.061 489.548C465.191 488.61 465.326 487.623 465.54 486.632C471.676 487.388 477.547 488.677 482.811 490.366L483.351 490.539C484.725 490.992 485.563 492.108 485.563 493.292C485.563 493.638 485.49 493.99 485.333 494.336C484.786 495.501 483.481 496.203 482.118 496.203Z" fill="#BF3C23"/>
<path d="M590.044 365.737C590.044 395.085 581.91 448.82 567.994 487.802C567.724 488.735 567.375 489.669 567.037 490.607C566.694 491.536 566.35 492.465 565.945 493.408C565.472 494.625 564.994 495.857 564.515 497.022C563.356 499.875 562.117 502.628 560.895 505.25C560.49 506.116 560.079 506.992 559.657 507.82C559.252 508.691 558.852 509.509 558.373 510.327C557.963 511.145 557.546 511.895 557.068 512.718C556.657 513.474 556.251 514.234 555.778 514.99C554.54 517.097 553.251 519.022 551.956 520.826L551.675 521.24C551.061 522.053 550.453 522.814 549.84 523.564C549.158 524.392 548.466 525.205 547.785 525.961L547.447 526.37C546.839 527.01 546.147 527.655 545.539 528.242C544.784 528.877 544.036 529.522 543.281 530.113L543.006 530.335C542.398 530.802 541.722 531.211 541.024 531.624C540.275 532.096 539.532 532.505 538.71 532.842C537.962 533.193 537.207 533.496 536.391 533.718C535.569 533.958 534.82 534.122 533.999 534.247L532.698 534.362H532.569H532.496H532.355H532.023L530.582 534.122H530.446L530.317 534.074L529.09 533.549C528.268 533.135 527.514 532.505 526.692 531.735C526.219 531.211 525.667 530.575 525.194 529.873C524.378 528.877 523.618 527.655 522.948 526.37C521.71 524.156 520.471 521.413 519.317 518.377C518.991 517.617 518.704 516.804 518.439 516.043L518.09 515.11C517.42 513.007 516.66 510.741 515.985 508.339C514.955 504.658 513.935 500.698 512.905 496.492L512.703 495.679C512.494 494.746 512.292 493.812 512.083 492.879C511.875 491.887 511.678 490.954 511.475 489.963C503.825 454.133 499.249 406.35 497.684 385.572C497.351 380.38 497.138 376.935 497.138 375.655C497.138 369.644 531.341 367.253 558.233 366.319C575.627 365.737 590.044 365.737 590.044 365.737Z" fill="#C5D3D4"/>
<path d="M567.038 490.607C566.694 491.536 566.351 492.465 565.946 493.408C565.473 494.625 564.994 495.857 564.516 497.022C563.356 499.875 562.117 502.628 560.896 505.25C560.491 506.116 560.08 506.992 559.658 507.82C559.252 508.691 558.852 509.509 558.374 510.327C557.963 511.145 557.547 511.895 557.068 512.718C556.657 513.474 556.252 514.234 555.779 514.99C554.54 517.097 553.251 519.022 551.957 520.826L551.675 521.24C551.062 522.053 550.454 522.814 549.84 523.564C549.159 524.392 548.466 525.205 547.785 525.961L547.448 526.37C546.84 527.01 546.147 527.655 545.539 528.242C544.785 528.877 544.036 529.522 543.282 530.113L543.006 530.335C542.398 530.802 541.723 531.211 541.024 531.624C540.276 532.096 539.533 532.505 538.711 532.842C537.962 533.193 537.208 533.496 536.392 533.718C535.57 533.958 534.821 534.122 533.999 534.247L532.699 534.362H532.569H532.496H532.355H532.294C531.68 534.247 531.134 534.247 530.582 534.122H530.447L530.317 534.074L529.09 533.549C528.336 533.082 527.514 532.505 526.765 531.682C526.219 531.158 525.668 530.513 525.195 529.873C524.435 528.877 523.692 527.712 522.949 526.37C521.71 524.156 520.472 521.413 519.318 518.377C518.991 517.617 518.704 516.804 518.44 516.043L518.09 515.11C517.421 512.949 516.661 510.741 515.985 508.339C514.955 504.658 513.936 500.698 512.906 496.492L512.771 495.679H512.703C512.495 494.746 512.292 493.812 512.084 492.879C521.102 490.068 532.158 488.437 544.16 488.437H545.263C552.981 488.5 560.412 489.26 567.038 490.607Z" fill="#1F2A31"/>
<path d="M570.386 491.242C569.902 492.815 568.067 493.812 566.288 493.46L565.944 493.407C559.324 492.06 551.955 491.362 544.44 491.362H544.159C532.9 491.362 522.176 492.816 513.248 495.621L512.77 495.679H512.702L512.083 495.794C510.715 495.794 509.364 495.034 508.885 493.869C508.266 492.358 509.15 490.66 510.929 490.135L511.475 489.962C521.568 486.926 533.863 485.405 546.017 485.641C553.526 485.699 560.957 486.401 567.791 487.749L567.994 487.801C569.699 488.268 570.791 489.789 570.386 491.242Z" fill="#EE4323"/>
<path d="M576.659 290.993C576.462 290.117 576.181 289.237 575.916 288.366C575.713 287.779 575.567 287.139 575.303 286.552L575.162 286.09C573.118 279.555 570.653 273.02 567.996 266.712C564.714 259.133 561.038 251.776 556.658 245.005L556.174 244.202C542.534 222.668 523.496 207.02 497.139 207.02H496.39C480.347 207.198 467.034 213.213 456.045 222.832C449.425 228.548 443.689 235.555 438.639 243.379C437.339 245.304 436.112 247.344 434.952 249.389C429.908 258.137 425.68 267.713 422.123 277.394C421.098 280.306 420.074 283.169 419.117 286.147C418.019 289.588 416.933 293.096 416.049 296.532L415.846 297.176C415.367 298.803 414.951 300.434 414.54 302.075L414.478 302.133L414.416 302.547C413.318 306.565 412.429 310.539 411.613 314.379C410.718 318.359 409.907 322.203 409.288 325.885C408.539 329.729 407.92 333.41 407.379 336.909C407.036 339.012 406.76 341.057 406.484 342.981C404.841 355.059 404.3 363.577 404.3 365.737C404.3 373.379 452.572 381.02 479.998 384.114C487.581 384.99 493.587 385.514 496.526 385.572H497.685C505.409 385.399 534.479 382.131 557.964 377.579C575.567 374.139 590.046 369.933 590.046 365.737C590.046 363.577 589.5 355.059 587.856 342.981V342.919C587.58 340.989 587.31 339.012 586.966 336.909C586.494 333.531 585.875 329.907 585.199 326.111C584.45 322.439 583.685 318.532 582.807 314.567C581.236 307.445 579.395 299.914 577.07 292.326L577.003 292.042L576.794 291.922L576.659 291.393V291.34V290.993Z" fill="#C5D3D4"/>
<path d="M497.177 359.313C487.449 359.313 420.055 351.522 404.94 342.096C403.42 341.148 403.088 339.314 404.203 338.015C405.312 336.725 407.445 336.432 408.971 337.385C421.884 345.449 486.335 353.476 497.177 353.476C507.996 353.476 572.435 345.449 585.366 337.385C586.897 336.442 589.031 336.725 590.134 338.025C591.249 339.329 590.917 341.152 589.397 342.1C574.265 351.527 506.876 359.313 497.177 359.313Z" fill="#EE4323"/>
<path d="M619.257 278.386L590.93 283.289L578.918 285.387L577.071 285.734L575.163 286.09L574.622 286.148L573.665 286.321L572.573 286.499L557.419 289.179L421.302 312.931C418.847 309.548 416.528 306.103 414.417 302.547L414.276 302.364C413.995 301.844 413.663 301.373 413.387 300.848C412.97 300.208 412.633 299.568 412.289 298.87C409.429 293.847 406.969 288.597 404.988 283.289C404.718 282.822 404.571 282.303 404.363 281.831C404.172 281.364 404.042 280.835 403.828 280.368C400.76 272.145 398.779 263.743 397.962 255.447C395.84 234.794 400.822 214.907 415.301 199.903C430.647 183.86 456.721 173.365 496.391 173.365C527.178 173.365 555.297 183.042 576.874 199.085C585.543 205.451 593.115 212.919 599.324 221.143C600.686 222.779 601.851 224.468 603.011 226.224C607.509 232.937 611.207 240.112 613.938 247.7C616.049 253.701 617.614 259.946 618.441 266.423C618.982 270.335 619.257 274.358 619.257 278.386Z" fill="#C5D3D4"/>
<path d="M458.166 206.442L456.044 222.832L453.387 243.379L451.056 260.88L448.337 281.942L447.313 290.06C445.461 290.002 443.688 289.886 441.852 289.708C434.951 289.237 428.122 288.188 421.44 286.672C420.692 286.499 419.87 286.321 419.115 286.147C414.539 285.098 410.035 283.809 405.605 282.24L404.361 281.831L402.869 281.244C369.69 269.339 340.277 246.473 321.362 220.44C317.134 214.671 313.723 210.234 310.514 203.699C307.306 197.107 304.3 188.359 300.894 173.769C297.753 164.718 298.299 154.921 296.79 145.239V145.003C297.066 143.362 297.207 141.678 296.852 140.215C296.666 139.224 296.312 138.295 295.63 137.473L305.741 134.672L326.006 129.071L329.08 128.253C329.423 129.133 329.89 130 330.374 130.938C333.521 137.242 338.841 144.825 341.768 150.258L341.92 150.6L341.977 150.657C348.118 161.686 366.965 177.267 375.972 185.433C383.628 192.497 394.273 195.182 403.274 197.107C407.845 198.098 411.741 199.037 415.299 199.903C431.196 203.762 439.252 206.269 458.166 206.442Z" fill="#C5D3D4"/>
<path d="M337.885 117.695C335.498 120.794 332.43 123.527 329.424 125.39L329.018 125.688C328.259 126.915 327.313 128.084 326.007 129.071C324.166 130.586 321.706 131.871 318.43 132.863C312.282 134.73 308.865 136.25 306.287 137.179C302.87 138.468 300.816 138.757 295.631 137.472C294.955 136.89 294.274 136.067 293.649 135.139C290.317 130.24 287.643 121.189 286.827 117.931C284.44 107.301 284.918 85.3734 301.851 81.1052C302.392 80.9319 303.011 80.8164 303.619 80.7009C323.209 77.4288 326.418 92.2593 328.472 103.577L328.534 103.514H328.608C332.976 100.242 337.547 98.8468 340.485 100.536L340.97 100.892C344.572 103.457 343.283 110.862 337.885 117.695Z" fill="#C5D3D4"/>
<path d="M330.376 130.937L330.111 131.057L306.35 137.587L296.853 140.214L296.724 140.272L295.632 140.388C294.196 140.388 292.901 139.632 292.423 138.405C291.944 137.12 292.49 135.836 293.65 135.138L294.607 134.729L304.301 132.049L327.989 125.456L329.424 125.389C330.787 125.509 331.946 126.212 332.29 127.376C332.836 128.834 332.014 130.36 330.376 130.937Z" fill="#EE4323"/>
<path d="M329.345 109.289C328.123 107.715 328.061 105.675 328.534 103.514H328.607C331.709 101.195 334.912 99.814 337.558 99.814C338.644 99.814 339.629 100.045 340.485 100.536L340.969 100.892C336.719 103.457 332.289 107.427 329.345 109.289Z" fill="#9FAAAD"/>
<path d="M421.439 286.672C420.691 286.498 419.869 286.32 419.114 286.147C414.538 285.098 410.034 283.809 405.604 282.24C406.004 281.532 406.555 280.719 407.034 279.896C409.015 277.447 411.065 275.003 411.065 275.003C411.065 275.003 408.267 276.812 405.463 278.852C404.912 279.372 404.36 279.843 403.825 280.368L402.868 281.244C396.411 278.924 390.089 276.191 383.97 273.102C378.6 270.393 373.387 267.414 368.349 264.195C366.97 263.314 365.608 262.415 364.257 261.5C354.327 254.768 345.162 247.122 337.039 238.874C331.252 232.994 325.994 226.816 321.361 220.44C317.133 214.67 313.722 210.234 310.513 203.699C307.305 197.107 304.299 188.359 300.893 173.769C297.752 164.718 298.298 154.92 296.789 145.239V145.003C296.947 144.055 297.065 143.093 297.065 142.164C297.065 141.49 297.003 140.831 296.851 140.215L306.348 137.588C309.894 155.44 315.687 198.512 360.136 231.705C374.609 242.565 387.241 249.851 397.959 255.447C407.169 260.297 414.949 263.8 421.299 267.121C421.85 270.86 422.12 274.295 422.12 277.394C422.12 280.835 421.918 283.929 421.439 286.672Z" fill="#9FAAAD"/>
<path d="M293.649 135.138C290.316 130.24 287.642 121.189 286.826 117.931C286.207 115.193 285.785 111.699 285.785 107.956C285.779 97.1673 289.281 84.2713 301.851 81.105C296.593 100.242 293.041 117.406 304.3 132.049L294.606 134.729L293.649 135.138Z" fill="#9FAAAD"/>
<path d="M644.988 326.351L639.055 327.987L611.544 335.566L611.274 335.047C610.998 334.344 610.661 333.641 610.312 332.944C607.041 326.645 601.783 318.999 598.839 313.566L598.777 313.518L598.647 313.162C595.242 306.974 587.856 299.448 580.487 292.509L580.279 292.326C579.119 291.282 577.96 290.233 576.873 289.237L575.916 288.366C575.162 287.663 574.346 286.961 573.665 286.321C572.983 285.686 572.218 285.098 571.604 284.511L571.48 284.458C568.885 282.178 566.56 280.133 564.646 278.386C563.008 276.923 561.241 275.821 559.253 274.945C557.142 273.954 554.823 273.256 552.504 272.611C548.124 271.447 543.756 270.566 540.142 268.579C539.117 268.055 538.16 267.415 537.344 266.712C534.479 264.263 530.792 261.813 525.742 259.836C523.355 258.782 520.557 257.906 517.354 257.208C511.748 255.919 504.852 255.106 496.391 255.048V179.183C525.263 180.068 552.571 188.821 575.714 203.175C584.237 208.425 592.157 214.493 599.323 221.143C600.961 222.601 602.532 224.126 604.097 225.7C609.698 231.185 614.748 237.133 619.257 243.379C619.594 243.841 619.938 244.312 620.281 244.721C624.036 249.914 627.177 254.061 630.11 260.129C633.319 266.712 636.325 275.47 639.73 290.06C642.872 299.101 642.258 308.908 643.834 318.595V318.821C643.564 320.452 643.418 322.093 643.772 323.609C643.964 324.6 644.307 325.533 644.988 326.351Z" fill="#C5D3D4"/>
<path d="M634.745 374.779C633.585 375.01 632.566 375.135 631.671 375.246C611.338 377.632 640.892 356.229 626.273 349.983L625.535 350.098C618.504 351.325 619.529 369.996 611.682 366.435C611.271 366.262 610.787 365.968 610.246 365.617C606.97 363.403 608.056 351.73 610.922 338.429C611.13 337.491 611.338 336.505 611.541 335.566L639.052 327.987L644.985 326.351C645.598 327.169 646.144 327.987 646.69 328.801C659.66 348.053 656.052 370.929 634.745 374.779Z" fill="#C5D3D4"/>
<path d="M646.693 328.8L646.012 329.094L640.765 330.557L612.562 338.371L611.543 338.482L610.924 338.429L610.108 338.198C609.297 337.905 608.611 337.318 608.34 336.504C607.727 334.989 608.611 333.41 610.311 332.943L610.519 332.828L611.949 332.419L638.643 325.013L643.771 323.608L643.895 323.551C645.736 323.084 647.65 323.897 648.202 325.475C648.748 326.76 648.067 328.16 646.693 328.8Z" fill="#EE4323"/>
<path d="M620.282 244.721L613.938 247.7L607.729 250.616L598.232 255.048L585.127 234.568L592.44 231.185L603.011 226.224L604.098 225.7C609.699 231.185 614.749 237.133 619.258 243.379C619.596 243.841 619.939 244.312 620.282 244.721Z" fill="#2A387C"/>
<path d="M613.536 366.886C612.978 366.886 612.365 366.742 611.684 366.434C612.748 360.14 614.324 348.303 620.724 348.303C622.092 348.303 623.685 348.847 625.537 350.098C619.12 351.219 619.413 366.882 613.536 366.886Z" fill="#9FAAAD"/>
<path d="M631.674 375.246C638.091 370.641 644.441 364.101 644.987 356.229C645.736 344.492 644.515 336.793 640.765 330.557L646.012 329.094L646.693 328.801C651.709 336.25 654.248 344.232 654.236 351.455C654.225 362.903 647.819 372.416 634.748 374.779C633.588 375.01 632.569 375.135 631.674 375.246Z" fill="#9FAAAD"/>
<path d="M638.645 325.013C636.669 313.797 628.81 285.151 618.441 266.423C617.416 264.441 616.33 262.578 615.176 260.88C613.183 257.839 610.588 254.345 607.729 250.616L613.938 247.7L620.282 244.721C624.037 249.913 627.178 254.061 630.111 260.129C633.319 266.712 636.325 275.47 639.731 290.059C642.872 299.101 642.259 308.908 643.835 318.594V318.821C643.677 319.764 643.565 320.712 643.565 321.635C643.565 322.304 643.621 322.968 643.773 323.608L638.645 325.013Z" fill="#9FAAAD"/>
<path d="M592.438 231.185C583.836 220.04 576.321 209.358 575.713 203.174C584.236 208.424 592.156 214.492 599.322 221.142C600.96 222.6 602.531 224.126 604.096 225.699L603.009 226.224L592.438 231.185Z" fill="#9FAAAD"/>
<path d="M607.727 250.615C603.009 244.548 597.487 237.777 592.438 231.185L603.009 226.224L604.096 225.699C609.697 231.185 614.747 237.132 619.256 243.378C619.593 243.84 619.937 244.312 620.28 244.721L613.936 247.699L607.727 250.615Z" fill="#27326A"/>
<path d="M557.823 260.879C557.823 270.542 548.647 278.385 537.343 278.385C526.039 278.385 516.869 270.542 516.869 260.879C516.869 251.217 526.039 243.378 537.343 243.378C548.647 243.378 557.823 251.217 557.823 260.879Z" fill="#2A387C"/>
<path d="M509.552 268.132L557.823 243.379L528.872 284.637V268.132H509.552Z" fill="#DC3E21"/>
<path d="M475.912 260.879H434.953V243.378H475.912V260.879Z" fill="#6C8894"/>
<path d="M462.26 290.059C462.26 294.89 457.677 298.802 452.02 298.802C446.363 298.802 441.78 294.89 441.78 290.059C441.78 285.223 446.363 281.301 452.02 281.301C457.677 281.301 462.26 285.223 462.26 290.059Z" fill="#191A1B"/>
<path d="M462.26 319.224C462.26 324.06 457.672 327.982 452.02 327.982C446.363 327.982 441.78 324.06 441.78 319.224C441.78 314.388 446.363 310.471 452.02 310.471C457.672 310.471 462.26 314.388 462.26 319.224Z" fill="#191A1B"/>
<path d="M553.829 319.224C553.829 324.06 549.247 327.982 543.589 327.982C537.921 327.982 533.344 324.06 533.344 319.224C533.344 314.388 537.921 310.471 543.589 310.471C549.247 310.471 553.829 314.388 553.829 319.224Z" fill="#191A1B"/>
<path d="M435.954 338.713C428.411 338.713 419.184 337.414 407.644 335.2C407.683 334.974 407.717 334.748 407.756 334.522C407.993 333.131 408.224 331.712 408.477 330.263C408.725 328.839 408.995 327.386 409.288 325.908C420.079 327.905 428.743 329.089 435.971 329.089C440.705 329.089 444.82 328.579 448.513 327.453C449.605 327.795 450.787 327.982 452.02 327.982C454.311 327.982 456.422 327.337 458.122 326.255C459.552 328.67 458.837 331.736 456.22 333.468C450.647 337.125 444.285 338.713 435.954 338.713Z" fill="#9FAAAD"/>
<path d="M557.699 338.684C550.341 338.448 544.498 336.836 539.42 333.467C536.803 331.735 536.043 328.665 537.467 326.245C539.173 327.337 541.289 327.982 543.592 327.982C544.825 327.982 546.007 327.794 547.099 327.452C550.201 328.396 553.601 328.911 557.417 329.05C557.496 332.245 557.598 335.46 557.699 338.684Z" fill="#9FAAAD"/>
<path d="M532.294 534.362H532.023L531.1 534.208C531.483 534.257 531.871 534.285 532.294 534.362ZM529.09 533.549C528.268 533.135 527.514 532.505 526.692 531.735L526.765 531.682C527.514 532.505 528.336 533.082 529.09 533.549ZM567.995 487.802L567.792 487.749C560.958 486.402 553.527 485.699 546.018 485.641C556.111 446.78 556.595 403.545 557.822 380.852C557.89 379.793 557.963 378.691 557.963 377.579C575.566 374.139 590.045 369.933 590.045 365.737C590.045 395.085 581.911 448.82 567.995 487.802Z" fill="#9FAAAD"/>
<path d="M532.698 534.362H532.293C531.871 534.285 531.482 534.257 531.099 534.208L530.581 534.122H530.446L530.317 534.074L529.089 533.549C528.335 533.082 527.513 532.505 526.765 531.682C534.539 520.076 540.275 506.116 544.441 491.363C551.956 491.363 559.325 492.061 565.945 493.408C565.472 494.625 564.993 495.857 564.515 497.022C563.355 499.875 562.117 502.628 560.895 505.25C560.49 506.116 560.079 506.992 559.657 507.82C559.252 508.691 558.852 509.509 558.373 510.327C557.962 511.145 557.546 511.895 557.067 512.718C556.656 513.474 556.251 514.234 555.778 514.99C554.54 517.097 553.251 519.022 551.956 520.826L551.674 521.24C551.061 522.053 550.453 522.814 549.839 523.564C549.158 524.392 548.466 525.205 547.784 525.961L547.447 526.37C546.839 527.01 546.147 527.655 545.539 528.242C544.784 528.877 544.035 529.522 543.281 530.113L543.005 530.335C542.397 530.802 541.722 531.211 541.024 531.624C540.275 532.096 539.532 532.505 538.71 532.842C537.962 533.193 537.207 533.496 536.391 533.718C535.569 533.958 534.82 534.122 533.998 534.247L532.698 534.362Z" fill="#1E272B"/>
<path d="M567.008 493.533C567.002 493.533 567.002 493.533 566.996 493.533C566.76 493.533 566.523 493.509 566.287 493.46L565.944 493.407C559.324 492.06 551.955 491.362 544.439 491.362C544.783 490.429 545.059 489.433 545.261 488.437C545.593 487.508 545.802 486.579 546.016 485.641C553.525 485.699 560.956 486.401 567.79 487.749L567.993 487.802C569.462 488.206 570.47 489.38 570.47 490.631C570.47 490.833 570.442 491.04 570.385 491.242C570.368 491.295 570.351 491.343 570.334 491.391C570.329 491.406 570.323 491.42 570.318 491.435C569.834 492.681 568.483 493.518 567.041 493.533C567.03 493.533 567.019 493.533 567.008 493.533Z" fill="#BF3C23"/>
<path d="M557.964 377.579C558.093 373.907 558.234 370.173 558.234 366.319C558.234 361.42 558.161 356.396 558.026 351.378C558.026 351.358 558.026 351.344 558.026 351.325C570.641 348.88 581.877 346.022 587.855 342.966V342.981C589.499 355.059 590.045 363.576 590.045 365.736C590.045 369.932 575.567 374.138 557.964 377.579ZM557.891 345.392C557.834 343.154 557.767 340.916 557.699 338.684C558.33 338.703 558.977 338.712 559.63 338.712C567.004 338.712 575.781 337.51 586.752 335.44C586.825 335.917 586.893 336.384 586.955 336.85C586.403 336.908 585.851 337.081 585.367 337.384C580.903 340.166 570.303 342.947 557.891 345.392Z" fill="#9FAAAD"/>
<path d="M558.025 351.326C558.025 349.362 557.957 347.399 557.89 345.431C557.89 345.417 557.89 345.407 557.89 345.393C570.302 342.948 580.902 340.167 585.366 337.385C585.851 337.082 586.402 336.909 586.954 336.851C586.959 336.871 586.959 336.89 586.965 336.909C587.14 336.885 587.314 336.871 587.489 336.871C588.485 336.871 589.476 337.275 590.106 338.021C590.315 338.247 590.478 338.492 590.59 338.752C590.889 339.459 590.855 340.229 590.517 340.908C590.275 341.37 589.887 341.788 589.363 342.101C588.885 342.395 588.406 342.683 587.855 342.919V342.967C581.876 346.023 570.64 348.881 558.025 351.326Z" fill="#BF3C23"/>
<path d="M586.364 332.934C585.999 330.739 585.593 328.478 585.188 326.12C585.188 326.115 585.194 326.115 585.199 326.115C585.616 328.459 586.01 330.739 586.364 332.934ZM559.715 317.42C558.781 317.42 557.903 317.391 557.069 317.338C557.069 317.329 557.069 317.319 557.069 317.309C556.867 307.272 556.867 297.705 557.418 289.179L572.573 286.498C572.984 286.854 573.451 287.254 573.862 287.716C575.089 289.01 576.181 290.343 576.659 291.339V291.392L576.795 291.921L577.003 292.042L577.07 292.326C579.395 299.914 581.236 307.445 582.807 314.567C582.807 314.581 582.812 314.6 582.818 314.615C572.533 316.491 565.187 317.42 559.715 317.42Z" fill="#9FAAAD"/>
<path d="M610.311 332.943C607.04 326.644 601.783 318.998 598.839 313.565L598.776 313.517L598.647 313.161C595.241 306.973 587.856 299.447 580.487 292.508V292.273L580.205 291.103C580.014 289.823 579.592 287.778 578.984 285.733L578.916 285.387C578.162 282.471 576.394 280.017 576.045 279.786C576.394 280.305 577.205 282.937 577.07 285.733V285.969C577.07 286.551 577.002 287.191 577.002 287.716C576.462 287.307 575.843 286.96 575.302 286.551L575.229 286.498L574.621 286.147C573.591 285.507 572.572 284.978 571.604 284.511L571.48 284.458C568.885 282.177 566.56 280.132 564.646 278.385C563.008 276.923 561.24 275.821 559.253 274.945C559.945 271.677 560.762 268.646 561.781 265.951C563.903 265.951 565.946 266.192 567.995 266.712C576.659 268.877 584.45 275.416 590.929 283.289C599.598 293.731 606.021 306.564 609.568 314.913C612.703 322.386 612.839 328.035 611.949 332.419L610.519 332.828L610.311 332.943Z" fill="#9FAAAD"/>
<path d="M559.628 338.713C558.975 338.713 558.328 338.703 557.697 338.684C557.596 335.46 557.495 332.246 557.416 329.051C558.142 329.075 558.891 329.089 559.645 329.089C566.609 329.089 574.923 327.987 585.186 326.12C585.591 328.478 585.996 330.739 586.362 332.934C586.497 333.781 586.627 334.618 586.75 335.441C575.779 337.51 567.003 338.713 559.628 338.713Z" fill="#818B8F"/>
<path d="M435.971 329.089C427.617 329.089 417.338 327.505 404.081 324.917C400.405 324.2 398.102 321.067 398.941 317.93C399.78 314.783 403.456 312.824 407.12 313.541C431.912 318.382 441.792 318.642 447.832 314.614C450.793 312.637 455.094 313.098 457.407 315.644C459.721 318.185 459.192 321.856 456.219 323.829C450.658 327.52 444.263 329.089 435.971 329.089Z" fill="#6C8894"/>
<path d="M559.647 329.089C551.349 329.089 544.949 327.52 539.404 323.829C536.42 321.856 535.897 318.185 538.205 315.644C540.518 313.098 544.819 312.637 547.786 314.614C553.826 318.637 563.717 318.372 588.486 313.541C592.167 312.824 595.838 314.783 596.676 317.93C597.504 321.067 595.202 324.2 591.531 324.917C578.274 327.505 567.995 329.089 559.647 329.089Z" fill="#6C8894"/>
<path d="M435.968 329.089C427.614 329.089 417.335 327.505 404.078 324.917C400.903 324.301 398.759 321.88 398.764 319.21C398.764 318.786 398.82 318.358 398.939 317.93L399.507 316.847C400.368 318.42 401.945 319.691 404.078 320.105C417.335 322.693 427.614 324.277 435.968 324.277C444.26 324.277 450.655 322.708 456.217 319.017C457.095 318.435 457.687 317.689 458.126 316.881C459.381 319.282 458.745 322.15 456.217 323.829C456.105 323.906 455.992 323.978 455.879 324.05C453.588 325.528 451.156 326.649 448.511 327.452C444.818 328.578 440.703 329.089 435.968 329.089Z" fill="#5A717B"/>
<path d="M559.645 329.089C554.91 329.089 550.79 328.578 547.097 327.452C544.445 326.644 542.008 325.523 539.722 324.041C539.615 323.973 539.509 323.901 539.402 323.829C536.863 322.15 536.227 319.277 537.482 316.881C537.927 317.689 538.518 318.435 539.402 319.017C544.946 322.708 551.347 324.277 559.645 324.277C567.993 324.277 578.272 322.693 591.529 320.105C593.663 319.691 595.239 318.416 596.1 316.837L596.674 317.93C596.787 318.358 596.843 318.786 596.843 319.21C596.849 321.88 594.699 324.301 591.529 324.917C578.272 327.505 567.993 329.089 559.645 329.089Z" fill="#5A717B"/>
<path d="M407.643 117.339C407.643 128.945 398.479 138.353 387.169 138.353C375.866 138.353 366.695 128.945 366.695 117.339V89.3334C366.695 77.7318 375.866 68.3341 387.169 68.3341C398.479 68.3341 407.643 77.7318 407.643 89.3334V117.339Z" fill="#839CA6"/>
<path d="M626.086 117.339C626.086 128.945 616.916 138.353 605.601 138.353C594.303 138.353 585.127 128.945 585.127 117.339V89.3334C585.127 77.7318 594.303 68.3341 605.601 68.3341C616.916 68.3341 626.086 77.7318 626.086 89.3334V117.339Z" fill="#839CA6"/>
<path d="M612.435 110.858C612.435 186.713 585.127 210.056 496.391 210.056C407.645 210.056 380.343 186.713 380.343 110.858C380.343 40.8389 432.296 -0.000117126 496.391 -0.000117126C560.476 -0.000117126 612.435 40.8389 612.435 110.858Z" fill="#C5D3D4"/>
<path d="M496.391 211.98C496.312 211.98 496.233 211.98 496.154 211.98C496.121 211.98 496.081 211.98 496.053 211.98C496.002 211.98 495.952 211.98 495.907 211.98C495.873 211.98 495.839 211.98 495.805 211.98C495.755 211.98 495.71 211.98 495.659 211.98C495.625 211.98 495.586 211.98 495.552 211.98C495.518 211.98 495.468 211.98 495.434 211.98C495.383 211.98 495.338 211.98 495.288 211.98C495.265 211.98 495.243 211.98 495.214 211.98C495.158 211.98 495.102 211.98 495.045 211.98C495.034 211.98 495.017 211.98 495.006 211.98C457.154 211.875 430.64 207.414 412.705 196.322C427.899 199.835 446.476 201.375 469.089 201.375C557.824 201.375 585.126 178.032 585.126 102.186C585.126 56.7566 563.183 23.7081 530.319 6.03377C576.175 17.5632 609.985 53.0465 612.31 106.83C612.321 107.152 612.333 107.479 612.35 107.802V107.821C612.35 107.927 612.355 108.033 612.361 108.139V108.143C612.361 108.249 612.366 108.355 612.366 108.461L612.372 108.471C612.372 108.576 612.378 108.678 612.378 108.779C612.378 108.798 612.378 108.803 612.378 108.822C612.383 109.024 612.389 109.231 612.394 109.438C612.394 109.447 612.394 109.457 612.394 109.471C612.4 109.573 612.4 109.669 612.406 109.77C612.406 109.784 612.406 109.799 612.406 109.813C612.406 109.909 612.406 110.01 612.412 110.111V110.121C612.412 110.222 612.417 110.323 612.417 110.424C612.417 110.443 612.417 110.453 612.417 110.472C612.417 110.573 612.423 110.67 612.423 110.771C612.423 110.78 612.423 110.795 612.423 110.804C612.423 110.901 612.423 111.002 612.428 111.098C612.428 111.107 612.428 111.112 612.428 111.122C612.428 111.218 612.428 111.319 612.428 111.416C612.428 111.44 612.428 111.459 612.428 111.478C612.428 111.574 612.434 111.675 612.434 111.772C612.434 111.786 612.434 111.791 612.434 111.8C612.434 111.897 612.434 111.983 612.434 112.079C612.434 112.094 612.434 112.118 612.434 112.132C612.434 112.229 612.434 112.325 612.434 112.421C612.434 112.44 612.434 112.465 612.434 112.484C612.434 112.58 612.434 112.686 612.434 112.782C612.434 156.292 603.455 182.527 579.041 196.986C560.897 207.736 534.226 211.98 496.391 211.98Z" fill="#9FAAAD"/>
<path d="M496.39 196.698C428.709 196.698 394.37 167.359 394.37 109.496C394.37 62.8197 428.703 39.1497 496.379 39.1497C564.077 39.1545 598.399 62.8197 598.399 109.496C598.399 169.809 566.943 196.698 496.39 196.698Z" fill="#1F2A31"/>
<path d="M496.389 190.861C432.333 190.861 401.197 164.246 401.197 109.495C401.197 66.0916 432.327 44.9815 496.378 44.9815C560.434 44.9863 591.564 66.0964 591.564 109.495C591.564 167.292 563.992 190.861 496.389 190.861Z" fill="#070A0E"/>
<path d="M430.318 140.047C430.318 149.257 431.612 158.25 433.87 166.888C423.011 152.351 416.667 135.201 416.667 116.699C416.667 91.0901 428.68 67.9205 448.129 51.0595C457.626 48.7882 468.479 47.4408 480.627 46.9163C449.84 69.3256 430.318 102.701 430.318 140.047Z" fill="#EAEAE8"/>
</svg>
