<svg width="589" height="698" viewBox="0 0 589 698" fill="none" xmlns="http://www.w3.org/2000/svg">
<path d="M291.375 100.906C277.628 140.948 233.376 162.483 192.537 149.006C151.691 135.525 129.733 92.1441 143.475 52.1106C157.222 12.069 201.475 -9.46245 242.313 4.01482C283.16 17.4921 305.118 60.8729 291.375 100.906Z" fill="#C3242B"/>
<path d="M176.587 11.365C161.555 20.4008 149.553 34.4494 143.479 52.1147C131.62 86.6648 146.372 123.705 176.898 141.865L212.181 152.84C246.708 155.145 279.819 134.575 291.379 100.91C295.852 87.8677 296.537 74.4749 294.013 61.8746C269.339 58.9378 241.23 50.4169 231.525 38.2873C220.113 24.0296 196.981 14.853 176.587 11.365Z" fill="#F1482B"/>
<path d="M143.475 52.1106C129.733 92.1441 151.691 135.525 192.537 149.006C233.376 162.483 277.628 140.948 291.375 100.906C294.428 92.0074 295.716 82.9433 295.417 74.0845C278.494 66.9919 258.678 62.8683 243.396 66.7948C221.024 72.5437 171.749 48.4898 154.854 30.7843C150.053 37.0925 146.18 44.2415 143.475 52.1106Z" fill="#8F0D0D"/>
<path d="M192.535 149.006C220.681 158.295 250.452 150.953 270.732 132.374C254.773 126.32 236.865 123.129 222.811 126.742C203.413 131.727 163.773 114.299 142.566 98.0336C149.514 121.174 167.45 140.726 192.535 149.006Z" fill="#EE4323"/>
<path d="M334.117 117.303C330.034 129.199 307.243 133.427 275.568 130.185C274.813 130.112 274.058 130.036 273.298 129.935C264.989 129.022 256.092 127.578 246.782 125.671C233.363 122.891 219.079 119.081 204.474 114.257C189.87 109.442 176.143 104.007 163.742 98.2698C155.15 94.2789 147.172 90.1432 139.991 85.9471C139.331 85.573 138.678 85.1868 138.026 84.8006C110.803 68.6037 95.2586 51.7229 99.3416 39.8267C103.425 27.9225 126.261 23.6943 157.985 26.957C156.565 28.5823 155.211 30.288 153.927 32.038C146.881 33.4823 142.248 36.2382 140.837 40.3498C139.712 43.6125 140.771 47.4464 143.668 51.566C144.205 52.3465 144.825 53.123 145.49 53.9155C149.421 58.6386 155.568 63.6472 163.348 68.6238C176.016 76.69 193.074 84.6437 212.447 91.0364C231.84 97.433 250.331 101.207 265.387 102.269C274.669 102.937 282.63 102.599 288.666 101.17C289.692 100.925 290.665 100.672 291.572 100.382C296.418 98.8049 299.606 96.379 300.731 93.1163C302.138 89.0007 300.148 84.0603 295.445 78.7338C295.499 76.5855 295.47 74.4412 295.359 72.313C322.652 88.5018 338.204 105.403 334.117 117.303Z" fill="#284FA9"/>
<path d="M159.833 91.7559H138.721V60.9329H159.833V65.0524H145.783V73.2915H156.817V77.411H145.783V87.6363H159.833V91.7559ZM178.054 87.6363C180.065 87.6363 181.07 86.9497 181.07 85.5765V74.8363C180.972 73.5122 179.967 72.8501 178.054 72.8501H175.111C173.101 72.8501 172.095 73.5367 172.095 74.9099V85.5765C172.095 86.9497 173.101 87.6363 175.111 87.6363H178.054ZM165.033 74.1742C165.033 72.5559 165.867 71.2562 167.534 70.2754C169.251 69.2455 171.311 68.7306 173.714 68.7306H177.76C178.888 68.7306 179.672 68.8532 180.114 69.0984L181.07 69.5398V61.7421H188.132V91.7559H181.07V91.0938C179.991 91.5352 178.79 91.7559 177.465 91.7559H173.714C169.937 91.7559 167.289 90.7015 165.769 88.5926C165.278 87.9061 165.033 87.1459 165.033 86.3122V74.1742ZM205.807 87.6363C207.769 87.6363 208.75 86.9497 208.75 85.5765V74.8363C208.75 73.4631 207.769 72.7765 205.807 72.7765H203.674C201.663 72.7765 200.658 73.4631 200.658 74.8363V85.5765C200.658 86.9497 201.663 87.6363 203.674 87.6363H205.807ZM193.596 74.1742C193.596 72.5068 194.429 71.1827 196.097 70.2018C197.813 69.172 199.873 68.657 202.276 68.657H207.205C209.559 68.657 211.545 69.1474 213.164 70.1283C214.929 71.1091 215.812 72.4578 215.812 74.1742V86.2386C215.812 87.9551 214.929 89.3038 213.164 90.2846C211.545 91.2654 209.559 91.7559 207.205 91.7559H202.276C198.5 91.7559 195.852 90.7015 194.331 88.5926C193.841 87.9061 193.596 87.1214 193.596 86.2386V74.1742ZM228.158 70.4961C229.335 69.3191 231.1 68.7306 233.454 68.7306H234.705V72.8501H232.866C230.855 72.8501 229.433 73.4631 228.599 74.6892C228.305 75.0815 228.158 75.5229 228.158 76.0133V91.7559H221.096V68.7306H228.158V70.4961ZM250.245 87.6363C252.206 87.6363 253.187 86.9497 253.187 85.5765V74.8363C253.187 73.4631 252.206 72.7765 250.245 72.7765H248.111C246.101 72.7765 245.095 73.4631 245.095 74.8363V85.5765C245.095 86.9497 246.101 87.6363 248.111 87.6363H250.245ZM238.033 74.1742C238.033 72.5068 238.867 71.1827 240.534 70.2018C242.251 69.172 244.311 68.657 246.714 68.657H251.642C253.996 68.657 255.983 69.1474 257.601 70.1283C259.367 71.1091 260.249 72.4578 260.249 74.1742V86.2386C260.249 87.9551 259.367 89.3038 257.601 90.2846C255.983 91.2654 253.996 91.7559 251.642 91.7559H246.714C242.937 91.7559 240.289 90.7015 238.769 88.5926C238.278 87.9061 238.033 87.1214 238.033 86.2386V74.1742ZM266.122 91.7559V62.257H273.184V91.7559H266.122ZM286.728 62.5513V66.6708H279.666V62.5513H286.728ZM279.666 68.7306H286.728V91.7559H279.666V68.7306Z" fill="#F6F6F6"/>
<path d="M343.714 547.378C340.808 541.58 337.839 536.817 334.766 532.886C334.784 532.875 334.803 532.855 334.821 532.839C378.473 494.296 427.696 415.528 411.763 342.927C409.439 332.209 402.84 323.032 394.145 316.857C402.493 318.555 410.239 322.637 416.386 328.418C422.627 334.283 427.219 341.89 429.121 350.503C446.101 427.792 389.163 512.064 343.714 547.378Z" fill="#9FAAAD"/>
<path d="M411.473 403.186L367.555 397.88L370.481 374.715L414.394 380.015L411.473 403.186Z" fill="#DC3E21"/>
<path d="M430.438 379.821C397.983 484.574 223.458 528.855 229.127 486.246C234.257 447.728 322.197 449.144 350.463 357.917C356.835 337.385 382.918 323.741 403.85 329.967C424.782 336.209 436.805 359.289 430.438 379.821Z" fill="#A3B7BC"/>
<path d="M263.817 471.667C260.691 467.548 257.413 464.783 253.978 462.967C250.536 458.777 243.609 454.629 236.101 452.394C224.587 448.967 213.843 450.767 212.096 456.436C210.874 460.348 214.363 465.057 220.416 468.741C205.914 475.586 187.149 485.133 198.441 505.887C209.191 525.601 238.215 516.745 252.095 509.478C257.02 506.898 264.626 503.074 268.312 499.657C268.061 488.516 274.705 486.036 263.817 471.667Z" fill="#A3B7BC"/>
<path d="M268.903 504.241L268.714 504.237C266.822 504.137 265.359 502.541 265.461 500.679C266.627 479.245 260.68 470.126 249.99 461.615C248.508 460.439 248.295 458.31 249.492 456.862C250.693 455.419 252.859 455.195 254.335 456.37C266.438 465.996 273.671 476.842 272.35 501.032C272.247 502.843 270.724 504.241 268.903 504.241Z" fill="#EE4323"/>
<path d="M221.262 517.888C211.986 517.888 203.345 514.822 198.467 505.865L197.98 504.851C202.739 508.63 208.79 510.063 215.139 510.063C226.287 510.063 238.346 505.637 245.889 501.674C249.888 499.58 255.547 496.676 259.542 493.832C261.478 493.632 263.475 493.353 265.54 492.957C265.549 492.957 265.558 492.957 265.566 492.957C265.651 495.343 265.618 497.906 265.467 500.681C265.447 501.039 265.485 501.378 265.571 501.707C261.574 504.529 256.013 507.354 252.098 509.449C244.528 513.44 232.432 517.888 221.262 517.888Z" fill="#85969A"/>
<path d="M329.578 312.778C302.004 333.049 281.32 387.122 281.32 481.742C281.32 530.941 308.902 697.999 329.578 697.999C350.266 697.999 453.652 535.8 453.657 488.498C453.657 454.696 471.298 423.339 460.559 360.086C453.657 319.539 439.877 312.767 432.981 299.257C419.195 306.017 344.541 316.44 329.578 312.778Z" fill="#A3B7BC"/>
<path d="M307.387 651.01C314.675 678.559 322.526 697.999 329.581 697.999C336.295 697.999 351.735 680.861 369.5 656.176C360.171 650.085 332.599 644.979 307.387 651.01Z" fill="#1F2A31"/>
<path d="M369.508 659.646C368.803 659.646 368.087 659.422 367.473 658.972C359.4 653.113 334.199 647.971 309.737 653.955C307.872 654.424 306.019 653.316 305.558 651.504C305.092 649.693 306.223 647.858 308.065 647.411C336.137 640.533 362.567 647 371.572 653.544C373.101 654.663 373.419 656.771 372.288 658.264C371.617 659.172 370.577 659.646 369.508 659.646Z" fill="#DC3E21"/>
<path d="M329.581 697.999C329.569 697.999 329.552 697.999 329.541 697.999C329.535 697.999 329.535 697.999 329.535 697.999C329.529 697.999 329.529 697.999 329.524 697.999C329.512 697.999 329.507 697.999 329.495 697.999C329.49 697.999 329.484 697.999 329.478 697.999C329.467 697.999 329.461 697.999 329.45 697.999C329.444 697.999 329.438 697.999 329.433 697.999C329.421 697.999 329.416 697.999 329.404 697.999C329.399 697.999 329.393 697.999 329.387 697.999C329.382 697.992 329.37 697.992 329.365 697.992C329.359 697.992 329.347 697.992 329.342 697.992C329.336 697.992 329.325 697.992 329.319 697.992C329.313 697.992 329.308 697.992 329.302 697.992C329.302 697.992 329.302 697.992 329.296 697.992C329.291 697.988 329.279 697.988 329.274 697.988H329.268C329.262 697.988 329.257 697.988 329.257 697.988C329.245 697.988 329.239 697.988 329.228 697.988C329.222 697.981 329.222 697.981 329.217 697.981H329.211C329.194 697.981 329.183 697.981 329.171 697.977C329.166 697.977 329.16 697.977 329.16 697.977C329.149 697.977 329.137 697.977 329.126 697.977C329.12 697.971 329.114 697.971 329.103 697.971C329.097 697.971 329.086 697.971 329.08 697.971C329.075 697.966 329.069 697.966 329.069 697.966H329.063C329.063 697.966 329.063 697.966 329.058 697.966C329.052 697.966 329.046 697.966 329.035 697.966C329.029 697.959 329.023 697.959 329.018 697.959C329.006 697.959 329.001 697.959 328.989 697.956C328.984 697.956 328.978 697.956 328.972 697.956C328.961 697.956 328.955 697.949 328.944 697.949C328.938 697.949 328.932 697.949 328.927 697.949C328.921 697.942 328.91 697.942 328.898 697.942C328.893 697.938 328.887 697.938 328.887 697.938C328.876 697.938 328.864 697.932 328.853 697.932C328.847 697.932 328.847 697.932 328.841 697.932C325.135 697.23 321.252 691.357 317.312 681.918C324.208 675.158 332.827 664.626 342.269 651.778C342.275 651.772 342.281 651.761 342.286 651.757C353.793 652.865 363.122 655.812 367.476 658.974C350.74 681.908 336.334 697.677 329.785 697.999C329.78 697.999 329.78 697.999 329.78 697.999C329.768 697.999 329.757 697.999 329.745 697.999H329.74C329.728 697.999 329.717 697.999 329.706 697.999C329.7 697.999 329.7 697.999 329.7 697.999C329.689 697.999 329.677 697.999 329.666 697.999H329.66H329.654C329.649 697.999 329.637 697.999 329.632 697.999C329.626 697.999 329.626 697.999 329.62 697.999C329.603 697.999 329.592 697.999 329.581 697.999Z" fill="#1E272B"/>
<path d="M369.489 659.619C368.909 659.619 368.33 659.469 367.79 659.184C367.687 659.123 367.585 659.056 367.483 658.984C367.477 658.984 367.477 658.977 367.471 658.973C363.117 655.811 353.788 652.864 342.281 651.756C343.793 649.731 345.3 647.575 346.807 645.425C355.743 646.661 363.179 648.958 368.142 651.481C368.722 652.278 369.302 653.075 369.876 653.861C369.83 653.896 369.785 653.935 369.74 653.968C368.25 655.143 368.011 657.272 369.199 658.722C369.489 659.066 369.83 659.345 370.2 659.547C369.973 659.591 369.734 659.619 369.489 659.619Z" fill="#B03720"/>
<path d="M329.578 312.778C302.004 333.049 281.32 387.122 281.32 481.742C281.32 530.941 391.623 697.999 412.294 697.999C432.981 697.999 453.652 535.8 453.657 488.498C453.657 454.696 471.298 423.339 460.559 360.086C453.657 319.539 439.877 312.767 432.981 299.257C419.195 306.017 344.541 316.44 329.578 312.778Z" fill="#C5D3D4"/>
<path d="M371.664 656.259C389.998 680.989 405.705 697.999 412.294 697.999C419.508 697.999 426.7 678.313 433.022 650.681C407.371 644.711 380.322 650.039 371.664 656.259Z" fill="#1F2A31"/>
<path d="M371.899 659.984C370.893 659.984 369.892 659.555 369.204 658.726C368.016 657.276 368.255 655.147 369.745 653.971C378.795 646.865 406.105 640.617 433.819 647.416C435.661 647.862 436.793 649.697 436.327 651.509C435.86 653.32 433.996 654.421 432.148 653.96C406.049 647.572 380.836 653.91 374.048 659.244C373.423 659.751 372.655 659.984 371.899 659.984Z" fill="#EE4323"/>
<path d="M412.292 697.999C412.281 697.999 412.269 697.999 412.252 697.999C412.252 697.999 412.252 697.999 412.247 697.999H412.241C412.23 697.999 412.218 697.999 412.207 697.999C412.207 697.999 412.201 697.999 412.195 697.999C412.184 697.999 412.173 697.999 412.161 697.999C412.161 697.999 412.156 697.999 412.15 697.999C412.139 697.999 412.127 697.999 412.116 697.999H412.11C409.62 697.881 405.891 695.458 401.263 691.211C401.252 691.199 401.241 691.189 401.229 691.182C401.229 691.178 401.229 691.178 401.229 691.178C398.62 688.774 395.72 685.794 392.594 682.31C395.34 673.737 397.96 663.261 400.376 651.7C400.376 651.696 400.376 651.689 400.376 651.682C403.264 651.421 406.289 651.278 409.421 651.278C416.601 651.278 424.333 652.046 432.144 653.958C432.178 653.969 432.218 653.975 432.252 653.986C428.989 667.741 425.515 679.31 421.934 687.131C418.818 693.901 415.635 697.866 412.457 697.999H412.451C412.44 697.999 412.428 697.999 412.417 697.999C412.411 697.999 412.411 697.999 412.406 697.999C412.394 697.999 412.389 697.999 412.377 697.999H412.372C412.366 697.999 412.366 697.999 412.36 697.999C412.355 697.999 412.343 697.999 412.338 697.999C412.332 697.999 412.332 697.999 412.332 697.999C412.32 697.999 412.309 697.999 412.292 697.999Z" fill="#1E272B"/>
<path d="M433.772 647.402C425.369 645.347 417.007 644.49 409.179 644.49C406.666 644.49 404.21 644.577 401.828 644.744C412.101 593.654 419.394 524.85 419.394 496.741C419.394 494.196 419.497 491.659 419.679 489.123C435.864 488.198 448.462 486.972 453.709 485.343C453.68 486.197 453.669 487.05 453.663 487.902C453.658 488.102 453.658 488.298 453.658 488.498C453.658 503.346 451.617 529.52 448.183 558.44C446.87 569.513 445.346 580.985 443.658 592.382C440.787 611.728 437.421 630.85 433.738 647.381H433.772C433.772 647.392 433.772 647.392 433.772 647.402ZM420.332 482.357C420.452 481.398 420.577 480.445 420.708 479.487C432.174 478.344 443.629 476.347 454.709 473.232C454.488 474.954 454.3 476.676 454.141 478.394C453.987 478.372 453.822 478.361 453.663 478.361C453.146 478.361 452.623 478.472 452.128 478.716C449.11 480.195 437.41 481.403 420.332 482.357ZM423.021 465.497C425.551 451.624 428.633 436.52 429.519 418.15C433.692 398.983 434.443 379.264 430.224 360.019C428.49 352.077 424.261 345.071 418.519 339.67C413.761 328.122 408.366 321.64 403.903 315.587C415.324 313.124 426.137 309.423 435.972 304.251C438.763 308.364 442.111 312.316 445.522 317.566C447.262 326.935 451.418 350.823 454.044 378.044C456.943 408.09 456.563 439.307 455.858 458.697C445.295 462.041 434.204 464.21 423.021 465.497ZM320.477 321.022C322.188 319.188 323.927 317.482 325.69 315.933C331.375 317.159 337.361 318.051 343.637 318.642C335.581 319.656 327.623 320.487 320.477 321.022Z" fill="#9FAAAD"/>
<path d="M488.128 204.641C488.123 292.496 428.778 319.544 364.049 319.538C295.119 319.533 253.754 292.496 253.754 204.641C253.754 141.187 295.119 76.2342 364.049 76.2342C467.441 76.2342 488.128 141.187 488.128 204.641Z" fill="#C5D3D4"/>
<path d="M364.064 319.538C364.058 319.538 364.053 319.538 364.047 319.538C363.945 319.538 363.842 319.538 363.74 319.538C363.695 319.538 363.655 319.538 363.609 319.538C363.535 319.538 363.456 319.538 363.382 319.538C363.336 319.538 363.285 319.538 363.24 319.538C363.16 319.538 363.081 319.538 363.001 319.538C362.95 319.538 362.904 319.538 362.859 319.538C362.768 319.533 362.683 319.533 362.592 319.533C362.563 319.533 362.535 319.533 362.501 319.533C362.393 319.533 362.285 319.533 362.177 319.533H362.171C330.961 319.298 305.6 313.262 287.227 298.454C300.517 302.121 315.583 303.754 332.325 303.754C332.331 303.754 332.331 303.754 332.342 303.754C397.042 303.754 456.399 276.712 456.399 188.868C456.405 148.516 447.991 107.596 415.325 83.1173C473.96 101.209 487.802 152.284 488.121 202.841C488.121 202.841 488.121 202.847 488.121 202.852C488.121 202.98 488.121 203.108 488.121 203.237C488.121 203.264 488.121 203.287 488.121 203.315C488.121 203.331 488.121 203.359 488.121 203.376C488.121 203.415 488.121 203.448 488.121 203.487C488.126 203.515 488.126 203.532 488.126 203.56C488.126 203.593 488.126 203.632 488.126 203.666C488.126 203.683 488.126 203.705 488.126 203.727C488.126 203.777 488.126 203.827 488.126 203.878C488.126 203.894 488.126 203.917 488.126 203.933C488.126 203.978 488.126 204.022 488.126 204.073C488.126 204.084 488.126 204.095 488.126 204.112C488.126 204.151 488.126 204.195 488.126 204.24C488.126 204.262 488.126 204.279 488.126 204.301C488.126 204.335 488.126 204.379 488.126 204.413C488.126 204.429 488.126 204.452 488.126 204.474C488.126 204.524 488.126 204.585 488.126 204.641C488.121 239.62 478.718 264.957 463.306 282.787C461.14 285.295 458.855 287.658 456.456 289.871C454.915 290.941 453.46 292.206 452.135 293.627C447.132 297.701 441.72 301.224 435.973 304.25C426.138 309.422 415.325 313.123 403.904 315.587C391.221 318.323 377.782 319.538 364.104 319.538C364.093 319.538 364.076 319.538 364.064 319.538Z" fill="#9FAAAD"/>
<path d="M391.627 210.26V214.78C391.627 259.785 391.627 302.3 297.734 305.744C269.465 289.871 253.754 258.849 253.754 204.647C253.754 172.94 264.031 141.054 282.911 116.848C284.639 116.787 286.429 116.787 288.221 116.787C329.382 116.787 357.159 124.356 373.088 139.973C391.763 158.348 391.689 184.767 391.627 210.26Z" fill="#1F2A31"/>
<path d="M384.728 214.779C384.728 260.938 384.995 298.52 288.218 299.256C267.541 299.256 246.855 252.221 246.855 204.646C246.855 175.865 260.644 130.302 277.95 123.681C281.261 123.614 284.707 123.552 288.218 123.552C388.173 123.552 384.728 168.151 384.728 214.779Z" fill="#070A0E"/>
<path d="M311.728 124.486C284.43 161.594 268.159 206.939 267.604 256.014C263.058 241.946 260.645 226.942 260.645 211.398C260.645 178.481 271.537 148.139 289.94 123.549C297.876 123.61 305.111 123.878 311.728 124.486Z" fill="#EAEAE8"/>
<path d="M405.41 162.026C405.41 157.64 409.947 156.046 415.478 158.476L431.658 165.566C437.189 168.007 441.726 173.586 441.726 177.966V225.77C441.726 230.14 437.189 235.724 431.658 238.154L415.478 245.255C409.947 247.685 405.41 246.085 405.41 241.699V162.026Z" fill="#839CA6"/>
<path d="M281.321 491.881C279.426 491.881 277.879 490.355 277.879 488.498C277.879 486.626 279.426 485.121 281.321 485.121C357.304 485.121 443.14 483.12 452.128 478.716C453.834 477.88 455.903 478.561 456.745 480.222C457.603 481.899 456.904 483.928 455.21 484.771C441.395 491.535 307.941 491.881 281.321 491.881Z" fill="#EE4323"/>
<path d="M519.159 309.069C519.568 313.238 516.839 316.905 513.036 317.262L506.186 317.919C502.4 318.282 498.994 315.188 498.574 311.008L493.349 258.099C492.94 253.925 495.68 250.241 499.472 249.89L506.328 249.249C510.12 248.887 513.536 251.969 513.934 256.149L519.159 309.069Z" fill="#B0B2B1"/>
<path d="M510.437 282.018L507.64 253.677C507.48 251.949 506.713 250.494 505.695 249.301L506.326 249.246C506.525 249.223 506.724 249.218 506.923 249.218H506.929C506.94 249.218 506.957 249.218 506.969 249.218C510.363 249.24 513.319 251.977 513.876 255.689C513.899 255.839 513.916 255.995 513.933 256.146L516.428 281.449L510.437 282.018Z" fill="#909292"/>
<path d="M588.959 455.027C589.374 459.207 586.628 462.876 582.842 463.233L541.678 467.134C537.897 467.502 534.481 464.408 534.066 460.222L526.607 384.641C526.198 380.466 528.938 376.788 532.735 376.437L573.894 372.53C577.692 372.162 581.086 375.261 581.501 379.447L588.959 455.027Z" fill="#B0B2B1"/>
<path d="M558.091 465.579L558.051 465.178L573.07 463.757C576.868 463.395 579.602 459.727 579.187 455.542L571.746 379.955C571.41 376.639 569.182 374.003 566.374 373.245L567.039 373.183V373.189L573.895 372.531C573.917 372.531 573.934 372.526 573.957 372.526C574.139 372.509 574.321 372.503 574.503 372.503C574.509 372.503 574.514 372.503 574.52 372.503C578.062 372.515 581.109 375.496 581.501 379.448L588.96 455.029C588.988 455.303 589 455.581 589 455.854C589.005 459.677 586.379 462.899 582.843 463.234L558.091 465.579Z" fill="#909292"/>
<path d="M558.341 468.216C559.575 480.735 551.366 491.764 540.002 492.847L486.632 497.906C475.268 498.984 456.092 490.567 454.864 478.044C454.864 478.044 458.713 426.522 454.04 378.044C450.646 342.921 444.717 313.348 444.717 313.348C443.483 300.819 454.392 287.342 465.762 286.255L519.121 281.194C530.502 280.124 540.718 289.399 541.946 301.928L558.341 468.216Z" fill="#B0B2B1"/>
<path d="M524.799 396.376C525.902 407.528 517.579 417.438 506.215 418.519C494.833 419.583 484.726 411.429 483.634 400.277C482.525 389.136 490.865 379.232 502.229 378.156C513.588 377.069 523.707 385.229 524.799 396.376Z" fill="#2A387C"/>
<path d="M477.102 409.34L522.808 376.2L498.397 426.522L496.527 407.489L477.102 409.34Z" fill="#DC3E21"/>
<path d="M523.805 356.224L475.779 360.771L473.789 340.579L521.821 336.031L523.805 356.224Z" fill="#191A1B"/>
<path d="M539.629 446.377C540.181 451.951 536.019 456.905 530.334 457.434C524.65 457.981 519.601 453.907 519.044 448.333C518.498 442.749 522.66 437.805 528.345 437.276C534.03 436.718 539.084 440.804 539.629 446.377Z" fill="#191A1B"/>
<path d="M484.612 497.995C477.585 497.995 468.455 494.943 462.156 489.863C465.914 491.117 469.717 491.814 473.049 491.814C473.742 491.814 474.413 491.788 475.055 491.725L528.42 486.665C539.784 485.59 547.993 474.56 546.759 462.031L530.358 295.752C529.801 290.028 527.3 285.051 523.747 281.367C533.138 282.794 540.881 291.137 541.944 301.927L558.34 468.216C558.425 469.048 558.465 469.873 558.465 470.685C558.47 482.156 550.608 491.838 540 492.846L486.63 497.906C485.982 497.969 485.305 497.995 484.612 497.995Z" fill="#909292"/>
<path d="M312.725 460.412C313.277 465.986 309.104 470.948 303.431 471.494C297.741 472.028 292.691 467.948 292.143 462.374C291.59 456.796 295.747 451.836 301.441 451.301C307.126 450.766 312.174 454.846 312.725 460.412Z" fill="#191A1B"/>
<path d="M403.902 480.578C404.982 478.791 406.046 476.973 407.086 475.144C435.42 473.489 464.362 467.076 488.267 451.803C490.529 450.36 491.575 447.813 491.28 445.344C492.314 445.868 493.258 446.548 493.946 447.568C494.696 448.705 495.055 449.981 495.06 451.241C495.06 453.453 493.963 455.622 491.934 456.915C489.711 458.341 487.442 459.684 485.134 460.956C475.697 466.155 465.612 470.128 455.186 473.1C455.027 473.143 454.868 473.189 454.709 473.232C443.629 476.348 432.174 478.344 420.707 479.487C415.096 480.045 409.479 480.395 403.902 480.578Z" fill="#5A717B"/>
<path d="M326.781 473.857C319.63 472.486 313.348 471.081 308.175 469.827C305.304 469.131 302.773 468.484 300.63 467.912C297.812 467.165 295.917 464.811 295.613 462.142L296.954 462.8C304.019 464.683 315.298 467.415 329.232 469.873C328.424 471.221 327.606 472.547 326.781 473.857Z" fill="#5A717B"/>
<path d="M359.449 321.32C342.605 321.32 329.302 319.994 325.101 319.247C323.231 318.924 321.969 317.168 322.31 315.323C322.639 313.501 324.413 312.236 326.312 312.603C336.204 314.326 398.152 319.57 434.382 301.234C436.082 300.381 438.157 301.039 439.033 302.688C439.903 304.344 439.249 306.389 437.549 307.236C415.19 318.561 383.656 321.32 359.449 321.32Z" fill="#1F2A31"/>
<path d="M326.335 342.317L324.896 362.521L298.012 360.765C300.632 353.469 303.527 346.837 306.631 341.029L326.335 342.317Z" fill="#2A387C"/>
<path d="M290.658 517.559C289.672 515.096 288.753 512.699 287.906 510.363C288.477 510.345 289.045 510.335 289.609 510.335C292.661 510.335 295.608 510.631 298.284 511.142C298.144 510.598 298.011 509.991 298.217 509.377C298.619 507.844 300.003 506.836 301.539 506.836C301.83 506.836 302.125 506.875 302.423 506.947L303.389 507.287C306.76 502.377 310.575 497.233 314.543 491.748C318.397 491.72 322.456 491.681 326.652 491.635C322.559 498.537 318.557 504.929 315.129 510.953C314.81 510.898 314.492 510.842 314.174 510.787C313.952 510.742 313.741 510.727 313.525 510.727C311.877 510.727 310.467 511.885 310.183 513.513C310.075 514.086 310.126 514.65 310.296 515.168C308.943 515.022 307.528 514.957 306.067 514.957C302.895 514.957 299.534 515.29 296.245 515.982C294.282 516.4 292.41 516.929 290.658 517.559ZM319.381 484.954C321.86 481.409 324.349 477.719 326.783 473.857C329.619 474.403 332.598 474.943 335.697 475.468C334.037 478.694 332.326 481.817 330.609 484.842C326.885 484.886 323.133 484.921 319.381 484.954Z" fill="#9FAAAD"/>
<path d="M351.918 541C350.127 542.354 348.405 543.711 346.682 544.865L346.404 544.997C327.655 558.167 311.868 561.143 306.899 548.916C302.903 538.977 305.87 528.645 311.8 517.019H311.868C312.146 516.477 312.345 515.998 312.624 515.458C313.454 513.982 314.278 512.554 315.108 510.999C323.863 495.59 336.404 477.755 344.607 455.382C344.96 454.44 345.369 453.42 345.71 452.405C346.131 451.057 346.614 449.702 347.023 448.348C347.37 447.194 347.717 446.119 347.996 444.97C348.337 443.822 348.609 442.669 348.882 441.526C349.229 440.439 349.434 439.352 349.65 438.21C353.572 421.122 354.397 401.587 349.434 378.942C344.823 357.991 360.878 333.601 382.247 329.132C403.685 324.606 425.612 339.069 430.228 360.02C445.805 431.048 393.623 508.496 351.918 541Z" fill="#C5D3D4"/>
<path d="M330.029 519.629C325.265 517.521 321.03 516.668 317.118 516.707C312.042 514.702 303.935 514.362 296.245 515.985C284.487 518.475 275.99 525.157 277.263 530.943C278.142 534.945 283.534 537.407 290.647 537.743C281.358 550.629 269.677 567.907 289.836 580.662C308.978 592.785 329.972 571.223 338.516 558.264C341.535 553.671 346.305 546.704 347.834 541.977C342.087 532.348 346.669 527.018 330.029 519.629Z" fill="#C5D3D4"/>
<path d="M301.82 584.235C298.855 584.235 295.861 583.645 292.895 582.313C291.871 581.855 290.849 581.305 289.832 580.662C289.499 580.452 289.173 580.24 288.855 580.022C287.541 579.09 286.395 578.161 285.391 577.229C285.586 577.236 285.782 577.242 285.977 577.242C301.275 577.242 315.881 561.623 322.617 551.286C325.096 547.561 328.609 542.356 330.678 537.964C333.225 536.203 335.778 534.253 338.393 532.091C338.41 532.079 338.421 532.069 338.433 532.058C340.951 535.324 343.396 539.314 345.835 544.224C345.994 544.548 346.21 544.842 346.454 545.088C345.238 547.668 343.549 550.5 341.872 553.135C340.684 554.992 339.502 556.76 338.512 558.264C334.885 563.763 329.013 570.815 321.998 576.182C316.534 580.351 310.383 583.506 304.045 584.124C303.306 584.196 302.563 584.235 301.82 584.235Z" fill="#9FAAAD"/>
<path d="M177.577 572.975C177.577 615.897 122.429 697.999 101.752 697.999C81.0666 697.999 67.2852 615.897 67.2852 572.975C67.2852 530.059 92.0283 495.253 122.429 495.253C134.84 495.253 146.281 501.066 155.517 510.798C165.517 521.348 172.887 536.614 175.996 554.243C177.027 560.263 177.577 566.543 177.577 572.975Z" fill="#4B8F33"/>
<path d="M177.577 572.975C177.577 615.897 163.789 697.999 143.113 697.999C122.429 697.999 67.2852 615.897 67.2852 572.975C67.2852 530.059 92.0283 495.253 122.429 495.253C134.354 495.253 145.311 500.591 154.347 509.644C164.618 519.848 172.27 534.993 175.647 552.499C176.882 559.052 177.577 565.875 177.577 572.975Z" fill="#6BBD41"/>
<path d="M219.058 491.63C217.715 504.617 213.553 514.854 209.758 514.481C205.969 514.092 203.995 503.256 205.332 490.259C206.684 477.268 210.844 467.029 214.621 467.403C218.41 467.793 220.397 478.633 219.058 491.63Z" fill="#6BBD41"/>
<path d="M124.075 522.279C172.302 523.873 222.84 469.209 239.657 474.989C260.23 482.056 184.223 578.36 122.216 576.316C106.998 575.819 95.0731 563.307 95.5904 548.385C96.0992 533.465 108.852 521.771 124.075 522.279Z" fill="#6BBD41"/>
<path d="M127.852 561.589C112.641 561.088 100.711 548.581 101.226 533.655L101.344 532.858C97.9355 537.188 95.7928 542.522 95.5904 548.385C95.0731 563.307 106.998 575.819 122.216 576.316C176.25 578.098 240.894 505.208 243.004 481.756C225.895 512.096 173.161 563.079 127.852 561.589Z" fill="#4B8F33"/>
<path d="M141.214 356.809C173.527 388.478 202.769 458.948 170.458 490.61C138.16 522.296 56.5304 503.174 24.2332 471.506C-8.07772 439.831 -8.07772 388.478 24.2332 356.809C56.5304 325.146 108.914 325.146 141.214 356.809Z" fill="#6BBD41"/>
<path d="M34.7099 459.891C5.52404 431.276 2.79926 386.638 26.3627 354.92C25.6652 355.566 24.9148 356.129 24.2332 356.809C-8.07772 388.478 -8.07772 439.831 24.2332 471.506C56.5304 503.174 138.16 522.296 170.458 490.61C173.039 488.092 175.09 485.25 176.911 482.267C142.358 509.066 65.7798 490.355 34.7099 459.891Z" fill="#4B8F33"/>
<path d="M150.501 400.181C169.339 418.657 162.682 455.142 162.682 455.142C162.682 455.142 125.47 461.667 106.627 443.203C87.7872 424.716 94.4471 388.232 94.4471 388.232C94.4471 388.232 131.657 381.722 150.501 400.181Z" fill="#191A1B"/>
<path d="M151.165 414.569C156.877 420.159 154.241 431.824 154.241 431.824C154.241 431.824 142.349 434.404 136.642 428.809C130.939 423.213 133.564 411.559 133.564 411.559C133.564 411.559 145.456 408.973 151.165 414.569Z" fill="#2E3492"/>
<path d="M44.3408 383.67C49.0064 388.53 49.8722 395.152 46.2816 398.484C42.6751 401.812 35.9777 400.563 31.299 395.709C26.6351 390.849 25.7579 384.216 29.3621 380.895C32.9687 377.562 39.6684 378.805 44.3408 383.67Z" fill="#30682D"/>
<path d="M135.352 538.074C138.563 541.424 139.243 545.905 136.884 548.101C134.508 550.281 129.985 549.345 126.762 546.001C123.552 542.65 122.872 538.17 125.239 535.984C127.607 533.783 132.13 534.725 135.352 538.074Z" fill="#30682D"/>
<path d="M60.0223 374.082C63.2331 377.443 63.9108 381.913 61.5453 384.109C59.1758 386.299 54.6523 385.363 51.4301 382.024C48.2169 378.669 47.5376 374.183 49.898 372.003C52.2743 369.813 56.7955 370.749 60.0223 374.082Z" fill="#30682D"/>
<path d="M41.0922 367.776C43.5214 370.323 44.0279 373.717 42.2178 375.389C40.4106 377.056 36.9797 376.365 34.5477 373.829C32.1162 371.298 31.6211 367.904 33.4221 366.227C35.2253 364.566 38.663 365.262 41.0922 367.776Z" fill="#30682D"/>
<path d="M120.223 533.525C122.655 536.068 123.159 539.462 121.36 541.128C119.555 542.8 116.117 542.103 113.681 539.573C111.254 537.037 110.752 533.643 112.553 531.966C114.37 530.299 117.8 531.002 120.223 533.525Z" fill="#30682D"/>
<path d="M121.77 405.915C134.216 408.98 144.845 414.938 152.706 422.451C151.46 412.809 142.391 403.73 129.555 400.57C120.122 398.251 110.933 399.706 104.406 403.774C110.049 403.786 115.882 404.471 121.77 405.915Z" fill="#EAEAE8"/>
<path d="M334.728 461.595C331.826 461.139 329.023 460.671 326.332 460.196C338.765 436.674 347.497 407.711 342.523 369.853C342.213 367.519 342.133 365.172 342.263 362.825C342.306 365.336 342.585 367.841 343.125 370.297C348.538 394.998 347.639 416.307 343.36 434.947C343.125 436.194 342.902 437.379 342.523 438.565C342.226 439.811 341.928 441.069 341.556 442.322C341.252 443.574 340.874 444.748 340.496 446.006C340.049 447.483 339.522 448.961 339.063 450.432C338.691 451.539 338.245 452.651 337.86 453.679C336.868 456.377 335.826 459.015 334.728 461.595Z" fill="#9FAAAD"/>
<path d="M373.211 457.517C372.157 457.134 363.587 453.973 355.091 450.726C349.603 448.963 344.109 447.114 340.5 446.008C340.878 444.75 341.257 443.576 341.56 442.324C344.94 443.795 350.422 446.312 355.922 448.817C364.04 452.866 372.238 457.067 373.211 457.517Z" fill="#9FAAAD"/>
<path d="M367.198 440.7L342.523 438.566C342.902 437.381 343.125 436.195 343.361 434.949L367.198 440.7Z" fill="#9FAAAD"/>
<path d="M355.309 464.363C354.181 463.561 349.449 460.314 344.247 457.583C342.002 456.336 339.732 454.933 337.859 453.681C338.244 452.653 338.69 451.541 339.062 450.434C340.792 451.979 342.975 453.974 345.45 455.821C350.125 459.279 354.336 463.343 355.309 464.363Z" fill="#9FAAAD"/>
<path d="M345.79 546.981C342.882 541.17 339.912 536.397 336.836 532.457C336.855 532.445 336.873 532.426 336.892 532.409C380.573 493.778 429.829 414.83 413.885 342.063C411.56 331.321 404.956 322.122 396.256 315.933C404.608 317.636 412.36 321.727 418.512 327.521C424.756 333.4 429.351 341.024 431.255 349.657C448.246 427.123 391.27 511.587 345.79 546.981Z" fill="#9FAAAD"/>
<path d="M413.526 409.476L361.312 403.153L364.791 375.545L416.999 381.862L413.526 409.476Z" fill="#DC3E21"/>
</svg>
