<svg width="775" height="721" viewBox="0 0 775 721" fill="none" xmlns="http://www.w3.org/2000/svg">
<path d="M410.07 291.385C396.901 285.244 323.718 274.841 258.142 301.708C254.339 303.181 250.542 304.903 246.825 306.7C192.306 333.169 119.942 327.913 42.9691 306.7C18.9167 235.84 7.67333 114.272 0 36.2846C48.9441 56.6934 138.266 69.7927 193.359 36.2846C245.06 4.83698 334.382 15.565 375.653 29.5695C377.831 30.2991 379.943 31.049 381.781 31.7786C388.256 71.3465 417.497 244.373 410.07 291.385Z" fill="#C5D3D4"/>
<path d="M258.139 301.709C367.771 240.455 368.797 128.899 373.439 55.7218L400.209 284.347C396.413 284.698 392.729 285.36 389.365 286.543C379.701 285.164 367.464 284.171 353.656 284.171C325.534 284.171 290.891 288.292 258.139 301.709Z" fill="#9FAAAD"/>
<path d="M470.398 694.806C470.924 699.298 468.1 703.338 464.07 703.805L456.81 704.689C452.774 705.17 449.083 701.921 448.57 697.427L370.478 30.3871C369.959 25.8878 372.79 21.8479 376.806 21.3683L384.093 20.4968C388.11 20.0171 391.793 23.2666 392.319 27.7659L470.398 694.806Z" fill="#DC3E21"/>
<path d="M243.704 250.99C202.092 281.981 142.426 274.4 110.457 234.092C78.4689 193.776 86.2947 135.97 127.916 104.996C169.501 74.0223 229.167 81.5953 261.136 121.903C293.115 162.219 285.326 220.008 243.704 250.99Z" fill="#2A387C"/>
<path d="M128.614 252.263L120.104 244.898L115.849 241.215L112.55 236.657L109.047 232.316L106.305 228.633L103.564 224.03L100.823 219.427L244.765 105.909L249.21 108.87L253.575 113.669L257.107 116.589L261.432 122.308L267.524 130.659L272.638 139.991L128.614 252.263Z" fill="#C92631"/>
<path d="M140.708 190.014H123.224V164.488H140.708V167.9H129.072V174.723H138.21V178.134H129.072V186.602H140.708V190.014ZM155.797 186.602C157.462 186.602 158.295 186.034 158.295 184.896V176.002C158.213 174.906 157.381 174.357 155.797 174.357H153.36C151.695 174.357 150.862 174.926 150.862 176.063V184.896C150.862 186.034 151.695 186.602 153.36 186.602H155.797ZM145.014 175.454C145.014 174.114 145.704 173.037 147.085 172.225C148.507 171.372 150.213 170.946 152.203 170.946H155.553C156.487 170.946 157.137 171.047 157.503 171.25L158.295 171.616V165.158H164.143V190.014H158.295V189.465C157.401 189.831 156.406 190.014 155.309 190.014H152.203C149.075 190.014 146.882 189.14 145.623 187.394C145.217 186.826 145.014 186.196 145.014 185.506V175.454ZM178.78 186.602C180.405 186.602 181.217 186.034 181.217 184.896V176.002C181.217 174.865 180.405 174.296 178.78 174.296H177.013C175.348 174.296 174.516 174.865 174.516 176.002V184.896C174.516 186.034 175.348 186.602 177.013 186.602H178.78ZM168.667 175.454C168.667 174.073 169.358 172.977 170.739 172.164C172.16 171.311 173.866 170.885 175.856 170.885H179.937C181.887 170.885 183.532 171.291 184.872 172.103C186.334 172.916 187.065 174.032 187.065 175.454V185.445C187.065 186.866 186.334 187.983 184.872 188.795C183.532 189.608 181.887 190.014 179.937 190.014H175.856C172.729 190.014 170.536 189.14 169.277 187.394C168.87 186.826 168.667 186.176 168.667 185.445V175.454ZM197.289 172.408C198.264 171.433 199.726 170.946 201.675 170.946H202.711V174.357H201.188C199.523 174.357 198.345 174.865 197.655 175.88C197.411 176.205 197.289 176.571 197.289 176.977V190.014H191.441V170.946H197.289V172.408ZM215.58 186.602C217.204 186.602 218.017 186.034 218.017 184.896V176.002C218.017 174.865 217.204 174.296 215.58 174.296H213.813C212.148 174.296 211.315 174.865 211.315 176.002V184.896C211.315 186.034 212.148 186.602 213.813 186.602H215.58ZM205.467 175.454C205.467 174.073 206.158 172.977 207.538 172.164C208.96 171.311 210.666 170.885 212.656 170.885H216.737C218.687 170.885 220.332 171.291 221.672 172.103C223.134 172.916 223.865 174.032 223.865 175.454V185.445C223.865 186.866 223.134 187.983 221.672 188.795C220.332 189.608 218.687 190.014 216.737 190.014H212.656C209.528 190.014 207.335 189.14 206.076 187.394C205.67 186.826 205.467 186.176 205.467 185.445V175.454ZM228.728 190.014V165.585H234.576V190.014H228.728ZM245.793 165.829V169.24H239.944V165.829H245.793ZM239.944 170.946H245.793V190.014H239.944V170.946Z" fill="#F6F6F6"/>
<path d="M659.715 721C674.867 721 689.657 720.834 703.939 720.514C747.56 714.706 775 706.285 775 696.912C775 687.545 747.554 679.124 703.92 673.304C689.638 672.99 674.86 672.824 659.715 672.824C538.263 672.824 439.806 683.61 439.806 696.919C439.806 710.215 538.263 721 659.715 721Z" fill="#6C8894"/>
<path d="M675.476 470.862C675.476 479.117 668.548 485.852 660.076 485.852H459.86C451.402 485.852 444.467 479.117 444.467 470.862V268.422C444.467 260.18 451.402 253.426 459.86 253.426H660.076C668.548 253.426 675.476 260.18 675.476 268.422V470.862Z" fill="#839CA6"/>
<path d="M560.819 498.798C560.819 500.427 560.59 504.765 560.197 511.27C558.59 538.546 553.357 603.078 544.657 651.113C544.422 652.436 544.187 653.675 543.876 654.992V655.068C543.647 656.302 543.419 657.547 543.19 658.71V658.781L542.872 660.25C542.18 663.669 541.482 666.914 540.726 670.09C540.021 673.272 539.259 676.3 538.491 679.163C537.71 682.038 536.948 684.741 536.179 687.296C534.795 691.801 533.334 695.666 531.797 698.918C531.48 699.621 531.093 700.311 530.718 701.001C529.937 702.567 529.099 703.96 528.248 705.116C527.555 705.972 526.946 706.669 526.324 707.282L525.549 707.979L524.158 708.835C523.326 709.301 522.469 709.531 521.542 709.531C520.926 709.531 520.316 709.531 519.693 709.455H519.624L517.928 709.071C517.312 708.912 516.696 708.752 516.08 708.522C514.931 708.062 513.775 707.512 512.607 706.745C511.997 706.445 511.463 705.972 510.848 705.576C510.143 705.04 509.533 704.503 508.834 703.889L507.456 702.644C506.916 702.094 506.377 701.487 505.767 700.861C504.688 699.621 503.602 698.299 502.522 696.829C502.001 696.056 501.455 695.264 500.909 694.497C500.363 693.737 499.829 692.957 499.359 692.107C498.832 691.251 498.293 690.395 497.829 689.469C496.75 687.68 495.753 685.827 494.749 683.808C492.215 678.786 489.827 673.118 487.516 667.087C486.671 664.902 485.897 662.659 485.046 660.41C484.43 658.557 483.814 656.698 483.191 654.755C482.747 653.522 482.353 652.276 481.966 651.037C481.578 649.804 481.191 648.634 480.816 647.401C465.258 595.731 456.088 524.521 456.088 485.629C456.088 485.629 560.819 485.629 560.819 498.798Z" fill="#C5D3D4"/>
<path d="M543.874 654.992V655.069C543.646 656.302 543.417 657.548 543.188 658.711V658.781L542.871 660.251C542.179 663.669 541.48 666.915 540.724 670.09C540.019 673.272 539.257 676.301 538.489 679.163C537.708 682.038 536.946 684.741 536.178 687.297C534.793 691.801 533.332 695.667 531.796 698.919C531.478 699.622 531.091 700.312 530.716 701.002C529.935 702.567 529.097 703.96 528.246 705.117C527.554 705.973 526.944 706.669 526.322 707.283L525.547 707.979L524.156 708.835C522.708 709.072 521.235 709.302 519.692 709.455H519.622L517.926 709.072C517.31 708.912 516.694 708.752 516.078 708.522C514.929 708.132 513.773 707.602 512.605 706.746C511.995 706.446 511.462 705.973 510.846 705.577C510.141 705.117 509.455 704.58 508.763 703.96L507.454 702.644C506.915 702.094 506.375 701.487 505.765 700.861C504.686 699.622 503.6 698.299 502.52 696.83C502 696.057 501.454 695.264 500.907 694.498C500.361 693.737 499.828 692.958 499.358 692.108C498.831 691.252 498.291 690.396 497.827 689.469C496.748 687.68 495.751 685.827 494.747 683.808C492.214 678.786 489.826 673.119 487.514 667.087C486.67 664.902 485.895 662.659 485.044 660.41C484.428 658.557 483.812 656.698 483.19 654.756C482.745 653.523 482.351 652.277 481.964 651.037C489.356 649.491 497.529 648.552 506.07 648.552C512.535 648.552 518.784 649.031 524.633 650.028C531.713 651.114 538.178 652.82 543.874 654.992Z" fill="#1F2A31"/>
<path d="M547.503 656.384C546.887 657.931 545.414 658.863 543.877 658.863L543.191 658.78V658.71L542.499 658.633C536.949 656.538 530.719 654.908 524.013 653.899C511.084 651.816 496.604 651.963 483.192 654.755L482.748 654.838C480.659 655.221 478.646 653.899 478.195 651.816C477.738 649.873 478.969 648.021 480.817 647.401L481.192 647.241C495.677 644.225 511.16 643.989 525.175 646.155C532.097 647.158 538.72 648.87 544.658 651.113L545.268 651.343C547.268 652.123 548.271 654.365 547.503 656.384Z" fill="#EE4323"/>
<path d="M521.542 709.531C520.926 709.531 520.317 709.531 519.694 709.455C521.237 709.301 522.711 709.071 524.159 708.835C523.327 709.301 522.47 709.531 521.542 709.531ZM544.658 651.113C538.72 648.871 532.097 647.158 525.175 646.155C526.248 637.868 527.245 628.719 528.084 618.496C534.529 541.479 537.215 518.969 541.489 510.03C550.037 511.193 556.813 511.889 560.128 511.966H560.159C558.502 539.632 553.288 603.481 544.658 651.113Z" fill="#9FAAAD"/>
<path d="M519.694 709.455H519.625L517.929 709.072C517.313 708.912 516.697 708.752 516.081 708.522C514.932 708.132 513.776 707.602 512.608 706.746C511.998 706.446 511.464 705.973 510.848 705.577C510.144 705.117 509.458 704.58 508.765 703.96L508.835 703.89C514.932 694.351 520.165 678.786 524.013 653.9C530.719 654.909 536.949 656.538 542.499 658.634L543.191 658.711V658.781L542.873 660.251C542.524 661.969 542.175 663.637 541.819 665.279C541.464 666.908 541.102 668.506 540.727 670.09C540.022 673.272 539.26 676.301 538.492 679.163C537.711 682.038 536.949 684.741 536.18 687.297C534.796 691.801 533.335 695.667 531.798 698.919C531.481 699.622 531.094 700.312 530.719 701.002C529.938 702.567 529.1 703.96 528.249 705.117C527.556 705.973 526.947 706.669 526.325 707.283L525.55 707.979L524.159 708.835C522.711 709.072 521.238 709.302 519.694 709.455Z" fill="#1E272B"/>
<path d="M543.875 658.863L543.189 658.78V658.71L542.497 658.633C536.946 656.538 530.717 654.908 524.011 653.899C524.233 652.583 524.392 651.343 524.633 650.027C524.779 648.781 524.932 647.471 525.173 646.155C532.095 647.158 538.718 648.87 544.656 651.113L545.265 651.343C546.815 651.944 547.761 653.426 547.761 654.998C547.761 655.458 547.679 655.924 547.501 656.384C546.885 657.931 545.412 658.863 543.875 658.863Z" fill="#BF3C23"/>
<path d="M665.625 485.629C665.625 524.598 656.449 595.948 640.75 647.708C640.446 648.947 640.052 650.187 639.671 651.433C639.283 652.666 638.896 653.899 638.439 655.151C637.905 656.768 637.365 658.404 636.826 659.95C635.518 663.739 634.12 667.393 632.742 670.876C632.285 672.026 631.822 673.189 631.345 674.288C630.888 675.444 630.437 676.53 629.897 677.616C629.434 678.703 628.964 679.699 628.424 680.792C627.961 681.795 627.503 682.805 626.97 683.808C625.573 686.606 624.118 689.162 622.658 691.558L622.34 692.107C621.648 693.187 620.962 694.197 620.27 695.194C619.502 696.293 618.721 697.372 617.952 698.375L617.571 698.918C616.886 699.768 616.104 700.625 615.418 701.404C614.568 702.247 613.723 703.104 612.872 703.889L612.561 704.183C611.875 704.803 611.113 705.346 610.325 705.896C609.481 706.522 608.643 707.065 607.715 707.512C606.871 707.979 606.02 708.381 605.099 708.675C604.172 708.994 603.327 709.212 602.4 709.378L600.933 709.531H600.787H600.705H600.546H600.171L598.546 709.212H598.393L598.247 709.148L596.862 708.451C595.935 707.902 595.084 707.065 594.157 706.043C593.624 705.346 593.001 704.503 592.468 703.57C591.547 702.247 590.69 700.624 589.934 698.918C588.537 695.979 587.14 692.338 585.838 688.306C585.47 687.296 585.146 686.216 584.847 685.207L584.454 683.967C583.698 681.175 582.841 678.166 582.079 674.978C580.917 670.09 579.767 664.831 578.605 659.247L578.376 658.167C578.141 656.928 577.913 655.688 577.678 654.449C577.443 653.132 577.221 651.893 576.992 650.577C568.362 603.002 563.199 539.555 561.433 511.966C561.059 505.072 560.818 500.497 560.818 498.798C560.818 490.817 599.403 487.642 629.739 486.402C649.361 485.629 665.625 485.629 665.625 485.629Z" fill="#C5D3D4"/>
<path d="M639.672 651.433C639.284 652.666 638.897 653.899 638.44 655.151C637.906 656.768 637.366 658.404 636.827 659.95C635.518 663.739 634.121 667.393 632.743 670.876C632.286 672.026 631.823 673.189 631.346 674.288C630.889 675.444 630.438 676.53 629.898 677.616C629.435 678.703 628.965 679.699 628.425 680.792C627.961 681.795 627.504 682.805 626.971 683.808C625.574 686.606 624.119 689.162 622.659 691.558L622.341 692.107C621.649 693.187 620.963 694.197 620.271 695.194C619.503 696.293 618.721 697.372 617.953 698.375L617.572 698.918C616.886 699.768 616.105 700.625 615.419 701.404C614.568 702.247 613.724 703.104 612.873 703.889L612.562 704.183C611.876 704.803 611.114 705.346 610.326 705.896C609.482 706.522 608.644 707.065 607.716 707.512C606.872 707.979 606.021 708.381 605.1 708.675C604.173 708.994 603.328 709.212 602.401 709.378L600.934 709.531H600.788H600.705H600.547H600.477C599.785 709.378 599.169 709.378 598.546 709.212H598.394L598.248 709.148L596.863 708.451C596.012 707.832 595.085 707.065 594.241 705.972C593.625 705.276 593.002 704.42 592.469 703.57C591.612 702.247 590.773 700.701 589.935 698.918C588.538 695.979 587.141 692.338 585.839 688.306C585.471 687.296 585.147 686.216 584.848 685.207L584.455 683.967C583.699 681.099 582.842 678.166 582.08 674.978C580.918 670.09 579.768 664.831 578.606 659.247L578.454 658.167H578.377C578.142 656.928 577.914 655.688 577.679 654.449C587.852 650.717 600.324 648.551 613.863 648.551H615.108C623.814 648.634 632.197 649.644 639.672 651.433Z" fill="#1F2A31"/>
<path d="M643.448 652.276C642.902 654.365 640.832 655.688 638.825 655.221L638.438 655.151C630.97 653.362 622.657 652.436 614.179 652.436H613.861C601.161 652.436 589.063 654.365 578.991 658.09L578.452 658.167H578.375L577.677 658.32C576.134 658.32 574.61 657.311 574.07 655.765C573.371 653.758 574.368 651.503 576.375 650.806L576.991 650.576C588.377 646.545 602.247 644.526 615.957 644.839C624.429 644.915 632.811 645.848 640.52 647.637L640.749 647.708C642.673 648.327 643.905 650.346 643.448 652.276Z" fill="#EE4323"/>
<path d="M650.525 386.384C650.302 385.221 649.985 384.052 649.687 382.896C649.458 382.116 649.293 381.266 648.994 380.487L648.836 379.873C646.53 371.197 643.749 362.52 640.752 354.143C637.049 344.08 632.902 334.311 627.962 325.321L627.416 324.254C612.029 295.662 590.552 274.883 560.819 274.883H559.974C541.876 275.12 526.857 283.107 514.461 295.879C506.993 303.47 500.522 312.772 494.825 323.161C493.358 325.717 491.974 328.426 490.666 331.142C484.976 342.758 480.207 355.472 476.193 368.328C475.037 372.193 473.882 375.995 472.802 379.95C471.564 384.518 470.338 389.176 469.341 393.738L469.112 394.594C468.573 396.754 468.103 398.92 467.639 401.099L467.569 401.175L467.499 401.725C466.261 407.06 465.258 412.338 464.337 417.436C463.327 422.72 462.413 427.825 461.714 432.713C460.87 437.818 460.171 442.706 459.561 447.351C459.174 450.143 458.863 452.859 458.552 455.415C456.697 471.452 456.088 482.761 456.088 485.63C456.088 495.776 510.543 505.922 541.482 510.031C550.036 511.194 556.812 511.89 560.127 511.967H561.435C570.147 511.737 602.941 507.398 629.435 501.354C649.293 496.786 665.626 491.201 665.626 485.63C665.626 482.761 665.01 471.452 663.156 455.415V455.331C662.845 452.769 662.54 450.143 662.152 447.351C661.619 442.866 660.921 438.055 660.159 433.014C659.314 428.138 658.45 422.95 657.46 417.685C655.688 408.229 653.611 398.23 650.988 388.154L650.912 387.777L650.677 387.617L650.525 386.914V386.844V386.384Z" fill="#C5D3D4"/>
<path d="M560.861 477.1C549.888 477.1 473.861 466.755 456.81 454.238C455.095 452.98 454.721 450.545 455.978 448.82C457.229 447.108 459.636 446.718 461.357 447.983C475.925 458.692 548.63 469.349 560.861 469.349C573.067 469.349 645.76 458.692 660.347 447.983C662.074 446.731 664.481 447.108 665.726 448.833C666.983 450.565 666.609 452.986 664.894 454.245C647.824 466.762 571.803 477.1 560.861 477.1Z" fill="#EE4323"/>
<path d="M698.579 369.644L666.624 376.155L653.072 378.941L650.989 379.401L648.836 379.874L648.227 379.95L647.147 380.181L645.915 380.417L628.82 383.976L475.267 415.514C472.498 411.022 469.882 406.447 467.5 401.725L467.341 401.483C467.024 400.793 466.649 400.166 466.338 399.47C465.868 398.62 465.487 397.77 465.1 396.844C461.874 390.174 459.099 383.203 456.863 376.155C456.558 375.535 456.393 374.845 456.158 374.219C455.942 373.599 455.796 372.897 455.555 372.277C452.094 361.357 449.859 350.202 448.938 339.186C446.544 311.763 452.164 285.356 468.497 265.434C485.809 244.132 515.224 230.197 559.975 230.197C594.705 230.197 626.426 243.046 650.767 264.348C660.547 272.801 669.088 282.717 676.092 293.637C677.629 295.809 678.944 298.052 680.252 300.384C685.326 309.297 689.498 318.824 692.578 328.9C694.959 336.867 696.725 345.16 697.658 353.76C698.268 358.955 698.579 364.297 698.579 369.644Z" fill="#C5D3D4"/>
<path d="M516.854 274.117L514.46 295.879L511.462 323.161L508.833 346.399L505.766 374.366L504.61 385.145C502.521 385.068 500.521 384.915 498.45 384.678C490.665 384.052 482.961 382.659 475.424 380.646C474.579 380.416 473.652 380.18 472.801 379.95C467.638 378.557 462.558 376.845 457.56 374.762L456.156 374.219L454.474 373.439C417.044 357.632 383.863 327.27 362.526 292.703C357.757 285.043 353.908 279.152 350.289 270.475C346.669 261.721 343.278 250.106 339.436 230.733C335.892 218.715 336.508 205.706 334.807 192.851V192.538C335.118 190.359 335.276 188.122 334.876 186.18C334.667 184.864 334.267 183.631 333.498 182.538L344.904 178.82L367.765 171.382L371.232 170.296C371.62 171.465 372.147 172.616 372.693 173.861C376.243 182.232 382.244 192.301 385.546 199.515L385.718 199.968L385.781 200.045C392.71 214.689 413.971 235.378 424.131 246.221C432.768 255.6 444.776 259.166 454.931 261.721C460.087 263.038 464.482 264.283 468.495 265.434C486.429 270.558 495.516 273.887 516.854 274.117Z" fill="#C5D3D4"/>
<path d="M381.165 156.277C378.472 160.392 375.011 164.021 371.62 166.494L371.163 166.89C370.306 168.519 369.239 170.072 367.766 171.382C365.689 173.394 362.914 175.1 359.218 176.416C352.283 178.896 348.428 180.915 345.52 182.148C341.665 183.86 339.348 184.243 333.499 182.537C332.737 181.764 331.968 180.672 331.263 179.439C327.504 172.934 324.487 160.916 323.567 156.59C320.874 142.476 321.414 113.36 340.516 107.693C341.126 107.463 341.824 107.309 342.51 107.156C364.609 102.811 368.229 122.503 370.547 137.531L370.617 137.448H370.7C375.628 133.103 380.784 131.25 384.099 133.493L384.645 133.965C388.709 137.371 387.255 147.204 381.165 156.277Z" fill="#C5D3D4"/>
<path d="M372.694 173.86L372.396 174.019L345.591 182.69L334.878 186.178L334.732 186.255L333.5 186.408C331.88 186.408 330.42 185.405 329.88 183.776C329.34 182.07 329.956 180.364 331.264 179.437L332.344 178.894L343.279 175.335L370.002 166.582L371.621 166.493C373.158 166.652 374.466 167.585 374.854 169.131C375.47 171.067 374.542 173.093 372.694 173.86Z" fill="#EE4323"/>
<path d="M371.531 145.115C370.153 143.026 370.083 140.317 370.616 137.448H370.699C374.198 134.368 377.812 132.534 380.796 132.534C382.022 132.534 383.133 132.841 384.098 133.493L384.645 133.966C379.85 137.371 374.852 142.643 371.531 145.115Z" fill="#9FAAAD"/>
<path d="M475.422 380.646C474.578 380.416 473.651 380.18 472.8 379.95C467.637 378.557 462.556 376.845 457.559 374.762C458.009 373.823 458.632 372.743 459.172 371.65C461.407 368.398 463.719 365.152 463.719 365.152C463.719 365.152 460.562 367.555 457.4 370.264C456.777 370.954 456.155 371.58 455.552 372.276L454.472 373.439C447.188 370.36 440.057 366.731 433.154 362.629C427.096 359.031 421.215 355.076 415.531 350.802C413.976 349.633 412.439 348.438 410.915 347.224C399.713 338.285 389.374 328.132 380.211 317.181C373.682 309.373 367.751 301.169 362.525 292.704C357.756 285.043 353.907 279.152 350.287 270.475C346.668 261.722 343.277 250.106 339.435 230.733C335.891 218.715 336.507 205.706 334.805 192.851V192.538C334.983 191.279 335.116 190.001 335.116 188.768C335.116 187.873 335.046 186.998 334.875 186.18L345.588 182.692C349.589 206.396 356.123 263.587 406.266 307.661C422.593 322.082 436.843 331.755 448.935 339.186C459.324 345.627 468.1 350.278 475.263 354.687C475.886 359.651 476.191 364.213 476.191 368.328C476.191 372.896 475.962 377.005 475.422 380.646Z" fill="#9FAAAD"/>
<path d="M331.263 179.438C327.504 172.933 324.487 160.915 323.566 156.589C322.868 152.954 322.391 148.315 322.391 143.344C322.385 129.019 326.335 111.896 340.515 107.691C334.584 133.102 330.577 155.893 343.278 175.335L332.342 178.894L331.263 179.438Z" fill="#9FAAAD"/>
<path d="M727.607 433.333L720.914 435.505L689.879 445.568L689.574 444.878C689.263 443.945 688.882 443.012 688.488 442.086C684.799 433.722 678.867 423.57 675.546 416.356L675.476 416.292L675.33 415.819C671.488 407.603 663.156 397.61 654.844 388.396L654.609 388.154C653.301 386.767 651.993 385.374 650.767 384.052L649.687 382.895C648.836 381.962 647.915 381.029 647.147 380.18C646.379 379.336 645.515 378.557 644.823 377.777L644.683 377.707C641.756 374.678 639.133 371.963 636.974 369.644C635.126 367.701 633.132 366.238 630.89 365.075C628.508 363.759 625.892 362.833 623.276 361.976C618.335 360.43 613.407 359.261 609.33 356.622C608.175 355.926 607.095 355.076 606.174 354.143C602.942 350.891 598.782 347.639 593.086 345.013C590.393 343.613 587.237 342.451 583.624 341.524C577.299 339.812 569.52 338.732 559.975 338.655V237.921C592.546 239.096 623.352 250.719 649.459 269.778C659.073 276.749 668.008 284.806 676.092 293.636C677.94 295.572 679.712 297.597 681.477 299.687C687.796 306.97 693.492 314.868 698.579 323.161C698.96 323.774 699.347 324.401 699.735 324.944C703.971 331.838 707.514 337.346 710.823 345.402C714.442 354.143 717.833 365.772 721.675 385.144C725.219 397.15 724.527 410.171 726.305 423.033V423.333C726 425.499 725.835 427.678 726.235 429.691C726.451 431.007 726.838 432.246 727.607 433.333Z" fill="#C5D3D4"/>
<path d="M716.052 497.635C714.744 497.942 713.594 498.108 712.585 498.255C689.647 501.424 722.987 473.004 706.495 464.71L705.663 464.864C697.731 466.493 698.887 491.284 690.034 486.556C689.571 486.326 689.025 485.936 688.415 485.469C684.719 482.53 685.945 467.03 689.177 449.37C689.412 448.124 689.647 446.814 689.876 445.568L720.91 435.505L727.603 433.332C728.296 434.418 728.912 435.505 729.528 436.585C744.159 462.148 740.088 492.523 716.052 497.635Z" fill="#C5D3D4"/>
<path d="M729.53 436.584L728.762 436.974L722.843 438.916L691.028 449.293L689.878 449.439L689.18 449.369L688.259 449.063C687.344 448.673 686.57 447.893 686.265 446.814C685.573 444.801 686.57 442.705 688.487 442.085L688.722 441.932L690.335 441.389L720.449 431.556L726.234 429.69L726.374 429.613C728.451 428.994 730.61 430.073 731.232 432.169C731.848 433.875 731.08 435.734 729.53 436.584Z" fill="#EE4323"/>
<path d="M699.736 324.943L692.579 328.898L685.575 332.77L674.862 338.654L660.078 311.461L668.327 306.969L680.253 300.382L681.479 299.686C687.797 306.97 693.494 314.867 698.58 323.16C698.961 323.773 699.349 324.4 699.736 324.943Z" fill="#2A387C"/>
<path d="M692.125 487.156C691.497 487.156 690.805 486.965 690.036 486.556C691.236 478.198 693.015 462.481 700.235 462.481C701.778 462.481 703.575 463.203 705.664 464.864C698.425 466.353 698.755 487.15 692.125 487.156Z" fill="#9FAAAD"/>
<path d="M712.587 498.254C719.826 492.139 726.99 483.456 727.606 473.003C728.45 457.42 727.072 447.197 722.843 438.916L728.761 436.974L729.53 436.584C735.188 446.475 738.052 457.074 738.039 466.665C738.026 481.865 730.8 494.497 716.054 497.634C714.746 497.941 713.596 498.107 712.587 498.254Z" fill="#9FAAAD"/>
<path d="M720.451 431.557C718.222 416.663 709.356 378.627 697.659 353.76C696.503 351.127 695.278 348.655 693.976 346.399C691.728 342.361 688.8 337.723 685.574 332.771L692.579 328.899L699.736 324.944C703.971 331.838 707.515 337.346 710.823 345.403C714.443 354.143 717.834 365.772 721.676 385.144C725.22 397.15 724.527 410.172 726.306 423.033V423.334C726.128 424.586 726.001 425.845 726.001 427.071C726.001 427.959 726.064 428.841 726.236 429.691L720.451 431.557Z" fill="#9FAAAD"/>
<path d="M668.325 306.969C658.622 292.171 650.144 277.987 649.458 269.776C659.073 276.747 668.008 284.804 676.092 293.634C677.94 295.57 679.711 297.596 681.477 299.685L680.251 300.381L668.325 306.969Z" fill="#9FAAAD"/>
<path d="M685.572 332.77C680.25 324.713 674.02 315.723 668.324 306.969L680.25 300.382L681.475 299.685C687.794 306.969 693.491 314.867 698.577 323.16C698.958 323.773 699.345 324.399 699.733 324.943L692.576 328.898L685.572 332.77Z" fill="#27326A"/>
<path d="M629.275 346.398C629.275 359.228 618.924 369.643 606.173 369.643C593.421 369.643 583.076 359.228 583.076 346.398C583.076 333.568 593.421 323.16 606.173 323.16C618.924 323.16 629.275 333.568 629.275 346.398Z" fill="#2A387C"/>
<path d="M574.821 356.028L629.276 323.161L596.616 377.943V356.028H574.821Z" fill="#DC3E21"/>
<path d="M536.873 346.398H490.667V323.16H536.873V346.398Z" fill="#6C8894"/>
<path d="M521.472 385.145C521.472 391.559 516.303 396.754 509.921 396.754C503.539 396.754 498.37 391.559 498.37 385.145C498.37 378.723 503.539 373.516 509.921 373.516C516.303 373.516 521.472 378.723 521.472 385.145Z" fill="#191A1B"/>
<path d="M521.472 423.869C521.472 430.291 516.297 435.498 509.921 435.498C503.539 435.498 498.37 430.291 498.37 423.869C498.37 417.448 503.539 412.247 509.921 412.247C516.297 412.247 521.472 417.448 521.472 423.869Z" fill="#191A1B"/>
<path d="M624.772 423.869C624.772 430.291 619.603 435.498 613.22 435.498C606.826 435.498 601.663 430.291 601.663 423.869C601.663 417.448 606.826 412.247 613.22 412.247C619.603 412.247 624.772 417.448 624.772 423.869Z" fill="#191A1B"/>
<path d="M491.796 449.746C483.287 449.746 472.878 448.021 459.86 445.082C459.905 444.782 459.942 444.481 459.987 444.181C460.254 442.334 460.514 440.45 460.8 438.527C461.079 436.635 461.384 434.706 461.714 432.744C473.888 435.396 483.661 436.967 491.815 436.967C497.156 436.967 501.798 436.29 505.964 434.795C507.196 435.249 508.53 435.498 509.92 435.498C512.505 435.498 514.886 434.642 516.804 433.204C518.417 436.412 517.611 440.482 514.658 442.782C508.371 447.638 501.195 449.746 491.796 449.746Z" fill="#9FAAAD"/>
<path d="M629.137 449.707C620.837 449.394 614.245 447.253 608.517 442.781C605.564 440.481 604.707 436.404 606.313 433.19C608.238 434.641 610.625 435.497 613.223 435.497C614.613 435.497 615.947 435.248 617.179 434.794C620.678 436.047 624.514 436.73 628.819 436.916C628.908 441.158 629.022 445.426 629.137 449.707Z" fill="#9FAAAD"/>
<path d="M600.477 709.531H600.172L599.131 709.327C599.563 709.391 600.001 709.429 600.477 709.531ZM596.864 708.451C595.936 707.902 595.086 707.065 594.158 706.043L594.241 705.972C595.086 707.065 596.013 707.832 596.864 708.451ZM640.752 647.708L640.523 647.638C632.813 645.849 624.431 644.916 615.959 644.839C627.346 593.239 627.892 535.83 629.276 505.698C629.352 504.292 629.435 502.829 629.435 501.353C649.293 496.785 665.626 491.201 665.626 485.629C665.626 524.598 656.45 595.948 640.752 647.708Z" fill="#9FAAAD"/>
<path d="M600.933 709.531H600.476C600 709.429 599.562 709.391 599.13 709.327L598.546 709.212H598.393L598.247 709.148L596.862 708.451C596.011 707.832 595.084 707.065 594.24 705.972C603.01 690.561 609.481 672.026 614.18 652.436C622.658 652.436 630.971 653.362 638.439 655.151C637.905 656.768 637.365 658.404 636.826 659.95C635.517 663.739 634.12 667.393 632.742 670.876C632.285 672.026 631.822 673.189 631.345 674.288C630.888 675.444 630.437 676.53 629.897 677.616C629.434 678.703 628.964 679.699 628.424 680.792C627.96 681.795 627.503 682.805 626.97 683.808C625.573 686.606 624.118 689.162 622.658 691.558L622.34 692.107C621.648 693.187 620.962 694.197 620.27 695.194C619.502 696.293 618.72 697.372 617.952 698.375L617.571 698.918C616.885 699.768 616.104 700.625 615.418 701.404C614.567 702.247 613.723 703.104 612.872 703.889L612.561 704.183C611.875 704.803 611.113 705.346 610.325 705.896C609.481 706.522 608.643 707.065 607.715 707.512C606.871 707.979 606.02 708.381 605.099 708.675C604.172 708.994 603.327 709.212 602.4 709.378L600.933 709.531Z" fill="#1E272B"/>
<path d="M639.638 655.316C639.631 655.316 639.631 655.316 639.625 655.316C639.358 655.316 639.091 655.285 638.825 655.221L638.437 655.15C630.969 653.361 622.657 652.435 614.179 652.435C614.566 651.195 614.877 649.873 615.106 648.55C615.481 647.317 615.716 646.084 615.957 644.838C624.428 644.915 632.811 645.848 640.52 647.637L640.749 647.707C642.407 648.243 643.543 649.803 643.543 651.464C643.543 651.732 643.511 652.007 643.448 652.275C643.429 652.345 643.41 652.409 643.391 652.473C643.384 652.492 643.378 652.512 643.372 652.531C642.826 654.186 641.302 655.297 639.676 655.316C639.663 655.316 639.65 655.316 639.638 655.316Z" fill="#BF3C23"/>
<path d="M629.434 501.352C629.58 496.476 629.739 491.518 629.739 486.401C629.739 479.896 629.656 473.226 629.504 466.562C629.504 466.536 629.504 466.517 629.504 466.491C643.735 463.246 656.41 459.45 663.155 455.393V455.412C665.009 471.449 665.625 482.759 665.625 485.627C665.625 491.199 649.292 496.783 629.434 501.352ZM629.351 458.613C629.288 455.642 629.212 452.671 629.135 449.707C629.847 449.732 630.577 449.745 631.313 449.745C639.633 449.745 649.533 448.148 661.91 445.4C661.992 446.033 662.069 446.652 662.138 447.272C661.516 447.349 660.894 447.579 660.348 447.981C655.312 451.674 643.354 455.367 629.351 458.613Z" fill="#9FAAAD"/>
<path d="M629.503 466.494C629.503 463.887 629.427 461.28 629.351 458.667C629.351 458.648 629.351 458.635 629.351 458.616C643.353 455.37 655.311 451.677 660.347 447.984C660.893 447.582 661.515 447.352 662.138 447.275C662.144 447.3 662.144 447.326 662.15 447.352C662.347 447.32 662.544 447.301 662.741 447.301C663.865 447.301 664.983 447.837 665.694 448.827C665.929 449.128 666.113 449.454 666.24 449.799C666.577 450.738 666.539 451.76 666.158 452.661C665.884 453.274 665.446 453.83 664.856 454.246C664.316 454.635 663.776 455.019 663.154 455.332V455.396C656.41 459.453 643.734 463.248 629.503 466.494Z" fill="#BF3C23"/>
<path d="M661.473 442.072C661.061 439.159 660.604 436.156 660.146 433.025C660.146 433.019 660.153 433.019 660.159 433.019C660.629 436.13 661.073 439.159 661.473 442.072ZM631.411 421.473C630.357 421.473 629.366 421.435 628.426 421.364C628.426 421.352 628.426 421.339 628.426 421.326C628.197 407.998 628.197 395.296 628.82 383.974L645.915 380.415C646.378 380.888 646.906 381.418 647.369 382.032C648.754 383.75 649.985 385.52 650.525 386.843V386.913L650.678 387.616L650.913 387.776L650.989 388.153C653.611 398.229 655.688 408.228 657.46 417.684C657.46 417.703 657.466 417.729 657.473 417.748C645.871 420.24 637.583 421.473 631.411 421.473Z" fill="#9FAAAD"/>
<path d="M688.487 442.086C684.797 433.722 678.866 423.57 675.545 416.356L675.475 416.292L675.329 415.819C671.487 407.603 663.155 397.61 654.842 388.396V388.083L654.525 386.531C654.309 384.831 653.833 382.116 653.147 379.4L653.071 378.94C652.22 375.068 650.225 371.809 649.832 371.503C650.225 372.193 651.14 375.688 650.987 379.4V379.713C650.987 380.486 650.911 381.336 650.911 382.032C650.302 381.489 649.603 381.029 648.994 380.486L648.911 380.416L648.225 379.949C647.063 379.1 645.913 378.397 644.821 377.777L644.682 377.707C641.754 374.678 639.131 371.963 636.972 369.644C635.124 367.701 633.13 366.238 630.888 365.075C631.67 360.737 632.59 356.711 633.74 353.133C636.134 353.133 638.439 353.453 640.751 354.143C650.524 357.018 659.313 365.701 666.622 376.154C676.402 390.019 683.648 407.06 687.648 418.145C691.186 428.068 691.338 435.569 690.335 441.39L688.722 441.933L688.487 442.086Z" fill="#9FAAAD"/>
<path d="M631.314 449.746C630.577 449.746 629.847 449.733 629.136 449.708C629.022 445.427 628.907 441.159 628.818 436.916C629.638 436.948 630.482 436.967 631.333 436.967C639.189 436.967 648.568 435.504 660.145 433.025C660.602 436.156 661.059 439.159 661.472 442.072C661.625 443.197 661.771 444.309 661.91 445.401C649.533 448.149 639.633 449.746 631.314 449.746Z" fill="#818B8F"/>
<path d="M491.815 436.967C482.391 436.967 470.795 434.865 455.84 431.427C451.693 430.475 449.096 426.316 450.042 422.15C450.988 417.971 455.135 415.371 459.269 416.323C487.236 422.751 498.382 423.096 505.196 417.748C508.536 415.122 513.387 415.735 515.998 419.115C518.608 422.489 518.011 427.364 514.658 429.983C508.383 434.884 501.169 436.967 491.815 436.967Z" fill="#6C8894"/>
<path d="M631.333 436.967C621.973 436.967 614.752 434.884 608.497 429.983C605.132 427.364 604.541 422.489 607.145 419.115C609.755 415.735 614.606 415.122 617.953 417.748C624.767 423.089 635.925 422.738 663.867 416.323C668.02 415.371 672.16 417.971 673.106 422.15C674.04 426.316 671.443 430.475 667.302 431.427C652.347 434.865 640.751 436.967 631.333 436.967Z" fill="#6C8894"/>
<path d="M491.813 436.967C482.389 436.967 470.793 434.865 455.838 431.427C452.256 430.609 449.837 427.396 449.843 423.85C449.843 423.287 449.907 422.719 450.04 422.15L450.681 420.712C451.653 422.802 453.431 424.488 455.838 425.038C470.793 428.475 482.389 430.577 491.813 430.577C501.167 430.577 508.381 428.495 514.656 423.594C515.646 422.821 516.313 421.831 516.809 420.757C518.225 423.945 517.507 427.753 514.656 429.983C514.529 430.086 514.402 430.181 514.275 430.277C511.69 432.239 508.947 433.727 505.962 434.794C501.796 436.29 497.154 436.967 491.813 436.967Z" fill="#5A717B"/>
<path d="M631.331 436.967C625.99 436.967 621.341 436.29 617.175 434.794C614.184 433.721 611.435 432.232 608.856 430.264C608.736 430.175 608.615 430.079 608.495 429.983C605.63 427.753 604.913 423.939 606.329 420.757C606.831 421.831 607.498 422.821 608.495 423.594C614.75 428.495 621.97 430.577 631.331 430.577C640.748 430.577 652.344 428.475 667.299 425.038C669.706 424.488 671.484 422.795 672.456 420.7L673.103 422.15C673.23 422.719 673.294 423.287 673.294 423.85C673.301 427.396 670.875 430.609 667.299 431.427C652.344 434.865 640.748 436.967 631.331 436.967Z" fill="#5A717B"/>
<path d="M459.859 155.805C459.859 171.216 449.521 183.707 436.763 183.707C424.011 183.707 413.666 171.216 413.666 155.805V118.619C413.666 103.214 424.011 90.7356 436.763 90.7356C449.521 90.7356 459.859 103.214 459.859 118.619V155.805Z" fill="#839CA6"/>
<path d="M706.283 155.805C706.283 171.216 695.939 183.707 683.174 183.707C670.429 183.707 660.078 171.216 660.078 155.805V118.619C660.078 103.214 670.429 90.7356 683.174 90.7356C695.939 90.7356 706.283 103.214 706.283 118.619V155.805Z" fill="#839CA6"/>
<path d="M690.883 147.197C690.883 247.919 660.077 278.914 559.976 278.914C459.861 278.914 429.062 247.919 429.062 147.197C429.062 54.226 487.67 -0.000335693 559.976 -0.000335693C632.269 -0.000335693 690.883 54.226 690.883 147.197Z" fill="#C5D3D4"/>
<path d="M559.975 281.471C559.886 281.471 559.797 281.471 559.708 281.471C559.67 281.471 559.626 281.471 559.594 281.471C559.537 281.471 559.48 281.471 559.429 281.471C559.391 281.471 559.353 281.471 559.314 281.471C559.257 281.471 559.207 281.471 559.15 281.471C559.111 281.471 559.067 281.471 559.029 281.471C558.991 281.471 558.933 281.471 558.895 281.471C558.838 281.471 558.787 281.471 558.73 281.471C558.705 281.471 558.68 281.471 558.648 281.471C558.584 281.471 558.521 281.471 558.457 281.471C558.444 281.471 558.425 281.471 558.413 281.471C515.713 281.33 485.802 275.407 465.57 260.68C482.709 265.344 503.666 267.389 529.175 267.389C629.277 267.389 660.076 236.394 660.076 135.685C660.076 75.3631 635.323 31.481 598.249 8.01288C649.979 23.3218 688.12 70.4368 690.743 141.851C690.755 142.279 690.768 142.713 690.787 143.141V143.167C690.787 143.307 690.794 143.448 690.8 143.588V143.595C690.8 143.735 690.806 143.876 690.806 144.017L690.813 144.029C690.813 144.17 690.819 144.304 690.819 144.438C690.819 144.464 690.819 144.47 690.819 144.496C690.825 144.764 690.831 145.039 690.838 145.314C690.838 145.326 690.838 145.339 690.838 145.358C690.844 145.493 690.844 145.62 690.851 145.755C690.851 145.774 690.851 145.793 690.851 145.812C690.851 145.94 690.851 146.074 690.857 146.208V146.221C690.857 146.355 690.863 146.489 690.863 146.623C690.863 146.649 690.863 146.662 690.863 146.687C690.863 146.822 690.87 146.949 690.87 147.083C690.87 147.096 690.87 147.115 690.87 147.128C690.87 147.256 690.87 147.39 690.876 147.518C690.876 147.531 690.876 147.537 690.876 147.55C690.876 147.678 690.876 147.812 690.876 147.94C690.876 147.972 690.876 147.997 690.876 148.023C690.876 148.15 690.882 148.285 690.882 148.412C690.882 148.432 690.882 148.438 690.882 148.451C690.882 148.579 690.882 148.694 690.882 148.821C690.882 148.84 690.882 148.873 690.882 148.892C690.882 149.019 690.882 149.147 690.882 149.275C690.882 149.301 690.882 149.333 690.882 149.358C690.882 149.486 690.882 149.626 690.882 149.754C690.882 207.527 680.753 242.362 653.212 261.562C632.744 275.835 602.656 281.471 559.975 281.471Z" fill="#9FAAAD"/>
<path d="M559.974 261.178C483.623 261.178 444.885 222.222 444.885 145.39C444.885 83.4132 483.617 51.984 559.961 51.984C636.331 51.9904 675.05 83.4132 675.05 145.39C675.05 225.474 639.564 261.178 559.974 261.178Z" fill="#1F2A31"/>
<path d="M559.973 253.426C487.711 253.426 452.587 218.086 452.587 145.388C452.587 87.7564 487.705 59.7263 559.96 59.7263C632.221 59.7327 667.339 87.7628 667.339 145.388C667.339 222.131 636.235 253.426 559.973 253.426Z" fill="#070A0E"/>
<path d="M485.439 185.956C485.439 198.185 486.899 210.127 489.446 221.596C477.196 202.293 470.039 179.522 470.039 154.955C470.039 120.951 483.591 90.1859 505.532 67.7977C516.245 64.7819 528.488 62.9928 542.193 62.2963C507.462 92.0516 485.439 136.368 485.439 185.956Z" fill="#EAEAE8"/>
</svg>
