<svg width="12" height="12" viewBox="0 0 12 12" fill="none" xmlns="http://www.w3.org/2000/svg">
<path fill-rule="evenodd" clip-rule="evenodd" d="M4.61235 2.43625C4.80735 2.63125 4.80735 2.94825 4.61235 3.14325L3.90535 3.85025C3.71035 4.04525 3.79935 4.30225 3.90535 4.55725C4.15635 5.16125 4.70135 5.76525 5.46735 6.53225C6.32135 7.38625 6.83735 7.78425 7.44135 8.09425C7.68635 8.22025 7.95335 8.28925 8.14835 8.09425L8.85535 7.38825C9.05035 7.19225 9.36735 7.19225 9.56235 7.38825L10.9764 8.80325C11.1724 8.99825 11.1724 9.31525 10.9764 9.51025L9.50835 10.9773C9.33535 11.1503 9.06335 11.1733 8.86435 11.0303C8.86435 11.0303 5.95345 10.24 3.87645 8.16205C1.71045 5.99505 0.969351 3.13225 0.969351 3.13225C0.827351 2.93325 0.850351 2.66125 1.02335 2.48825L2.49135 1.02125C2.68635 0.82625 3.00335 0.82625 3.19835 1.02125L4.61235 2.43625Z" fill="#333333"/>
</svg>
